<?xml version="1.0" encoding="UTF-8"?>
<svg width="20px" height="20px" viewBox="0 0 20 20" version="1.1" xmlns="http://www.w3.org/2000/svg" xmlns:xlink="http://www.w3.org/1999/xlink">
    <!-- Generator: Sketch 60.1 (88133) - https://sketch.com -->
    <title>02 - icon/calendario-eventi</title>
    <desc>Created with Sketch.</desc>
    <g id="02---icon/calendario-eventi" stroke="none" stroke-width="1" fill="none" fill-rule="evenodd">
        <g id="giorni-inattivita" transform="translate(2.000000, 2.000000)" fill="#000000" fill-rule="nonzero">
            <path d="M14.5,1 L13,1 L13,0.5 C13,0.224 12.776,0 12.5,0 C12.224,0 12,0.224 12,0.5 L12,1 L4,1 L4,0.5 C4,0.224 3.776,0 3.5,0 C3.224,0 3,0.224 3,0.5 L3,1 L1.5,1 C0.673,1 0,1.673 0,2.5 L0,14.5 C0,15.327 0.673,16 1.5,16 L14.5,16 C15.327,16 16,15.327 16,14.5 L16,2.5 C16,1.673 15.327,1 14.5,1 Z M1.5,2 L3,2 L3,2.5 C3,2.776 3.224,3 3.5,3 C3.776,3 4,2.776 4,2.5 L4,2 L12,2 L12,2.5 C12,2.776 12.224,3 12.5,3 C12.776,3 13,2.776 13,2.5 L13,2 L14.5,2 C14.776,2 15,2.224 15,2.5 L15,5 L1,5 L1,2.5 C1,2.224 1.224,2 1.5,2 Z M14.5,15 L1.5,15 C1.224,15 1,14.776 1,14.5 L1,6 L15,6 L15,14.5 C15,14.776 14.776,15 14.5,15 Z" id="Shape"></path>
            <g id="Group-2" transform="translate(2.000000, 7.146845)">
                <path d="M2.5,6 L0.5,6 C0.224,6 0,5.776 0,5.5 C0,5.224 0.224,5 0.5,5 L2.5,5 C2.776,5 3,5.224 3,5.5 C3,5.776 2.776,6 2.5,6 Z" id="Shape"></path>
                <path d="M11.5579007,6 L9.55790071,6 C9.28190071,6 9.05790071,5.776 9.05790071,5.5 C9.05790071,5.224 9.28190071,5 9.55790071,5 L11.5579007,5 C11.8339007,5 12.0579007,5.224 12.0579007,5.5 C12.0579007,5.776 11.8339007,6 11.5579007,6 Z" id="Shape"></path>
                <path d="M7.02895036,6 L5.02895036,6 C4.75295036,6 4.52895036,5.776 4.52895036,5.5 C4.52895036,5.224 4.75295036,5 5.02895036,5 L7.02895036,5 C7.30495036,5 7.52895036,5.224 7.52895036,5.5 C7.52895036,5.776 7.30495036,6 7.02895036,6 Z" id="Shape"></path>
                <g id="Group-3" transform="translate(0.000000, 0.500000)">
                    <path d="M11.5579007,2 L9.55790071,2 C9.28190071,2 9.05790071,1.776 9.05790071,1.5 C9.05790071,1.224 9.28190071,1 9.55790071,1 L11.5579007,1 C11.8339007,1 12.0579007,1.224 12.0579007,1.5 C12.0579007,1.776 11.8339007,2 11.5579007,2 Z" id="Shape"></path>
                    <path d="M0.817167921,1.54789683 L0.150937579,2.21496375 C-0.0502352306,2.41644076 -0.0502867605,2.74313794 0.150989109,2.94466655 C0.34443243,3.13835277 0.681128931,3.14356383 0.879776774,2.94466655 L1.54595559,2.27759963 C1.54595559,2.27759963 2.21105227,2.94353146 2.21218593,2.94466655 C2.40557772,3.13830118 2.74242881,3.14346064 2.94097359,2.94466655 C3.14219793,2.74318953 3.14219793,2.41649236 2.94097359,2.21496375 L2.27474325,1.54789683 L2.94097359,0.880829907 C3.14219793,0.679352892 3.14219793,0.35265572 2.94097359,0.15112711 C2.73974925,-0.0504014998 2.4134618,-0.0503499052 2.21218593,0.15112711 L1.54595559,0.818245626 L0.879725244,0.151178704 C0.678500905,-0.0502983105 0.352213448,-0.0502983105 0.150937579,0.151178704 C-0.0503382904,0.35265572 -0.0502867605,0.679352892 0.150937579,0.880881502 L0.817167921,1.54789683 Z" id="Shape"></path>
                    <path d="M5.31716792,1.54789683 L4.65093758,2.21496375 C4.44976477,2.41644076 4.44971324,2.74313794 4.65098911,2.94466655 C4.84443243,3.13835277 5.18112893,3.14356383 5.37977677,2.94466655 L6.04595559,2.27759963 C6.04595559,2.27759963 6.71105227,2.94353146 6.71218593,2.94466655 C6.90557772,3.13830118 7.24242881,3.14346064 7.44097359,2.94466655 C7.64219793,2.74318953 7.64219793,2.41649236 7.44097359,2.21496375 L6.77474325,1.54789683 L7.44097359,0.880829907 C7.64219793,0.679352892 7.64219793,0.35265572 7.44097359,0.15112711 C7.23974925,-0.0504014998 6.9134618,-0.0503499052 6.71218593,0.15112711 L6.04595559,0.818245626 L5.37972524,0.151178704 C5.1785009,-0.0502983105 4.85221345,-0.0502983105 4.65093758,0.151178704 C4.44966171,0.35265572 4.44971324,0.679352892 4.65093758,0.880881502 L5.31716792,1.54789683 Z" id="Shape"></path>
                </g>
            </g>
        </g>
    </g>
</svg>