<?xml version="1.0" encoding="UTF-8"?>
<svg width="20px" height="20px" viewBox="0 0 20 20" version="1.1" xmlns="http://www.w3.org/2000/svg" xmlns:xlink="http://www.w3.org/1999/xlink">
    <!-- Generator: Sketch 60.1 (88133) - https://sketch.com -->
    <title>02 - icon/calendario</title>
    <desc>Created with Sketch.</desc>
    <g id="02---icon/calendario" stroke="none" stroke-width="1" fill="none" fill-rule="evenodd">
        <path d="M14.5,2 C14.776,2 15,2.224 15,2.5 L15,2.5 L15,3 L16.5,3 C17.327,3 18,3.673 18,4.5 L18,4.5 L18,16.5 C18,17.327 17.327,18 16.5,18 L16.5,18 L3.5,18 C2.673,18 2,17.327 2,16.5 L2,16.5 L2,4.5 C2,3.673 2.673,3 3.5,3 L3.5,3 L5,3 L5,2.5 C5,2.224 5.224,2 5.5,2 C5.776,2 6,2.224 6,2.5 L6,2.5 L6,3 L14,3 L14,2.5 C14,2.224 14.224,2 14.5,2 Z M17,8 L3,8 L3,16.5 C3,16.776 3.224,17 3.5,17 L3.5,17 L16.5,17 C16.776,17 17,16.776 17,16.5 L17,16.5 L17,8 Z M13.0163621,9.64616048 L13.1506499,9.65068615 C13.333667,9.66354449 13.4764909,9.70358858 13.5793618,9.775359 C13.7176103,9.87181145 13.7853972,10.0278789 13.7853972,10.2295931 C13.7853972,10.3616499 13.7155696,10.5151322 13.5811998,10.6987267 L13.316823,11.0525643 C13.269056,11.1153671 13.2194364,11.1800856 13.1679636,11.2467209 C13.0182843,11.4404918 12.8630053,11.6827503 12.702493,11.9733129 C12.5433262,12.2614395 12.3967032,12.6154379 12.2635517,13.0335442 C12.2074664,13.2181585 12.1679492,13.3704158 12.1450146,13.4896756 L12.0948203,13.7831084 L12.0080691,14.3389167 C12.0021357,14.3715982 11.9964138,14.4014106 11.9908999,14.4283671 C11.936547,14.6923669 11.8573069,14.880812 11.7459275,14.9950844 C11.6301144,15.1139056 11.4761408,15.1732418 11.2918734,15.1732418 C11.1118733,15.1732418 10.9612253,15.1079097 10.8492623,14.9793035 C10.739319,14.8530173 10.6869132,14.6752624 10.6869132,14.4502462 C10.6869132,14.2861506 10.7204883,14.0697771 10.787007,13.7987753 C10.8528694,13.5304471 10.9595019,13.2111554 11.1068785,12.8402977 C11.2544627,12.4689178 11.4387134,12.0883344 11.6595779,11.6985026 C11.8255551,11.4055482 12.014861,11.1138204 12.2274695,10.8233085 L12.296675,10.7301292 L10.6242524,10.7306824 L10.4768159,10.7233532 C10.3255867,10.7076377 10.2025638,10.6668086 10.1089677,10.5980211 C9.976341,10.5005485 9.91074219,10.3495922 9.91074219,10.1580566 C9.91074219,9.94987825 9.98550218,9.79865918 10.1396907,9.72857351 C10.2320508,9.6865916 10.3468278,9.66118769 10.4846431,9.65110961 L10.6301609,9.64609375 L13.0163621,9.64616048 Z M7.92883771,9.57871094 C8.30987945,9.57871094 8.63784541,9.63902652 8.91337949,9.76149355 C9.09460858,9.84434113 9.25416633,9.95849627 9.39135373,10.103449 C9.52839569,10.248248 9.63510509,10.4157495 9.71114787,10.605212 C9.78730951,10.7949706 9.82547645,10.9922743 9.82547645,11.1962919 C9.82547645,11.5141054 9.746158,11.8049397 9.58777415,12.0663374 C9.43528323,12.3180094 9.27834005,12.5168458 9.11594967,12.6627434 L8.67011851,13.0437888 L8.34420506,13.3122276 C8.04985371,13.5527938 7.83320181,13.7479019 7.69379183,13.8976961 L7.59478887,14.0107111 L9.22702158,14.0116172 L9.36574462,14.0194099 C9.509584,14.0361476 9.62875976,14.079583 9.72125164,14.1517718 C9.8491889,14.2516252 9.91491804,14.3910993 9.91491804,14.5592957 C9.91491804,14.7072489 9.8642915,14.8365413 9.76480185,14.9406228 C9.6823558,15.026874 9.5702625,15.0771247 9.432346,15.0937749 L9.32412652,15.0999999 L6.68205189,15.0996741 L6.54542703,15.0892715 C6.40151857,15.0669037 6.28063266,15.0092397 6.18654789,14.916275 C6.06349115,14.7946832 6,14.647293 6,14.4805871 C6,14.3741253 6.03655903,14.2448146 6.10751077,14.088458 C6.17707992,13.9351482 6.25445153,13.8125339 6.34186827,13.7196661 C6.58097653,13.4715688 6.80270514,13.2499548 7.007104,13.0547924 L7.20572813,12.8684462 C7.37875468,12.7091648 7.51909084,12.5861066 7.62721436,12.4990045 L7.76529986,12.3952851 C7.95439522,12.2615347 8.11088723,12.1279719 8.23481869,11.9949446 C8.35635475,11.8644885 8.448007,11.7319792 8.51031704,11.5975207 C8.57108381,11.4663924 8.60096145,11.3400676 8.60096145,11.2177579 C8.60096145,11.0869063 8.57041234,10.9722219 8.50942841,10.8712485 C8.44808845,10.7696856 8.36538593,10.691467 8.25954711,10.6350196 C8.15220939,10.5777728 8.03541521,10.5492118 7.90737173,10.5492118 C7.63678759,10.5492118 7.42931114,10.6650361 7.271981,10.9062642 L7.2427778,10.9673218 L7.16575616,11.1723122 C7.10536032,11.3445045 7.03587902,11.4795342 6.95536044,11.5777942 C6.8603213,11.6937742 6.7220832,11.7513068 6.55143722,11.7513068 C6.40039862,11.7513068 6.27020923,11.6995448 6.16814097,11.5974765 C6.06513195,11.4944675 6.01431065,11.3558639 6.01431065,11.1891366 C6.01431065,11.0078415 6.05465861,10.8204188 6.13447878,10.6273055 C6.21472628,10.4331583 6.33424852,10.2574283 6.49227269,10.1006889 C6.6511773,9.94307617 6.85120563,9.81677623 7.0913427,9.72148375 C7.33196818,9.62599744 7.61127381,9.57871094 7.92883771,9.57871094 Z M5,4 L3.5,4 C3.224,4 3,4.224 3,4.5 L3,4.5 L3,7 L17,7 L17,4.5 C17,4.224 16.776,4 16.5,4 L16.5,4 L15,4 L15,4.5 C15,4.776 14.776,5 14.5,5 C14.224,5 14,4.776 14,4.5 L14,4.5 L14,4 L6,4 L6,4.5 C6,4.776 5.776,5 5.5,5 C5.224,5 5,4.776 5,4.5 L5,4.5 L5,4 Z" id="Shape" fill="#000000"></path>
    </g>
</svg>