<?xml version="1.0" encoding="UTF-8"?>
<svg xmlns="http://www.w3.org/2000/svg" xmlns:xlink="http://www.w3.org/1999/xlink" width="64pt" height="64pt" viewBox="0 0 64 64" version="1.1">
<g id="surface1">
<path style=" stroke:none;fill-rule:evenodd;fill:rgb(60%,60%,60%);fill-opacity:1;" d="M 44.253906 31.046875 C 45.085938 31.046875 45.777344 31.636719 45.917969 32.417969 L 45.945312 32.714844 L 45.945312 33.355469 C 47.230469 33.722656 48.359375 34.535156 49.105469 35.667969 C 49.613281 36.441406 49.390625 37.476562 48.605469 37.976562 C 47.910156 38.421875 47.003906 38.296875 46.453125 37.722656 L 46.265625 37.484375 C 45.863281 36.878906 45.191406 36.5 44.316406 36.464844 L 44.253906 36.464844 L 44.125 36.460938 L 44.113281 36.460938 C 43.210938 36.386719 42.40625 36.96875 42.179688 37.804688 L 42.15625 37.925781 L 42.179688 38.050781 C 42.378906 38.792969 43.039062 39.335938 43.820312 39.394531 L 44.117188 39.394531 C 46.800781 39.179688 49.179688 41 49.675781 43.558594 L 49.742188 44.015625 L 49.742188 44.34375 C 49.527344 46.550781 47.921875 48.300781 45.945312 48.832031 L 45.945312 49.390625 C 45.945312 50.3125 45.1875 51.058594 44.253906 51.058594 C 43.421875 51.058594 42.730469 50.46875 42.585938 49.691406 L 42.558594 49.390625 L 42.558594 48.765625 C 41.277344 48.394531 40.144531 47.582031 39.398438 46.445312 C 38.886719 45.675781 39.113281 44.640625 39.898438 44.140625 C 40.59375 43.695312 41.5 43.820312 42.050781 44.394531 L 42.238281 44.632812 C 42.628906 45.21875 43.265625 45.589844 44.097656 45.648438 C 44.148438 45.640625 44.199219 45.640625 44.253906 45.640625 C 44.34375 45.640625 44.429688 45.648438 44.511719 45.660156 L 44.390625 45.65625 C 45.292969 45.726562 46.097656 45.144531 46.320312 44.308594 L 46.34375 44.183594 L 46.320312 44.0625 C 46.121094 43.316406 45.464844 42.777344 44.6875 42.714844 L 44.390625 42.714844 C 41.703125 42.933594 39.316406 41.113281 38.824219 38.550781 L 38.757812 38.09375 L 38.757812 37.761719 C 38.980469 35.554688 40.585938 33.8125 42.558594 33.28125 L 42.558594 32.714844 C 42.558594 31.792969 43.316406 31.046875 44.253906 31.046875 Z M 36.785156 9.847656 C 37.855469 9.847656 38.886719 10.261719 39.660156 11 L 39.746094 11.082031 L 45.097656 16.46875 C 45.851562 17.234375 46.289062 18.257812 46.320312 19.335938 L 46.320312 25.324219 C 46.320312 26.097656 45.695312 26.726562 44.925781 26.726562 C 44.175781 26.726562 43.566406 26.136719 43.53125 25.390625 L 43.527344 25.320312 L 43.527344 19.453125 C 43.527344 19.105469 43.398438 18.769531 43.171875 18.511719 L 43.121094 18.457031 L 37.769531 13.074219 C 37.527344 12.828125 37.199219 12.679688 36.859375 12.664062 L 36.785156 12.660156 L 16.988281 12.660156 C 16.242188 12.660156 15.628906 13.253906 15.59375 14 L 15.59375 45.015625 C 15.59375 45.769531 16.183594 46.386719 16.921875 46.421875 L 28.164062 46.421875 C 28.933594 46.421875 29.5625 47.054688 29.5625 47.832031 C 29.5625 48.585938 28.972656 49.199219 28.230469 49.234375 L 28.164062 49.238281 L 16.988281 49.238281 C 14.710938 49.238281 12.855469 47.402344 12.800781 45.117188 L 12.800781 14.066406 C 12.800781 11.769531 14.621094 9.898438 16.890625 9.847656 L 16.992188 9.84375 L 36.785156 9.84375 Z M 31.15625 35.191406 C 31.929688 35.191406 32.554688 35.820312 32.554688 36.597656 C 32.554688 37.351562 31.964844 37.96875 31.222656 38.003906 L 20.585938 38.003906 C 19.816406 38.003906 19.191406 37.375 19.191406 36.597656 C 19.191406 35.84375 19.78125 35.230469 20.519531 35.191406 Z M 33.550781 28.117188 C 34.324219 28.117188 34.949219 28.746094 34.949219 29.523438 C 34.949219 30.277344 34.359375 30.894531 33.617188 30.929688 L 20.585938 30.929688 C 19.816406 30.929688 19.191406 30.300781 19.191406 29.523438 C 19.191406 28.769531 19.78125 28.152344 20.519531 28.117188 Z M 37.328125 21.042969 C 38.101562 21.042969 38.726562 21.671875 38.726562 22.449219 C 38.726562 23.203125 38.136719 23.816406 37.398438 23.855469 L 20.585938 23.855469 C 19.816406 23.855469 19.191406 23.226562 19.191406 22.449219 C 19.191406 21.695312 19.78125 21.078125 20.519531 21.042969 Z M 37.328125 21.042969 "/>
</g>
</svg>
