<?xml version="1.0" encoding="UTF-8"?>
<svg width="20px" height="20px" viewBox="0 0 20 20" version="1.1" xmlns="http://www.w3.org/2000/svg" xmlns:xlink="http://www.w3.org/1999/xlink">
    <!-- Generator: Sketch 60.1 (88133) - https://sketch.com -->
    <title>02 - icon/copia</title>
    <desc>Created with Sketch.</desc>
    <g id="02---icon/copia" stroke="none" stroke-width="1" fill="none" fill-rule="evenodd">
        <path d="M7.39999997,2.00028616 L13.7938612,2.00159308 C13.9263948,2.00162017 14.0534957,2.05426545 14.1472323,2.14795963 L17.8577138,5.85676092 C17.951584,5.95058867 18.0042979,6.07788843 18.0042404,6.21061095 L18.0006064,14.6000001 C17.9996651,15.3729616 17.3729618,15.9993934 16.6,16 L13.9999999,16 L14.0006064,16.6000001 C13.9996651,17.3729616 13.3729618,17.9993934 12.6,18 L3.4,18 C2.62680135,18 2,17.3731986 2,16.6 L2,5.4 C1.99971387,4.62680135 2.62651522,4 3.39971387,4 L3.39985694,4.00003577 L5.9999999,4 L6,3.4 C5.9997307,2.67228362 6.55494373,2.0742479 7.26488458,2.00640881 L7.39971387,2 C7.39980925,2 7.39990464,2.00000001 7.39999997,2.00028616 Z M3.49986376,5 C3.22372138,5 2.99986376,5.22385763 3,5.5 L3,5.5 L3,16.5 C3,16.7761424 3.22385763,17 3.5,17 L3.5,17 L12.5,17 C12.7760366,16.9997292 12.9998505,16.7760365 13.0002707,16.5000001 L13.0002707,16.5000001 L13.0043302,9.00331097 L10.9999993,9.00165369 C9.89591256,8.99950776 9.00142163,8.10408843 9.00042105,7.00000004 L9.00042105,7.00000004 L9.00084176,5.00163539 L3.49999998,5.00013626 C3.4999546,5.00000001 3.49990918,5 3.49986376,5 Z M7.49999998,3.00013626 C7.4999546,3.00000001 7.49990918,3 7.49986376,3 L7.40998831,3.00805567 C7.1767406,3.05039163 6.99987889,3.25454011 7,3.5 L7,3.5 L6.9999999,4.001 L9.79386117,4.00159308 C9.92639476,4.00162017 10.0534957,4.05426545 10.1472323,4.14795963 L13.8577138,7.85676092 C13.951584,7.95058867 14.0042979,8.07788843 14.0042404,8.21061095 L14.0009999,15 L16.5,15 C16.7453659,14.9997593 16.9494693,14.8229877 16.9920916,14.5898389 L17.0002707,14.5000001 L17.0043302,7.00331097 L14.9999993,7.00165369 C13.8959126,6.99950776 13.0014216,6.10408843 13.0004211,5.00000004 L13.0004211,5.00000004 L13.0008418,3.00163539 Z M8.5,14 C8.77614237,14 9,14.2238576 9,14.5 C9,14.7761424 8.77614237,15 8.5,15 L5.5,15 C5.22385763,15 5,14.7761424 5,14.5 C5,14.2238576 5.22385763,14 5.5,14 L8.5,14 Z M10.5,12 C10.7761424,12 11,12.2238576 11,12.5 C11,12.7761424 10.7761424,13 10.5,13 L5.5,13 C5.22385763,13 5,12.7761424 5,12.5 C5,12.2238576 5.22385763,12 5.5,12 L10.5,12 Z M10.5,10 C10.7761424,10 11,10.2238576 11,10.5 C11,10.7761424 10.7761424,11 10.5,11 L5.5,11 C5.22385763,11 5,10.7761424 5,10.5 C5,10.2238576 5.22385763,10 5.5,10 L10.5,10 Z M10.0142436,5.54841232 L10,7.11509178 C10,7.61579909 10.3632922,8 10.8290377,8 L12.5520729,7.99235319 L10.0142436,5.54841232 Z M14.0142436,3.54841232 L14,5.11509178 C14,5.61579909 14.3632922,6 14.8290377,6 L16.5520729,5.99235319 L14.0142436,3.54841232 Z" id="Shape" fill="#000000"></path>
    </g>
</svg>