<?xml version="1.0" encoding="UTF-8"?>
<svg width="20px" height="20px" viewBox="0 0 20 20" version="1.1" xmlns="http://www.w3.org/2000/svg" xmlns:xlink="http://www.w3.org/1999/xlink">
    <!-- Generator: Sketch 60.1 (88133) - https://sketch.com -->
    <title>02 - icon/csv</title>
    <desc>Created with Sketch.</desc>
    <g id="02---icon/csv" stroke="none" stroke-width="1" fill="none" fill-rule="evenodd">
        <path d="M13.5351234,2.00531092 L13.7967359,2.00531092 C13.9267163,2.00531092 14.0515879,2.05592761 14.1448823,2.146432 L17.8481464,5.73894759 C17.9452161,5.83311431 18,5.96258639 18,6.0978265 L18,16.6344086 C18,17.4195396 17.348817,18.0512485 16.5548961,18.0512485 L5.44510386,18.0512485 C4.65118299,18.0512485 4,17.4195396 4,16.6344086 L4,15.9905688 L5,15.9905688 L5,16.6334058 C5,16.8593434 5.19678734,17.0502457 5.44510386,17.0502457 L16.5548961,17.0502457 C16.8032127,17.0502457 17,16.8593434 17,16.6334058 L17,6.72275655 L15.0237389,6.72275655 C13.9069594,6.72275655 13,5.81207835 13,4.69276993 L13,3.00430807 L5.44510386,3.00430807 C5.19678734,3.00430807 5,3.19521036 5,3.42114799 L5,6.0039894 L4,6.0039894 L4,3.42215083 C4,2.63701986 4.65118299,2.00531092 5.44510386,2.00531092 L13.4720341,2.00531092 C13.4929723,2.00398273 13.5140453,2.00396489 13.5351234,2.00531092 Z M14,7 C15.1045695,7 16,7.8954305 16,9 L16,13 C16,14.1045695 15.1045695,15 14,15 L4,15 C2.8954305,15 2,14.1045695 2,13 L2,9 C2,7.8954305 2.8954305,7 4,7 L14,7 Z M14,8 L4,8 C3.44771525,8 3,8.44771525 3,9 L3,13 C3,13.5522847 3.44771525,14 4,14 L14,14 C14.5522847,14 15,13.5522847 15,13 L15,9 C15,8.44771525 14.5522847,8 14,8 Z M5.86188593,9 C6.17618852,9 6.4581439,9.06315089 6.70640836,9.18996223 C6.95374486,9.31629958 7.14540488,9.47421664 7.27981537,9.66402605 C7.41559185,9.85576446 7.4852831,10.0417647 7.4852831,10.2217319 C7.4852831,10.3343164 7.44481846,10.435478 7.36650301,10.5203197 C7.2862017,10.6073128 7.18498617,10.6526853 7.06939217,10.6526853 C6.94876822,10.6526853 6.85104324,10.6218247 6.78108745,10.5555508 C6.74256005,10.5190512 6.70347938,10.468457 6.66289858,10.4033168 L6.60078392,10.2946405 C6.51132809,10.1265253 6.40811682,10.0032767 6.29196552,9.9233764 C6.17942122,9.84595739 6.03866924,9.80667777 5.86690674,9.80667777 C5.5932739,9.80667777 5.38062039,9.9080803 5.21955631,10.1144205 C5.05436545,10.3260475 4.96985429,10.6337148 4.96985429,11.0401249 C4.96985429,11.3129453 5.00767648,11.5371206 5.08189461,11.7126155 C5.15410669,11.883367 5.25409803,12.0079885 5.38216375,12.0894849 C5.51166008,12.1718917 5.66406535,12.2133222 5.84180266,12.2133222 C6.03450672,12.2133222 6.19379799,12.1666017 6.32286324,12.0739956 C6.452578,11.9809234 6.55160371,11.8425841 6.61865716,11.6594865 C6.65399334,11.5516182 6.69863749,11.4618549 6.75344961,11.3904034 C6.82257098,11.3002988 6.92968826,11.2568568 7.06437136,11.2568568 C7.18099101,11.2568568 7.28394884,11.2987188 7.36754072,11.3801109 C7.45206165,11.4624076 7.49532473,11.5671497 7.49532473,11.6878102 C7.49532473,11.8202607 7.46328161,11.9609718 7.40024204,12.1098913 C7.33726915,12.2586534 7.23934781,12.4030535 7.10716537,12.5432741 C6.97277919,12.6858324 6.80231881,12.8008255 6.5967446,12.888418 C6.39025275,12.9764015 6.15179554,13.02 5.88196919,13.02 C5.68001907,13.02 5.49539855,13.0007505 5.32810802,12.9620095 C5.15841385,12.9227119 5.00361422,12.8612407 4.86411971,12.777544 C4.72424237,12.6936176 4.59620368,12.5835493 4.47950279,12.447093 C4.37656384,12.3246311 4.28884632,12.1877387 4.21638377,12.0366277 C4.14403156,11.8857469 4.08983315,11.7249142 4.05377814,11.5543125 C4.01789184,11.384509 4,11.2047179 4,11.0150208 C4,10.7066743 4.04511968,10.4289473 4.13587175,10.1822426 C4.22709964,9.93424449 4.35839856,9.72105065 4.52959962,9.54360789 C4.70073527,9.36623292 4.90164121,9.23095625 5.13147839,9.13830871 C5.3602635,9.04608525 5.60398357,9 5.86188593,9 Z M9.16063697,9 C9.39764483,9 9.60453136,9.02968179 9.7813057,9.08980302 C9.95842534,9.15004168 10.107152,9.23099989 10.2268208,9.33317864 C10.3461264,9.4350473 10.434813,9.54380504 10.4918735,9.65982818 C10.5490428,9.77607237 10.5781807,9.89165265 10.5781807,10.0058368 C10.5781807,10.1211345 10.5369639,10.2260998 10.4572453,10.3164475 C10.3742221,10.4105405 10.2667668,10.4593838 10.1422065,10.4593838 C10.0311786,10.4593838 9.93974696,10.4292999 9.87338139,10.3654387 C9.83747418,10.3308865 9.80151755,10.2845349 9.76413252,10.2248527 L9.70681129,10.1251399 C9.64618698,9.99934444 9.57498336,9.90329373 9.49387647,9.83594604 C9.42268649,9.77683293 9.29527219,9.74391757 9.11042881,9.74391757 C8.93892631,9.74391757 8.80538246,9.78027317 8.70712176,9.85065849 C8.61573838,9.91611751 8.5748751,9.98654146 8.5748751,10.068597 C8.5748751,10.1196267 8.58781582,10.1606057 8.61370275,10.1951216 C8.64424212,10.2358407 8.68769581,10.2720521 8.74514794,10.303514 C8.80903912,10.338502 8.87333045,10.3657313 8.93808249,10.3853075 L9.17424617,10.4498666 L9.49215272,10.5299496 C9.62425582,10.5652024 9.74765811,10.6027926 9.86237741,10.6427446 C10.0396481,10.7044807 10.191712,10.7800679 10.3183935,10.869913 C10.4503345,10.9634882 10.5537769,11.0824469 10.6277476,11.2257066 C10.7022749,11.3700444 10.7388468,11.5436451 10.7388468,11.7455495 C10.7388468,11.9884847 10.6757309,12.2086994 10.5497342,12.4036723 C10.4235258,12.598973 10.239707,12.7511621 10.000759,12.8597748 C9.76504898,12.9669157 9.48812611,13.02 9.1706786,13.02 C8.78976916,13.02 8.47180854,12.947171 8.21752434,12.799287 C8.03555308,12.6919239 7.88723738,12.5481718 7.7735705,12.3690328 C7.65865117,12.18792 7.6,12.0082128 7.6,11.8309034 C7.6,11.7126461 7.64225568,11.6084155 7.72452239,11.523955 C7.80789372,11.4383604 7.91562561,11.3949292 8.040995,11.3949292 C8.14614125,11.3949292 8.23870208,11.4298578 8.31322352,11.4986469 C8.35829999,11.5402559 8.39771834,11.5932421 8.43191548,11.6571062 L8.47934991,11.7609986 C8.5234051,11.8711366 8.5704058,11.9620305 8.61987911,12.0335765 C8.66387912,12.0972073 8.72694179,12.150621 8.81066929,12.1939039 C8.89253965,12.2362267 9.00578054,12.2585096 9.15059534,12.2585096 C9.34976754,12.2585096 9.50685869,12.2134695 9.6250615,12.1253546 C9.73685583,12.042017 9.78907577,11.9448563 9.78907577,11.8258826 C9.78907577,11.7307107 9.76199982,11.6586096 9.70789781,11.6032918 C9.64568388,11.5396798 9.5639384,11.4902771 9.46125852,11.4553223 L9.25996846,11.394908 L8.99814234,11.3301844 C8.72704451,11.2666995 8.49891056,11.1920924 8.31341588,11.1058765 C8.1191764,11.0155962 7.96342188,10.8911769 7.84783167,10.7330495 C7.72911087,10.5706395 7.67029142,10.3706533 7.67029142,10.136378 C7.67029142,9.91214312 7.73213078,9.71069672 7.85542827,9.53509121 C7.97830107,9.36009055 8.15484141,9.22652993 8.38245487,9.13457409 C8.60521701,9.04457818 8.86474149,9 9.16063697,9 Z M13.5815279,9 C13.6640775,9 13.7417354,9.02092907 13.8125701,9.06234013 C13.8826676,9.1033202 13.9385813,9.15868572 13.9789025,9.22734088 C14.0192098,9.29597222 14.0400958,9.36766171 14.0400958,9.440995 C14.0400958,9.48646658 14.0340442,9.53437447 14.022186,9.58477196 L14.0035682,9.65441375 L13.9355157,9.84975356 L13.0448451,12.2532779 L12.9484861,12.5182267 C12.9139565,12.6081854 12.8735769,12.6880268 12.8271523,12.7576637 C12.7760415,12.83433 12.708177,12.8970919 12.624711,12.9453614 C12.5379023,12.995564 12.4345585,13.02 12.3162823,13.02 C12.1983352,13.02 12.095315,12.996148 12.0086972,12.9470994 C11.9246769,12.8995217 11.8560556,12.8360214 11.803979,12.7573958 C11.7569106,12.6863319 11.7161928,12.6062686 11.6816995,12.5173122 L10.6634696,9.74263548 C10.6457101,9.69589998 10.6308759,9.64583456 10.6189108,9.59245216 C10.6064376,9.53680222 10.6,9.48827272 10.6,9.44601582 C10.6,9.33153111 10.6459512,9.2273004 10.7333918,9.13772709 C10.8224855,9.04646036 10.936424,9 11.0686095,9 C11.2287117,9 11.352483,9.05353828 11.4271573,9.16377185 C11.4717803,9.22964381 11.5153277,9.32068808 11.558629,9.43726518 L12.33342,11.7276085 L13.0991326,9.45376802 C13.1284536,9.36854387 13.1516479,9.30585423 13.1691932,9.26469022 C13.1980411,9.19700879 13.2447896,9.1372141 13.3079232,9.08565503 C13.3789791,9.02762605 13.4714418,9 13.5815279,9 Z M14.0172355,3.46447887 L14,4.7292947 C14,5.29723228 14.4396029,5.73302009 15.0031796,5.73302009 L16.4201062,5.72434654 L14.0172355,3.46447887 Z" id="Shape" fill="#000000"></path>
    </g>
</svg>