<?xml version="1.0" encoding="UTF-8"?>
<svg width="20px" height="20px" viewBox="0 0 20 20" version="1.1" xmlns="http://www.w3.org/2000/svg" xmlns:xlink="http://www.w3.org/1999/xlink">
    <!-- Generator: Sketch 61 (89581) - https://sketch.com -->
    <title>02 - icon/divieto</title>
    <desc>Created with Sketch.</desc>
    <g id="02---icon/divieto" stroke="none" stroke-width="1" fill="none" fill-rule="evenodd">
        <path d="M10.0000658,2 C14.4182561,2 18.0001317,5.58187563 18.0001317,10.0000658 C18.0001317,14.4182561 14.4182561,18.0001317 10.0000658,18.0001317 C5.58187563,18.0001317 2,14.4182561 2,10.0000658 C2,5.58187563 5.58187563,2 10.0000658,2 Z M3.00006583,10.0000658 C3.00006583,13.8659276 6.13420409,17.0000658 10.0000658,17.0000658 C11.7526087,17.0000658 13.354771,16.3559518 14.5827244,15.2915519 L4.70943805,5.41641731 C3.64452617,6.64449958 3.00006583,8.24705202 3.00006583,10.0000658 Z M10.0000658,3.00006583 C8.24705202,3.00006583 6.64449958,3.64452617 5.41641731,4.70943805 L15.2915519,14.5827244 C16.3559518,13.354771 17.0000658,11.7526087 17.0000658,10.0000658 C17.0000658,6.13420409 13.8659276,3.00006583 10.0000658,3.00006583 Z" id="Combined-Shape" fill="#000000"></path>
    </g>
</svg>