<?xml version="1.0" encoding="UTF-8"?>
<svg width="20px" height="20px" viewBox="0 0 20 20" version="1.1" xmlns="http://www.w3.org/2000/svg" xmlns:xlink="http://www.w3.org/1999/xlink">
    <!-- Generator: Sketch 60.1 (88133) - https://sketch.com -->
    <title>02 - icon/documenti-in-arrivo</title>
    <desc>Created with Sketch.</desc>
    <g id="02---icon/documenti-in-arrivo" stroke="none" stroke-width="1" fill="none" fill-rule="evenodd">
        <path d="M11,2 C11.5815689,2 12,2.41654807 12,3 L12,5.00131237 L16.0032973,5 C16.5423584,5.00180054 17.0023041,5.40565491 16.9969,5.99644545 C16.997359,7.70510023 16.9977185,9.04525326 16.9979787,10.0169046 L15.9999806,10.0155521 L15.9999806,6 L6.99998061,6 L6.99998061,16.6188256 C6.99998061,16.6604608 7.01728567,16.700223 7.04775494,16.7285977 C7.10838039,16.7850553 7.20329502,16.7816767 7.2597527,16.7210512 L7.2597527,16.7210512 L7.77649197,16.1661657 C7.78457584,16.1574851 7.79296606,16.1490948 7.80164669,16.141011 C8.00373153,15.9528187 8.32011363,15.9640808 8.5083059,16.1661657 L8.5083059,16.1661657 L8.91891029,16.6070814 C8.92699416,16.615762 8.93538438,16.6241522 8.94406501,16.6322361 C9.14614985,16.8204284 9.46253195,16.8091662 9.65072422,16.6070814 L9.65072422,16.6070814 L10.0613286,16.1661657 C10.0694125,16.1574851 10.0778027,16.1490948 10.0864833,16.141011 C10.2885682,15.9528187 10.6049503,15.9640808 10.7931425,16.1661657 L10.7931425,16.1661657 L11.2037469,16.6070814 C11.2118308,16.615762 11.220221,16.6241522 11.2289017,16.6322361 C11.4309865,16.8204284 11.7473686,16.8091662 11.9355609,16.6070814 L11.9355609,16.6070814 L12.3461653,16.1661657 C12.3542491,16.1574851 12.3626393,16.1490948 12.37132,16.141011 C12.5734048,15.9528187 12.8897869,15.9640808 13.0779792,16.1661657 L13.0779792,16.1661657 L13.4819863,16.5999971 C13.4920942,16.6108511 13.5026799,16.62125 13.5137122,16.6311629 C13.7191168,16.815726 14.0352482,16.7988306 14.2198113,16.593426 L14.2198113,16.593426 L14.60014,16.1701492 C14.6191814,16.1489576 14.6399992,16.1294323 14.662366,16.1117863 C14.8791621,15.9407481 15.1935639,15.9778422 15.3646021,16.1946383 L15.3646021,16.1946383 L15.7322216,16.6606072 C15.7606661,16.6966616 15.8040594,16.7176992 15.8499834,16.7176996 C15.9328261,16.7177004 15.999984,16.6505438 15.9999848,16.5677011 L15.9999848,16.5677011 L16,15 L16.9989806,15 L16.9990339,16.7814463 C16.9984514,17.0139197 16.9978761,16.9036991 17,17 C17.006446,17.2922718 16.786936,17.5954053 16.3414698,17.9094007 C16.1503352,18.0441723 15.8913183,18.0284168 15.7179026,17.8715001 L15.2232104,17.4238734 C15.0278179,17.2470708 14.7287468,17.2522578 14.5396028,17.4357297 L14.1000638,17.8620878 C13.9060146,18.0503178 13.5974931,18.050217 13.403567,17.8618602 L12.975923,17.4464977 C12.7819059,17.2580526 12.4732089,17.2580526 12.2791918,17.4464977 L11.8518476,17.861569 C11.6578017,18.0500422 11.3490491,18.0500102 11.1550422,17.861497 L10.7281972,17.4467388 C10.5339638,17.2580056 10.2247743,17.2582249 10.030809,17.4472336 L9.60387957,17.8632532 C9.40979007,18.052383 9.1003603,18.0524643 8.90617135,17.8634367 L8.47199691,17.4408023 C8.28099067,17.2548728 7.97771094,17.2514763 7.78258858,17.4330814 L7.31693593,17.8664756 C7.12986879,18.0404663 6.84171681,18.0455149 6.6487257,17.8781192 C6.23466964,17.5189774 6.02155983,17.231413 6.00939626,17.015426 C5.99417603,16.7451621 5.99417603,15.4050073 6.00939626,12.9949616 L2.99965337,13.0115345 C2.52322669,12.9969194 1.99998061,12.621615 1.99998061,11.982646 L1.99998061,3.00437794 C1.99998061,2.4119311 2.49718005,2 3.0043374,2 L11,2 Z M14.2013346,10.3553954 C14.3965968,10.1601332 14.7131792,10.1601332 14.9084414,10.3553954 C15.1037035,10.5506575 15.1037035,10.86724 14.9084414,11.0625022 L14.9084414,11.0625022 L13.9669806,12 L17.5,12 C17.7761424,12 18,12.2238576 18,12.5 C18,12.7761424 17.7761424,13 17.5,13 L13.8709806,13 L14.9044961,14.0318874 C15.0997582,14.2271495 15.0997582,14.543732 14.9044961,14.7389942 C14.7092339,14.9342563 14.3926515,14.9342563 14.1973893,14.7389942 L12.3535534,12.8988422 C12.1582912,12.7035801 12.1582912,12.3869976 12.3535534,12.1917355 L12.4039806,12.148 Z M10.5,13 C10.7761424,13 11,13.2238576 11,13.5 C11,13.7761424 10.7761424,14 10.5,14 L8.5,14 C8.22385763,14 8,13.7761424 8,13.5 C8,13.2238576 8.22385763,13 8.5,13 L10.5,13 Z M5.99998061,6 L5.99998061,12 L4.99998061,12 L4.99998061,6 L5.99998061,6 Z M10.4,11 C10.7313708,11 11,11.2238576 11,11.5 C11,11.7761424 10.7313708,12 10.4,12 L8.6,12 C8.26862915,12 8,11.7761424 8,11.5 C8,11.2238576 8.26862915,11 8.6,11 L10.4,11 Z M2.99998061,3 L11,3.00281267 L11,5 C7.39632928,4.99745469 5.39793884,4.99745469 5.00482869,5 C4.41516345,5.00381796 4.00974971,5.40794467 3.99998061,6 C3.99346788,6.39470356 3.99346788,8.39470356 3.99998061,12 L2.99998061,12 L2.99998061,3 Z M12.4,9 C12.7313708,9 13,9.22385763 13,9.5 C13,9.77614237 12.7313708,10 12.4,10 L8.6,10 C8.26862915,10 8,9.77614237 8,9.5 C8,9.22385763 8.26862915,9 8.6,9 L12.4,9 Z M14.5,7 C14.7761424,7 15,7.22385763 15,7.5 C15,7.77614237 14.7761424,8 14.5,8 L8.5,8 C8.22385763,8 8,7.77614237 8,7.5 C8,7.22385763 8.22385763,7 8.5,7 L14.5,7 Z" id="documenti-adde-accr" fill="#000000"></path>
    </g>
</svg>