<?xml version="1.0" encoding="UTF-8"?>
<svg width="20px" height="20px" viewBox="0 0 20 20" version="1.1" xmlns="http://www.w3.org/2000/svg" xmlns:xlink="http://www.w3.org/1999/xlink">
    <!-- Generator: Sketch 60.1 (88133) - https://sketch.com -->
    <title>02 - icon/documento</title>
    <desc>Created with Sketch.</desc>
    <g id="02---icon/documento" stroke="none" stroke-width="1" fill="none" fill-rule="evenodd">
        <path d="M16,2 C16.5522847,2 17,2.44771525 17,3 L17,16.666454 C17,16.8817708 16.9305029,17.0913371 16.8018439,17.2639876 L16.4006733,17.8023275 C16.2356689,18.0237505 15.9224076,18.0694869 15.7009846,17.9044826 C15.6622469,17.8756153 15.6278974,17.8412862 15.5990071,17.8025658 L15.4020118,17.5385411 C15.2368759,17.3172161 14.9235874,17.271666 14.7022625,17.4368019 C14.6632219,17.465931 14.6286474,17.5006087 14.5996347,17.5397358 L14.4050788,17.8021177 C14.2406026,18.0239334 13.9274512,18.0704163 13.7056355,17.9059402 C13.6665974,17.8769935 13.6319882,17.84251 13.6028996,17.8035776 L13.4040739,17.5374673 C13.2387915,17.3162517 12.9254729,17.2709089 12.7042573,17.4361913 C12.6653737,17.4652434 12.6309276,17.4998026 12.602003,17.5387812 L12.4057527,17.8032471 C12.241196,18.025003 11.9280277,18.0713721 11.7062718,17.9068153 C11.6675351,17.8780703 11.6331619,17.8438711 11.6042207,17.8052808 L11.4031175,17.5371293 C11.2374376,17.3162113 10.924038,17.271432 10.70312,17.4371119 C10.6641408,17.4663448 10.6296437,17.5011181 10.6007226,17.5403292 L10.4083577,17.8011373 C10.244445,18.0233697 9.93141255,18.0706472 9.70918013,17.9067345 C9.67018777,17.8779748 9.63558265,17.8437003 9.60645001,17.8049857 L9.40316384,17.5348376 C9.23712572,17.3141887 8.92365393,17.2699179 8.70300499,17.435956 C8.66440904,17.4649994 8.63022529,17.4994823 8.60151924,17.5383298 L8.40718065,17.8013257 C8.2430712,18.0234128 7.929997,18.070413 7.70790986,17.9063036 C7.66895944,17.8775215 7.63439736,17.8432331 7.60530658,17.8045127 L7.4026634,17.5347906 C7.23679383,17.3140149 6.92335593,17.2695047 6.70258026,17.4353743 C6.66399123,17.4643664 6.62980343,17.4987933 6.60108094,17.5375834 L6.40500829,17.8023822 C6.24068112,18.0243083 5.92756098,18.0710015 5.70563488,17.9066743 C5.66692909,17.8780143 5.63256716,17.8439123 5.60361399,17.8054253 L5.4021031,17.5375598 C5.23609529,17.3168881 4.92262958,17.2725742 4.70195783,17.438582 C4.66367264,17.4673833 4.62972559,17.5015376 4.60115782,17.5399974 L4.40379102,17.8057055 C4.23912948,18.0273836 3.9259393,18.0736047 3.70426118,17.9089432 C3.66525639,17.8799706 3.63068289,17.8454673 3.601631,17.8065216 L3.19844744,17.2660304 C3.0696046,17.093309 3,16.8835896 3,16.6681061 L3,3 C3,2.44771525 3.44771525,2 4,2 L16,2 Z M15.8,3 L4.2,3 C4.08954305,3 4,3.08954305 4,3.2 L4,3.2 L4,16.5171573 C4,16.5702006 4.02107137,16.6210714 4.05857864,16.6585786 C4.1366835,16.7366835 4.2633165,16.7366835 4.34142136,16.6585786 L4.34142136,16.6585786 L4.6464466,16.3535587 C4.84246325,16.159054 5.15904336,16.1602796 5.35354808,16.3562963 L5.35354808,16.3562963 L5.64501339,16.6500272 L5.64501339,16.6500272 C5.84387145,16.847299 6.16045133,16.8460136 6.35491901,16.6499602 L6.35491901,16.6499602 L6.64591409,16.3565923 C6.64703112,16.3554661 6.64815351,16.3543453 6.64928121,16.3532298 C6.84560591,16.159036 7.16218368,16.1607635 7.35637747,16.3570882 L7.35637747,16.3570882 L7.64477093,16.6486462 L7.64477093,16.6486462 C7.84457006,16.8465897 8.16114896,16.8450834 8.35547984,16.6488944 L8.35547984,16.6488944 L8.64476839,16.3568398 C8.64588453,16.355713 8.64700602,16.3545915 8.64813283,16.3534754 C8.84432183,16.1591445 9.16090073,16.1606508 9.35523161,16.3568398 L9.35523161,16.3568398 L9.64476839,16.649145 C9.64588453,16.6502718 9.64700602,16.6513933 9.64813283,16.6525095 C9.84432183,16.8468403 10.1609007,16.845334 10.3552316,16.649145 L10.3552316,16.649145 L10.6447684,16.3568398 C10.6458845,16.355713 10.647006,16.3545915 10.6481328,16.3534754 C10.8443218,16.1591445 11.1609007,16.1606508 11.3552316,16.3568398 L11.3552316,16.3568398 L11.6447684,16.649145 C11.6458845,16.6502718 11.647006,16.6513933 11.6481328,16.6525095 C11.8443218,16.8468403 12.1609007,16.845334 12.3552316,16.649145 L12.3552316,16.649145 L12.6447684,16.3568398 C12.6458845,16.355713 12.647006,16.3545915 12.6481328,16.3534754 C12.8443218,16.1591445 13.1609007,16.1606508 13.3552316,16.3568398 L13.3552316,16.3568398 L13.6447684,16.649145 C13.6458845,16.6502718 13.647006,16.6513933 13.6481328,16.6525095 C13.8443218,16.8468403 14.1609007,16.845334 14.3552316,16.649145 L14.3552316,16.649145 L14.6461386,16.3554565 L14.6461386,16.3554565 C14.8435694,16.1583669 15.1601517,16.1586497 15.3552393,16.3540862 L15.3552393,16.3540862 L15.6584524,16.6578415 C15.6959698,16.6954261 15.7468948,16.7165466 15.8,16.7165466 C15.9104569,16.7165466 16,16.6270035 16,16.5165466 L16,16.5165466 L16,3.2 C16,3.08954305 15.9104569,3 15.8,3 L15.8,3 Z M10.5,9 C10.7761424,9 11,9.22385763 11,9.5 C11,9.77614237 10.7761424,10 10.5,10 L6.5,10 C6.22385763,10 6,9.77614237 6,9.5 C6,9.22385763 6.22385763,9 6.5,9 L10.5,9 Z M13.5,7 C13.7761424,7 14,7.22385763 14,7.5 C14,7.77614237 13.7761424,8 13.5,8 L6.5,8 C6.22385763,8 6,7.77614237 6,7.5 C6,7.22385763 6.22385763,7 6.5,7 L13.5,7 Z M13.5,5 C13.7761424,5 14,5.22385763 14,5.5 C14,5.77614237 13.7761424,6 13.5,6 L6.5,6 C6.22385763,6 6,5.77614237 6,5.5 C6,5.22385763 6.22385763,5 6.5,5 L13.5,5 Z" id="Combined-Shape" fill="#000000"></path>
    </g>
</svg>