<?xml version="1.0" encoding="UTF-8"?>
<svg width="20px" height="20px" viewBox="0 0 20 20" version="1.1" xmlns="http://www.w3.org/2000/svg" xmlns:xlink="http://www.w3.org/1999/xlink">
    <!-- Generator: Sketch 60.1 (88133) - https://sketch.com -->
    <title>02 - icon/equalizzatore</title>
    <desc>Created with Sketch.</desc>
    <g id="02---icon/equalizzatore" stroke="none" stroke-width="1" fill="none" fill-rule="evenodd">
        <path d="M4,2 C4.27614237,2 4.5,2.22385763 4.5,2.5 L4.50070296,9.08560151 C5.08293192,9.29171807 5.5,9.8471533 5.5,10.5 C5.5,11.1528467 5.08293192,11.7082819 4.50070296,11.9143985 L4.5,17.5 C4.5,17.7761424 4.27614237,18 4,18 C3.72385763,18 3.5,17.7761424 3.5,17.5 L3.50029246,11.9147505 C2.91754351,11.7089149 2.5,11.1532187 2.5,10.5 C2.5,9.84678131 2.91754351,9.29108512 3.50029246,9.08524952 L3.5,2.5 C3.5,2.22385763 3.72385763,2 4,2 Z M8,2 C8.27614237,2 8.5,2.22385763 8.5,2.5 L8.50070296,14.0856015 C9.08293192,14.2917181 9.5,14.8471533 9.5,15.5 C9.5,16.1528467 9.08293192,16.7082819 8.50070296,16.9143985 L8.5,17.5 C8.5,17.7761424 8.27614237,18 8,18 C7.72385763,18 7.5,17.7761424 7.5,17.5 L7.50029246,16.9147505 C6.91754351,16.7089149 6.5,16.1532187 6.5,15.5 C6.5,14.8467813 6.91754351,14.2910851 7.50029246,14.0852495 L7.5,2.5 C7.5,2.22385763 7.72385763,2 8,2 Z M12,2 C12.2761424,2 12.5,2.22385763 12.5,2.5 L12.500703,4.08560151 C13.0829319,4.29171807 13.5,4.8471533 13.5,5.5 C13.5,6.1528467 13.0829319,6.70828193 12.500703,6.91439849 L12.5,17.5 C12.5,17.7761424 12.2761424,18 12,18 C11.7238576,18 11.5,17.7761424 11.5,17.5 L11.5002925,6.91475048 C10.9175435,6.70891488 10.5,6.15321869 10.5,5.5 C10.5,4.84678131 10.9175435,4.29108512 11.5002925,4.08524952 L11.5,2.5 C11.5,2.22385763 11.7238576,2 12,2 Z M16,2 C16.2761424,2 16.5,2.22385763 16.5,2.5 L16.500703,7.08560151 C17.0829319,7.29171807 17.5,7.8471533 17.5,8.5 C17.5,9.1528467 17.0829319,9.70828193 16.500703,9.91439849 L16.5,17.5 C16.5,17.7761424 16.2761424,18 16,18 C15.7238576,18 15.5,17.7761424 15.5,17.5 L15.5002925,9.91475048 C14.9175435,9.70891488 14.5,9.15321869 14.5,8.5 C14.5,7.84678131 14.9175435,7.29108512 15.5002925,7.08524952 L15.5,2.5 C15.5,2.22385763 15.7238576,2 16,2 Z M8,15 C7.72385763,15 7.5,15.2238576 7.5,15.5 C7.5,15.7761424 7.72385763,16 8,16 C8.27614237,16 8.5,15.7761424 8.5,15.5 C8.5,15.2238576 8.27614237,15 8,15 Z M4,10 C3.72385763,10 3.5,10.2238576 3.5,10.5 C3.5,10.7761424 3.72385763,11 4,11 C4.27614237,11 4.5,10.7761424 4.5,10.5 C4.5,10.2238576 4.27614237,10 4,10 Z M16,8 C15.7238576,8 15.5,8.22385763 15.5,8.5 C15.5,8.77614237 15.7238576,9 16,9 C16.2761424,9 16.5,8.77614237 16.5,8.5 C16.5,8.22385763 16.2761424,8 16,8 Z M12,5 C11.7238576,5 11.5,5.22385763 11.5,5.5 C11.5,5.77614237 11.7238576,6 12,6 C12.2761424,6 12.5,5.77614237 12.5,5.5 C12.5,5.22385763 12.2761424,5 12,5 Z" id="Rectangle-Copy-2" fill="#000000"></path>
    </g>
</svg>