<?xml version="1.0" encoding="UTF-8"?>
<svg width="20px" height="20px" viewBox="0 0 20 20" version="1.1" xmlns="http://www.w3.org/2000/svg" xmlns:xlink="http://www.w3.org/1999/xlink">
    <!-- Generator: Sketch 60.1 (88133) - https://sketch.com -->
    <title>02 - icon/exel2000</title>
    <desc>Created with Sketch.</desc>
    <g id="02---icon/exel2000" stroke="none" stroke-width="1" fill="none" fill-rule="evenodd">
        <path d="M13.5351234,2.00531092 L13.7967359,2.00531092 C13.9267163,2.00531092 14.0515879,2.05592761 14.1448823,2.146432 L17.8481464,5.73894759 C17.9452161,5.83311431 18,5.96258639 18,6.0978265 L18,16.6344086 C18,17.4195396 17.348817,18.001383 16.5548961,18.001383 L14.9665517,18.001383 L14.9665517,18.001383 C15.361765,17.8563404 15.6567385,17.5226728 15.851472,17.0003802 L16.5548961,17.0003802 C16.8032127,17.0003802 17,16.8593434 17,16.6334058 L17,6.72275655 L15.0237389,6.72275655 C13.9069594,6.72275655 13,5.81207835 13,4.69276993 L13,3.00430807 L5.44510386,3.00430807 C5.19678734,3.00430807 5,3.19521036 5,3.42114799 L5,6.0039894 L4,6.0039894 L4,3.42215083 C4,2.63701986 4.65118299,2.00531092 5.44510386,2.00531092 L13.4720341,2.00531092 C13.4929723,2.00398273 13.5140453,2.00396489 13.5351234,2.00531092 Z M13,7 C14.1045695,7 15,7.8954305 15,9 L15,16 C15,17.1045695 14.1045695,18 13,18 L4,18 C2.8954305,18 2,17.1045695 2,16 L2,9 C2,7.8954305 2.8954305,7 4,7 L13,7 Z M13,8 L4,8 C3.44771525,8 3,8.44771525 3,9 L3,16 C3,16.5522847 3.44771525,17 4,17 L13,17 C13.5522847,17 14,16.5522847 14,16 L14,9 C14,8.44771525 13.5522847,8 13,8 Z M5.98728551,14 C6.16956253,14 6.32809617,14.0208232 6.46486929,14.0639389 C6.55868812,14.0943539 6.64242689,14.1368394 6.71518841,14.1913599 C6.7900966,14.2474888 6.84964542,14.3137553 6.89255538,14.3895728 C6.9372956,14.4686241 6.96026722,14.5528446 6.96026722,14.6400442 C6.96026722,14.7719741 6.91349334,14.8934384 6.82339898,14.9988854 L6.70657029,15.1190469 L6.58223963,15.2135896 L6.27830731,15.3949865 L6.56917111,15.3966122 L6.63633056,15.3994056 C6.71794439,15.4061405 6.78816886,15.4245839 6.84669016,15.456975 C6.94267698,15.510103 7,15.5958261 7,15.6994992 C7,15.7895731 6.95645804,15.8681167 6.88058782,15.9244043 C6.84214701,15.9529233 6.79720886,15.9728533 6.74481336,15.9852191 L6.66050707,15.9982229 L5.42639213,16 L5.35844208,15.9961274 C5.27364118,15.9867802 5.1993076,15.9614362 5.13846155,15.9188001 C5.05103748,15.8575404 5,15.7731381 5,15.6747034 C5,15.6118666 5.02413377,15.5499222 5.06833185,15.4808502 C5.10745901,15.4197029 5.15221001,15.3696751 5.20500646,15.3299095 L5.59476231,15.0575852 L5.79198032,14.935299 L5.85616201,14.9011558 C5.93324096,14.8624928 5.9960365,14.8245127 6.0442157,14.7878382 C6.08694661,14.755311 6.11746133,14.7240767 6.13641292,14.6950751 C6.15019216,14.6739888 6.15542935,14.6583931 6.15542935,14.6468067 L6.1533682,14.6339816 C6.13364436,14.6078382 6.11533356,14.595561 6.08806006,14.5852456 C6.05547461,14.5729211 6.01919584,14.5666469 5.97774964,14.5666469 C5.92077867,14.5666469 5.87647832,14.5767168 5.84387546,14.5930073 L5.79776922,14.6289932 L5.7652134,14.6903309 C5.73093737,14.7596325 5.68986306,14.8158865 5.64018438,14.8588794 C5.57210777,14.9177941 5.480942,14.9453457 5.37540064,14.9453457 C5.28235929,14.9453457 5.19823005,14.9214581 5.12968337,14.8728474 C5.05013353,14.8164337 5.00635725,14.7334654 5.00635725,14.63779 C5.00635725,14.5562748 5.03090276,14.4750239 5.07748804,14.3950968 C5.12307883,14.316876 5.18915687,14.2479238 5.27408276,14.1881872 C5.35748203,14.1295244 5.45960274,14.0837119 5.57991484,14.0498544 C5.69886418,14.0163804 5.83459111,14 5.98728551,14 Z M7.98980978,14 C8.11755835,14 8.23488147,14.0143481 8.34166911,14.0434215 C8.45068802,14.0731023 8.54775547,14.117129 8.63223956,14.1757118 C8.71738457,14.2347528 8.78962238,14.3079215 8.84861407,14.3948725 C8.93058212,14.5163578 8.97828829,14.6720049 8.99409203,14.861148 L9,15.0083081 L8.9958448,15.1401991 C8.9902892,15.2236407 8.97913202,15.2994209 8.96218926,15.3676618 C8.93482597,15.4778739 8.88402965,15.5781559 8.80958915,15.6684846 C8.71854487,15.7763381 8.60137372,15.8590538 8.4599209,15.9162776 C8.32156894,15.972247 8.16911696,16 8.00339674,16 C7.81210147,16 7.63830852,15.9625568 7.48346128,15.887113 C7.32458043,15.809704 7.20235615,15.7002916 7.11790858,15.556518 C7.07656473,15.4809503 7.04644322,15.3980206 7.02744533,15.3081305 C7.0090884,15.2212731 7,15.1282079 7,15.0289855 C7,14.9043219 7.00976692,14.7909735 7.02955404,14.6888192 C7.05026639,14.5818883 7.08330992,14.4880482 7.13068911,14.4053409 C7.21131904,14.2709978 7.32863924,14.1684912 7.47946973,14.0993889 C7.62501692,14.0327071 7.79540189,14 7.98980978,14 Z M9.98980978,14 C10.1175584,14 10.2348815,14.0143481 10.3416691,14.0434215 C10.450688,14.0731023 10.5477555,14.117129 10.6322396,14.1757118 C10.7173846,14.2347528 10.7896224,14.3079215 10.8486141,14.3948725 C10.9305821,14.5163578 10.9782883,14.6720049 10.994092,14.861148 L11,15.0083081 L10.9958448,15.1401991 C10.9902892,15.2236407 10.979132,15.2994209 10.9621893,15.3676618 C10.934826,15.4778739 10.8840296,15.5781559 10.8095892,15.6684846 C10.7185449,15.7763381 10.6013737,15.8590538 10.4599209,15.9162776 C10.3215689,15.972247 10.169117,16 10.0033967,16 C9.81210147,16 9.63830852,15.9625568 9.48346128,15.887113 C9.32458043,15.809704 9.20235615,15.7002916 9.11790858,15.556518 C9.07656473,15.4809503 9.04644322,15.3980206 9.02744533,15.3081305 C9.0090884,15.2212731 9,15.1282079 9,15.0289855 L9,15.0083081 L9.00326502,14.9080891 C9.00762464,14.8300001 9.01636263,14.7569221 9.02955404,14.6888192 C9.05026639,14.5818883 9.08330992,14.4880482 9.13068911,14.4053409 C9.21131904,14.2709978 9.32863924,14.1684912 9.47946973,14.0993889 C9.62501692,14.0327071 9.79540189,14 9.98980978,14 Z M11.9898098,14 C12.1175584,14 12.2348815,14.0143481 12.3416691,14.0434215 C12.450688,14.0731023 12.5477555,14.117129 12.6322396,14.1757118 C12.7173846,14.2347528 12.7896224,14.3079215 12.8486141,14.3948725 C12.9510741,14.5467291 13,14.7519636 13,15.0092754 C13,15.1459757 12.9876034,15.2653005 12.9621893,15.3676618 C12.934826,15.4778739 12.8840296,15.5781559 12.8095892,15.6684846 C12.7185449,15.7763381 12.6013737,15.8590538 12.4599209,15.9162776 C12.3215689,15.972247 12.169117,16 12.0033967,16 C11.8121015,16 11.6383085,15.9625568 11.4834613,15.887113 C11.3245804,15.809704 11.2023561,15.7002916 11.1179086,15.556518 C11.0765647,15.4809503 11.0464432,15.3980206 11.0274453,15.3081305 C11.0090884,15.2212731 11,15.1282079 11,15.0289855 L11,15.0083081 L11.003265,14.9080891 C11.0076246,14.8300001 11.0163626,14.7569221 11.029554,14.6888192 C11.0502664,14.5818883 11.0833099,14.4880482 11.1306891,14.4053409 C11.211319,14.2709978 11.3286392,14.1684912 11.4794697,14.0993889 C11.6250169,14.0327071 11.7954019,14 11.9898098,14 Z M7.99473684,14.65 C7.84810886,14.65 7.75906359,14.6780222 7.72036913,14.7214102 C7.6760606,14.7710933 7.65,14.8611751 7.65,14.9963437 C7.65,15.0923229 7.66226227,15.1668605 7.68450207,15.2195308 C7.70156089,15.259931 7.72867745,15.2888083 7.77062549,15.310349 C7.81972455,15.3355618 7.89596422,15.35 7.99894737,15.35 C8.10544076,15.35 8.18311576,15.3350109 8.2314089,15.3092039 C8.2739339,15.2864792 8.30075888,15.2572818 8.31682868,15.2177439 C8.33813333,15.1653261 8.35,15.0887769 8.35,14.9890311 C8.35,14.8966034 8.33791671,14.8251808 8.31613117,14.7750912 C8.29954956,14.7369665 8.27292799,14.7094755 8.23115579,14.6887226 C8.18180264,14.6642035 8.10263175,14.65 7.99473684,14.65 Z M9.99473684,14.65 C9.84810886,14.65 9.75906359,14.6780222 9.72036913,14.7214102 C9.6760606,14.7710933 9.65,14.8611751 9.65,14.9963437 C9.65,15.0923229 9.66226227,15.1668605 9.68450207,15.2195308 C9.70156089,15.259931 9.72867745,15.2888083 9.77062549,15.310349 C9.81972455,15.3355618 9.89596422,15.35 9.99894737,15.35 C10.1054408,15.35 10.1831158,15.3350109 10.2314089,15.3092039 C10.2739339,15.2864792 10.3007589,15.2572818 10.3168287,15.2177439 C10.3381333,15.1653261 10.35,15.0887769 10.35,14.9890311 C10.35,14.8966034 10.3379167,14.8251808 10.3161312,14.7750912 C10.2995496,14.7369665 10.272928,14.7094755 10.2311558,14.6887226 C10.1818026,14.6642035 10.1026318,14.65 9.99473684,14.65 Z M11.9947368,14.65 C11.8481089,14.65 11.7590636,14.6780222 11.7203691,14.7214102 C11.6760606,14.7710933 11.65,14.8611751 11.65,14.9963437 C11.65,15.0923229 11.6622623,15.1668605 11.6845021,15.2195308 C11.7015609,15.259931 11.7286774,15.2888083 11.7706255,15.310349 C11.8197246,15.3355618 11.8959642,15.35 11.9989474,15.35 C12.1054408,15.35 12.1831158,15.3350109 12.2314089,15.3092039 C12.2739339,15.2864792 12.3007589,15.2572818 12.3168287,15.2177439 C12.3381333,15.1653261 12.35,15.0887769 12.35,14.9890311 C12.35,14.8966034 12.3379167,14.8251808 12.3161312,14.7750912 C12.2995496,14.7369665 12.272928,14.7094755 12.2311558,14.6887226 C12.1818026,14.6642035 12.1026318,14.65 11.9947368,14.65 Z M6.64460033,9 C6.76336792,9 6.86498667,9.03720468 6.94398673,9.11175404 C7.0233665,9.1866617 7.06488203,9.2796331 7.06488203,9.38497506 C7.06488203,9.52205262 6.99331003,9.6912228 6.85381161,9.89956459 L6.16162834,10.9342468 L6.90938237,12.0859453 C6.98268603,12.1959007 7.03646163,12.2880244 7.07093721,12.3633263 C7.10857612,12.4455376 7.12792961,12.5254981 7.12792961,12.6029235 C7.12792961,12.6793611 7.10899702,12.7506368 7.07132709,12.8148972 C7.03347952,12.8794608 6.97985186,12.930854 6.91208915,12.9680141 C6.84483542,13.0048952 6.76944123,13.0232052 6.68747268,13.0232052 C6.59955592,13.0232052 6.52206788,13.0041061 6.45675112,12.9646907 C6.39610387,12.9280933 6.34612187,12.8818334 6.30766882,12.8262901 C6.27673538,12.7816084 6.22006509,12.69618 6.13652022,12.5682906 L5.56896522,11.6751615 L4.96349521,12.5988252 C4.9092806,12.6835355 4.87068418,12.7429146 4.84740633,12.7774003 C4.82103061,12.8164754 4.78961991,12.8541683 4.75327035,12.8905178 C4.71210119,12.931687 4.66346492,12.9641112 4.60803809,12.987561 C4.55125104,13.0115863 4.48681899,13.0232052 4.4152379,13.0232052 C4.29990349,13.0232052 4.20021273,12.9864477 4.12144292,12.913225 C4.03972274,12.8372599 4,12.7298406 4,12.5978797 C4,12.4497953 4.06846152,12.2800483 4.20149254,12.0850577 L4.99113594,10.9318891 L4.33059183,9.91233797 C4.26258526,9.80422497 4.21112293,9.71053715 4.17611446,9.63064603 C4.13800444,9.54367699 4.11852945,9.45828667 4.11852945,9.37488745 C4.11852945,9.27421367 4.16317588,9.18432553 4.24647949,9.10990764 C4.32822926,9.03687784 4.42895529,9 4.54385496,9 C4.67415087,9 4.78176846,9.0407051 4.85989232,9.12335789 C4.92380085,9.19097125 5.00729667,9.30943915 5.11312761,9.48119771 L5.58565808,10.2458379 L6.09146923,9.47959721 C6.16097512,9.37166357 6.16097512,9.37166357 6.2161573,9.2856381 C6.25342296,9.22746731 6.28986372,9.17857213 6.32582214,9.1388286 C6.36686622,9.09346408 6.41384533,9.05864427 6.4663626,9.03517911 C6.51937531,9.01149258 6.57902728,9 6.64460033,9 Z M11.6221647,9 C11.8594733,9 12.0664896,9.02970041 12.243228,9.08980941 C12.4202888,9.15002806 12.5688499,9.23089619 12.6882948,9.33288374 C12.8074007,9.43458184 12.8958403,9.5430368 12.9526761,9.65860291 C13.0096134,9.77437545 13.0385982,9.88934847 13.0385982,10.0028413 C13.0385982,10.1167799 12.9978911,10.2204474 12.9190106,10.3098453 C12.8370449,10.4027397 12.7311715,10.450864 12.6082289,10.450864 C12.4985141,10.450864 12.4085507,10.4212631 12.3434434,10.3586127 C12.2900106,10.3071963 12.2362075,10.2290648 12.1776874,10.1193907 C12.1163368,9.99208793 12.0441601,9.89472453 11.961786,9.82632469 C11.8886706,9.76561277 11.7590273,9.73212157 11.5717267,9.73212157 C11.3979503,9.73212157 11.2622577,9.76906213 11.1621465,9.84077305 C11.0684559,9.9078847 11.0261194,9.98084761 11.0261194,10.0658889 C11.0261194,10.1187571 11.0396261,10.1615282 11.0666451,10.1975536 C11.0980077,10.2393704 11.1424955,10.2764435 11.2011222,10.3085486 C11.2657605,10.3439458 11.3308307,10.3715049 11.3963914,10.3913256 C11.4668437,10.4126251 11.584989,10.4442415 11.7483354,10.4855066 C11.9600967,10.5350314 12.1521712,10.5897876 12.3246185,10.6498439 C12.5020579,10.7116387 12.6541799,10.7872549 12.7808254,10.8770743 C12.9123811,10.9703763 13.0154876,11.0889488 13.0892392,11.2317843 C13.1635107,11.3756264 13.2,11.5488353 13.2,11.7505203 C13.2,11.9931251 13.1370069,12.2129113 13.0112385,12.4075309 C12.8852724,12.6024566 12.7017519,12.7543988 12.4629883,12.8629278 C12.2272477,12.9700825 11.9501242,13.0232052 11.6322523,13.0232052 C11.2508556,13.0232052 10.9327468,12.9503423 10.6785961,12.8025361 C10.4968276,12.6952927 10.3487095,12.551732 10.235165,12.372786 C10.1204513,12.1919971 10.0619828,12.0128496 10.0619828,11.836265 C10.0619828,11.7194445 10.1036598,11.6166411 10.1849193,11.5332147 C10.26721,11.4487295 10.3734603,11.4058956 10.4973959,11.4058956 C10.6011444,11.4058956 10.6922808,11.4402868 10.7657152,11.5080724 C10.8327014,11.5699058 10.8872372,11.6573596 10.9307005,11.7688631 C10.9751568,11.8800037 11.0226295,11.9718105 11.0726787,12.0441893 C11.1176179,12.1091783 11.181927,12.1636477 11.267104,12.20768 C11.350547,12.2508158 11.4654735,12.2734304 11.6120771,12.2734304 C11.8137055,12.2734304 11.973104,12.2277287 12.0932588,12.1381587 C12.2074306,12.0530489 12.2610824,11.9532241 12.2610824,11.8312212 C12.2610824,11.7336968 12.2331617,11.6593461 12.1773658,11.6022964 C12.1139964,11.5375029 12.0308495,11.4872533 11.9266124,11.4517684 C11.8118023,11.4126841 11.6564675,11.3706571 11.4606592,11.3258522 C11.1887919,11.2621871 10.9600981,11.1873968 10.774268,11.1010251 C10.5802737,11.0108588 10.4248247,10.8866835 10.3094845,10.7288982 C10.1912217,10.5671146 10.1325961,10.3677875 10.1325961,10.1339803 C10.1325961,9.91025961 10.1942489,9.70942075 10.3172004,9.53430808 C10.4397553,9.3597601 10.6159165,9.22648631 10.8432666,9.13463688 C11.0660874,9.04461727 11.3258395,9 11.6221647,9 Z M7.80938335,9 C7.94904186,9 8.06691502,9.0483443 8.15614269,9.14402215 C8.24540443,9.23973654 8.28766883,9.37773236 8.28766883,9.55394258 L8.28766883,12.1448133 L9.70585455,12.1448133 C9.84999093,12.1448133 9.96678534,12.181807 10.0517921,12.2590859 C10.1374794,12.3369834 10.1816181,12.437872 10.1816181,12.5550074 C10.1816181,12.6739953 10.1377437,12.775022 10.0519153,12.8506865 C9.96766099,12.9249633 9.85104692,12.9601577 9.70585455,12.9601577 L7.89764996,12.9601577 C7.71027558,12.9601577 7.56787826,12.9162646 7.47472149,12.8220118 C7.38197203,12.7281712 7.33866358,12.5865271 7.33866358,12.4011713 L7.33866358,9.55394258 C7.33866358,9.37994643 7.37977051,9.24292332 7.46647124,9.14658917 C7.55401381,9.04931964 7.67073697,9 7.80938335,9 Z M14.0172355,3.46447887 L14,4.7292947 C14,5.29723228 14.4396029,5.73302009 15.0031796,5.73302009 L16.4201062,5.72434654 L14.0172355,3.46447887 Z" id="Shape" fill="#000000"></path>
    </g>
</svg>