<?xml version="1.0" encoding="UTF-8"?>
<svg width="20px" height="20px" viewBox="0 0 20 20" version="1.1" xmlns="http://www.w3.org/2000/svg" xmlns:xlink="http://www.w3.org/1999/xlink">
    <!-- Generator: Sketch 60.1 (88133) - https://sketch.com -->
    <title>02 - icon/f24</title>
    <desc>Created with Sketch.</desc>
    <g id="02---icon/f24" stroke="none" stroke-width="1" fill="none" fill-rule="evenodd">
        <path d="M13.5351234,2.00531092 L13.7967359,2.00531092 C13.9267163,2.00531092 14.0515879,2.05592761 14.1448823,2.146432 L17.8481464,5.73894759 C17.9452161,5.83311431 18,5.96258639 18,6.0978265 L18,16.6344086 C18,17.4195396 17.348817,18.0512485 16.5548961,18.0512485 L5.44510386,18.0512485 C4.65118299,18.0512485 4,17.4195396 4,16.6344086 L4,15.9905688 L5,15.9905688 L5,16.6334058 C5,16.8593434 5.19678734,17.0502457 5.44510386,17.0502457 L16.5548961,17.0502457 C16.8032127,17.0502457 17,16.8593434 17,16.6334058 L17,6.72275655 L15.0237389,6.72275655 C13.9069594,6.72275655 13,5.81207835 13,4.69276993 L13,3.00430807 L5.44510386,3.00430807 C5.19678734,3.00430807 5,3.19521036 5,3.42114799 L5,6.0039894 L4,6.0039894 L4,3.42215083 C4,2.63701986 4.65118299,2.00531092 5.44510386,2.00531092 L13.4720341,2.00531092 C13.4929723,2.00398273 13.5140453,2.00396489 13.5351234,2.00531092 Z M13,7 C14.1045695,7 15,7.8954305 15,9 L15,13 C15,14.1045695 14.1045695,15 13,15 L4,15 C2.8954305,15 2,14.1045695 2,13 L2,9 C2,7.8954305 2.8954305,7 4,7 L13,7 Z M13,8 L4,8 C3.44771525,8 3,8.44771525 3,9 L3,13 C3,13.5522847 3.44771525,14 4,14 L13,14 C13.5522847,14 14,13.5522847 14,13 L14,9 C14,8.44771525 13.5522847,8 13,8 Z M8.49965351,9.02662252 C8.77718076,9.02662252 9.01568762,9.07048585 9.21556405,9.15932432 C9.34671369,9.21927844 9.46214093,9.30186053 9.56142244,9.40676175 C9.66061587,9.5115699 9.73784822,9.63280128 9.79291716,9.77000695 C9.84805808,9.90739197 9.8756807,10.0501869 9.8756807,10.1978883 C9.8756807,10.4282599 9.81824592,10.6388541 9.7035296,10.8281827 C9.59238205,11.0116213 9.47815611,11.1563379 9.36024925,11.2622698 L9.22204052,11.3828656 C9.14036146,11.4526734 9.03980803,11.5367573 8.92032482,11.6351693 L8.79452964,11.7383591 C8.57793368,11.9153777 8.41842248,12.0590293 8.31571896,12.1694013 L8.22115292,12.2790285 L9.45135691,12.2792883 L9.5521893,12.2849246 C9.65505986,12.296895 9.7398132,12.3277846 9.80522584,12.3788384 C9.89523741,12.4490913 9.94130936,12.5468537 9.94130936,12.6655257 C9.94130936,12.7701043 9.90568267,12.8610894 9.83549724,12.9345142 C9.78123762,12.9912781 9.70831774,13.0259571 9.6186458,13.0397488 L9.52346053,13.0466225 L7.58595446,13.0464252 L7.48696586,13.0389361 C7.38451197,13.0230116 7.29883759,12.9821439 7.23223103,12.9163303 C7.14486946,12.8300088 7.1,12.7258475 7.1,12.6077725 C7.1,12.5322949 7.12626677,12.4393883 7.1774884,12.326511 C7.22787273,12.2154789 7.28374641,12.1269333 7.34646763,12.0602996 L7.68005293,11.7224358 C7.73281783,11.670442 7.78416715,11.6206061 7.83410201,11.5729275 L7.97966432,11.4363625 C8.13157199,11.2965222 8.24900478,11.1948735 8.33246261,11.1311369 L8.38869349,11.0904386 C8.52827501,10.9917102 8.6439089,10.893019 8.73562109,10.7945757 C8.82588262,10.6976894 8.89407274,10.5991013 8.94051943,10.4988742 C8.98603152,10.4006639 9.00848129,10.3057448 9.00848129,10.2136392 C9.00848129,10.1148323 8.98531921,10.0278795 8.93906427,9.9512935 C8.89259372,9.87435045 8.82982358,9.81498351 8.74967967,9.77224009 C8.66862803,9.72901255 8.5803976,9.70743655 8.48390263,9.70743655 C8.27999349,9.70743655 8.12286127,9.795156 8.00465653,9.97639636 C7.99200523,9.9953733 7.96375923,10.0645128 7.9249666,10.175113 C7.8812075,10.299873 7.83102922,10.3973893 7.77324972,10.4678999 C7.70667654,10.5491417 7.609739,10.5894857 7.48897222,10.5894857 C7.3822194,10.5894857 7.29069112,10.5530949 7.21879123,10.481195 C7.14632163,10.4087254 7.11050058,10.3110317 7.11050058,10.192638 C7.11050058,10.0617541 7.13967328,9.9262422 7.19748833,9.78636709 C7.25556216,9.64586588 7.34208234,9.51865783 7.45658084,9.40509022 C7.57161254,9.29099374 7.71659241,9.19945196 7.89090577,9.13027999 C8.06551493,9.06099064 8.268516,9.02662252 8.49965351,9.02662252 Z M6.55886072,9 C6.70374383,9 6.81842239,9.03424052 6.89907805,9.10788264 C6.98014894,9.18190389 7.02135035,9.280429 7.02135035,9.39603998 C7.02135035,9.51320963 6.98027976,9.61261238 6.89907805,9.68675306 C6.81842239,9.76039519 6.70374383,9.79463571 6.55886072,9.79463571 L5.16842713,9.79463571 L5.16842713,10.5436767 L6.31350813,10.5436767 C6.45327041,10.5436767 6.56454019,10.5771125 6.64339279,10.6489036 C6.72303656,10.7214151 6.76321898,10.8191724 6.76321898,10.9346052 C6.76321898,11.05059 6.72215279,11.1484241 6.64090055,11.2201173 C6.5614802,11.2901941 6.45110799,11.3229779 6.31350813,11.3229779 L5.16842713,11.3229779 L5.16842713,12.4527244 C5.16842713,12.633746 5.1254177,12.7752107 5.0342377,12.8729821 C4.94334537,12.9704449 4.82474727,13.02 4.68549144,13.02 C4.54440463,13.02 4.42476085,12.9699166 4.33379288,12.8712766 C4.24299887,12.7728253 4.2,12.6319133 4.2,12.4527244 L4.2,9.5698314 C4.2,9.44652464 4.21888034,9.34268277 4.25847034,9.25829356 C4.30136726,9.16685538 4.3702128,9.09858838 4.46181512,9.05674535 C4.54586528,9.01835206 4.64853763,9 4.7698314,9 L6.55886072,9 Z M11.8998271,9 C12.1685728,9 12.3249079,9.14477995 12.3563312,9.41267962 L12.3622353,9.51887093 L12.362058,11.4322446 L12.4996654,11.4366045 C12.5965499,11.4439363 12.6789786,11.4626095 12.7470118,11.4933342 C12.8555883,11.5423687 12.908897,11.6478398 12.908897,11.7953451 C12.908897,11.9168458 12.8662575,12.0116626 12.7804261,12.0715187 C12.7211496,12.1128563 12.6436771,12.1377548 12.5480989,12.1476205 L12.4464888,12.1525273 L12.362058,12.1523741 L12.3621099,12.5618485 L12.3562087,12.6591486 C12.3435578,12.759053 12.3106943,12.8399552 12.2562364,12.9000191 C12.1838677,12.9798375 12.0864067,13.02 11.9691222,13.02 C11.8532053,13.02 11.7560786,12.9786809 11.6830092,12.8971397 C11.6287763,12.8366189 11.5957052,12.7572943 11.5825592,12.6603565 L11.5760091,12.5575918 L11.5754105,12.1523741 L10.3564938,12.1524454 L10.2600486,12.14775 C10.1286507,12.1345333 10.0231701,12.09361 9.94568705,12.0234675 C9.84861082,11.935588 9.8,11.8158518 9.8,11.6695872 C9.8,11.6285597 9.80748628,11.5873851 9.82221716,11.5463491 C9.83620157,11.5073925 9.85670422,11.4673636 9.88357473,11.4260981 L10.0242053,11.2314956 L11.4162876,9.3698151 L11.4806702,9.2853601 C11.5435209,9.20526281 11.5976576,9.14376284 11.643696,9.100473 C11.714506,9.03389047 11.801115,9 11.8998271,9 Z M11.5911576,10.35 L10.7850482,11.44 L11.5911576,11.44 L11.5911576,10.35 Z M14.0172355,3.46447887 L14,4.7292947 C14,5.29723228 14.4396029,5.73302009 15.0031796,5.73302009 L16.4201062,5.72434654 L14.0172355,3.46447887 Z" id="Shape" fill="#000000"></path>
    </g>
</svg>