<?xml version="1.0" encoding="UTF-8"?>
<svg width="20px" height="20px" viewBox="0 0 20 20" version="1.1" xmlns="http://www.w3.org/2000/svg" xmlns:xlink="http://www.w3.org/1999/xlink">
    <!-- Generator: Sketch 62 (91390) - https://sketch.com -->
    <title>02 - icon/firma</title>
    <desc>Created with Sketch.</desc>
    <g id="02---icon/firma" stroke="none" stroke-width="1" fill="none" fill-rule="evenodd">
        <path d="M10.520056,15.5058551 C10.4505248,15.4660114 10.4229467,15.5028864 10.4270873,15.5706989 C10.4432201,15.836363 10.4591967,16.1021442 10.480017,16.3675348 C10.4846654,16.4267926 10.5165795,16.471363 10.5833764,16.4175348 C10.814392,16.231363 11.0446654,16.0442145 11.2983764,15.8386676 C11.011931,15.731402 10.7559935,15.6410895 10.520056,15.5058551 Z M15.9058594,3.17800358 C15.8435156,3.32003483 15.783125,3.46296451 15.7228125,3.60585514 C15.5755078,3.95476139 15.5862109,3.97386295 15.9484375,4.0730817 C16.0150781,4.09132389 16.0626562,4.08898014 16.0907812,4.02081608 C16.1869141,3.78788639 16.2946094,3.55874576 16.3739453,3.32019108 C16.4333984,3.14140201 16.3166406,3.00261295 16.1408984,3.0065192 C16.0211328,3.00687076 15.9505469,3.07616764 15.9058594,3.17800358 Z M4.61705028,15.5294788 C4.69271434,15.6360022 4.75025341,15.6181116 4.83720653,15.5518616 C5.17330028,15.2956506 5.52185497,15.0550647 5.84904247,14.7881897 C6.26767528,14.4467835 6.67501903,14.0896741 6.92306591,13.5929163 C6.99896434,13.4409631 7.06357372,13.2872913 7.02888622,13.1088147 C6.92884716,12.5938147 6.38224559,12.2111585 5.83111278,12.2738928 C4.91025341,12.3787366 4.14798778,13.22776 4.14486278,13.9038147 C4.13622997,14.6688928 4.32345653,15.1160022 4.61705028,15.5294788 Z M16.1430078,5.26378483 C15.6719531,5.0583942 15.1997656,4.85562076 14.7301953,4.64702701 C14.6298828,4.6024567 14.5787109,4.62179264 14.5355859,4.7227692 C13.9916016,5.99690983 13.4458203,7.27034733 12.8971875,8.54253483 C12.8439062,8.66605045 12.8693359,8.72890201 12.9946875,8.7802692 C13.4520312,8.9677692 13.9078125,9.15929264 14.3598437,9.35913639 C14.4891406,9.41632389 14.5368359,9.38226139 14.5884375,9.26046451 C15.1213281,8.00273014 15.6598047,6.74733951 16.1966406,5.49128483 C16.2144531,5.44956608 16.2314453,5.40741764 16.2464453,5.37112858 C16.2448437,5.29663639 16.1892187,5.28398014 16.1430078,5.26378483 Z M12.1870092,14.915152 C12.6973607,13.7181989 13.4045312,12.0300348 14.1128516,10.3869489 C14.1824609,10.2253473 14.1505469,10.1676911 13.9924609,10.105113 C13.563125,9.93515201 13.1380469,9.75304264 12.7189844,9.55909733 C12.5449219,9.47855045 12.4771484,9.51679264 12.4040234,9.68890201 C11.6433203,11.479488 10.9254076,13.1491755 10.4773998,14.1959723 C10.4345092,14.2962848 10.3979857,14.3865973 10.502556,14.4764411 C10.9310326,14.844488 11.4305248,15.0437458 12.0570873,15.1208942 C12.1378295,15.1329255 12.1489623,15.0044098 12.1870092,14.915152 Z M2.02595653,17.5697522 C2.06345653,17.3674475 2.19564403,17.2460803 2.36462841,17.1426819 C2.85857372,16.8404553 3.34497997,16.525846 3.83923778,16.2240881 C3.96685497,16.1461585 3.98997997,16.0885413 3.89974559,15.9549866 C3.53970653,15.4220569 3.31259716,14.8376819 3.30568309,14.1866272 C3.29122997,12.828346 4.34818309,11.6270178 5.69685497,11.4588538 C6.44423778,11.3656506 7.06181591,11.6210803 7.52205028,12.2032288 C7.94736278,12.7412366 7.99919872,13.3406897 7.67927684,13.9572913 C7.35419872,14.5838538 6.85341747,15.0560803 6.31037059,15.4878381 C6.03540966,15.706471 5.75681591,15.9212366 5.47009716,16.123971 C5.32451122,16.2269006 5.34525341,16.2805725 5.48189403,16.3647131 C5.63240184,16.4574085 5.78595653,16.5435803 5.95064403,16.6033069 C6.25431591,16.713385 7.92039834,15.5965868 8.58445411,15.721502 C9.28574616,15.8534217 9.35322011,16.1178864 9.46665761,16.1996442 C9.4470873,15.9391755 9.42556386,15.678863 9.40845448,15.418277 C9.38626698,15.0812067 9.36755605,14.7439411 9.34755605,14.4067145 C9.3398998,14.2774958 9.39872792,14.1662067 9.44712636,14.0531989 C10.3592357,11.9244489 12.5754297,6.76503483 13.626875,4.31394108 C13.7165234,4.1049567 13.795625,3.88956608 13.9837109,3.74073795 C14.1430469,3.61468326 14.3278125,3.55038639 14.5252734,3.5462067 C14.6390625,3.54378483 14.6842187,3.49831608 14.7218359,3.40398014 C14.8085937,3.18655826 14.8982812,2.96991764 14.9966016,2.75753483 C15.2441797,2.22280826 15.7415234,1.94581608 16.3282422,2.00882389 C16.8032422,2.05980045 17.2447656,2.45554264 17.3615625,2.94866764 C17.4276953,3.22784733 17.3996484,3.50429264 17.289375,3.77054264 C17.2022656,3.9808942 17.1188672,4.19292545 17.0244922,4.3999567 C16.9777734,4.50241764 16.9850781,4.57132389 17.0672656,4.65773014 C17.3132812,4.91632389 17.3784375,5.22444889 17.2515625,5.55929264 C17.2028906,5.68773014 17.2234375,5.75218326 17.3436328,5.82480045 C17.9582031,6.19605045 18.17625,7.05284733 17.8159766,7.6749567 C17.6334375,7.99011295 17.4276172,8.29179264 17.2460547,8.60749576 C16.7582031,9.4558942 16.4721094,10.3650739 16.4430859,11.3490973 C16.440625,11.4331208 16.4230078,11.5167926 16.4117969,11.6005817 C16.3777734,11.8553083 16.1992969,12.0099176 15.9638672,11.9890192 C15.7435156,11.9694489 15.5782031,11.783277 15.5848828,11.5451911 C15.6207422,10.2700348 15.9540625,9.0821442 16.6353906,7.99784733 C16.7808203,7.76644108 16.9303906,7.53761295 17.0735547,7.30480045 C17.2076953,7.08667545 17.189375,6.87218326 17.0418359,6.66616764 C16.9228125,6.5 16.8658594,6.50378483 16.7856641,6.68999576 C16.4229297,7.5324567 16.0604297,8.37507389 15.7006641,9.21882389 C14.3917578,12.2885895 13.1558373,15.2069098 12.9950951,15.5980817 C12.9290404,15.7587458 12.8342748,15.8919098 12.6987279,16.0015583 C11.9448607,16.6114411 11.1941185,17.225152 10.4393139,17.833902 C10.3491576,17.9065973 10.2410717,17.9570661 10.141306,18.0178864 L9.82880605,18.0178864 C9.49251698,17.7690583 9.2858373,17.4090192 9.03509511,17.0874958 C8.88737641,16.8980879 8.77575428,16.5469237 8.23759516,16.6452581 C7.35023547,16.8073996 6.66769547,17.744637 5.33185497,17.2430725 C5.13641004,17.1696893 4.95814403,17.0497913 4.80869091,16.9067444 C4.64322216,16.748385 4.51603466,16.7726428 4.33689403,16.8910413 C3.82189403,17.2313538 3.29408153,17.5524475 2.76837841,17.8762366 C2.40978466,18.097096 2.20271434,18.03026 2.02595653,17.6478772 L2.02595653,17.5697522 Z" id="Fill-1" fill="#2F9988"></path>
    </g>
</svg>