<?xml version="1.0" encoding="UTF-8"?>
<svg width="20px" height="20px" viewBox="0 0 20 20" version="1.1" xmlns="http://www.w3.org/2000/svg" xmlns:xlink="http://www.w3.org/1999/xlink">
    <!-- Generator: Sketch 60.1 (88133) - https://sketch.com -->
    <title>02 - icon/gruppi-modifica</title>
    <desc>Created with Sketch.</desc>
    <g id="02---icon/gruppi-modifica" stroke="none" stroke-width="1" fill="none" fill-rule="evenodd">
        <path d="M12.001117,2 C12.7992636,2 13.5499475,2.30860572 14.1146556,2.86889742 C15.2888222,4.03613952 15.29599,5.93927269 14.1307347,7.11154851 C14.0445546,7.19885617 13.9539184,7.28019757 13.8593236,7.35536189 C14.4749903,7.59901193 15.0406541,7.96817392 15.524426,8.44816237 C16.2590474,9.17845151 16.7195813,10.081576 16.9055492,11.0282176 L18.1810332,12.305666 C18.3313441,12.4577044 18.3501329,12.7050866 18.23686,12.8815039 L18.1802275,12.9522816 L13.68688,17.4456274 C13.6459783,17.4868081 13.5974315,17.5198484 13.5445452,17.542952 L13.4623742,17.5699301 L11.5614097,18.0019672 C11.4092051,18.036781 11.2446429,17.9894128 11.1342383,17.8790083 C11.0459147,17.7906847 10.9979343,17.6677002 11,17.5442488 L11.0112178,17.4521071 L11.1476419,16.8530399 C10.1608297,17.4427246 8.69709255,18 7,18 C4.70712591,18 2.90014993,16.998385 2,16.2444926 C2.01168922,15.7300632 2.02693812,15.4791926 2.02936072,15.4570514 C2.14713043,14.37047 2.61923141,13.3151652 3.44636414,12.4804298 C3.93828478,11.9854692 4.51445661,11.6058376 5.14258407,11.3549756 C5.05363436,11.287326 4.96803589,11.2119164 4.88622235,11.1312962 C3.71166832,9.96599013 3.7037256,8.06305056 4.86781848,6.88825788 C5.43717594,6.31538189 6.19464027,6 7.001117,6 C7.79926356,6 8.54994752,6.30860572 9.11465558,6.86889742 C9.33279593,7.08575132 9.51065688,7.32800476 9.64820364,7.58625243 C9.80793959,7.49947643 9.97337668,7.42255376 10.1425841,7.3549756 C10.0536344,7.28732599 9.96803589,7.21191636 9.88622235,7.13129618 C8.71166832,5.96599013 8.7037256,4.06305056 9.86781848,2.88825788 C10.4371759,2.31538189 11.1946403,2 12.001117,2 Z M7.00165572,12 C5.92763623,12 4.91888865,12.4200075 4.16065101,13.1829309 C3.49973423,13.8499226 3.03368841,14.7510312 3.00279496,15.7361298 C4.32279651,16.7047981 5.95275934,17.008705 7.01181531,17.008705 C8.08789873,17.008705 9.71328503,16.6975224 11.002324,15.7415937 C10.9098856,14.8571701 10.4951885,13.8319876 9.81634527,13.1571478 C9.06429943,12.4109834 8.06458156,12 7.00165572,12 Z M12.1873314,16.44 L12.0703314,16.96 L12.5903314,16.843 L12.1873314,16.44 Z M15.5742928,12.7 L12.6812928,15.595 L13.3917189,16.3044261 L16.2847189,13.4114261 L15.5742928,12.7 Z M12,14 C11.8575983,14 11.7170708,13.9961366 11.5785183,13.9887091 C11.7229346,14.3137739 11.8293954,14.6525406 11.8993701,14.9972777 L12.9568412,13.941248 C12.6478002,13.9791498 12.3282655,14 12,14 Z M12.0016557,8 C11.2738505,8 10.5760184,8.19286928 9.96580153,8.55461862 C10.1015072,9.46059298 9.82304835,10.4150638 9.13073475,11.1115485 C9.04455461,11.1988562 8.95391839,11.2801976 8.85932358,11.3553619 C9.47499035,11.5990119 10.0406541,11.9681739 10.524426,12.4481624 C10.674673,12.5975233 10.813455,12.7541139 10.940768,12.9168279 C11.3323719,12.9818973 11.6972735,13.008705 12.0118153,13.008705 C12.6369081,13.008705 13.4473579,12.9036994 14.2695614,12.6283038 L15.8658117,11.0315488 C15.6762892,10.3475696 15.3186207,9.65646108 14.8163453,9.15714779 C14.0642994,8.41098342 13.0645816,8 12.0016557,8 Z M16.4385435,11.8327133 L16.2235435,12.0487133 L16.9421168,12.7672867 L17.1551168,12.5532867 L16.4385435,11.8327133 Z M7.00108483,7 C6.46325243,7 5.95818749,7.21036389 5.57835945,7.59234495 C4.80257696,8.37516609 4.80789524,9.64403583 5.59036846,10.4205135 C5.96916717,10.7939222 6.47045784,11 7.00091327,11 C7.53926034,11 8.04329593,10.7898076 8.42003594,10.4079979 C9.197534,9.62569114 9.19255884,8.35699284 8.40957094,7.57880074 C8.03368872,7.20556341 7.53325583,7 7.00108483,7 Z M12.0010848,3 C11.4632524,3 10.9581875,3.21036389 10.5783594,3.59234495 C9.80257696,4.37516609 9.80789524,5.64403583 10.5903685,6.42051348 C10.9691672,6.79392225 11.4704578,7 12.0009133,7 C12.5392603,7 13.0432959,6.78980755 13.4200359,6.40799794 C14.197534,5.62569114 14.1925588,4.35699284 13.4095709,3.57880074 C13.0336887,3.20556341 12.5332558,3 12.0010848,3 Z" id="Combined-Shape" fill="#000000"></path>
    </g>
</svg>