<?xml version="1.0" encoding="UTF-8"?>
<svg width="20px" height="20px" viewBox="0 0 20 20" version="1.1" xmlns="http://www.w3.org/2000/svg" xmlns:xlink="http://www.w3.org/1999/xlink">
    <!-- Generator: Sketch 60.1 (88133) - https://sketch.com -->
    <title>02 - icon/gruppi-banca</title>
    <desc>Created with Sketch.</desc>
    <g id="02---icon/gruppi-banca" stroke="none" stroke-width="1" fill="none" fill-rule="evenodd">
        <path d="M12.001117,2 C12.7992636,2 13.5499475,2.30860572 14.1146556,2.86889742 C15.2888222,4.03613952 15.29599,5.93927269 14.1307347,7.11154851 C14.0445546,7.19885617 13.9539184,7.28019757 13.8593236,7.35536189 C14.4749903,7.59901193 15.0406541,7.96817392 15.524426,8.44816237 C16.3739935,9.29271968 16.8569901,10.3684308 16.9726761,11.4752808 C16.9755071,11.502367 17.0014883,12.1550317 17.0000615,12.2427216 C16.9597883,12.2781912 16.9171567,12.3142975 16.8722329,12.3508981 L17.2464504,12.5658784 C17.6915329,12.8202644 17.511057,13.5 16.9984328,13.5 L17,13.5 L17,17 C17.2761424,17 17.5,17.2238576 17.5,17.5 C17.5,17.7761424 17.2761424,18 17,18 L10,18 C9.75598399,18 9.55279481,17.8251996 9.50881955,17.5939859 C8.76768391,17.8369482 7.91798039,18 7,18 C4.70712591,18 2.90014993,16.998385 2,16.2444926 C2.01168922,15.7300632 2.02693812,15.4791926 2.02936072,15.4570514 C2.14713043,14.37047 2.61923141,13.3151652 3.44636414,12.4804298 C3.93828478,11.9854692 4.51445661,11.6058376 5.14258407,11.3549756 C5.05363436,11.287326 4.96803589,11.2119164 4.88622235,11.1312962 C3.71166832,9.96599013 3.7037256,8.06305056 4.86781848,6.88825788 C5.43717594,6.31538189 6.19464027,6 7.001117,6 C7.79926356,6 8.54994752,6.30860572 9.11465558,6.86889742 C9.33279593,7.08575132 9.51065688,7.32800476 9.64820364,7.58625243 C9.80793959,7.49947643 9.97337668,7.42255376 10.1425841,7.3549756 C10.0536344,7.28732599 9.96803589,7.21191636 9.88622235,7.13129618 C8.71166832,5.96599013 8.7037256,4.06305056 9.86781848,2.88825788 C10.4371759,2.31538189 11.1946403,2 12.001117,2 Z M7.00165572,12 C5.92763623,12 4.91888865,12.4200075 4.16065101,13.1829309 C3.49973423,13.8499226 3.03368841,14.7510312 3.00279496,15.7361298 C4.32279651,16.7047981 5.95275934,17.008705 7.01181531,17.008705 C7.82248543,17.008705 8.9449069,16.8320964 10.0004132,16.3362617 L10,13.5 C9.64325052,13.5 9.44737594,13.1709866 9.51107807,12.8850996 C8.8041752,12.3113823 7.92686027,12 7.00165572,12 Z M16,13.5 L15,13.5 L15,17 L16,17 L16,13.5 Z M12,13.5 L11,13.5 L11,17 L12,17 L12,13.5 Z M14,13.5 L13,13.5 L13,17 L14,17 L14,13.5 Z M13.5,11.576 L11.883,12.5 L15.116,12.5 L13.5,11.576 Z M12.0016557,8 C11.2738505,8 10.5760184,8.19286928 9.96580153,8.55461862 C10.1015072,9.46059298 9.82304835,10.4150638 9.13073475,11.1115485 C9.04455461,11.1988562 8.95391839,11.2801976 8.85932358,11.3553619 C9.38552543,11.5633754 9.87533484,11.8635867 10.3086313,12.2461461 L13.2511464,10.5658784 C13.4048306,10.4780405 13.5934975,10.4780405 13.7471817,10.5658784 L13.7471817,10.5658784 L15.913,11.803 L16.002324,11.7415937 C15.9175888,10.930872 15.5620667,10.0018739 14.9805194,9.33287234 L14.8163453,9.15714779 C14.0642994,8.41098342 13.0645816,8 12.0016557,8 Z M7.00108483,7 C6.46325243,7 5.95818749,7.21036389 5.57835945,7.59234495 C4.80257696,8.37516609 4.80789524,9.64403583 5.59036846,10.4205135 C5.96916717,10.7939222 6.47045784,11 7.00091327,11 C7.53926034,11 8.04329593,10.7898076 8.42003594,10.4079979 C9.197534,9.62569114 9.19255884,8.35699284 8.40957094,7.57880074 C8.03368872,7.20556341 7.53325583,7 7.00108483,7 Z M12.0010848,3 C11.4632524,3 10.9581875,3.21036389 10.5783594,3.59234495 C9.80257696,4.37516609 9.80789524,5.64403583 10.5903685,6.42051348 C10.9691672,6.79392225 11.4704578,7 12.0009133,7 C12.5392603,7 13.0432959,6.78980755 13.4200359,6.40799794 C14.197534,5.62569114 14.1925588,4.35699284 13.4095709,3.57880074 C13.0336887,3.20556341 12.5332558,3 12.0010848,3 Z" id="Combined-Shape" fill="#000000"></path>
    </g>
</svg>