<?xml version="1.0" encoding="UTF-8"?>
<svg width="20px" height="20px" viewBox="0 0 20 20" version="1.1" xmlns="http://www.w3.org/2000/svg" xmlns:xlink="http://www.w3.org/1999/xlink">
    <!-- Generator: Sketch 62 (91390) - https://sketch.com -->
    <title>02 - icon/icon-30</title>
    <desc>Created with Sketch.</desc>
    <g id="02---icon/icon-30" stroke="none" stroke-width="1" fill="none" fill-rule="evenodd">
        <path d="M16.5889166,6.35156112 L5.96528847,5.04628532 L5.79486316,3.88539188 C5.76681672,3.6946197 5.62943116,3.53976376 5.44668596,3.49284787 L3.58003425,3.01460224 C3.33027626,2.94989561 3.07692495,3.10637758 3.01401879,3.36252593 C2.95157929,3.61896124 3.10357141,3.87860079 3.35351607,3.94259006 L4.91847019,4.34355119 L6.15531361,12.7707653 C6.26059276,13.4829686 6.84326809,14 7.5407425,14 L15.6000112,14 C15.8577025,14 16.0666741,13.7858416 16.0666741,13.5217544 C16.0666741,13.2576671 15.8577025,13.0435087 15.6000112,13.0435087 L7.5407425,13.0435087 C7.30834436,13.0435087 7.11374592,12.8686143 7.07841954,12.628535 L6.99890018,12.0870175 L15.1333483,12.0870175 C16.16262,12.0870175 17,11.2288535 17,10.174035 L17,6.82631556 C17,6.58417979 16.8234147,6.38030368 16.5889166,6.35156112 Z M14.5,14 C15.32715,14 16,14.67285 16,15.5 C16,16.32715 15.32715,17 14.5,17 C13.67285,17 13,16.32715 13,15.5 C13,14.67285 13.67285,14 14.5,14 Z M8.5,14 C9.32715,14 10,14.67285 10,15.5 C10,16.32715 9.32715,17 8.5,17 C7.67285,17 7,16.32715 7,15.5 C7,14.67285 7.67285,14 8.5,14 Z M14.5,15 C14.22435,15 14,15.22435 14,15.5 C14,15.77565 14.22435,16 14.5,16 C14.77565,16 15,15.77565 15,15.5 C15,15.22435 14.77565,15 14.5,15 Z M8.5,15 C8.22435,15 8,15.22435 8,15.5 C8,15.77565 8.22435,16 8.5,16 C8.77565,16 9,15.77565 9,15.5 C9,15.22435 8.77565,15 8.5,15 Z M6,6 L16,7.19863367 L16,10.0628719 C16,10.5796981 15.5795818,11 15.0626128,11 L6.75314376,11 L6,6 Z" id="Shape" fill="#2F9988"></path>
    </g>
</svg>