<?xml version="1.0" encoding="UTF-8"?>
<svg width="20px" height="20px" viewBox="0 0 20 20" version="1.1" xmlns="http://www.w3.org/2000/svg" xmlns:xlink="http://www.w3.org/1999/xlink">
    <!-- Generator: Sketch 62 (91390) - https://sketch.com -->
    <title>02 - icon/icon-28</title>
    <desc>Created with Sketch.</desc>
    <g id="02---icon/icon-28" stroke="none" stroke-width="1" fill="none" fill-rule="evenodd">
        <path d="M10.0910303,5.55642694 L10.1800578,5.5782167 L17.610918,8.15137021 C17.847423,8.23384447 18,8.45206897 18,8.70733609 C18,8.92613648 17.8879026,9.1177219 17.7072728,9.2197952 L17.7011491,12.2657295 C17.7011491,12.3489664 17.6560635,12.4253395 17.5840192,12.4636895 C17.5300655,12.4925337 17.4676965,12.4963129 17.4119523,12.476268 L17.3589734,12.4483277 L16.7034833,12.0489865 L16.0325844,12.8441008 C15.9922651,12.8802718 15.9413353,12.899011 15.8898751,12.899011 C15.859105,12.899011 15.8282289,12.8923651 15.7992626,12.8786375 C15.7410117,12.8512642 15.6985769,12.7994998 15.681224,12.7383285 L15.6725749,12.6745764 L15.6886098,9.83145078 L15.0129426,10.0726884 L15.0129426,12.9493021 C15.0129426,13.2729528 14.833955,13.5613955 14.5574301,13.6998529 L14.4493202,13.7445197 L10.2541181,15.107971 C10.1722062,15.1354261 10.0861561,15.1492626 10,15.1492626 C9.94256256,15.1492626 9.8851723,15.1431131 9.82899241,15.1308463 L9.74577576,15.1078621 L5.63075944,13.7279162 C5.33187736,13.6289423 5.11968061,13.3654636 5.07621568,13.0524107 L5.06798588,12.9329166 L5.06798588,10.1909741 L2.38908193,9.26330202 C2.15257698,9.18082776 2,8.96260326 2,8.70733614 C2,8.48853575 2.11209738,8.29695033 2.29272717,8.19487703 L2.38855141,8.15158813 L9.81750179,5.57897935 C9.90623094,5.54939975 10.0004509,5.54194356 10.0910303,5.55642694 Z M14.002441,10.4669887 L10.3112697,11.7867238 C10.2093576,11.812992 10.142278,11.8261261 10.1100311,11.8261261 C10.0777842,11.8261261 10.0123934,11.8129758 9.91385861,11.7866753 L9.91385861,11.7866753 L6,10.4667462 L6,12.6347034 C6,12.78577 6.09644205,12.9184021 6.2398438,12.9646826 L6.2398438,12.9646826 L10.003606,14.193882 C10.0738515,14.2169738 10.1511798,14.2168768 10.2214253,14.193979 L10.2214253,14.193979 L13.761821,12.9648767 C13.9059989,12.9184021 14.002441,12.78577 14.002441,12.6347034 L14.002441,12.6347034 L14.002441,10.4669887 Z M15.1086086,8.22714104 L14.5889272,8.40440329 L16.4212305,9.03151912 L16.3984441,11.5431868 L16.6370306,11.2869036 L16.8395302,11.4265399 L16.8519025,8.86048753 L15.1086086,8.22714104 Z M10.0718684,6.43625842 L3.50762372,8.69914833 L10.0837173,10.9160478 L14.8620081,9.20206115 L12.7216978,8.32539907 L14.0861414,7.86250387 L10.0718684,6.43625842 Z M10,8 C10.5522847,8 11,8.22385763 11,8.5 C11,8.77614237 10.5522847,9 10,9 C9.44771525,9 9,8.77614237 9,8.5 C9,8.22385763 9.44771525,8 10,8 Z" id="Combined-Shape" fill="#2F9988"></path>
    </g>
</svg>