<?xml version="1.0" encoding="UTF-8"?>
<svg width="20px" height="20px" viewBox="0 0 20 20" version="1.1" xmlns="http://www.w3.org/2000/svg" xmlns:xlink="http://www.w3.org/1999/xlink">
    <!-- Generator: Sketch 62 (91390) - https://sketch.com -->
    <title>02 - icon/icon-16</title>
    <desc>Created with Sketch.</desc>
    <g id="02---icon/icon-16" stroke="none" stroke-width="1" fill="none" fill-rule="evenodd">
        <path d="M8.39999996,3.00032704 L13.7938918,3.00158705 C13.9264073,3.001618 14.0534908,3.05425263 14.1472217,3.14792693 L16.8576771,5.85674639 C16.9515696,5.9505822 17.0042943,6.07790322 17.0042304,6.21064715 L17.0006738,13.6000002 C16.9996278,14.3729353 16.3729355,14.999326 15.6,15 L12.9999999,15 L13.0006738,15.6000002 C12.9996278,16.3729353 12.3729355,16.999326 11.6,17 L4.4,17 C3.62680135,17 3,16.3731986 3,15.6 L3,6.4 C2.999673,5.62680135 3.62647435,5 4.399673,5 L4.39983651,5.00004088 L6.99999987,5 L7,4.4 C6.99969223,3.67228362 7.55490301,3.0742479 8.26484372,3.00640881 L8.399673,3 C8.39978201,3 8.39989103,3.00000001 8.39999996,3.00032704 Z M4.49999997,6.00016351 C4.49994552,6.00000001 4.49989102,6 4.49983652,6 L4.40996111,6.00805567 C4.17671369,6.05039163 3.99985468,6.25454011 4,6.5 L4,6.5 L4,15.5 C4,15.7761424 4.22385763,16 4.5,16 L4.5,16 L11.5,16 C11.7760215,15.9996905 11.9998291,15.7760214 12.0003094,15.5000001 L12.0003094,15.5000001 L12.0043302,9.00331097 L9.99999939,9.00110206 C9.4480366,8.9996721 9.00094744,8.55196428 9.00028074,8.00000004 L9.00028074,8.00000004 L9.00084176,6.00163539 Z M8.5,14 C8.77614237,14 9,14.2238576 9,14.5 C9,14.7761424 8.77614237,15 8.5,15 L5.5,15 C5.22385763,15 5,14.7761424 5,14.5 C5,14.2238576 5.22385763,14 5.5,14 L8.5,14 Z M8.49999997,4.00016351 C8.49994552,4.00000001 8.49989102,4 8.49983652,4 L8.40996111,4.00805567 C8.17671369,4.05039163 7.99985468,4.25454011 8,4.5 L8,4.5 L7.99999987,5.001 L9.79389181,5.00158705 C9.92640727,5.001618 10.0534908,5.05425263 10.1472217,5.14792693 L12.8576771,7.85674639 C12.8996679,7.89871185 12.9334248,7.94737461 12.9579084,8.00022455 L14.5,8 C14.7761424,8 15,8.22385763 15,8.5 C15,8.77614237 14.7761424,9 14.5,9 L13.0039999,9 L13.0029999,10 L14.5,10 C14.7761424,10 15,10.2238576 15,10.5 C15,10.7761424 14.7761424,11 14.5,11 L13.0019999,11 L13.0009999,14 L15.5,14 C15.7453525,13.9997249 15.9494495,13.8229681 15.9921127,13.5898336 L16.0003094,13.5000001 L16.0043302,7.00331097 L13.9999994,7.00110206 C13.4480366,6.9996721 13.0009474,6.55196428 13.0002807,6.00000004 L13.0002807,6.00000004 L13.0008418,4.00163539 Z M10.5,12 C10.7761424,12 11,12.2238576 11,12.5 C11,12.7761424 10.7761424,13 10.5,13 L5.5,13 C5.22385763,13 5,12.7761424 5,12.5 C5,12.2238576 5.22385763,12 5.5,12 L10.5,12 Z M10.5,10 C10.7761424,10 11,10.2238576 11,10.5 C11,10.7761424 10.7761424,11 10.5,11 L5.5,11 C5.22385763,11 5,10.7761424 5,10.5 C5,10.2238576 5.22385763,10 5.5,10 L10.5,10 Z M10.0083718,6.5 L10,7.45857032 C10,7.76492728 10.2135277,8 10.4872731,8 L11.5,7.99532131 L10.0083718,6.5 Z M14.0083718,4.5 L14,5.45857032 C14,5.76492728 14.2135277,6 14.4872731,6 L15.5,5.99532131 L14.0083718,4.5 Z" id="Combined-Shape" fill="#2F9988"></path>
    </g>
</svg>