<?xml version="1.0" encoding="UTF-8"?>
<svg width="20px" height="20px" viewBox="0 0 20 20" version="1.1" xmlns="http://www.w3.org/2000/svg" xmlns:xlink="http://www.w3.org/1999/xlink">
    <!-- Generator: Sketch 62 (91390) - https://sketch.com -->
    <title>02 - icon/icon-12</title>
    <desc>Created with Sketch.</desc>
    <g id="02---icon/icon-12" stroke="none" stroke-width="1" fill="none" fill-rule="evenodd">
        <path d="M11.5013032,3 C12.4324742,3 13.3082721,3.36004001 13.9670982,4.01371366 C15.3369592,5.37549611 15.3453216,7.59581814 13.9858572,8.96347327 C13.8639664,9.08695881 13.7344349,9.20021419 13.5982968,9.30280115 C14.5225048,9.57598734 15.3702189,10.0344652 16.0816856,10.6550427 C17.1861166,11.6202511 17.8140083,12.8496352 17.9643991,14.1146066 C17.9680794,14.1455623 18.0018547,14.8914648 18,14.9916818 C16.9076535,15.8374512 14.480678,17 11.49996,17 C9.65615522,17 8.05404894,16.5619932 6.82315933,16.0239307 L7.53324888,15.247345 C8.96379804,15.8054189 10.4480591,16 11.5127275,16 C12.9924293,16 15.2274671,15.6272299 17,14.4821091 C16.8728897,13.4226453 16.3026476,12.1945644 15.3691833,11.386164 C14.3350594,10.492323 12.9603664,10 11.4987573,10 C10.0218935,10 8.63478394,10.5031331 7.59214581,11.41705 C7.49896136,11.4989747 7.40859408,11.5838478 7.32140013,11.6714755 L6.64510917,10.9117192 C6.72087436,10.8370838 6.79925845,10.7637865 6.88026181,10.6919198 C7.60177721,10.0536967 8.46271625,9.58325759 9.40277956,9.30266418 C9.27342402,9.20698853 9.15038806,9.10127544 9.03392607,8.98651221 C7.66361304,7.62698848 7.65434654,5.40689232 9.0124549,4.03630086 C9.67670527,3.36794553 10.5604137,3 11.5013032,3 Z M5.80261069,11.3553954 L7.64644661,13.1955473 C7.84170876,13.3908095 7.84170876,13.707392 7.64644661,13.9026541 L7.595,13.945 L5.79866539,15.7389942 C5.62509904,15.9125605 5.35567464,15.9318457 5.1608065,15.7968496 L5.09155861,15.7389942 C4.89629646,15.543732 4.89629646,15.2271495 5.09155861,15.0318874 L5.09155861,15.0318874 L6.031,14.094 L2.5,14.0943896 C2.22385763,14.0943896 2,13.8705319 2,13.5943896 C2,13.3182472 2.22385763,13.0943896 2.5,13.0943896 L6.129,13.094 L5.09550391,12.0625022 C4.90024177,11.86724 4.90024177,11.5506575 5.09550391,11.3553954 C5.29076606,11.1601332 5.60734855,11.1601332 5.80261069,11.3553954 Z M11.501356,4 C10.8290655,4 10.1977344,4.26295487 9.72294931,4.74043119 C8.7532212,5.71895761 8.75986905,7.30504479 9.73796058,8.27564185 C10.211459,8.74240281 10.8380723,9 11.5011416,9 C12.1740754,9 12.8041199,8.73725944 13.2750449,8.25999743 C14.2469175,7.28211393 14.2406986,5.69624105 13.2619637,4.72350092 C12.7921109,4.25695427 12.1665698,4 11.501356,4 Z" id="Combined-Shape" fill="#2F9988"></path>
    </g>
</svg>