<?xml version="1.0" encoding="UTF-8"?>
<svg width="20px" height="20px" viewBox="0 0 20 20" version="1.1" xmlns="http://www.w3.org/2000/svg" xmlns:xlink="http://www.w3.org/1999/xlink">
    <!-- Generator: Sketch 61 (89581) - https://sketch.com -->
    <title>02 - icon/info</title>
    <desc>Created with Sketch.</desc>
    <g id="02---icon/info" stroke="none" stroke-width="1" fill="none" fill-rule="evenodd">
        <path d="M10.0000741,2.00000823 C14.4182643,2.00000823 18.0001399,5.58188386 18.0001399,10.0000741 C18.0001399,14.4182643 14.4182643,18.0001399 10.0000741,18.0001399 C5.58188386,18.0001399 2.00000823,14.4182643 2.00000823,10.0000741 C2.00000823,5.58188386 5.58188386,2.00000823 10.0000741,2.00000823 Z M10.0000741,3.00007406 C6.13421232,3.00007406 3.00007406,6.13421232 3.00007406,10.0000741 C3.00007406,13.8659358 6.13421232,17.0000741 10.0000741,17.0000741 C13.8659358,17.0000741 17.0000741,13.8659358 17.0000741,10.0000741 C17.0000741,6.13421232 13.8659358,3.00007406 10.0000741,3.00007406 Z M10,9 C10.2761424,9 10.5,9.22385763 10.5,9.5 L10.5,12.5 C10.5,12.7761424 10.2761424,13 10,13 C9.72385763,13 9.5,12.7761424 9.5,12.5 L9.5,9.5 C9.5,9.22385763 9.72385763,9 10,9 Z M10,7 C10.2761424,7 10.5,7.22385763 10.5,7.5 C10.5,7.77614237 10.2761424,8 10,8 C9.72385763,8 9.5,7.77614237 9.5,7.5 C9.5,7.22385763 9.72385763,7 10,7 Z" id="Combined-Shape" fill="#000000"></path>
    </g>
</svg>