<?xml version="1.0" encoding="UTF-8"?>
<svg width="20px" height="20px" viewBox="0 0 20 20" version="1.1" xmlns="http://www.w3.org/2000/svg" xmlns:xlink="http://www.w3.org/1999/xlink">
    <!-- Generator: Sketch 60.1 (88133) - https://sketch.com -->
    <title>02 - icon/money</title>
    <desc>Created with Sketch.</desc>
    <g id="02---icon/money" stroke="none" stroke-width="1" fill="none" fill-rule="evenodd">
        <path d="M15.6442121,6.84171127 C16.1881064,6.74580803 16.7067647,7.10897654 16.802668,7.65287084 L16.802668,7.65287084 L17.6709089,12.5769096 C17.7668121,13.1208039 17.4036436,13.6394623 16.8597493,13.7353655 L16.8597493,13.7353655 L4.05724851,15.9927919 C3.51335421,16.0886951 2.99469582,15.7255266 2.89879258,15.1816323 L2.89879258,15.1816323 L2.03055169,10.2575935 C1.93464845,9.71369921 2.29781697,9.19504082 2.84171127,9.09913758 L2.84171127,9.09913758 Z M3.70690352,14.0231763 L3.88055169,15.0079841 L4.86535945,14.8343359 C4.6546363,14.374079 4.21147511,14.0637742 3.70690352,14.0231763 L3.70690352,14.0231763 Z M13.8285922,8.1775529 L5.00098704,9.73409787 C5.18607451,10.7291984 4.36797717,11.9078885 3.36961982,12.0842989 L3.36961982,12.0842989 L3.53804487,13.0394848 C4.53750455,12.8634023 5.6743539,13.6638091 5.86228155,14.6593615 L5.86228155,14.6593615 L14.7254146,13.096552 C14.5419659,12.1213238 15.3771477,10.9443216 16.3385553,10.7707706 L16.3385553,10.7707706 L16.170832,9.8195644 C15.1961215,9.97733128 14.0232649,9.17200778 13.8285922,8.1775529 L13.8285922,8.1775529 Z M16.5113268,11.76575 C16.0510699,11.9764732 15.7407651,12.4196344 15.7001672,12.924206 L15.7001672,12.924206 L16.684975,12.7505578 Z M9.5889229,9.94003993 C9.98070378,9.87095839 10.3838809,9.9603406 10.7097598,10.1885235 C11.0356388,10.4167064 11.2575253,10.7649984 11.3266068,11.1567793 C11.4704617,11.9726207 10.9257089,12.7506083 10.1098674,12.8944632 C9.29402598,13.038318 8.5160384,12.4935653 8.37218354,11.6777238 C8.22832868,10.8618824 8.77308144,10.0838948 9.5889229,9.94003993 Z M9.89402422,10.9171742 L9.80411515,10.9248477 C9.53216799,10.9727993 9.35058374,11.2321285 9.39853536,11.5040756 C9.44648698,11.7760228 9.70581617,11.9576071 9.97776332,11.9096554 C10.2497105,11.8617038 10.4312947,11.6023746 10.3833431,11.3304275 C10.3353915,11.0584803 10.0760623,10.8768961 9.80411515,10.9248477 Z M4.00171127,9.91029715 L3.01690352,10.0839453 L3.19055169,11.0687531 C3.65080862,10.8580299 3.96111342,10.4148688 4.00171127,9.91029715 L4.00171127,9.91029715 Z M15.8213268,7.82651902 L14.836519,8.0001672 C15.0473598,8.46032607 15.4904552,8.77058482 15.994975,8.81132678 L15.994975,8.81132678 L15.8213268,7.82651902 Z M14.4959976,3.89094539 L15.4281922,5.89232501 L14.4091922,6.07232501 L13.5896898,4.31356365 L7.02519225,7.37432501 L3.21819225,8.04532501 L13.1670715,3.40725587 C13.6676115,3.17385025 14.262592,3.39040542 14.4959976,3.89094539 Z" id="Combined-Shape" fill="#000000"></path>
    </g>
</svg>