<?xml version="1.0" encoding="UTF-8"?>
<svg width="20px" height="20px" viewBox="0 0 20 20" version="1.1" xmlns="http://www.w3.org/2000/svg" xmlns:xlink="http://www.w3.org/1999/xlink">
    <!-- Generator: Sketch 60.1 (88133) - https://sketch.com -->
    <title>02 - icon/monete</title>
    <desc>Created with Sketch.</desc>
    <g id="02---icon/monete" stroke="none" stroke-width="1" fill="none" fill-rule="evenodd">
        <path d="M13.5,4 C15.9852814,4 18,4.44771525 18,5 L18,5 L18,14 C18,14.5522847 15.9852814,15 13.5,15 C12.574788,15 11.7147913,14.9379512 10.9996785,14.8315578 L11,16 C11,16.5522847 8.98528137,17 6.5,17 C4.01471863,17 2,16.5522847 2,16 L2,16 L2,11 L2.00712355,10.9432542 C2.13950564,10.4173707 4.10041798,10 6.5,10 C7.42563834,10 8.28600134,10.062106 9.00131004,10.1685893 L9,5 L9.00712355,4.94325418 C9.13950564,4.4173707 11.100418,4 13.5,4 Z M10,14.5048477 C9.06368203,14.7807798 7.89572184,14.9187459 6.49611941,14.9187459 C5.09651698,14.9187459 3.93114385,14.7807798 3,14.5048477 L3,14.5048477 L3,15.5253677 C3.93734844,15.7867043 5.10540611,15.9173727 6.504173,15.9173727 C7.90293989,15.9173727 9.06821555,15.7867043 10,15.5253677 L10,15.5253677 Z M17,12.5048477 C16.063682,12.7807798 14.8957218,12.9187459 13.4961194,12.9187459 C12.5586418,12.9187459 11.7262523,12.8568468 10.998951,12.7330484 L10.9993864,13.7407643 C11.7303749,13.8585032 12.5653037,13.9173727 13.504173,13.9173727 C14.9029399,13.9173727 16.0682156,13.7867043 17,13.5253677 L17,13.5253677 Z M10,12.5048477 C9.06368203,12.7807798 7.89572184,12.9187459 6.49611941,12.9187459 C5.09651698,12.9187459 3.93114385,12.7807798 3,12.5048477 L3,12.5048477 L3,13.5253677 C3.93734844,13.7867043 5.10540611,13.9173727 6.504173,13.9173727 C7.90293989,13.9173727 9.06821555,13.7867043 10,13.5253677 L10,13.5253677 Z M6.5,11 C4.56700338,11 3,11.2238576 3,11.5 C3,11.7761424 4.56700338,12 6.5,12 C8.43299662,12 10,11.7761424 10,11.5 C10,11.2238576 8.43299662,11 6.5,11 Z M17,10.5048477 C16.063682,10.7807798 14.8957218,10.9187459 13.4961194,10.9187459 C12.4626352,10.9187459 11.5568653,10.8435195 10.7788097,10.6930665 C10.9235623,10.7888182 11,10.8924254 11,11 L11,11 L10.9993864,11.7407643 C11.7303749,11.8585032 12.5653037,11.9173727 13.504173,11.9173727 C14.9029399,11.9173727 16.0682156,11.7867043 17,11.5253677 L17,11.5253677 Z M17,8.50484766 C16.063682,8.78077985 14.8957218,8.91874594 13.4961194,8.91874594 C12.096517,8.91874594 10.9311438,8.78077985 10,8.50484766 L10,8.50484766 L10,9.52536772 C10.9373484,9.78670434 12.1054061,9.91737265 13.504173,9.91737265 C14.9029399,9.91737265 16.0682156,9.78670434 17,9.52536772 L17,9.52536772 Z M17,6.50484766 C16.063682,6.78077985 14.8957218,6.91874594 13.4961194,6.91874594 C12.096517,6.91874594 10.9311438,6.78077985 10,6.50484766 L10,6.50484766 L10,7.52536772 C10.9373484,7.78670434 12.1054061,7.91737265 13.504173,7.91737265 C14.9029399,7.91737265 16.0682156,7.78670434 17,7.52536772 L17,7.52536772 Z M13.5,5 C11.5670034,5 10,5.22385763 10,5.5 C10,5.77614237 11.5670034,6 13.5,6 C15.4329966,6 17,5.77614237 17,5.5 C17,5.22385763 15.4329966,5 13.5,5 Z" id="Combined-Shape-Copy" fill="#000000"></path>
    </g>
</svg>