<svg xmlns="http://www.w3.org/2000/svg" xmlns:xlink="http://www.w3.org/1999/xlink" width="20" height="20" version="1.1"><rect id="backgroundrect" width="100%" height="100%" x="0" y="0" fill="none" stroke="none"/>
    <!-- Generator: Sketch 62 (91390) - https://sketch.com -->
    <title>02 - icon/more</title>
    <desc>Created with Sketch.</desc>
    
<g class="currentLayer" style=""><title>Layer 1</title><g id="02---icon/more" stroke="none" stroke-width="1" fill="#ffffff" fill-rule="evenodd" class="" fill-opacity="1">
        <path d="M9.5,14 C10.3284271,14 11,14.6715729 11,15.5 C11,16.3284271 10.3284271,17 9.5,17 C8.67157288,17 8,16.3284271 8,15.5 C8,14.6715729 8.67157288,14 9.5,14 Z M9.5,9 C10.3284271,9 11,9.67157288 11,10.5 C11,11.3284271 10.3284271,12 9.5,12 C8.67157288,12 8,11.3284271 8,10.5 C8,9.67157288 8.67157288,9 9.5,9 Z M9.5,4 C10.3284271,4 11,4.67157288 11,5.5 C11,6.32842712 10.3284271,7 9.5,7 C8.67157288,7 8,6.32842712 8,5.5 C8,4.67157288 8.67157288,4 9.5,4 Z" id="Combined-Shape" fill="#ffffff" fill-opacity="1"/>
    </g></g></svg>