<?xml version="1.0" encoding="UTF-8"?>
<svg width="20px" height="20px" viewBox="0 0 20 20" version="1.1" xmlns="http://www.w3.org/2000/svg" xmlns:xlink="http://www.w3.org/1999/xlink">
    <!-- Generator: Sketch 62 (91390) - https://sketch.com -->
    <title>02 - icon/no-avvisi</title>
    <desc>Created with Sketch.</desc>
    <g id="02---icon/no-avvisi" stroke="none" stroke-width="1" fill="none" fill-rule="evenodd">
        <path d="M15.0685942,7.80218918 L15.0685942,9.08333813 C15.0685942,9.65009542 15.3457686,10.3198199 15.9584857,11.086326 C16.1250519,11.294708 16.6852316,11.9264638 16.501177,12.7235556 C16.3171224,13.5206474 15.819328,14.0133649 14.9984752,14.0133649 L13.0629894,14.0129894 L13.0618266,14.0859798 C12.9618103,15.8936665 11.4862385,17.0337732 10.0168009,17.0337732 C8.57032323,17.0337732 7.12474615,15.9290165 6.98498874,14.1702244 L8.36498941,13.0019894 L14.7863607,13.0024212 C14.9317284,13.0024212 15.072773,12.9529652 15.1863214,12.8621988 C15.4626572,12.6413059 15.5076049,12.2382168 15.2867206,11.9618804 C14.5076209,10.9872306 14.0139591,10.0549902 14.0139591,9.1589634 L14.0129894,8.22298941 L15.0493014,7.34688267 C15.0620795,7.49597723 15.0685942,7.64780631 15.0685942,7.80218918 Z M12.0013119,14.0290476 L8.0250032,14.0290476 C8.00125771,14.9932941 8.96766876,16 10,16 C11.0323312,16 12.0179587,15.0405268 12.0013119,14.0290476 Z M16.8816931,3.17702888 C17.0402461,3.36440959 17.0370901,3.63450488 16.8863774,3.81748909 L16.8229711,3.88169314 L3.82297112,14.8816931 C3.61216782,15.0600652 3.29667888,15.0337744 3.11830686,14.8229711 C2.95975395,14.6355904 2.96290989,14.3654951 3.11362255,14.1825109 L3.17702888,14.1183069 L16.1770289,3.11830686 C16.3878322,2.93993483 16.7033211,2.96622558 16.8816931,3.17702888 Z M10.0488672,3 C11.1614085,3 12.1749412,3.30470773 12.9953935,3.84647801 L12.1732825,4.54190676 C11.5807559,4.2072172 10.8545098,4.01493934 10.0082796,4.01493934 C7.46248597,4.01493934 6.03615602,5.75513739 6.03615599,7.87781445 L6.03615599,9.1589634 C6.03615599,9.36508102 6.01774119,9.57311492 5.97990003,9.78314053 L3.86014324,11.5749532 C3.92977969,11.4001606 4.025185,11.2353354 4.14431832,11.0862994 C4.75701846,10.3198101 5.0196257,9.65009124 5.0196257,9.08333813 L5.0196257,7.80218917 C5.01962574,4.97195308 7.21863114,3 10.0488672,3 Z" id="Color" fill="#2F9988"></path>
    </g>
</svg>