<?xml version="1.0" encoding="UTF-8"?>
<svg width="20px" height="20px" viewBox="0 0 20 20" version="1.1" xmlns="http://www.w3.org/2000/svg" xmlns:xlink="http://www.w3.org/1999/xlink">
    <!-- Generator: Sketch 60.1 (88133) - https://sketch.com -->
    <title>02 - icon/pannello</title>
    <desc>Created with Sketch.</desc>
    <g id="02---icon/pannello" stroke="none" stroke-width="1" fill="none" fill-rule="evenodd">
        <path d="M17.5,2 C17.7761424,2 18,2.22385763 18,2.5 C18,2.77614237 17.7761424,3 17.5,3 L17,3 L17,3 L17,14 C17,14.5522847 16.6082492,15 16.125,15 L11.688,15 L14.2365812,17.1364082 C14.4243647,17.2937966 14.4671318,17.5600105 14.349961,17.7655982 L14.2981333,17.8399527 L14.2981333,17.8399527 C14.120508,18.0513956 13.805437,18.0789607 13.5939685,17.901721 L10.132,15 L9.867,15 L6.40603148,17.901721 C6.21805948,18.0592674 5.94822871,18.0549927 5.76593814,17.9037174 L5.70186667,17.8399527 L5.70186667,17.8399527 L5.65003896,17.7655982 C5.53286821,17.5600105 5.57563534,17.2937966 5.76341879,17.1364082 L5.76341879,17.1364082 L8.311,15 L3.875,15 C3.39175084,15 3,14.5522847 3,14 L3,3 L2.5,3 C2.22385763,3 2,2.77614237 2,2.5 C2,2.22385763 2.22385763,2 2.5,2 L17.5,2 Z M16,3 L4,3 L4,14 L16,14 L16,3 Z M5.5,10 C5.77614237,10 6,10.2238576 6,10.5 L6,12.5 C6,12.7761424 5.77614237,13 5.5,13 C5.22385763,13 5,12.7761424 5,12.5 L5,10.5 C5,10.2238576 5.22385763,10 5.5,10 Z M7.5,7 C7.77614237,7 8,7.22385763 8,7.5 L8,12.5 C8,12.7761424 7.77614237,13 7.5,13 C7.22385763,13 7,12.7761424 7,12.5 L7,7.5 C7,7.22385763 7.22385763,7 7.5,7 Z M9.5,8 C9.77614237,8 10,8.22385763 10,8.5 L10,12.5 C10,12.7761424 9.77614237,13 9.5,13 C9.22385763,13 9,12.7761424 9,12.5 L9,8.5 C9,8.22385763 9.22385763,8 9.5,8 Z M11.5,4 C11.7761424,4 12,4.22385763 12,4.5 L12,12.5 C12,12.7761424 11.7761424,13 11.5,13 C11.2238576,13 11,12.7761424 11,12.5 L11,4.5 C11,4.22385763 11.2238576,4 11.5,4 Z M13.5,8 C13.7761424,8 14,8.22385763 14,8.5 L14,12.5 C14,12.7761424 13.7761424,13 13.5,13 C13.2238576,13 13,12.7761424 13,12.5 L13,8.5 C13,8.22385763 13.2238576,8 13.5,8 Z" id="Rectangle" fill="#000000"></path>
    </g>
</svg>