<?xml version="1.0" encoding="UTF-8"?>
<svg width="20px" height="20px" viewBox="0 0 20 20" version="1.1" xmlns="http://www.w3.org/2000/svg" xmlns:xlink="http://www.w3.org/1999/xlink">
    <!-- Generator: Sketch 60.1 (88133) - https://sketch.com -->
    <title>02 - icon/plus</title>
    <desc>Created with Sketch.</desc>
    <g id="02---icon/plus" stroke="none" stroke-width="1" fill="none" fill-rule="evenodd">
        <path d="M17,10.5 C17,10.7761424 16.7761424,11 16.5,11 L3.5,11 C3.22385763,11 3,10.7761424 3,10.5 C3,10.2238576 3.22385763,10 3.5,10 L16.5,10 C16.7761424,10 17,10.2238576 17,10.5 Z" id="Path" fill="#000000"></path>
        <path d="M17,10 C17,10.2761424 16.7761424,10.5 16.5,10.5 L3.5,10.5 C3.22385763,10.5 3,10.2761424 3,10 C3,9.72385763 3.22385763,9.5 3.5,9.5 L16.5,9.5 C16.7761424,9.5 17,9.72385763 17,10 Z" id="Path" fill="#000000" transform="translate(10.000000, 10.000000) rotate(90.000000) translate(-10.000000, -10.000000) "></path>
    </g>
</svg>