<?xml version="1.0" encoding="UTF-8"?>
<svg width="20px" height="20px" viewBox="0 0 20 20" version="1.1" xmlns="http://www.w3.org/2000/svg" xmlns:xlink="http://www.w3.org/1999/xlink">
    <!-- Generator: Sketch 60.1 (88133) - https://sketch.com -->
    <title>02 - icon/print</title>
    <desc>Created with Sketch.</desc>
    <g id="02---icon/print" stroke="none" stroke-width="1" fill="none" fill-rule="evenodd">
        <path d="M12.9436565,2 C14.4849,2 15.7398565,3.49487942 15.7398565,5 C15.8287481,5 15.9351515,4.99282264 16.0218576,4.99524706 C17.0112826,5.02291269 17.9993176,6.09025106 17.9993176,7.00447343 L17.9993176,7.00447343 L17.9993176,12.0020972 C17.9993176,13.0092044 16.969958,14.0034533 16.0505037,14.0034533 L16.0505037,14.0034533 L13.9953197,14.0034533 L13.9953197,16.6394358 C13.9953197,17.3900812 13.3678415,18.0028529 12.5991806,18.0028529 L12.5991806,18.0028529 L7.40245205,18.0028529 C6.63379118,18.0028529 6.00631292,17.3900812 6.00631292,16.6394358 L6.00631292,16.6394358 L6.00631292,14.0034533 L4.00328626,14.0034533 C3.01882308,14.0034533 1.99720764,13.0189585 1.99720764,11.9870881 L1.99720764,11.9870881 L1.99720764,7.02181243 C1.99720764,6.00952965 3.01504401,5.00501162 4.02088951,5.00155903 C4.07289131,5.00235073 4.16487477,5.0009527 4.29683988,4.99736492 C4.29683988,3.49224434 5.53156957,2 7.07281304,2 L7.07281304,2 Z M13.0055471,11.9988556 L7.0023011,11.9988556 L7.00257418,16.5679361 C7.00257418,16.8034386 7.15552201,16.9988556 7.33984375,16.9988556 L7.33984375,16.9988556 L12.6685506,16.9988556 C12.8528724,16.9988556 13.0058202,16.8034386 13.0058202,16.5679361 L13.0058202,16.5679361 L13.0055471,11.9988556 Z M11.5036765,15 C11.7794118,15 12,15.2222222 12,15.5 C12,15.7777778 11.7794118,16 11.5036765,16 L11.5036765,16 L8.49632353,16 C8.22058824,16 8,15.7777778 8,15.5 C8,15.2222222 8.22058824,15 8.49632353,15 L8.49632353,15 Z M11.5036765,13 C11.7794118,13 12,13.2222222 12,13.5 C12,13.7777778 11.7794118,14 11.5036765,14 L11.5036765,14 L8.49632353,14 C8.22058824,14 8,13.7777778 8,13.5 C8,13.2222222 8.22058824,13 8.49632353,13 L8.49632353,13 Z M15.3115846,5.82557745 L4.72006807,5.82557745 C3.76316372,5.82557745 2.98273763,6.5877123 2.98273763,7.5221892 L2.98273763,7.5221892 L2.98273763,11.3185552 C2.98273763,12.2530321 3.76316372,13.015167 4.72006807,13.015167 L4.72006807,13.015167 L6.01670505,13.015167 L6.01670505,12.0037966 L5.49618696,12.0037966 C5.20205652,12.0037966 4.99414245,11.7851439 4.99414245,11.4979071 C4.99414245,11.2106704 5.20205652,11.0056038 5.49618696,11.0056038 L5.49618696,11.0056038 L14.4379261,11.0056038 C14.7320565,11.0056038 15.011382,11.2175474 15.011382,11.5047841 C15.011382,11.7920209 14.7320565,12.0144581 14.4379261,12.0144581 L14.4379261,12.0144581 L14.0131128,12.0144581 L14.0131128,13.0139684 L15.3115846,13.0139684 C16.268489,13.0139684 17.048915,12.2518335 17.048915,11.3173566 L17.048915,11.3173566 L17.048915,7.5221892 C17.048915,6.5877123 16.268489,5.82557745 15.3115846,5.82557745 L15.3115846,5.82557745 Z M15.5036765,7 C15.7794118,7 16,7.22222222 16,7.5 C16,7.77777778 15.7794118,8 15.5036765,8 L15.5036765,8 L14.4963235,8 C14.2205882,8 14,7.77777778 14,7.5 C14,7.22222222 14.2205882,7 14.4963235,7 L14.4963235,7 Z M12.935813,3.00297546 L7.0688913,3.00297546 C6.11198696,3.00297546 5.33156087,3.99548051 5.33156087,4.92995741 L5.33156087,4.92995741 L5.33156087,4.98698866 L14.6731435,5.00113639 L14.6731435,4.94410514 C14.6731435,4.00962824 13.8927174,3.00297546 12.935813,3.00297546 L12.935813,3.00297546 Z" id="Combined-Shape" fill="#000000"></path>
    </g>
</svg>