<?xml version="1.0" encoding="UTF-8"?>
<svg width="20px" height="20px" viewBox="0 0 20 20" version="1.1" xmlns="http://www.w3.org/2000/svg" xmlns:xlink="http://www.w3.org/1999/xlink">
    <!-- Generator: Sketch 60.1 (88133) - https://sketch.com -->
    <title>02 - icon/raccoglitori</title>
    <desc>Created with Sketch.</desc>
    <g id="02---icon/raccoglitori" stroke="none" stroke-width="1" fill="none" fill-rule="evenodd">
        <path d="M8.55714173,2.02778497 C8.8015995,2.02778497 9,2.2180002 9,2.45237254 L9,17.6031974 C9,17.8375697 8.8015995,18.027785 8.55714173,18.027785 L2.44285827,18.027785 C2.1984005,18.027785 2,17.8375697 2,17.6031974 L2,2.45237254 C2,2.2180002 2.1984005,2.02778497 2.44285827,2.02778497 L8.55714173,2.02778497 Z M8.00987013,3.03901026 L3.00987013,3.03901026 L3.00987013,17.0390103 L8.00987013,17.0390103 L8.00987013,3.03901026 Z M5.5,13 C6.32714932,13 7,13.6728507 7,14.5 C7,15.3271493 6.32714932,16 5.5,16 C4.67285068,16 4,15.3271493 4,14.5 C4,13.6728507 4.67285068,13 5.5,13 Z M5.49506494,14 C5.22202912,14 5,14.2220291 5,14.4950649 C5,14.7681007 5.22202912,14.9901299 5.49506494,14.9901299 C5.76810075,14.9901299 5.99012987,14.7681007 5.99012987,14.4950649 C5.99012987,14.2220291 5.76810075,14 5.49506494,14 Z M6.49011424,6 C6.76883839,6 6.9950493,6.22621091 6.9950493,6.50493506 C6.9950493,6.78365922 6.76883839,7.00987013 6.49011424,7.00987013 L4.50493506,7.00987013 C4.22621091,7.00987013 4,6.78365922 4,6.50493506 C4,6.22621091 4.22621091,6 4.50493506,6 L6.49011424,6 Z M6.49011424,4 C6.76883839,4 6.9950493,4.22621091 6.9950493,4.50493506 C6.9950493,4.78365922 6.76883839,5.00987013 6.49011424,5.00987013 L4.50493506,5.00987013 C4.22621091,5.00987013 4,4.78365922 4,4.50493506 C4,4.22621091 4.22621091,4 4.50493506,4 L6.49011424,4 Z" id="Fill-1" fill="#000000"></path>
        <path d="M16.2931543,1.58623065 C16.5376121,1.58623065 16.7360126,1.77644588 16.7360126,2.01081822 L16.7360126,17.1616431 C16.7360126,17.3960154 16.5376121,17.5862306 16.2931543,17.5862306 L10.1788708,17.5862306 C9.93441306,17.5862306 9.73601256,17.3960154 9.73601256,17.1616431 L9.73601256,2.01081822 C9.73601256,1.77644588 9.93441306,1.58623065 10.1788708,1.58623065 L16.2931543,1.58623065 Z M15.7458827,2.59745593 L10.7458827,2.59745593 L10.7458827,16.5974559 L15.7458827,16.5974559 L15.7458827,2.59745593 Z M13.2360126,12.5584457 C14.0631619,12.5584457 14.7360126,13.2312964 14.7360126,14.0584457 C14.7360126,14.885595 14.0631619,15.5584457 13.2360126,15.5584457 C12.4088632,15.5584457 11.7360126,14.885595 11.7360126,14.0584457 C11.7360126,13.2312964 12.4088632,12.5584457 13.2360126,12.5584457 Z M13.2310775,13.5584457 C12.9580417,13.5584457 12.7360126,13.7804748 12.7360126,14.0535106 C12.7360126,14.3265464 12.9580417,14.5485755 13.2310775,14.5485755 C13.5041133,14.5485755 13.7261424,14.3265464 13.7261424,14.0535106 C13.7261424,13.7804748 13.5041133,13.5584457 13.2310775,13.5584457 Z M14.2261268,5.55844568 C14.504851,5.55844568 14.7310619,5.78465659 14.7310619,6.06338074 C14.7310619,6.3421049 14.504851,6.56831581 14.2261268,6.56831581 L12.2409476,6.56831581 C11.9622235,6.56831581 11.7360126,6.3421049 11.7360126,6.06338074 C11.7360126,5.78465659 11.9622235,5.55844568 12.2409476,5.55844568 L14.2261268,5.55844568 Z M14.2261268,3.55844568 C14.504851,3.55844568 14.7310619,3.78465659 14.7310619,4.06338074 C14.7310619,4.3421049 14.504851,4.56831581 14.2261268,4.56831581 L12.2409476,4.56831581 C11.9622235,4.56831581 11.7360126,4.3421049 11.7360126,4.06338074 C11.7360126,3.78465659 11.9622235,3.55844568 12.2409476,3.55844568 L14.2261268,3.55844568 Z" id="Fill-1-Copy" fill="#000000" transform="translate(13.236013, 9.586231) rotate(-10.000000) translate(-13.236013, -9.586231) "></path>
    </g>
</svg>