<?xml version="1.0" encoding="UTF-8"?>
<svg width="20px" height="20px" viewBox="0 0 20 20" version="1.1" xmlns="http://www.w3.org/2000/svg" xmlns:xlink="http://www.w3.org/1999/xlink">
    <!-- Generator: Sketch 62 (91390) - https://sketch.com -->
    <title>02 - icon/riepilogo-conti</title>
    <desc>Created with Sketch.</desc>
    <g id="02---icon/riepilogo-conti" stroke="none" stroke-width="1" fill="none" fill-rule="evenodd">
        <path d="M15,2 C15.5522847,2 16,2.44771525 16,3 L16,8.01 L15.2135939,8.0142969 L15.2135939,8.0142969 L15.1598184,8.00729301 C15.0751089,7.98422818 15.0127254,7.90686579 15.0124867,7.81481864 L15.0124867,7.81481864 L15.0005173,3.19948132 C15.0002314,3.08922725 14.9107725,3 14.800518,3 L14.800518,3 L3.2,3 C3.08954305,3 3,3.08954305 3,3.2 L3,3.2 L3,16.5171573 C3,16.5702006 3.02107137,16.6210714 3.05857864,16.6585786 C3.1366835,16.7366835 3.2633165,16.7366835 3.34142136,16.6585786 L3.34142136,16.6585786 L3.6464466,16.3535587 C3.84246325,16.159054 4.15904336,16.1602796 4.35354808,16.3562963 L4.35354808,16.3562963 L4.64501339,16.6500272 L4.64501339,16.6500272 C4.84387145,16.847299 5.16045133,16.8460136 5.35491901,16.6499602 L5.35491901,16.6499602 L5.64591409,16.3565923 C5.64703112,16.3554661 5.64815351,16.3543453 5.64928121,16.3532298 C5.84560591,16.159036 6.16218368,16.1607635 6.35637747,16.3570882 L6.35637747,16.3570882 L6.64477093,16.6486462 L6.64477093,16.6486462 C6.84457006,16.8465897 7.16114896,16.8450834 7.35547984,16.6488944 L7.35547984,16.6488944 L7.64476839,16.3568398 C7.64588453,16.355713 7.64700602,16.3545915 7.64813283,16.3534754 C7.84432183,16.1591445 8.16090073,16.1606508 8.35523161,16.3568398 L8.35523161,16.3568398 L8.64476839,16.649145 C8.64588453,16.6502718 8.64700602,16.6513933 8.64813283,16.6525095 C8.84432183,16.8468403 9.16090073,16.845334 9.35523161,16.649145 L9.35523161,16.649145 L9.64476839,16.3568398 C9.64588453,16.355713 9.64700602,16.3545915 9.64813283,16.3534754 C9.84432183,16.1591445 10.1609007,16.1606508 10.3552316,16.3568398 L10.3552316,16.3568398 L10.6447684,16.649145 C10.6458845,16.6502718 10.647006,16.6513933 10.6481328,16.6525095 C10.8443218,16.8468403 11.1609007,16.845334 11.3552316,16.649145 L11.3552316,16.649145 L11.6447684,16.3568398 C11.6458845,16.355713 11.647006,16.3545915 11.6481328,16.3534754 C11.8443218,16.1591445 12.1609007,16.1606508 12.3552316,16.3568398 L12.3552316,16.3568398 L12.6447684,16.649145 C12.6458845,16.6502718 12.647006,16.6513933 12.6481328,16.6525095 C12.8443218,16.8468403 13.1609007,16.845334 13.3552316,16.649145 L13.3552316,16.649145 L13.6461386,16.3554565 L13.6461386,16.3554565 C13.8435694,16.1583669 14.1601517,16.1586497 14.3552393,16.3540862 L14.3552393,16.3540862 L14.6584524,16.6578415 C14.6959698,16.6954261 14.7468948,16.7165466 14.8,16.7165466 C14.9104569,16.7165466 15,16.6270035 15,16.5165466 L15,16.5165466 L15,15.2008096 L15,15.2008096 L15.0073605,15.146863 C15.0309868,15.0623084 15.1087612,15.0004394 15.2008079,15.0008112 L15.2008079,15.0008112 L16,15.003 L16,16.666454 C16,16.8817708 15.9305029,17.0913371 15.8018439,17.2639876 L15.4006733,17.8023275 C15.2356689,18.0237505 14.9224076,18.0694869 14.7009846,17.9044826 C14.6622469,17.8756153 14.6278974,17.8412862 14.5990071,17.8025658 L14.4020118,17.5385411 C14.2368759,17.3172161 13.9235874,17.271666 13.7022625,17.4368019 C13.6632219,17.465931 13.6286474,17.5006087 13.5996347,17.5397358 L13.4050788,17.8021177 C13.2406026,18.0239334 12.9274512,18.0704163 12.7056355,17.9059402 C12.6665974,17.8769935 12.6319882,17.84251 12.6028996,17.8035776 L12.4040739,17.5374673 C12.2387915,17.3162517 11.9254729,17.2709089 11.7042573,17.4361913 C11.6653737,17.4652434 11.6309276,17.4998026 11.602003,17.5387812 L11.4057527,17.8032471 C11.241196,18.025003 10.9280277,18.0713721 10.7062718,17.9068153 C10.6675351,17.8780703 10.6331619,17.8438711 10.6042207,17.8052808 L10.4031175,17.5371293 C10.2374376,17.3162113 9.924038,17.271432 9.70311998,17.4371119 C9.66414078,17.4663448 9.6296437,17.5011181 9.60072264,17.5403292 L9.40835766,17.8011373 C9.24444499,18.0233697 8.93141255,18.0706472 8.70918013,17.9067345 C8.67018777,17.8779748 8.63558265,17.8437003 8.60645001,17.8049857 L8.40316384,17.5348376 C8.23712572,17.3141887 7.92365393,17.2699179 7.70300499,17.435956 C7.66440904,17.4649994 7.63022529,17.4994823 7.60151924,17.5383298 L7.40718065,17.8013257 C7.2430712,18.0234128 6.929997,18.070413 6.70790986,17.9063036 C6.66895944,17.8775215 6.63439736,17.8432331 6.60530658,17.8045127 L6.4026634,17.5347906 C6.23679383,17.3140149 5.92335593,17.2695047 5.70258026,17.4353743 C5.66399123,17.4643664 5.62980343,17.4987933 5.60108094,17.5375834 L5.40500829,17.8023822 C5.24068112,18.0243083 4.92756098,18.0710015 4.70563488,17.9066743 C4.66692909,17.8780143 4.63256716,17.8439123 4.60361399,17.8054253 L4.4021031,17.5375598 C4.23609529,17.3168881 3.92262958,17.2725742 3.70195783,17.438582 C3.66367264,17.4673833 3.62972559,17.5015376 3.60115782,17.5399974 L3.40379102,17.8057055 C3.23912948,18.0273836 2.9259393,18.0736047 2.70426118,17.9089432 C2.66525639,17.8799706 2.63068289,17.8454673 2.601631,17.8065216 L2.19844744,17.2660304 C2.0696046,17.093309 2,16.8835896 2,16.6681061 L2,3 C2,2.44771525 2.44771525,2 3,2 L15,2 Z M13,5 L13.0001931,9.09620681 C13.4547717,9.03451751 13.9632774,9 14.5,9 C16.4329966,9 18,9.44771525 18,10 L18,10 L18,13 C18,13.5522847 16.4329966,14 14.5,14 C13.9632774,14 13.4547717,13.9654825 13.0001931,13.9037932 L13,14 L5,14 L5,5 L13,5 Z M8,12 L6,12 L6,13 L8,13 L8,12 Z M11,12 L9,12 L9,13 L11,13 L11,12 Z M17,11.5048477 C16.3312015,11.7807798 15.4969442,11.9187459 14.4972281,11.9187459 C13.4975121,11.9187459 12.6651027,11.7807798 12,11.5048477 L12,11.5048477 L12,12.5253677 C12.6695346,12.7867043 13.5038615,12.9173727 14.5029807,12.9173727 C15.5020999,12.9173727 16.3344397,12.7867043 17,12.5253677 L17,12.5253677 Z M8,10 L6,10 L6,11 L8,11 L8,10 Z M11,10 L9,10 L9,11 L11,11 L11,10 Z M14.5,10 C13.1192881,10 12,10.2238576 12,10.5 C12,10.7761424 13.1192881,11 14.5,11 C15.8807119,11 17,10.7761424 17,10.5 C17,10.2238576 15.8807119,10 14.5,10 Z M8,8 L6,8 L6,9 L8,9 L8,8 Z M12,8 L9,8 L9,9 L12,9 L12,8 Z M12,6 L6,6 L6,7 L12,7 L12,6 Z" id="Zone-Fatturazione" fill="#2F9988"></path>
    </g>
</svg>