<?xml version="1.0" encoding="UTF-8"?>
<svg width="67px" height="52px" viewBox="0 0 67 52" version="1.1" xmlns="http://www.w3.org/2000/svg" xmlns:xlink="http://www.w3.org/1999/xlink">
    <!-- Generator: Sketch 58 (84663) - https://sketch.com -->
    <title>icona_taeg</title>
    <desc>Created with Sketch.</desc>
    <defs>
        <rect id="path-1" x="0" y="0" width="84" height="60"></rect>
    </defs>
    <g id="Page-1" stroke="none" stroke-width="1" fill="none" fill-rule="evenodd" opacity="0.3">
        <g id="2smart" transform="translate(-771.000000, -377.000000)">
            <g id="Group-12" transform="translate(256.000000, 231.000000)">
                <g id="Group-11">
                    <g id="Group-10" transform="translate(515.000000, 113.000000)">
                        <g id="Group-8" transform="translate(0.000000, 0.000000)">
                            <g id="icona_taeg" transform="translate(0.000000, 25.000000)">
                                <mask id="mask-2" fill="white">
                                    <use xlink:href="#path-1"></use>
                                </mask>
                                <g id="Rectangle"></g>
                                <path d="M62.3064516,26.0322581 L60.7419355,26.0322581 L60.7419355,8.61290323 L-14.3548387,8.61290323 L-14.3548387,-3 L-22.1774194,-3 C-26.4905337,-3 -30,0.256205806 -30,4.25806452 L-30,59.4193548 C-30,63.4212135 -26.4905337,66.6774194 -22.1774194,66.6774194 L20.0645161,66.6774194 L20.0645161,82.6451613 C20.0645161,85.0458512 22.1706542,87 24.7580645,87 L62.3064516,87 C64.8938619,87 67,85.0458512 67,82.6451613 L67,30.3870968 C67,27.9864068 64.8938619,26.0322581 62.3064516,26.0322581 Z M-26.8709677,4.25806452 C-26.8709677,1.85737458 -24.7648296,-0.0967741935 -22.1774194,-0.0967741935 L-17.483871,-0.0967741935 L-17.483871,52.1612903 L-22.1774194,52.1612903 C-23.9375,52.1612903 -25.56313,52.7042277 -26.8709677,53.6157384 L-26.8709677,4.25806452 Z M-22.1774194,63.7741935 C-24.7648296,63.7741935 -26.8709677,61.8200448 -26.8709677,59.4193548 C-26.8709677,57.0186649 -24.7648296,55.0645161 -22.1774194,55.0645161 L-14.3548387,55.0645161 L-14.3548387,11.516129 L57.6129032,11.516129 L57.6129032,26.0322581 L25.2431562,26.0322581 C22.6160219,19.1413496 15.518405,14.4193548 7.5483871,14.4193548 C-2.80430948,14.4193548 -11.2258065,22.2331149 -11.2258065,31.8387097 C-11.2258065,41.4443044 -2.80430948,49.2580645 7.5483871,49.2580645 C12.2106147,49.2580645 16.653596,47.6335055 20.0645161,44.8032857 L20.0645161,63.7741935 L-22.1774194,63.7741935 Z M20.0645161,30.3870968 L9.11290323,30.3870968 L9.11290323,17.4040922 C15.0096318,17.9569525 20.1195186,21.5902375 22.2019753,26.7438886 C20.9170552,27.5214371 20.0645161,28.8617692 20.0645161,30.3870968 Z M5.98387097,46.281124 C-1.91051862,45.5503559 -8.09677419,39.3519405 -8.09677419,31.8387097 C-8.09677419,24.3254788 -1.91051862,18.1270634 5.98387097,17.3962954 L5.98387097,46.281124 Z M9.11290323,33.2903226 L20.0645161,33.2903226 L20.0645161,40.5164914 C17.4297427,43.7812027 13.4496991,45.8600996 9.11290323,46.2662393 L9.11290323,33.2903226 Z M63.8709677,82.6451613 C63.8709677,83.4446825 63.1681578,84.0967742 62.3064516,84.0967742 L24.7580645,84.0967742 C23.8963584,84.0967742 23.1935484,83.4446825 23.1935484,82.6451613 L23.1935484,30.3870968 C23.1935484,29.5875756 23.8963584,28.9354839 24.7580645,28.9354839 L62.3064516,28.9354839 C63.1681578,28.9354839 63.8709677,29.5875756 63.8709677,30.3870968 L63.8709677,82.6451613 Z" id="Shape" fill="#676767" fill-rule="nonzero" mask="url(#mask-2)"></path>
                                <path d="M27,47 L60,47 L60,32 L27,32 L27,47 Z M30,35 L57,35 L57,44 L30,44 L30,35 Z" id="Shape" fill="#676767" fill-rule="nonzero" mask="url(#mask-2)"></path>
                                <path d="M51,57 L60,57 L60,48 L51,48 L51,57 Z M54,51 L57,51 L57,54 L54,54 L54,51 Z" id="Shape" fill="#676767" fill-rule="nonzero" mask="url(#mask-2)"></path>
                                <path d="M39,57 L48,57 L48,48 L39,48 L39,57 Z M42,51 L45,51 L45,54 L42,54 L42,51 Z" id="Shape" fill="#676767" fill-rule="nonzero" mask="url(#mask-2)"></path>
                                <path d="M27,57 L36,57 L36,48 L27,48 L27,57 Z M30,51 L33,51 L33,54 L30,54 L30,51 Z" id="Shape" fill="#676767" fill-rule="nonzero" mask="url(#mask-2)"></path>
                                <polygon id="Path" fill="#676767" fill-rule="nonzero" mask="url(#mask-2)" points="32 15 54 15 54 18 32 18"></polygon>
                                <polygon id="Path" fill="#676767" fill-rule="nonzero" mask="url(#mask-2)" points="30 20 55 20 55 23 30 23"></polygon>
                            </g>
                        </g>
                    </g>
                </g>
            </g>
        </g>
    </g>
</svg>