<?xml version="1.0" encoding="UTF-8"?>
<svg width="20px" height="20px" viewBox="0 0 20 20" version="1.1" xmlns="http://www.w3.org/2000/svg" xmlns:xlink="http://www.w3.org/1999/xlink">
    <!-- Generator: Sketch 60.1 (88133) - https://sketch.com -->
    <title>02 - icon/valigetta</title>
    <desc>Created with Sketch.</desc>
    <g id="02---icon/valigetta" stroke="none" stroke-width="1" fill="none" fill-rule="evenodd">
        <path d="M13.9945641,3 C14.6703177,3 14.9948146,3.48828295 14.9997649,3.97238344 L15.0025475,5.99811114 L16.0720624,6.00101629 C16.5137479,6.00101629 16.8839725,6.30814307 16.980737,6.72039716 L16.9991142,6.82553393 L17.0053958,6.93434963 L17.0053958,16.0423973 C17.0053958,16.5208899 16.6449484,16.9155153 16.1808781,16.9694491 L16.0720624,16.9757307 L3.93333333,16.9757307 C3.45484079,16.9757307 3.06021535,16.6152833 3.00628158,16.151213 L3,16.0423973 L3,6.93450723 C3,6.45601469 3.3604474,6.06138925 3.82451764,6.00745548 L3.93333333,6.0011739 L5.0037436,6.0011739 L5.00752932,3.97530221 C4.99867484,3.51463466 5.36908958,3.01030587 6.00120752,3.00290516 C7.06823992,3.00685199 13.3188105,3 13.9945641,3 Z M16,11.5 C15.8508911,11.8393351 15.5188423,12.0063706 15.0038536,12.0011063 L11,12 C11.0005319,12.6666667 10.6671986,13 10,13 C9.33280144,13 8.99946811,12.6666667 9,12 L4.99801354,12.001105 C4.61539876,12.0544347 4.28272758,11.8873997 4,11.5 C3.99852498,11.6341146 3.99852498,11.8012415 4,12.0013806 L4,16.0030818 L15.9964245,16.0030818 L15.9964245,12.0013806 C15.9939966,11.9976424 15.9951884,11.8305155 16,11.5 Z M4.00009155,6.99778748 L4.0020573,9.9971365 C4.00325025,10.5490961 4.45075252,10.9963837 5.00271267,10.9973118 L9,10.9980132 C8.99963082,10.3326711 9.33322313,10 10.0007769,10 C10.6683307,10 11.0014051,10.3326711 11,10.9980132 L14.9999084,10.9981465 C15.5521641,10.9980904 15.9998822,10.5504355 16.0000162,9.99817983 L16.0003396,6.99849914 L4.00009155,6.99778748 Z M14,4 L6,4 L6,6 L14,6 L14,4 Z" id="Combined-Shape" fill="#000000"></path>
    </g>
</svg>