<?xml version="1.0" encoding="utf-8"?>
<!-- Generator: Adobe Illustrator 24.0.2, SVG Export Plug-In . SVG Version: 6.00 Build 0)  -->
<svg version="1.1" id="Livello_1" xmlns="http://www.w3.org/2000/svg" xmlns:xlink="http://www.w3.org/1999/xlink" x="0px" y="0px"
	 viewBox="0 0 20 20" style="enable-background:new 0 0 20 20;" xml:space="preserve">
<style type="text/css">
	.st0{fill-rule:evenodd;clip-rule:evenodd;fill:#2F9988;}
</style>
<title>02 - icon/need-help</title>
<desc>Created with Sketch.</desc>
<g id="_x30_2---icon_x2F_need-help">
	<path id="Combined-Shape" class="st0" d="M8.3,3c2.9,0,5.2,2.3,5.3,5.1c1.9,0.5,3.3,2.3,3.3,4.4c0,0.8-0.2,1.6-0.6,2.3l0,0l0.4,1.4
		c0,0.1,0,0.2,0,0.3c-0.1,0.3-0.3,0.4-0.6,0.3l0,0l-1.4-0.4c-0.7,0.4-1.5,0.6-2.3,0.6c-2,0-3.8-1.4-4.4-3.3c-0.9,0-1.7-0.3-2.5-0.7
		l0,0l-1.8,0.5c-0.1,0-0.2,0-0.3,0c-0.3-0.1-0.4-0.3-0.3-0.6l0,0l0.5-1.8C3.3,10.2,3,9.3,3,8.3C3,5.4,5.4,3,8.3,3z M13.5,9.2
		c-0.3,2.3-2.1,4.1-4.4,4.4c0.5,1.4,1.8,2.3,3.3,2.3c0.7,0,1.3-0.2,1.9-0.6l0,0l0.1-0.1l1.3,0.5l-0.5-1.3l0.1-0.1
		c0.4-0.6,0.6-1.2,0.6-1.9C15.9,11,14.9,9.7,13.5,9.2z M8.4,4C6,4,4,6,4,8.4c0,0.8,0.2,1.6,0.7,2.3l0,0l0.1,0.1l-0.4,1.5l1.5-0.4
		L6,12c0.7,0.4,1.5,0.7,2.3,0.7c2.4,0,4.3-2,4.3-4.3S10.7,4,8.4,4z M8.5,10.5C8.8,10.5,9,10.7,9,11s-0.2,0.5-0.5,0.5S8,11.3,8,11
		S8.2,10.5,8.5,10.5z M8.5,5.5l0.2,0c1.1,0.1,1.8,0.8,1.8,1.7c0,0.5-0.2,0.9-0.8,1.4l0,0L9.2,9C9.1,9.1,9,9.2,9,9.3l0,0l0,0.3
		C9,9.8,8.8,10,8.5,10C8.3,10,8,9.8,8,9.5l0,0l0-0.3c0-0.3,0.2-0.6,0.6-1l0,0l0.5-0.4c0.3-0.3,0.5-0.5,0.5-0.7c0-0.5-0.4-0.8-1-0.8
		c-0.7,0-1.1,0.4-1.1,1c0,0.3-0.2,0.5-0.5,0.5S6.5,7.7,6.5,7.4C6.5,6.3,7.3,5.5,8.5,5.5L8.5,5.5z"/>
</g>
</svg>
