<?xml version="1.0" encoding="UTF-8"?>
<svg width="20px" height="20px" viewBox="0 0 20 20" version="1.1" xmlns="http://www.w3.org/2000/svg" xmlns:xlink="http://www.w3.org/1999/xlink">
    <!-- Generator: Sketch 62 (91390) - https://sketch.com -->
    <title>02 - icon/responsive</title>
    <desc>Created with Sketch.</desc>
    <g id="02---icon/responsive" stroke="none" stroke-width="1" fill="none" fill-rule="evenodd">
        <path d="M10.0000741,2.00000823 C14.4182643,2.00000823 18.0001399,5.58188386 18.0001399,10.0000741 C18.0001399,14.4182643 14.4182643,18.0001399 10.0000741,18.0001399 C5.58188386,18.0001399 2.00000823,14.4182643 2.00000823,10.0000741 C2.00000823,5.58188386 5.58188386,2.00000823 10.0000741,2.00000823 Z M10.0000741,3.00007406 C6.13421232,3.00007406 3.00007406,6.13421232 3.00007406,10.0000741 C3.00007406,13.8659358 6.13421232,17.0000741 10.0000741,17.0000741 C13.8659358,17.0000741 17.0000741,13.8659358 17.0000741,10.0000741 C17.0000741,6.13421232 13.8659358,3.00007406 10.0000741,3.00007406 Z M9.70279549,10.7964466 C9.87636185,10.970013 9.895647,11.2394374 9.76065094,11.4343055 L9.70279549,11.5035534 L8.712,12.491 L10.9990082,12.4910082 L13.2862994,12.491 L12.2955039,11.5035534 L12.2376485,11.4343055 C12.1026524,11.2394374 12.1219376,10.970013 12.2955039,10.7964466 C12.4907661,10.6011845 12.8073485,10.6011845 13.0026107,10.7964466 L13.0026107,10.7964466 L14.8138698,12.6031967 C14.9264162,12.6948791 14.9982994,12.8345706 14.9982994,12.9910512 C14.9982994,13.0646105 14.9824146,13.1344597 14.9528304,13.1964448 L14.9528304,13.1964448 L14.940751,13.2241548 C14.9348295,13.2353711 14.9284941,13.246335 14.9219712,13.2569252 C14.9013105,13.2913707 14.8761356,13.3238644 14.8464466,13.3535534 L14.8464466,13.3535534 L13.0026107,15.1937053 C12.8073485,15.3889675 12.4907661,15.3889675 12.2955039,15.1937053 C12.1002418,14.9984432 12.1002418,14.6818607 12.2955039,14.4865986 L12.2955039,14.4865986 L13.2942994,13.491 L11.2503439,13.4910471 L11.2503439,13.4910471 L10.7479325,13.4910471 L10.7479325,13.4910471 L8.704,13.491 L9.70279549,14.4865986 C9.89805764,14.6818607 9.89805764,14.9984432 9.70279549,15.1937053 C9.50753335,15.3889675 9.19095086,15.3889675 8.99568871,15.1937053 L7.1518528,13.3535534 C7.12216382,13.3238644 7.09698895,13.2913707 7.0763282,13.2569252 C7.06980535,13.246335 7.06346988,13.2353711 7.05754842,13.2241548 L7.04546898,13.1964448 L7.04546898,13.1964448 C7.01588477,13.1344597 7,13.0646105 7,12.9910512 C7,12.8345706 7.07188317,12.6948791 7.1844296,12.6031967 L8.99568871,10.7964466 C9.19095086,10.6011845 9.50753335,10.6011845 9.70279549,10.7964466 Z M13.5,5 C14.2796961,5 14.9204487,5.59488808 14.9931334,6.35553999 L15,6.5 L15,10 L6,10 L6,12.9999893 C6,13.5111483 6.38361329,13.9330518 6.87915469,13.9927548 L6.99537363,13.9999786 L7,14 L6.99593451,15 L6.5,15 C5.72030388,15 5.07955132,14.4051119 5.00686658,13.64446 L5,13.5 L5,6.5 C5,5.72030388 5.59488808,5.07955132 6.35553999,5.00686658 L6.5,5 L13.5,5 Z M13.5,6 L6.5,6 C6.25454011,6 6.05039163,6.17687516 6.00805567,6.41012437 L6,6.5 L6,9 L14,9 L14,6.5 C14,6.22385763 13.7761424,6 13.5,6 Z M7.5,7 C7.77614237,7 8,7.22385763 8,7.5 C8,7.77614237 7.77614237,8 7.5,8 C7.22385763,8 7,7.77614237 7,7.5 C7,7.22385763 7.22385763,7 7.5,7 Z M9,7 C9.27614237,7 9.5,7.22385763 9.5,7.5 C9.5,7.77614237 9.27614237,8 9,8 C8.72385763,8 8.5,7.77614237 8.5,7.5 C8.5,7.22385763 8.72385763,7 9,7 Z M10.5,7 C10.7761424,7 11,7.22385763 11,7.5 C11,7.77614237 10.7761424,8 10.5,8 C10.2238576,8 10,7.77614237 10,7.5 C10,7.22385763 10.2238576,7 10.5,7 Z" id="Combined-Shape" fill="#2F9988"></path>
    </g>
</svg>