<?xml version="1.0" encoding="UTF-8"?>
<svg width="113px" height="60px" viewBox="0 0 113 60" version="1.1" xmlns="http://www.w3.org/2000/svg" xmlns:xlink="http://www.w3.org/1999/xlink">
    <!-- Generator: Sketch 61 (89581) - https://sketch.com -->
    <title>04 - elements/OTP/token</title>
    <desc>Created with Sketch.</desc>
    <g id="04---elements/OTP/token" stroke="none" stroke-width="1" fill="none" fill-rule="evenodd">
        <path d="M29,4.6 C15.5242521,4.6 4.6,15.5242521 4.6,29 C4.6,42.4757479 15.5242521,53.4 29,53.4 C35.880372,53.4 42.3005744,50.5382053 46.8895155,45.5930885 L47.0675612,45.4012236 L105.539446,45.4 C106.155239,45.4 106.698733,44.9976246 106.878478,44.4086487 C108.406982,39.4001057 109.170805,34.3935741 109.170805,29.3872999 C109.170805,24.3513704 108.397896,19.095638 106.850579,13.6193381 C106.680208,13.016355 106.129921,12.6000051 105.503329,12.6 L47.0684721,12.5997789 L46.8904195,12.4078857 C42.3014339,7.46218411 35.880837,4.6 29,4.6 Z M29,11.4 C38.7202116,11.4 46.6,19.2797884 46.6,29 C46.6,38.7202116 38.7202116,46.6 29,46.6 C19.2797884,46.6 11.4,38.7202116 11.4,29 C11.4,19.2797884 19.2797884,11.4 29,11.4 Z" id="Combined-Shape" stroke="#2F9988" stroke-width="1.2" fill="#FFFFFF"></path>
        <rect id="Rectangle" stroke="#2F9988" stroke-width="1.2" fill="#F5F5F5" x="56.6" y="22.6" width="42.8" height="11.8" rx="2"></rect>
    </g>
</svg>