<?xml version="1.0" encoding="UTF-8"?>
<svg width="20px" height="20px" viewBox="0 0 20 20" version="1.1" xmlns="http://www.w3.org/2000/svg" xmlns:xlink="http://www.w3.org/1999/xlink">
    <!-- Generator: Sketch 60.1 (88133) - https://sketch.com -->
    <title>02 - icon/addettii</title>
    <desc>Created with Sketch.</desc>
    <g id="02---icon/addettii" stroke="none" stroke-width="1" fill="none" fill-rule="evenodd">
        <path d="M15.0274414,12.9597872 C15.5914063,12.5010837 15.9527344,11.7999183 15.9527344,11.0154772 C15.9527344,9.63691145 14.8375,8.51543964 13.4666992,8.51543964 C13.1834961,8.51543964 12.9113281,8.56336243 12.6576172,8.65145001 C12.3706055,8.39406143 12.0484375,8.18155136 11.7030274,8.01971375 C12.2165039,7.561403 12.5407227,6.89313541 12.5407227,6.15003758 C12.5407227,4.77147181 11.4254883,3.65 10.0546875,3.65 C8.68378905,3.65 7.5685547,4.77147181 7.5685547,6.15003758 C7.5685547,6.89156417 7.89140625,7.55865331 8.40302735,8.01686588 C8.0555664,8.17889991 7.73154298,8.3922938 7.44296875,8.6508608 C7.18896485,8.56316604 6.91660155,8.51543964 6.63330078,8.51543964 C5.2553711,8.51543964 4.13427735,9.6427054 4.13427735,11.02844 C4.13427735,11.8112116 4.49208985,12.5114931 5.05185548,12.97275 C4.21054688,13.5038288 3.65,14.4449027 3.65,15.5154074 L3.65,15.9500514 C3.65,16.2261966 3.8725586,16.45 4.14726563,16.45 L15.9527344,16.45 C16.2274414,16.45 16.45,16.2261966 16.45,15.9500514 L16.45,15.5154074 C16.45,14.4362609 15.8802735,13.488411 15.0274414,12.9597872 Z M14.9583008,11.0245098 C14.9583008,11.8501961 14.2891602,12.5219608 13.4666992,12.5219608 C12.6441406,12.5219608 11.975,11.8501961 11.975,11.0245098 C11.975,10.1987255 12.6441406,9.52696078 13.4666992,9.52696078 C14.2891602,9.52696078 14.9583008,10.1987255 14.9583008,11.0245098 Z M10.0546875,4.66960784 C10.8771485,4.66960784 11.5463867,5.34137255 11.5463867,6.16715684 C11.5463867,6.99284313 10.8771485,7.66460784 10.0546875,7.66460784 C9.23222655,7.66460784 8.56298828,6.99284313 8.56298828,6.16715684 C8.56298828,5.34137255 9.23222655,4.66960784 10.0546875,4.66960784 Z M11.7566406,9.21450979 C11.2789063,9.66960784 10.9805664,10.3127451 10.9805664,11.0245098 C10.9805664,11.8076471 11.3418945,12.5076471 11.9058594,12.9655882 C11.0703125,13.4826471 10.5066406,14.4013725 10.4841797,15.4516667 L9.6158203,15.4516667 C9.59345703,14.410098 9.0388672,13.4978431 8.2147461,12.9785294 C8.77451173,12.5180392 9.13232423,11.8189215 9.13232423,11.037451 C9.13232423,10.3190196 8.8298828,9.67029412 8.34628905,9.21245097 C9.35742188,8.47833333 10.7460938,8.47901961 11.7566406,9.21450979 Z M5.12871095,11.037451 C5.12871095,10.2045098 5.80371095,9.52696078 6.63330078,9.52696078 C7.46298828,9.52696078 8.13789063,10.2045098 8.13789063,11.037451 C8.13789063,11.7926471 7.58291015,12.4201961 6.8609375,12.5305882 C6.7857422,12.524902 6.70986328,12.5219608 6.63330078,12.5219608 C6.55673828,12.5219608 6.48085938,12.524902 6.40576173,12.5305882 C5.6836914,12.4201961 5.12871095,11.7926471 5.12871095,11.037451 Z M4.6455078,15.4516667 C4.67734375,14.4605882 5.43242188,13.6501961 6.396875,13.5349019 C6.47470703,13.5422549 6.55351563,13.5462745 6.63330078,13.5462745 C6.71308595,13.5462745 6.79189453,13.5422549 6.86982423,13.5349019 C7.83427735,13.6502941 8.5892578,14.4605882 8.6211914,15.4516667 L4.6455078,15.4516667 Z M11.4788086,15.4516667 C11.5132813,14.3807843 12.3917969,13.5202941 13.4666992,13.5202941 C14.5416016,13.5202941 15.4201172,14.3807843 15.4544922,15.4516667 L11.4788086,15.4516667 Z" id="Shape" fill="#000000"></path>
    </g>
</svg>