<?xml version="1.0" encoding="UTF-8"?>
<svg width="20px" height="20px" viewBox="0 0 20 20" version="1.1" xmlns="http://www.w3.org/2000/svg" xmlns:xlink="http://www.w3.org/1999/xlink">
    <!-- Generator: Sketch 60.1 (88133) - https://sketch.com -->
    <title>02 - icon/amministratori</title>
    <desc>Created with Sketch.</desc>
    <g id="02---icon/amministratori" stroke="none" stroke-width="1" fill="none" fill-rule="evenodd">
        <path d="M10,4 C11.1045695,4 12,4.8954305 12,6 C12,6.49102214 11.8230511,6.94071564 11.5294415,7.28879225 C11.8269037,7.49948303 12.01474,7.82647787 12.01474,8.26055329 L12.01474,8.26055329 L12.01474,9.92586859 L13.0207367,9.92586859 L13.9343976,8.19278894 C13.3729599,7.83862339 13,7.21286642 13,6.5 C13,5.3954305 13.8954305,4.5 15,4.5 C16.1045695,4.5 17,5.3954305 17,6.5 C17,7.15223954 16.6877805,7.7315563 16.2046443,8.09664747 C16.3183952,8.29976223 16.3823529,8.5369003 16.3823529,8.79446164 L16.3823529,8.79446164 L16.3823529,11.6967664 C16.3823529,12.3242476 16.0329191,12.8520778 15.4377008,13.0743235 C15.3628684,13.1206328 15.0937206,13.1615618 15.0522322,13.1655971 C14.8438319,13.2222827 14.6898552,13.1221893 14.6898552,13.3489319 L14.6898552,13.3489319 L14.6900094,15.0373686 C14.8719184,15.1121612 15,15.2911231 15,15.5 C15,15.7761424 14.7761424,16 14.5,16 L11.5808608,16.0017049 C11.4838134,16.021972 11.3832904,16.0326264 11.2803309,16.0326264 L11.2803309,16.0326264 L8.95008042,16.0326264 C8.84706464,16.0326264 8.74648811,16.0219603 8.64939144,16.0016717 L5.5,16 C5.22385763,16 5,15.7761424 5,15.5 C5,15.2864027 5.133936,15.1040878 5.32240503,15.0324583 L5.32245804,13.3489319 C5.32245804,13.1221893 5.16848137,13.2222827 4.96008109,13.165501 C4.91859267,13.1615618 4.64944492,13.1206328 4.57461245,13.0743235 C4.02271103,12.861224 3.62996034,12.3242476 3.62996034,11.6967664 L3.62996034,11.6967664 L3.62996034,8.79446164 C3.62996034,8.54447841 3.69225791,8.30882005 3.80210438,8.10227544 C3.31562123,7.73784889 3,7.15578309 3,6.5 C3,5.3954305 3.8954305,4.5 5,4.5 C6.1045695,4.5 7,5.3954305 7,6.5 C7,7.20913196 6.63093751,7.83206476 6.07441036,8.18720056 L6.99157659,9.92586859 L8.00660953,9.92586859 L8.00660953,8.26055329 C8.00660953,7.83329583 8.18859161,7.50978158 8.47891995,7.29885054 C8.18061962,6.94999197 8,6.49608897 8,6 C8,4.8954305 8.8954305,4 10,4 Z M11.7709099,10.9097007 L8.45950138,10.9097007 L8.45950138,14.6193146 C8.45950138,14.8342454 8.67959123,15.0091288 8.95008042,15.0091288 L8.95008042,15.0091288 L11.2803309,15.0091288 C11.5508201,15.0091288 11.7709099,14.8342454 11.7709099,14.6193146 L11.7709099,14.6193146 L11.7709099,10.9097007 Z M7.47834329,13.1725146 L6.22753806,13.1725146 C6.27659597,13.319513 6.30361613,13.3400634 6.30361613,13.5033949 L6.30361613,13.5033949 L6.303,15 L7.54645535,15.0011236 C7.51589971,14.9042571 7.49506138,14.8030993 7.48509275,14.6988059 L7.47834329,14.5568782 L7.47834329,13.1725146 Z M13.7847752,13.1725146 L12.752068,13.1725146 L12.752068,14.5568782 C12.752068,14.7116179 12.728198,14.8608689 12.683956,15.0011236 L13.708,15 L13.7086972,13.5 C13.7086972,13.3693348 13.7259901,13.3322222 13.7580249,13.2473406 L13.7847752,13.1725146 Z M5.20674869,8.48944339 C5.13878332,8.49642338 5.06980934,8.5 5,8.5 C4.93328565,8.5 4.86733424,8.49673349 4.80229698,8.49035168 C4.73379101,8.5725625 4.69385993,8.67892218 4.69385993,8.79446164 L4.69385993,8.79446164 L4.69385993,11.6967664 C4.69385993,11.923509 4.8478366,12.1143186 5.05623689,12.1711003 C4.56720341,12.1246685 5.13863881,12.1809963 5.18443898,12.1886825 L5.18443898,12.1886825 L7.47834329,12.1886825 L7.47834329,10.9097007 L6.78045624,10.9097007 C6.59869288,10.9097007 6.43178101,10.8089156 6.34679202,10.6477938 L6.34679202,10.6477938 Z M15.3536165,8.46707425 L15.2955453,8.47831486 C15.1991024,8.49259975 15.1004154,8.5 15,8.5 C14.986946,8.5 14.9739212,8.49987494 14.9609268,8.49962594 L13.8270466,10.6477938 C13.7420576,10.8089156 13.5751457,10.9097007 13.3933824,10.9097007 L12.8046875,10.9097007 L12.8046875,12.1886825 L14.9932258,12.1883943 L14.9932258,12.1883943 C15.0335644,12.1809963 15.0744779,12.1750395 15.1159663,12.1711003 C15.3243666,12.1143186 15.4783433,11.923509 15.4783433,11.6967664 L15.4783433,8.79446164 C15.4783433,8.66885619 15.4311514,8.5540997 15.3536165,8.46707425 Z M10.5087428,8.01465303 L9.49925615,8.01465303 C9.22876696,8.01465303 9.00867711,8.23534271 9.00867711,8.50656909 L9.00867711,8.50656909 L9.00867711,9.92586859 L10.9993218,9.92586859 L10.9993218,8.50656909 C10.9993218,8.23534271 10.779232,8.01465303 10.5087428,8.01465303 L10.5087428,8.01465303 Z M5,5.5 C4.44771525,5.5 4,5.94771525 4,6.5 C4,7.05228475 4.44771525,7.5 5,7.5 C5.55228475,7.5 6,7.05228475 6,6.5 C6,5.94771525 5.55228475,5.5 5,5.5 Z M15,5.5 C14.4477153,5.5 14,5.94771525 14,6.5 C14,7.05228475 14.4477153,7.5 15,7.5 C15.5522847,7.5 16,7.05228475 16,6.5 C16,5.94771525 15.5522847,5.5 15,5.5 Z M10,5 C9.44771525,5 9,5.44771525 9,6 C9,6.55228475 9.44771525,7 10,7 C10.5522847,7 11,6.55228475 11,6 C11,5.44771525 10.5522847,5 10,5 Z" id="Shape" fill="#000000"></path>
    </g>
</svg>