<?xml version="1.0" encoding="UTF-8"?>
<svg width="20px" height="20px" viewBox="0 0 20 20" version="1.1" xmlns="http://www.w3.org/2000/svg" xmlns:xlink="http://www.w3.org/1999/xlink">
    <!-- Generator: Sketch 60.1 (88133) - https://sketch.com -->
    <title>02 - icon/postazione</title>
    <desc>Created with Sketch.</desc>
    <g id="02---icon/postazione" stroke="none" stroke-width="1" fill="none" fill-rule="evenodd">
        <path d="M5.5,2 C6.88071187,2 8,3.11928813 8,4.5 C8,5.31062621 7.61418682,6.03114093 7.01616911,6.48793549 L8.50694332,9.00922105 L9,9.009 L9,9 L10,9 L10,9.009 L14.2632518,9.00999099 C14.6561729,9.03180761 15.0095562,9.13300087 15.3184303,9.31561656 C15.7058826,9.54469002 15.9357163,9.9124563 16.0027161,10.6002045 L16.0033875,10.9959564 L15.9968109,14.7689362 C16.0015869,15.5174103 15.9481881,16.0912863 15.664691,16.4300688 L15.6323927,16.4668697 C15.3565493,16.7665509 15.0344007,16.9478365 14.6753301,16.996359 L14.6465934,16.9992057 L14.6177379,17 L10.3357624,17.0019206 C10.0524204,17.0028414 9.62846838,16.8566714 9.40278333,16.6449995 C9.17709828,16.4333276 9.00395875,16.0402155 8.99990686,15.7613532 L9.00339369,14.9996312 L9.00258631,13.0138758 L6.999,13.013 L7.001,16 L8.5,16 C8.77614237,16 9,16.2238576 9,16.5 C9,16.7761424 8.77614237,17 8.5,17 L4.5,17 C4.22385763,17 4,16.7761424 4,16.5 C4,16.2238576 4.22385763,16 4.5,16 L6.004,16 L6.0040006,13.3401954 C6.00388213,13.2277209 6.00373779,13.1358341 6.00356758,13.0645352 C6.00302636,12.8378117 5.17710897,12.9964914 4.76462054,12.7885182 C4.28952738,12.5489802 4.00502841,12.2034367 4.00103822,11.4765121 L3.99999926,11.4207791 L3.99999926,8.03655955 C3.99999926,7.63673943 4.00995255,7.0248177 4.3876411,6.73766272 C3.56584672,6.33125172 3,5.48170615 3,4.5 C3,3.11928813 4.11928813,2 5.5,2 Z M10.0012324,10.0029155 L10.0010113,12.4083635 C10.0014056,12.4124255 10.0017475,12.4165017 10.0020362,12.4205913 L10.0031978,12.4536234 L10.0011616,15.0027383 C10.0019038,15.6447979 10.481101,16.0021805 11.0058859,15.9991598 L11.5838069,15.9999011 C12.8647976,16.0015684 13.6733474,16.0027979 14.0094562,16.0035894 C14.5856429,16.0049464 15.0004973,15.6693796 15.0020697,15.0035448 L15.0027497,14.3886768 C15.0047261,12.5193436 15.0050212,11.388626 15.0036348,10.996524 C15.0013364,10.34646 14.5381498,10.006912 13.9984925,10.0064934 L13.4668334,10.0060395 C12.827507,10.0054774 11.6723067,10.004436 10.0012324,10.0029155 Z M8.26561657,10.0013333 C8.12747963,10.0013333 7.99880871,9.93100566 7.91986575,9.8143373 L7.9011893,9.78421866 L6.24759012,6.88630498 C6.01153038,6.96018305 5.76041506,7 5.5,7 C5.39468856,7 5.29089798,6.99348841 5.18900893,6.9808459 L5.25206659,6.95716701 C4.99854842,7.02341843 4.85939074,7.36011064 4.83459356,7.96724365 L4.83319449,11.324873 C4.83319449,11.5190578 4.83866251,11.7537517 5.05841497,11.8645491 C5.33337209,12.0031802 5.68116577,11.9695635 5.94712817,11.9808646 L6.01959098,11.9824046 C6.0700809,11.9824046 6.11905434,11.9855707 6.16640573,11.9917196 L9,12.002 L9.00132599,10.0020046 C8.7644095,10.0017885 8.51917303,10.0015648 8.26561657,10.0013333 Z M16.7662452,3.71130913 C17.0165152,3.82801194 17.1247928,4.12550217 17.00809,4.37577216 L15.3176169,8.0010033 L15.296,8.038 L15.2919443,8.08987563 C15.2496084,8.32312484 15.0454599,8.5 14.8,8.5 L10.8,8.5 C10.5238576,8.5 10.3,8.27614237 10.3,8 C10.3,7.72385763 10.5238576,7.5 10.8,7.5 L14.447,7.5 L16.1017822,3.95315389 C16.218485,3.70288391 16.5159752,3.59460632 16.7662452,3.71130913 Z M5.5,3 C4.67157288,3 4,3.67157288 4,4.5 C4,5.32842712 4.67157288,6 5.5,6 C6.32842712,6 7,5.32842712 7,4.5 C7,3.67157288 6.32842712,3 5.5,3 Z" id="Combined-Shape" fill="#000000"></path>
    </g>
</svg>