<?xml version="1.0" encoding="UTF-8"?>
<svg width="20px" height="20px" viewBox="0 0 20 20" version="1.1" xmlns="http://www.w3.org/2000/svg" xmlns:xlink="http://www.w3.org/1999/xlink">
    <!-- Generator: Sketch 60.1 (88133) - https://sketch.com -->
    <title>02 - icon/db-system</title>
    <desc>Created with Sketch.</desc>
    <g id="02---icon/db-system" stroke="none" stroke-width="1" fill="none" fill-rule="evenodd">
        <path d="M16.4,6 C17.2836556,6 18,6.80588745 18,7.8 L18,7.8 L18,16.2 C18,17.1941125 17.2836556,18 16.4,18 L16.4,18 L3.6,18 C2.7163444,18 2,17.1941125 2,16.2 L2,16.2 L2,7.8 C2,6.80588745 2.7163444,6 3.6,6 L3.6,6 Z M16.4615385,7 L3.53846154,7 C3.24107744,7 3,7.27982203 3,7.625 L3,7.625 L3,16.375 C3,16.720178 3.24107744,17 3.53846154,17 L3.53846154,17 L16.4615385,17 C16.7589226,17 17,16.720178 17,16.375 L17,16.375 L17,7.625 C17,7.27982203 16.7589226,7 16.4615385,7 L16.4615385,7 Z M14,9 C14.5522847,9 15,9.44771525 15,10 L15,11 C15,11.5522847 14.5522847,12 14,12 L6,12 C5.44771525,12 5,11.5522847 5,11 L5,10 C5,9.44771525 5.44771525,9 6,9 L14,9 Z M13.5,10 L6.5,10 C6.22385763,10 6,10.2238576 6,10.5 C6,10.7761424 6.22385763,11 6.5,11 L6.5,11 L13.5,11 C13.7761424,11 14,10.7761424 14,10.5 C14,10.2238576 13.7761424,10 13.5,10 L13.5,10 Z M16.5,4 C16.7761424,4 17,4.22385763 17,4.5 C17,4.77614237 16.7761424,5 16.5,5 L3.5,5 C3.22385763,5 3,4.77614237 3,4.5 C3,4.22385763 3.22385763,4 3.5,4 L16.5,4 Z M14.5,2 C14.7761424,2 15,2.22385763 15,2.5 C15,2.77614237 14.7761424,3 14.5,3 L5.5,3 C5.22385763,3 5,2.77614237 5,2.5 C5,2.22385763 5.22385763,2 5.5,2 L14.5,2 Z" id="Combined-Shape" fill="#000000"></path>
    </g>
</svg>