<?xml version="1.0" encoding="UTF-8"?>
<svg width="18px" height="18px" viewBox="0 0 18 18" version="1.1" xmlns="http://www.w3.org/2000/svg" xmlns:xlink="http://www.w3.org/1999/xlink">
    <!-- Generator: Sketch 56.3 (81716) - https://sketch.com -->
    <title>Artboard Copy 4</title>
    <desc>Created with Sketch.</desc>
    <g id="Artboard-Copy-4" stroke="none" stroke-width="1" fill="none" fill-rule="evenodd">
        <g id="Group-15" transform="translate(0.500000, 0.500000)" fill="#000000" fill-rule="nonzero">
            <path d="M9.29483154,7.50295044 C10.7605376,7.50295044 11.9492367,6.31763794 11.9492367,4.85485028 C11.9492367,3.39206263 10.7605376,2.20675013 9.29483154,2.20675013 C7.82912549,2.20675013 6.64042639,3.39206263 6.64042639,4.85485028 C6.64042639,6.31763794 7.82912549,7.50295044 9.29483154,7.50295044 Z M9.29483154,6.62025039 C8.3160644,6.62025039 7.52312644,5.82957151 7.52312644,4.85485028 C7.52312644,3.88012905 8.3160644,3.08945018 9.29483154,3.08945018 C10.2735987,3.08945018 11.0665366,3.88012905 11.0665366,4.85485028 C11.0665366,5.82957151 10.2735987,6.62025039 9.29483154,6.62025039 Z" id="Oval"></path>
            <path d="M12.8357197,12.7991507 C14.3014258,12.7991507 15.4901249,11.6138382 15.4901249,10.1510506 C15.4901249,8.68826293 14.3014258,7.50295044 12.8357197,7.50295044 C11.3700137,7.50295044 10.1813146,8.68826293 10.1813146,10.1510506 C10.1813146,11.6138382 11.3700137,12.7991507 12.8357197,12.7991507 Z M12.8357197,11.9164507 C11.8569526,11.9164507 11.0640146,11.1257718 11.0640146,10.1510506 C11.0640146,9.17632936 11.8569526,8.38565049 12.8357197,8.38565049 C13.8144869,8.38565049 14.6074249,9.17632936 14.6074249,10.1510506 C14.6074249,11.1257718 13.8144869,11.9164507 12.8357197,11.9164507 Z" id="Oval"></path>
            <path d="M4.86872128,13.6818508 C6.82332197,13.6818508 8.40834849,12.10134 8.40834849,10.1510506 C8.40834849,8.20076116 6.82332197,6.62025039 4.86872128,6.62025039 C2.91412059,6.62025039 1.32909408,8.20076116 1.32909408,10.1510506 C1.32909408,12.10134 2.91412059,13.6818508 4.86872128,13.6818508 Z M4.86872128,12.7991507 C3.4010595,12.7991507 2.21179413,11.6132736 2.21179413,10.1510506 C2.21179413,8.68882759 3.4010595,7.50295044 4.86872128,7.50295044 C6.33638307,7.50295044 7.52564844,8.68882759 7.52564844,10.1510506 C7.52564844,11.6132736 6.33638307,12.7991507 4.86872128,12.7991507 Z" id="Oval"></path>
            <path d="M8.40960949,17.212651 C13.297578,17.212651 17.260569,13.2609506 17.260569,8.38565049 C17.260569,3.51035039 13.297578,-0.441350026 8.40960949,-0.441350026 C3.52164097,-0.441350026 -0.441350026,3.51035039 -0.441350026,8.38565049 C-0.441350026,13.2609506 3.52164097,17.212651 8.40960949,17.212651 Z M8.40960949,16.329951 C4.00857987,16.329951 0.441350026,12.7728842 0.441350026,8.38565049 C0.441350026,3.99841682 4.00857987,0.441350026 8.40960949,0.441350026 C12.8106391,0.441350026 16.377869,3.99841682 16.377869,8.38565049 C16.377869,12.7728842 12.8106391,16.329951 8.40960949,16.329951 Z" id="Oval"></path>
        </g>
    </g>
</svg>