<?xml version="1.0" encoding="UTF-8"?>
<svg width="28px" height="28px" viewBox="0 0 28 28" version="1.1" xmlns="http://www.w3.org/2000/svg" xmlns:xlink="http://www.w3.org/1999/xlink">
    <!-- Generator: Sketch 55.2 (78181) - https://sketchapp.com -->
    <title>Autorizza-selected</title>
    <desc>Created with Sketch.</desc>
    <g id="Autorizza-selected" stroke="none" stroke-width="1" fill="none" fill-rule="evenodd">
        <path d="M14,24.85 C19.9922895,24.85 24.85,19.9922895 24.85,14 C24.85,8.00771046 19.9922895,3.15 14,3.15 C8.00771046,3.15 3.15,8.00771046 3.15,14 C3.15,19.9922895 8.00771046,24.85 14,24.85 Z M14,23.15 C8.94659454,23.15 4.85,19.0534055 4.85,14 C4.85,8.94659454 8.94659454,4.85 14,4.85 C19.0534055,4.85 23.15,8.94659454 23.15,14 C23.15,19.0534055 19.0534055,23.15 14,23.15 Z" id="Oval" fill="#0E977F" fill-rule="nonzero"></path>
        <path d="M10.7125668,13.1733957 C10.3250815,12.779856 9.69193553,12.7749479 9.29839575,13.1624332 C8.90485596,13.5499185 8.89994785,14.1830645 9.28743318,14.5766043 L12.3643563,17.7016043 C12.7560963,18.0994652 13.3977498,18.0994652 13.7894899,17.7016043 L18.7125668,12.7016043 C19.1000521,12.3080645 19.095144,11.6749185 18.7016043,11.2874332 C18.3080645,10.8999479 17.6749185,10.904856 17.2874332,11.2983957 L13.0769231,15.5746951 L10.7125668,13.1733957 Z" id="Path-2" fill="#0E977F" fill-rule="nonzero"></path>
    </g>
</svg>