<?xml version="1.0" encoding="UTF-8"?>
<svg width="21px" height="20px" viewBox="0 0 21 20" version="1.1" xmlns="http://www.w3.org/2000/svg" xmlns:xlink="http://www.w3.org/1999/xlink">
    <!-- Generator: Sketch 56.3 (81716) - https://sketch.com -->
    <title>icon/icon_configura</title>
    <desc>Created with Sketch.</desc>
    <g id="Symbols" stroke="none" stroke-width="1" fill="none" fill-rule="evenodd">
        <g id="web/header/header_tablet" transform="translate(-630.000000, -25.000000)" fill="#202D50">
            <g id="Stacked-Group" transform="translate(448.000000, 25.000000)">
                <g id="icon/icon_configura" transform="translate(183.000000, 0.000000)">
                    <path d="M19.3299073,6.26657639 C19.6121695,6.68030115 19.5365004,7.22898159 19.1521666,7.55855456 L18.3045637,8.28543889 C18.4235112,8.84792744 18.4833932,9.42214004 18.4833932,10 C18.4833932,10.5775994 18.4235112,11.1520726 18.3045637,11.7143006 L19.1521666,12.4411849 C19.5365004,12.7707579 19.6121695,13.3196989 19.3299073,13.7331631 L17.4425347,16.5007946 C17.1602726,16.9145194 16.605275,17.0692755 16.1352011,16.8650184 L15.3512909,16.5242425 C14.4884453,17.2339317 13.4941313,17.7800068 12.4227874,18.1327671 L12.2594728,19.1509262 C12.181354,19.6394237 11.742582,20 11.2265078,20 L7.77349219,20 C7.25741797,20 6.81864601,19.6394237 6.74025499,19.1509262 L6.5772126,18.1327671 C5.50559641,17.7800068 4.51155471,17.2339317 3.64870914,16.5242425 L2.86479893,16.8650184 C2.39499715,17.0690149 1.83945525,16.9145194 1.55746533,16.5007946 L-0.329907337,13.7331631 C-0.612169502,13.3196989 -0.536500357,12.7707579 -0.152166602,12.4411849 L0.695436275,11.7143006 C0.576488806,11.1520726 0.516334603,10.5775994 0.516334603,10 C0.516334603,9.42214004 0.576488806,8.84792744 0.695436275,8.28543889 L-0.152166602,7.55855456 C-0.536500357,7.22898159 -0.612169502,6.68004063 -0.329907337,6.26657639 L1.55746533,3.49894487 C1.83972742,3.08548056 2.39499715,2.93072452 2.86479893,3.13498161 L3.64870914,3.47575754 C4.51155471,2.76606829 5.50559641,2.21999321 6.5772126,1.86697239 L6.74025499,0.848813309 C6.81864601,0.360576296 7.25741797,0 7.77349219,0 L11.2265078,0 C11.742582,0 12.181354,0.360576296 12.2594728,0.848813309 L12.4227874,1.86697239 C13.4941313,2.21999321 14.4884453,2.76606829 15.3512909,3.47575754 L16.1352011,3.13498161 C16.6047307,2.93072452 17.1602726,3.08522005 17.4425347,3.49894487 L19.3299073,6.26657639 Z M15.5810201,14.4266993 L16.1822902,14.6880129 L17.0892307,13.3585181 L16.4452267,12.8061903 C16.1482662,12.5516504 16.0285022,12.157726 16.1362898,11.7903759 C16.3066815,11.2104317 16.3932382,10.6080817 16.3932382,10 C16.3932382,9.39191826 16.3066815,8.78956827 16.1362898,8.20962406 C16.0285022,7.84227396 16.1482662,7.44834957 16.4452267,7.19380975 L17.0892307,6.64122138 L16.1825623,5.31198712 L15.5810201,5.57330067 C15.1825324,5.74655444 14.7130029,5.66344478 14.4051548,5.36513558 C13.5276109,4.51423808 12.4290478,3.90771957 11.2284132,3.61123418 C10.8233929,3.51118989 10.5198999,3.18969337 10.4564793,2.79394523 L10.3293661,2.00088581 L8.67063387,2.00088581 L8.54352071,2.79394523 C8.48010014,3.18969337 8.17660711,3.51118989 7.77158683,3.61123418 C6.57095219,3.90771957 5.47238914,4.51423808 4.59484521,5.36513558 C4.28726929,5.66344478 3.81773976,5.74655444 3.4189799,5.57330067 L2.81770983,5.31198712 L1.91076934,6.64122138 L2.55504549,7.19380975 C2.85200594,7.44834957 2.97149782,7.84227396 2.86371017,8.20962406 C2.69331854,8.78956827 2.60676182,9.39191826 2.60676182,10 C2.60676182,10.6080817 2.69331854,11.2104317 2.86371017,11.7903759 C2.97149782,12.157726 2.85173376,12.5516504 2.55504549,12.8061903 L1.91104151,13.3585181 L2.81770983,14.6880129 L3.4189799,14.4266993 C3.81773976,14.2534456 4.28726929,14.3365552 4.59484521,14.6348644 C5.47238914,15.4857619 6.57095219,16.0922804 7.77158683,16.3887658 C8.17660711,16.4888101 8.48010014,16.8103066 8.54352071,17.2060548 L8.67063387,17.9991142 L10.3293661,17.9991142 L10.4564793,17.2060548 C10.5198999,16.8103066 10.8233929,16.4888101 11.2284132,16.3887658 C12.4290478,16.0922804 13.5276109,15.4857619 14.4051548,14.6348644 C14.7130029,14.3365552 15.1822602,14.2534456 15.5810201,14.4266993 Z M9.4660649,5.99557293 C11.6716765,5.99557293 13.4660649,7.78996129 13.4660649,9.99557293 C13.4660649,12.2011846 11.6716765,13.9955729 9.4660649,13.9955729 C7.26045325,13.9955729 5.4660649,12.2011846 5.4660649,9.99557293 C5.4660649,7.78996129 7.26045325,5.99557293 9.4660649,5.99557293 Z M9.4660649,12.2177952 C10.6913553,12.2177952 11.6882871,11.2208633 11.6882871,9.99557293 C11.6882871,8.77028254 10.6913553,7.77335071 9.4660649,7.77335071 C8.2407745,7.77335071 7.24384267,8.77028254 7.24384267,9.99557293 C7.24384267,11.2208633 8.2407745,12.2177952 9.4660649,12.2177952 Z" id="Combined-Shape"></path>
                </g>
            </g>
        </g>
    </g>
</svg>