<?xml version="1.0" encoding="UTF-8"?>
<svg width="28px" height="28px" viewBox="0 0 28 28" version="1.1" xmlns="http://www.w3.org/2000/svg" xmlns:xlink="http://www.w3.org/1999/xlink">
    <!-- Generator: Sketch 55.2 (78181) - https://sketchapp.com -->
    <title>Copia</title>
    <desc>Created with Sketch.</desc>
    <g id="Copia" stroke="none" stroke-width="1" fill="none" fill-rule="evenodd">
        <g id="Group-15" transform="translate(4.000000, 4.000000)" fill="#7D7D7D">
            <path d="M16.8,18.9766607 L16.8,19.0025933 C16.8,19.5531618 16.3296,19.9481348 15.75,19.9481348 L2.1,19.9481348 L2.1,20 C0.93975,20 0,19.1591861 0,18.0580491 L0,5.09176142 C0,4.54019549 0.4704,4.09435468 1.05,4.09435468 C1.6296,4.09435468 2.1,4.54019549 2.1,5.09176142 L2.1,17.0606423 C2.1,17.6112109 2.5704,17.9533214 3.15,17.9533214 L15.75,17.9533214 C16.3296,17.9533214 16.8,18.4260922 16.8,18.9766607 L16.8,18.9766607 Z M18.9,13.0710154 C18.9,13.6215839 18.4296,13.9636944 17.85,13.9636944 L7.35,13.9636944 C6.7704,13.9636944 6.3,13.6215839 6.3,13.0710154 L6.3,3.09694794 C6.3,2.54538201 6.7704,1.99481348 7.35,1.99481348 L12.6,1.99481348 L12.6,6.08916816 C12.6,7.19030521 13.53975,7.97925394 14.7,7.97925394 L18.9,7.97925394 L18.9,13.0710154 Z M20.69235,5.77099541 L15.00765,0.344105326 C14.81025,0.157590265 14.54355,0 14.2653,0 L6.3,0 L6.3,0.0518651506 C5.13975,0.0518651506 4.2,0.971474167 4.2,2.07261121 L4.2,2.09954119 L4.2,14.0684221 C4.2,15.1695591 5.13975,16.010373 6.3,16.010373 L6.3,15.9585079 L18.9,15.9585079 L18.9,16.010373 C20.06025,16.010373 21,15.1436266 21,14.0414921 L21,6.50209455 C21,6.23778177 20.88975,5.95751047 20.69235,5.77099541 L20.69235,5.77099541 Z" id="file_double-[#1715]"></path>
        </g>
    </g>
</svg>