<?xml version="1.0" encoding="UTF-8"?>
<svg width="28px" height="28px" viewBox="0 0 28 28" version="1.1" xmlns="http://www.w3.org/2000/svg" xmlns:xlink="http://www.w3.org/1999/xlink">
    <!-- Generator: Sketch 55.2 (78181) - https://sketchapp.com -->
    <title>crea distinta</title>
    <desc>Created with Sketch.</desc>
    <g id="crea-distinta" stroke="none" stroke-width="1" fill="none" fill-rule="evenodd">
        <g id="file" transform="translate(6.000000, 5.000000)" fill="#7D7D7D" fill-rule="nonzero">
            <path d="M0.657314629,19 L15.3426854,19 C15.7114228,19 16,18.7054264 16,18.3290267 L16,0.670973299 C16,0.294573643 15.7114228,0 15.3426854,0 L4.32865731,0 C4.28056112,0 4.21643287,0 4.16833667,0.0163652024 C4.15230461,0.0163652024 4.13627255,0.0327304048 4.13627255,0.0327304048 C4.08817635,0.0490956072 4.05611222,0.0654608096 4.00801603,0.0818260121 C3.99198397,0.0981912145 3.9759519,0.0981912145 3.95991984,0.114556417 C3.91182365,0.147286822 3.86372745,0.180017227 3.83166333,0.229112834 L0.160320641,4.64771748 C0.112224449,4.69681309 0.0801603206,4.7622739 0.0480961924,4.82773471 C0.0320641283,4.84409991 0.0320641283,4.87683032 0.0320641283,4.89319552 C0.0160320641,4.94229113 0.0160320641,4.99138674 0,5.04048234 C0,5.05684755 0,5.05684755 0,5.07321275 L0,18.3126615 C0,18.7054264 0.304609218,19 0.657314629,19 Z M3.67134269,2.50387597 L3.67134269,4.43496985 L2.06813627,4.43496985 L3.67134269,2.50387597 L3.67134269,2.50387597 Z M1.31462926,5.76055125 L4.32865731,5.76055125 C4.69739479,5.76055125 4.98597194,5.46597761 4.98597194,5.08957795 L4.98597194,1.3419466 L14.6853707,1.3419466 L14.6853707,17.6580534 L1.31462926,17.6580534 L1.31462926,5.76055125 Z" id="Shape"></path>
            <path d="M12.389881,7 L3.61011905,7 C3.26785714,7 3,7.2195122 3,7.5 C3,7.7804878 3.26785714,8 3.61011905,8 L12.389881,8 C12.7321429,8 13,7.7804878 13,7.5 C13,7.2195122 12.7321429,7 12.389881,7 Z" id="Path" stroke="#7D7D7D" stroke-width="0.5"></path>
            <path d="M12.389881,9.5 L3.61011905,9.5 C3.26785714,9.5 3,9.7195122 3,10 C3,10.2804878 3.26785714,10.5 3.61011905,10.5 L12.389881,10.5 C12.7321429,10.5 13,10.2804878 13,10 C13,9.73170732 12.7321429,9.5 12.389881,9.5 Z" id="Path" stroke="#7D7D7D" stroke-width="0.5"></path>
            <path d="M12.389881,12 L3.61011905,12 C3.26785714,12 3,12.2195122 3,12.5 C3,12.7804878 3.26785714,13 3.61011905,13 L12.389881,13 C12.7321429,13 13,12.7804878 13,12.5 C13,12.2317073 12.7321429,12 12.389881,12 Z" id="Path" stroke="#7D7D7D" stroke-width="0.5"></path>
        </g>
    </g>
</svg>