<?xml version="1.0" encoding="UTF-8"?>
<svg width="37px" height="22px" viewBox="0 0 37 22" version="1.1" xmlns="http://www.w3.org/2000/svg" xmlns:xlink="http://www.w3.org/1999/xlink">
    <!-- Generator: Sketch 56.3 (81716) - https://sketch.com -->
    <title>delete</title>
    <desc>Created with Sketch.</desc>
    <g id="Atomic" stroke="none" stroke-width="1" fill="none" fill-rule="evenodd">
        <g id="Artboard" transform="translate(-297.000000, -289.000000)" fill="#FFFFFF">
            <g id="Group-3" transform="translate(73.000000, 94.000000)">
                <g id="Group" transform="translate(194.000000, 184.000000)">
                    <g id="Group-2" transform="translate(29.643478, 10.333333)">
                        <path d="M14.2621661,0.666666667 L34.3565217,0.666666667 C36.013376,0.666666667 37.3565217,2.00981242 37.3565217,3.66666667 L37.3565217,19.6666667 C37.3565217,21.3235209 36.013376,22.6666667 34.3565217,22.6666667 L14.2621661,22.6666667 C13.5849409,22.6666667 12.9276389,22.4375277 12.3971784,22.0165221 L1.33037594,13.233237 C0.465183042,12.5465675 0.32046125,11.2885344 1.00713077,10.4233415 C1.10217058,10.3035928 1.21062725,10.1951362 1.33037594,10.1000963 L12.3971784,1.31681119 C12.9276389,0.895805606 13.5849409,0.666666667 14.2621661,0.666666667 Z M25.3264961,11.5192592 L28.86203,7.98372533 C29.2525543,7.59320104 29.2525543,6.96003606 28.86203,6.56951177 C28.4715057,6.17898748 27.8383408,6.17898748 27.4478165,6.56951177 L23.9122826,10.1050457 L20.3767487,6.56951177 C19.9862244,6.17898748 19.3530594,6.17898748 18.9625351,6.56951177 C18.5720108,6.96003606 18.5720108,7.59320104 18.9625351,7.98372533 L22.498069,11.5192592 L18.9625351,15.0547931 C18.5720108,15.4453174 18.5720108,16.0784824 18.9625351,16.4690067 C19.3530594,16.859531 19.9862244,16.859531 20.3767487,16.4690067 L23.9122826,12.9334728 L27.4478165,16.4690067 C27.8383408,16.859531 28.4715057,16.859531 28.86203,16.4690067 C29.2525543,16.0784824 29.2525543,15.4453174 28.86203,15.0547931 L25.3264961,11.5192592 Z" id="delete"></path>
                    </g>
                </g>
            </g>
        </g>
    </g>
</svg>