<?xml version="1.0" encoding="UTF-8"?>
<svg width="28px" height="28px" viewBox="0 0 28 28" version="1.1" xmlns="http://www.w3.org/2000/svg" xmlns:xlink="http://www.w3.org/1999/xlink">
    <!-- Generator: Sketch 55.2 (78181) - https://sketchapp.com -->
    <title>elimina</title>
    <desc>Created with Sketch.</desc>
    <g id="elimina" stroke="none" stroke-width="1" fill="none" fill-rule="evenodd">
        <g id="Group-11" transform="translate(4.000000, 4.000000)" fill="#7D7D7D" fill-rule="nonzero">
            <g id="delete-(2)">
                <g id="Group" transform="translate(0.000000, 2.968750)">
                    <polygon id="Path" points="14.0825941 3.92679688 12.4056904 3.869375 12.0421339 13.1382813 13.7190377 13.1954687"></polygon>
                    <rect id="Rectangle" x="9.16100418" y="3.89808594" width="1.67799163" height="9.26894531"></rect>
                    <polygon id="Path" points="7.95757322 13.1380469 7.59401674 3.86910156 5.91711297 3.9265625 6.2807113 13.1954687"></polygon>
                    <path d="M0.0158577406,0.0338671875 L0.0158577406,1.60042969 L1.76435146,1.60042969 L3.15146444,16.3166406 C3.18949791,16.7210547 3.55225941,17.03125 3.98711297,17.03125 L15.9846025,17.03125 C16.4194979,17.03125 16.7825105,16.7208203 16.820251,16.3163672 L18.2074059,1.60042969 L19.9841423,1.60042969 L19.9841423,0.0338671875 L0.0158577406,0.0338671875 Z M15.2161088,15.4646875 L4.75539749,15.4646875 L3.44878661,1.60042969 L16.5230126,1.60042969 L15.2161088,15.4646875 Z" id="Shape"></path>
                </g>
                <path d="M12.7407531,0 L7.25924686,0 C6.48820084,0 5.8609205,0.585625 5.8609205,1.30546875 L5.8609205,3.78589844 L7.53891213,3.78589844 L7.53891213,1.5665625 L12.4610879,1.5665625 L12.4610879,3.78589844 L14.1390795,3.78589844 L14.1390795,1.30546875 C14.1390795,0.585625 13.5117992,0 12.7407531,0 Z" id="Path"></path>
            </g>
        </g>
    </g>
</svg>