<?xml version="1.0" encoding="UTF-8"?>
<svg width="40px" height="40px" viewBox="0 0 40 40" version="1.1" xmlns="http://www.w3.org/2000/svg" xmlns:xlink="http://www.w3.org/1999/xlink">
    <!-- Generator: Sketch 53.2 (72643) - https://sketchapp.com -->
    <title>Artboard</title>
    <desc>Created with Sketch.</desc>
    <g id="Artboard" stroke="none" stroke-width="1" fill="none" fill-rule="evenodd">
        <g id="Group-5" transform="translate(7.000000, 8.000000)" fill="#0E977F">
            <g id="Group-4" fill-rule="nonzero">
                <g id="export">
                    <path d="M17.3846154,22.4615385 L1.61538462,22.4615385 L1.61538462,5.53846154 L8.88461538,5.53846154 C9.33046154,5.53846154 9.69230769,5.19384615 9.69230769,4.76923077 C9.69230769,4.34461538 9.33046154,4 8.88461538,4 L0.807692308,4 C0.361846154,4 0,4.34461538 0,4.76923077 L0,23.2307692 C0,23.6553846 0.361846154,24 0.807692308,24 L18.1923077,24 C18.6381538,24 19,23.6553846 19,23.2307692 C19,22.7179487 18.8333333,22.4615385 18.5,22.4615385 C18.1666667,22.4615385 17.7948718,22.4615385 17.3846154,22.4615385 Z" id="Path"></path>
                    <path d="M25.7292493,5.43630666 L19.3958994,0.186475002 C19.1631488,-0.00851874589 18.830648,-0.0550172549 18.5472305,0.0679788012 C18.2653965,0.189474905 18.0833127,0.456466344 18.0833127,0.750456917 L18.0833127,3.00038477 L17.6146448,3.00038477 C12.5257982,3.00038477 8.14628674,6.59876939 7.42586819,11.3716163 L7.0078671,14.1450274 C6.95561696,14.4945162 7.16778418,14.8335053 7.52086844,14.9550014 C7.60953533,14.9850005 7.70136891,15 7.79161914,15 C8.05761984,15 8.31570384,14.8725041 8.46295423,14.6475113 L9.62987394,12.8775681 C11.2322115,10.4506459 13.993552,9.00019239 17.0161432,9.00019239 L18.0833127,9.00019239 L18.0833127,11.2501202 C18.0833127,11.5441108 18.2653965,11.8111023 18.5472305,11.9325984 C18.8274813,12.0540945 19.1615655,12.0090959 19.3958994,11.8141022 L25.7292493,6.5642705 C25.9018331,6.42177506 26,6.21778161 26,6.00028858 C26,5.78279555 25.9018331,5.57880209 25.7292493,5.43630666 Z M19.6666501,9.59717324 L19.6666501,8.25021643 C19.6666501,7.83622971 19.3119825,7.50024048 18.8749814,7.50024048 L17.0161432,7.50024048 C13.9128018,7.50024048 11.042211,8.79319902 9.10103923,11.0146278 C9.95604146,7.26324808 13.5138007,4.50033668 17.6146448,4.50033668 L18.8749814,4.50033668 C19.3119825,4.50033668 19.6666501,4.16434745 19.6666501,3.75036072 L19.6666501,2.40340391 L24.0065781,6.00028858 L19.6666501,9.59717324 Z" id="Shape"></path>
                </g>
            </g>
            <text id="EXEL" font-family="Roboto-Black, Roboto" font-size="8" font-weight="700" letter-spacing="-0.400000006">
                <tspan x="2" y="21">EXE</tspan>
                <tspan x="14.8585937" y="21">L</tspan>
            </text>
        </g>
    </g>
</svg>