<?xml version="1.0" encoding="UTF-8"?>
<svg width="28px" height="28px" viewBox="0 0 28 28" version="1.1" xmlns="http://www.w3.org/2000/svg" xmlns:xlink="http://www.w3.org/1999/xlink">
    <!-- Generator: Sketch 55.2 (78181) - https://sketchapp.com -->
    <title>firma</title>
    <desc>Created with Sketch.</desc>
    <g id="firma" stroke="none" stroke-width="1" fill="none" fill-rule="evenodd">
        <g id="Group-2" transform="translate(5.000000, 6.000000)" fill="#7D7D7D" fill-rule="nonzero">
            <g id="signature-(1)" transform="translate(0.962963, 0.000000)">
                <path d="M15.7499204,1.24641518 C14.0994317,-0.397468751 11.4134947,-0.39967634 9.75966002,1.24641518 L8.06711508,2.93445089 C8.0461127,2.95211161 8.02063187,2.95873437 8.00076197,2.97860268 C7.98089207,2.99847098 7.97420013,3.02383259 7.95649224,3.04477902 L2.28044394,8.70570536 C1.18749643,9.79794866 0.58568551,11.249875 0.58568551,12.7933906 L0.58568551,15.2647612 C0.58568551,15.8737478 1.08130056,16.3680424 1.69191394,16.3680424 L4.16988622,16.3680424 C5.71752502,16.3680424 7.17327839,15.7678348 8.27070435,14.676721 L15.7488394,7.21850893 C17.3981957,5.57241741 17.3981957,2.8925067 15.7499204,1.24641518 Z M6.70757115,13.1155446 C6.02947217,13.7896295 5.12786254,14.1614799 4.16988622,14.1614799 L2.79814237,14.1614799 L2.79814237,12.7933906 C2.79814237,11.8379665 3.17093466,10.9387589 3.84573915,10.2635446 L8.79391076,5.3285558 L11.6546103,8.18163393 L6.70757115,13.1155446 Z M14.1845737,5.65846205 L13.2188245,6.62163839 L10.358125,3.76856027 L11.3227418,2.80651339 C12.1114636,2.02097098 13.3958004,2.02210045 14.1834413,2.80651339 C14.9711336,3.59313393 14.9711336,4.87291964 14.1845737,5.65846205 Z" id="Shape"></path>
            </g>
        </g>
    </g>
</svg>