<svg id="Livello_1" data-name="Livello 1" xmlns="http://www.w3.org/2000/svg" viewBox="0 0 39.46 38.69"><defs><style>.cls-1{fill:#676767;}</style></defs><title>info</title><path class="cls-1" d="M20,.72h0A19.62,19.62,0,0,0,.27,20.06,18.87,18.87,0,0,0,5.84,33.53,19.88,19.88,0,0,0,20,39.41h0A19.58,19.58,0,0,0,39.73,20,19.54,19.54,0,0,0,20,.72ZM20,3.54H20A16.76,16.76,0,0,1,36.88,20.12a16.14,16.14,0,0,1-5,11.68,17.4,17.4,0,0,1-12.15,4.78A16.79,16.79,0,0,1,8,31.58,16.15,16.15,0,0,1,3.16,20.1,16.73,16.73,0,0,1,20,3.54Z" transform="translate(-0.27 -0.72)"/><path class="cls-1" d="M20,1.41h0A18.92,18.92,0,0,0,1,20.06,18.16,18.16,0,0,0,6.35,33,19.13,19.13,0,0,0,20,38.72h0A18.87,18.87,0,0,0,39,20,18.84,18.84,0,0,0,20,1.41ZM20,4.13H20a16.15,16.15,0,0,1,16.24,16,15.56,15.56,0,0,1-4.84,11.26A16.73,16.73,0,0,1,19.72,36,16.18,16.18,0,0,1,8.4,31.17,15.59,15.59,0,0,1,3.76,20.1,16.14,16.14,0,0,1,20,4.13Z" transform="translate(-0.27 -0.72)"/><path class="cls-1" d="M15.19,18.3a1.15,1.15,0,0,1,.94-1.39,9,9,0,0,1,4.26-.73c1.68.25,2.78,1.26,2.58,2.88a55.23,55.23,0,0,1-1.19,5.48A22.21,22.21,0,0,0,21.25,27c-.15,1.31.31,1.76,1.66,1.7a13.59,13.59,0,0,0,1.56-.25,1.15,1.15,0,0,1-1,1.42,19.46,19.46,0,0,1-3.48.74c-2.56.08-3.85-1.47-3.36-3.94.32-1.59.85-3.13,1.25-4.7a14.4,14.4,0,0,0,.44-2.34c.08-1.19-.32-1.56-1.53-1.52A12.19,12.19,0,0,0,15.19,18.3Z" transform="translate(-0.27 -0.72)"/><path class="cls-1" d="M22.07,13.75a2.68,2.68,0,0,1-2.76-2.52,2.66,2.66,0,0,1,2.85-2.51,2.68,2.68,0,0,1,2.76,2.5A2.7,2.7,0,0,1,22.07,13.75Z" transform="translate(-0.27 -0.72)"/></svg>