<?xml version="1.0" encoding="UTF-8"?>
<svg width="28px" height="28px" viewBox="0 0 28 28" version="1.1" xmlns="http://www.w3.org/2000/svg" xmlns:xlink="http://www.w3.org/1999/xlink">
    <!-- Generator: Sketch 55.2 (78181) - https://sketchapp.com -->
    <title>modifica</title>
    <desc>Created with Sketch.</desc>
    <g id="modifica" stroke="none" stroke-width="1" fill="none" fill-rule="evenodd">
        <g id="Group-3" transform="translate(4.000000, 4.000000)" fill="#7D7D7D" fill-rule="nonzero">
            <g id="Group-5">
                <g id="edit-(3)">
                    <path d="M19.1932773,18.5128205 L0.806722689,18.5128205 C0.420168067,18.5128205 0.117647059,18.8376068 0.117647059,19.2136752 C0.117647059,19.5897436 0.43697479,19.9145299 0.806722689,19.9145299 L19.210084,19.9145299 C19.5966387,19.9145299 19.8991597,19.5897436 19.8991597,19.2136752 C19.8991597,18.8376068 19.5798319,18.5128205 19.1932773,18.5128205 Z" id="Path"></path>
                    <path d="M0.117647059,12.3076923 L0.100840336,15.6410256 C0.100840336,15.8290598 0.168067227,16.017094 0.302521008,16.1538462 C0.43697479,16.2905983 0.605042017,16.3589744 0.789915966,16.3589744 L4.05042017,16.3418803 C4.23529412,16.3418803 4.40336134,16.2735043 4.53781513,16.1367521 L15.7983193,4.68376068 C16.0672269,4.41025641 16.0672269,3.96581197 15.7983193,3.67521368 L12.5714286,0.358974359 C12.302521,0.0854700855 11.8655462,0.0854700855 11.5798319,0.358974359 L9.32773109,2.66666667 L0.319327731,11.8119658 C0.201680672,11.9487179 0.117647059,12.1196581 0.117647059,12.3076923 Z M12.0840336,1.86324786 L14.3529412,4.17094017 L13.0756303,5.47008547 L10.8067227,3.16239316 L12.0840336,1.86324786 Z M1.51260504,12.6153846 L9.81512605,4.17094017 L12.0840336,6.47863248 L3.78151261,14.9059829 L1.49579832,14.9230769 L1.51260504,12.6153846 L1.51260504,12.6153846 Z" id="Shape"></path>
                </g>
            </g>
        </g>
    </g>
</svg>