<?xml version="1.0" encoding="UTF-8"?>
<svg width="38px" height="38px" viewBox="0 0 38 38" version="1.1" xmlns="http://www.w3.org/2000/svg" xmlns:xlink="http://www.w3.org/1999/xlink">
    <!-- Generator: Sketch 53.2 (72643) - https://sketchapp.com -->
    <title>Artboard</title>
    <desc>Created with Sketch.</desc>
    <g id="Artboard" stroke="none" stroke-width="1" fill="none" fill-rule="evenodd">
        <g id="pdf-file-(1)" transform="translate(9.000000, 7.000000)" fill="#0E977F" fill-rule="nonzero">
            <path d="M5.22462944,16.0555901 C5.22462944,15.6411491 4.92849746,15.3939959 4.40600254,15.3939959 C4.19264467,15.3939959 4.04814975,15.414441 3.97257107,15.4340062 L3.97257107,16.7637164 C4.06206091,16.7832816 4.17207107,16.7898033 4.32370812,16.7898033 C4.88063452,16.7898033 5.22462944,16.5165631 5.22462944,16.0555901 Z" id="Path"></path>
            <path d="M8.45910914,15.4079193 C8.22512437,15.4079193 8.07391371,15.4275362 7.98447716,15.4478778 L7.98447716,18.3928054 C8.07396701,18.4131988 8.21846193,18.4131988 8.34909898,18.4131988 C9.29830964,18.4197205 9.91738325,17.9123188 9.91738325,16.8371636 C9.92409898,15.9022257 9.35997716,15.4079193 8.45910914,15.4079193 Z" id="Path"></path>
            <path d="M14.4685736,0 L4.1472868,0 C2.63944416,0 1.41222335,1.19259834 1.41222335,2.6560559 L1.41222335,12.4776915 L1.14508629,12.4776915 C0.53651269,12.4776915 0.0429593909,12.9565217 0.0429593909,13.5480331 L0.0429593909,20.0389234 C0.0429593909,20.630383 0.536459391,21.1091615 1.14508629,21.1091615 L1.41222335,21.1091615 L1.41222335,22.2993789 C1.41222335,23.764441 2.63944416,24.9554348 4.1472868,24.9554348 L18.2302386,24.9554348 C19.7371218,24.9554348 20.9645025,23.7643892 20.9645025,22.2993789 L20.9645025,6.28618012 L14.4685736,0 Z M2.93429695,14.7194099 C3.25729188,14.6664079 3.71129695,14.6264493 4.35094416,14.6264493 C4.99736041,14.6264493 5.45808122,14.7462733 5.76764467,14.9869565 C6.06335025,15.2137681 6.26290355,15.588147 6.26290355,16.0287267 C6.26290355,16.4692029 6.11169289,16.8436853 5.83656091,17.0973602 C5.47870812,17.4244824 4.94949746,17.5713251 4.33042386,17.5713251 C4.19264467,17.5713251 4.06914975,17.5646998 3.97257107,17.5517081 L3.97257107,19.1612319 L2.93429695,19.1612319 L2.93429695,14.7194099 Z M18.2302386,23.3288302 L4.1472868,23.3288302 C3.56344416,23.3288302 3.08801269,22.8671325 3.08801269,22.2993789 L3.08801269,21.1091615 L16.2162107,21.1091615 C16.8248909,21.1091615 17.3183909,20.630383 17.3183909,20.0389234 L17.3183909,13.5480331 C17.3183909,12.9565217 16.8248909,12.4776915 16.2162107,12.4776915 L3.08801269,12.4776915 L3.08801269,2.6560559 C3.08801269,2.08990683 3.56349746,1.62820911 4.1472868,1.62820911 L13.8419315,1.61837474 L13.8419315,5.09834369 C13.8419315,6.11480331 14.6912056,6.94032091 15.7387005,6.94032091 L19.2491117,6.9305383 L19.2886066,22.2993271 C19.2886066,22.8671325 18.8140279,23.3288302 18.2302386,23.3288302 Z M6.93239848,19.1408385 L6.93239848,14.7194099 C7.31748731,14.6598861 7.81940863,14.6264493 8.34909898,14.6264493 C9.2293934,14.6264493 9.80023096,14.7798137 10.2475203,15.1068841 C10.728868,15.4543996 11.031236,16.0083333 11.031236,16.8036232 C11.031236,17.6650621 10.7082411,18.2597826 10.2608985,18.6268116 C9.77283503,19.0208075 9.0298934,19.2076605 8.12225635,19.2076605 C7.57870812,19.2076605 7.19361929,19.1742236 6.93239848,19.1408385 Z M14.4384061,16.5230849 L14.4384061,17.3510352 L12.7738629,17.3510352 L12.7738629,19.1612319 L11.721731,19.1612319 L11.721731,14.6598861 L14.555132,14.6598861 L14.555132,15.4943582 L12.7738629,15.4943582 L12.7738629,16.5230849 L14.4384061,16.5230849 Z" id="Shape"></path>
        </g>
    </g>
</svg>