<?xml version="1.0" encoding="UTF-8"?>
<svg width="40px" height="40px" viewBox="0 0 40 40" version="1.1" xmlns="http://www.w3.org/2000/svg" xmlns:xlink="http://www.w3.org/1999/xlink">
    <!-- Generator: Sketch 53.2 (72643) - https://sketchapp.com -->
    <title>Artboard</title>
    <desc>Created with Sketch.</desc>
    <g id="Artboard" stroke="none" stroke-width="1" fill="none" fill-rule="evenodd">
        <g id="printer" transform="translate(8.000000, 8.000000)" fill="#0E977F" fill-rule="nonzero">
            <path d="M20.2565217,5.0390625 L19.6095652,5.0390625 L19.6095652,3.6328125 C19.6095652,1.63043478 17.94,0 15.8895652,0 L8.07913043,0 C6.02869565,0 4.35913043,1.63043478 4.35913043,3.6328125 L4.35913043,5.0390625 L3.76956522,5.0390625 C1.71913043,5.0390625 0.0495652174,6.66949728 0.0495652174,8.671875 L0.0495652174,14.53125 C0.0495652174,16.5336277 1.71913043,18.1640625 3.76956522,18.1640625 L4.35391304,18.1640625 L4.35391304,22.7700408 C4.35391304,23.7686821 5.18869565,24.5838995 6.21130435,24.5838995 L17.7469565,24.5838995 C18.7695652,24.5838995 19.6043478,23.7686821 19.6043478,22.7700408 L19.6043478,18.1640625 L20.2565217,18.1640625 C22.3069565,18.1640625 23.9765217,16.5336277 23.9765217,14.53125 L23.9765217,8.671875 C23.9765217,6.66949728 22.3069565,5.0390625 20.2565217,5.0390625 Z M5.7626087,3.6328125 C5.7626087,2.38960598 6.80086957,1.37567935 8.07391304,1.37567935 L15.8791304,1.37567935 C17.1521739,1.37567935 18.1904348,2.38960598 18.1904348,3.6328125 L18.1904348,5.0390625 L5.7626087,5.0390625 L5.7626087,3.6328125 Z M18.1956522,22.780231 C18.1956522,23.0197011 17.9921739,23.2184103 17.7469565,23.2184103 L6.21130435,23.2184103 C5.96608696,23.2184103 5.7626087,23.0197011 5.7626087,22.780231 L5.7626087,15.1834239 L18.1956522,15.1834239 L18.1956522,22.780231 Z M22.5678261,14.5363451 C22.5678261,15.7795516 21.5295652,16.7934783 20.2565217,16.7934783 L19.6095652,16.7934783 L19.6095652,15.1834239 L20.5382609,15.1834239 C20.9295652,15.1834239 21.2426087,14.8777174 21.2426087,14.4955842 C21.2426087,14.1134511 20.9295652,13.8077446 20.5382609,13.8077446 L3.32086957,13.8077446 C2.92956522,13.8077446 2.61652174,14.1134511 2.61652174,14.4955842 C2.61652174,14.8777174 2.92956522,15.1834239 3.32086957,15.1834239 L4.35913043,15.1834239 L4.35913043,16.7934783 L3.76956522,16.7934783 C2.49652174,16.7934783 1.45826087,15.7795516 1.45826087,14.5363451 L1.45826087,8.67697011 C1.45826087,7.43376359 2.49652174,6.41983696 3.76956522,6.41983696 L20.2565217,6.41983696 C21.5295652,6.41983696 22.5678261,7.43376359 22.5678261,8.67697011 L22.5678261,14.5363451 Z" id="Shape"></path>
            <path d="M7.46869565,18.5665761 L16.4373913,18.5665761 C16.8286957,18.5665761 17.1417391,18.2608696 17.1417391,17.8787364 C17.1417391,17.4966033 16.8286957,17.1908967 16.4373913,17.1908967 L7.46869565,17.1908967 C7.0773913,17.1908967 6.76434783,17.4966033 6.76434783,17.8787364 C6.76434783,18.2608696 7.0826087,18.5665761 7.46869565,18.5665761 Z" id="Path"></path>
            <path d="M16.4947826,20.0033967 L7.52086957,20.0033967 C7.12956522,20.0033967 6.81652174,20.3091033 6.81652174,20.6912364 C6.81652174,21.0733696 7.12956522,21.3790761 7.52086957,21.3790761 L16.4895652,21.3790761 C16.8808696,21.3790761 17.193913,21.0733696 17.193913,20.6912364 C17.193913,20.3091033 16.8808696,20.0033967 16.4947826,20.0033967 Z" id="Path"></path>
            <path d="M20.2408696,7.73947011 L18.8113043,7.73947011 C18.42,7.73947011 18.1069565,8.04517663 18.1069565,8.42730978 C18.1069565,8.80944293 18.42,9.11514946 18.8113043,9.11514946 L20.2408696,9.11514946 C20.6321739,9.11514946 20.9452174,8.80944293 20.9452174,8.42730978 C20.9452174,8.04517663 20.6321739,7.73947011 20.2408696,7.73947011 Z" id="Path"></path>
        </g>
    </g>
</svg>