<?xml version="1.0" encoding="UTF-8"?>
<svg width="56px" height="51px" viewBox="0 0 56 51" version="1.1" xmlns="http://www.w3.org/2000/svg" xmlns:xlink="http://www.w3.org/1999/xlink">
    <!-- Generator: Sketch 56.3 (81716) - https://sketch.com -->
    <title>icons8-documents_folder</title>
    <desc>Created with Sketch.</desc>
    <g id="Dashboard" stroke="none" stroke-width="1" fill="none" fill-rule="evenodd">
        <g id="HOME-1440-Copy-2" transform="translate(-955.000000, -217.000000)" fill="#339685" fill-rule="nonzero">
            <g id="Group-12" transform="translate(881.000000, 217.000000)">
                <g id="Group-8" transform="translate(61.000000, 0.000000)">
                    <g id="Group-5" transform="translate(13.000000, 0.000000)">
                        <g id="icons8-documents_folder">
                            <path d="M3.59999979,0 C1.62603614,0 0,1.62603614 0,3.59999979 L0,14.3999991 L0,26.3999984 L0,46.7999972 C0,48.7739611 1.62603614,50.399997 3.59999979,50.399997 L51.5999969,50.399997 C53.5739608,50.399997 55.1999967,48.7739611 55.1999967,46.7999972 L55.1999967,8.3999995 C55.1999967,6.42603586 53.5739608,4.79999971 51.5999969,4.79999971 L19.1999989,4.79999971 C19.3038828,4.79999971 19.1627869,4.80043651 18.8695297,4.46249973 C18.5762713,4.12456295 18.2153017,3.56392923 17.8382797,2.96249982 C17.461259,2.36107042 17.0661314,1.71934778 16.5679682,1.15546865 C16.0698038,0.591589645 15.3825039,0 14.3999991,0 L3.59999979,0 Z M3.59999979,2.39999986 L14.3999999,2.39999986 C14.3270991,2.39999986 14.4733671,2.40841186 14.7703119,2.74453112 C15.0672603,3.08065194 15.4286763,3.63892922 15.8039055,4.23749975 C16.1791346,4.83607027 16.5677138,5.47543647 17.0554682,6.03749964 C17.5432214,6.59956281 18.2147113,7.19999957 19.1999989,7.19999957 L51.5999969,7.19999957 C52.2780329,7.19999957 52.7999969,7.72196354 52.7999969,8.39999986 L52.7999969,11.0249993 C52.4221265,10.8887274 52.0222085,10.7999994 51.5999969,10.7999994 L3.59999979,10.7999994 C3.17778881,10.7999994 2.77786963,10.8887274 2.39999986,11.0249993 L2.39999986,3.59999979 C2.39999986,2.92196359 2.92196359,2.39999986 3.59999979,2.39999986 Z M3.59999979,13.1999992 L51.5999969,13.1999992 C52.2780329,13.1999992 52.7999969,13.7219632 52.7999969,14.3999991 L52.7999969,46.7999972 C52.7999969,47.4780332 52.2780329,47.9999971 51.5999969,47.9999971 L3.59999979,47.9999971 C2.92196359,47.9999971 2.39999986,47.4780332 2.39999986,46.7999972 L2.39999986,14.3999991 C2.39999986,13.7219632 2.92196359,13.1999992 3.59999979,13.1999992 Z M16.799999,16.799999 L16.799999,44.3999974 L38.3999977,44.3999974 L38.3999977,43.1999974 L38.3999977,25.1812485 L30.239061,16.799999 L16.799999,16.799999 Z M19.1999989,19.1999989 L27.5999984,19.1999989 L27.5999984,27.5999984 L35.9999979,27.5999984 L35.9999979,41.9999975 L19.1999989,41.9999975 L19.1999989,19.1999989 Z M29.9999982,19.9945296 L35.0695287,25.1999985 L29.9999982,25.1999985 L29.9999982,19.9945296 Z" id="Shape"></path>
                        </g>
                    </g>
                </g>
            </g>
        </g>
    </g>
</svg>