<?xml version="1.0" encoding="UTF-8"?>
<svg width="53px" height="50px" viewBox="0 0 53 50" version="1.1" xmlns="http://www.w3.org/2000/svg" xmlns:xlink="http://www.w3.org/1999/xlink">
    <!-- Generator: Sketch 56.3 (81716) - https://sketch.com -->
    <title>icons8-product_documents</title>
    <desc>Created with Sketch.</desc>
    <g id="Dashboard" stroke="none" stroke-width="1" fill="none" fill-rule="evenodd">
        <g id="HOME-1440-Copy-2" transform="translate(-1067.000000, -217.000000)" fill="#339685" fill-rule="nonzero">
            <g id="Group-12" transform="translate(881.000000, 217.000000)">
                <g id="icons8-product_documents" transform="translate(186.000000, 0.000000)">
                    <path d="M9.63636364,0 C8.9711391,0 8.43188469,0.508793322 8.43181818,1.13636364 L8.43181818,5.68181818 L7.22727273,5.68181818 C6.56204819,5.68188093 6.02279379,6.1906115 6.02272727,6.81818182 L6.02272727,11.3636364 L4.81818182,11.3636364 C4.15295729,11.3636991 3.61370288,11.8724297 3.61363636,12.5 L3.61363636,29.5454545 L1.20454545,29.5454545 C0.539320922,29.5455173 0,30.0542479 0,30.6818182 L0,48.8636364 C0,49.4912067 0.539320922,50 1.20454545,50 L51.7954545,50 C52.4606791,50 53,49.4912067 53,48.8636364 L53,30.6818182 C53,30.0542479 52.4606791,29.5455173 51.7954545,29.5454545 L49.3863636,29.5454545 L49.3863636,12.5 C49.3862971,11.8724297 48.8470427,11.3636991 48.1818182,11.3636364 L46.9772727,11.3636364 L46.9772727,6.81818182 C46.9772062,6.1906115 46.4379518,5.68188093 45.7727273,5.68181818 L44.5681818,5.68181818 L44.5681818,1.13636364 C44.5681153,0.508793322 44.0288609,0 43.3636364,0 L9.63636364,0 Z M10.8409091,2.27272727 L42.1590909,2.27272727 L42.1590909,5.68181818 L10.8409091,5.68181818 L10.8409091,2.27272727 Z M8.43181818,7.95454545 L9.43403734,7.95454545 C9.56411794,7.97482846 9.69684575,7.97482846 9.82692634,7.95454545 L43.1613101,7.95454545 C43.2913907,7.97482846 43.4241185,7.97482846 43.5541991,7.95454545 L44.5681818,7.95454545 L44.5681818,11.3636364 L8.43181818,11.3636364 L8.43181818,7.95454545 Z M6.02272727,13.6363636 L7.02494667,13.6363636 C7.15502723,13.6566466 7.287755,13.6566466 7.41783555,13.6363636 L45.570401,13.6363636 C45.7004816,13.6566466 45.8332094,13.6566466 45.96329,13.6363636 L46.9772727,13.6363636 L46.9772727,29.5454545 L33.7272727,29.5454545 C33.0620482,29.5455173 32.5227938,30.0542479 32.5227273,30.6818182 C32.5227273,33.8337114 29.8410068,36.3636364 26.5,36.3636364 C23.1589932,36.3636364 20.4772727,33.8337114 20.4772727,30.6818182 C20.4772062,30.0542479 19.9379518,29.5455173 19.2727273,29.5454545 L6.02272727,29.5454545 L6.02272727,13.6363636 Z M2.40909091,31.8181818 L18.3128551,31.8181818 C18.9227767,35.6399386 22.2839464,38.6363636 26.5,38.6363636 C30.7160536,38.6363636 34.0772233,35.6399386 34.6871449,31.8181818 L50.5909091,31.8181818 L50.5909091,47.7272727 L2.40909091,47.7272727 L2.40909091,31.8181818 Z" id="Shape"></path>
                </g>
            </g>
        </g>
    </g>
</svg>