<svg version="1" xmlns="http://www.w3.org/2000/svg" width="346.667" height="346.667" viewBox="0 0 260.000000 260.000000"><path d="M117.9 21c-.6 1.6-1.5 3-2.1 3-.6 0-.8.7-.4 1.5.3.8-.1 2-.8 2.8-1.5 1.5-2.6 4.5-3.1 8.8-.6 4.7-1.5 7-2.6 6.4-.5-.3-.6.1-.3 1 .4.8.1 2.1-.5 2.9-.6.7-.8 1.6-.4 1.9.3.4 0 .7-.7.7s-1 .3-.7.7c.4.3.1 1.6-.6 2.7-.8 1.2-1.9 4.3-2.7 7.1-.7 2.7-1.8 5.9-2.4 7-.5 1.1-1.1 2.9-1.3 4-.2 1-.9 2.3-1.6 2.7-.6.4-.8.8-.2.8.5 0 .4.5-.3 1.2S96 78.4 96 79.7c0 1.3-.5 2.3-1 2.3-.6 0-.9.3-.8.7.5 2-1.5 7.3-2.4 6.7-.6-.4-.8-.3-.5.3.8 1.3-1.4 8.3-2.5 8.3-.5 0-.6.4-.3 1 .3.5.1 1-.4 1-.6 0-1.1 1.3-1.1 3 0 2.7-.9 3.5-3.4 3.1-.5-.1-.4.4.2 1.2.9 1.1.8 2.5-.5 6.1-1 2.5-2.1 4.6-2.6 4.6-.4 0-.6.4-.2.9.3.5.1 1.2-.5 1.6-.5.3-1 1.3-1 2.2 0 2.4-7.9 21.5-9.9 23.7-.9 1.1-1 1.6-.4 1.2.9-.5 1.1-.2.7.8-.3.9-.9 1.4-1.3 1.2-.3-.2-.7.6-.7 1.9-.1 1.3-1.2 3.9-2.5 5.7-1.3 1.8-2.3 3.4-2.1 3.5.1.2.2 1.3.2 2.5 0 1.6-.3 1.9-.8 1-.6-.8-.9-.2-.9 1.8 0 1.8-.4 3.5-.9 3.8-.5.4-1 1.1-1.1 1.7-.4 2-5.6 14-6.5 15.2-.5.6-1.1 2.4-1.4 3.9-.3 1.6-1.4 4.3-2.5 6-1 1.7-1.9 3.8-1.9 4.6 0 .9-.7 2.1-1.5 2.8-.8.6-1.4 1.5-1.3 1.8.3 1.7-1.5 6.1-2.3 5.6-.5-.3-.9.6-.9 2s-.5 2.6-1.1 2.6c-.5 0-.7.4-.4 1 .3.5.1 1-.6 1s-1 .3-.6.6c.3.4 0 1.9-.8 3.4s-1.1 3.1-.7 3.5c.4.5.1.5-.5.1-1.3-.7-1.7.5-1.4 3.3.2.8-.2 1-1 .5-.8-.4-1-.3-.5.4.4.6 0 2.2-.8 3.4-.8 1.3-1.7 3.6-2 5.3l-.6 3 14.7-.2c11.3-.1 14.9-.4 15.4-1.5 1.4-2.9 2.8-6.5 3.9-10.1.6-2 1.6-3.7 2.1-3.7s.9-1.1.9-2.5c0-1.3.9-4 2-6 1.1-1.9 1.9-3.9 1.8-4.3-.4-1.4 5.4-18.7 6.8-20.3.8-.9 1.1-1.8.8-2.2-.4-.3-.3-1.4.1-2.4.5-1 1.5-3.8 2.4-6.3l1.6-4.5 34.5-.3c26.2-.2 35.1.1 36.9 1 1.8 1 3.1 3.8 5.9 12.3 1.9 6 4.1 12.4 4.8 14 .7 1.7 1.7 5.1 2.3 7.5.5 2.5 1 4.6 1.1 4.7 0 .2.7 1.8 1.5 3.7.8 2 1.5 4.2 1.5 5.1 0 .9.7 2.9 1.5 4.5.9 1.7 1.2 3 .8 3-.5 0-.3.4.4.8.6.4 1.5 2.2 2 4.1l.9 3.4 8.1-.1c4.5 0 9.2-.3 10.4-.7 1.4-.5 1.9-.4 1.5.4-.5.8 0 .8 1.7.2 1.6-.6 2.8-.6 3.6.2.6.6 1.1.7 1.1.1 0-1.2 7.3-1.2 8.2.1.5.6.8.6.8-.2 0-.7 1.5-1 4.3-.7 15.6 1.3 16.8 1.3 16.5-.4-.2-.9-.5-1.9-.8-2.2-.3-.3-1.9-4-3.7-8.2-2-4.9-2.7-7.8-2-7.8.7 0 .4-.5-.6-1.1-1.7-1-5.4-8.6-4.9-10.2.1-.4-.2-.7-.8-.7-.5 0-1-.5-1-1.1 0-.6-.6-2.5-1.4-4.2-3-6.9-3.7-9.9-2.3-11.6 1-1.4 1-1.4-.4-.4-1.4 1.1-2 .4-4.8-5.7-1.8-3.8-2.9-7.5-2.5-8.1.5-.8.3-.9-.6-.4-1 .6-1.1.2-.6-1.9.4-1.8.3-2.5-.4-2.1-.5.3-1.1.1-1.1-.4-.1-.6-.2-1.5-.3-2.1 0-.5-.6-1.4-1.3-2.1-.6-.6-.9-1.8-.6-2.5.3-.8 0-1.4-.7-1.4s-1-.7-.6-1.5c.3-.9-.1-1.8-.8-2.1-1.1-.4-2.3-3.4-3-7.6-.1-.3-.5-1-.9-1.4-1.4-1.5-4.7-9.6-4.2-10.4.3-.5.1-1-.4-1.2-.5-.1-1.1-1.4-1.3-2.8-.1-1.4-.9-3.1-1.5-3.8-1.6-1.7-1.7-3.6-.1-2.6.7.4.8.3.4-.5-.4-.6-1.2-.9-1.7-.6-.5.4-.9-.3-.9-1.5 0-1.1-.7-3.2-1.6-4.5-.9-1.4-1.2-2.5-.8-2.5.5 0 .3-.4-.4-.9-.7-.4-1.4-1.8-1.5-2.9-.1-1.2-.5-2.2-.9-2.2s-.8-.6-.8-1.4c0-.7-.6-2.6-1.4-4.1-.8-1.5-1.2-3.5-.9-4.4.4-.9.2-1.2-.2-.8-1.2 1.1-4.6-7.9-3.8-9.9.5-1.3.3-1.5-.7-.9s-1 .4-.2-1.1c.9-1.6.6-2.3-1.5-3.9-1.4-1.2-2.6-3.2-2.6-4.8-.1-1.5-.5-2.7-.9-2.7-.8 0-3-6.2-2.3-6.8.2-.3-.1-1-.9-1.6-.7-.6-2.1-3.6-3-6.6-.9-3-2.4-6.9-3.2-8.7-.8-1.7-1.1-3.9-.8-5 .5-1.5.4-1.6-.6-.3s-1.1 1.1-.7-.8c.3-1.2.1-2-.4-1.7-.9.6-1.9-2.3-2.2-6.3 0-1.2-.5-2.2-1-2.2-.4 0-.5-.5-.2-1 .3-.6.1-1-.4-1-.6 0-1-.3-.9-.8.1-.4-.4-1.8-1.1-3.2-.8-1.3-1.4-3.7-1.3-5.2 0-1.6-.3-2.6-.9-2.3-.5.3-.6-.1-.3-.9.3-.9.1-1.6-.5-1.6s-1.1-1.3-1.1-2.8c0-4.8-3.9-6.2-17-6.2h-11.1l-1 3zm4.3 69.3c.5 1 .6 2.2.3 2.7-.3.6-.1 1 .5 1 .7 0 .9.7.6 1.5-.3.9.1 1.8.9 2.1.7.3 1.7 2 2.1 3.7.4 1.8 1.3 4.1 2 5.3.8 1.1 1.5 3.3 1.6 4.8.1 1.5.8 3.2 1.5 3.8.7.6 1.3 1.5 1.3 2s2.3 7.1 5.1 14.5c2.8 7.5 5.2 14.3 5.4 15.2.2.9.8 2.8 1.4 4.3.7 1.9.7 2.9-.1 3.4-1.2.8-47.5 1.6-49.8.9-1.8-.6-2.5-5.5-.8-5.5.6 0 .9-.3.5-.6-.6-.6 2-10.2 3.2-11.9.4-.6 1.3-2.9 2-5.3.6-2.3 1.6-4 2.1-3.7.6.3.7-.1.4-.9-.3-.8.2-2.8 1-4.5.9-1.7 1.6-3.3 1.6-3.6 0-.3.8-2 1.7-3.8 1-1.7 1.8-3.7 1.8-4.2.1-1.2 4.1-11.7 5.4-14.2.5-1 1.6-3.4 2.5-5.5 1.7-3.8 4.1-4.5 5.8-1.5z"/><path d="M125 107c0 .5.5 1 1.1 1 .5 0 .7-.5.4-1-.3-.6-.8-1-1.1-1-.2 0-.4.4-.4 1zM111 28.1c0 .5.5.7 1 .4.6-.3 1-.8 1-1.1 0-.2-.4-.4-1-.4-.5 0-1 .5-1 1.1z"/></svg>