<?xml version="1.0" encoding="UTF-8"?>
<svg width="20px" height="20px" viewBox="0 0 20 20" version="1.1" xmlns="http://www.w3.org/2000/svg" xmlns:xlink="http://www.w3.org/1999/xlink">
    <!-- Generator: Sketch 60.1 (88133) - https://sketch.com -->
    <title>02 - icon/autorizza</title>
    <desc>Created with Sketch.</desc>
    <g id="02---icon/autorizza" stroke="none" stroke-width="1" fill="none" fill-rule="evenodd">
        <path d="M10.0000741,2.00000823 C14.4182643,2.00000823 18.0001399,5.58188386 18.0001399,10.0000741 C18.0001399,14.4182643 14.4182643,18.0001399 10.0000741,18.0001399 C5.58188386,18.0001399 2.00000823,14.4182643 2.00000823,10.0000741 C2.00000823,5.58188386 5.58188386,2.00000823 10.0000741,2.00000823 Z M10.0000741,3.00007406 C6.13421232,3.00007406 3.00007406,6.13421232 3.00007406,10.0000741 C3.00007406,13.8659358 6.13421232,17.0000741 10.0000741,17.0000741 C13.8659358,17.0000741 17.0000741,13.8659358 17.0000741,10.0000741 C17.0000741,6.13421232 13.8659358,3.00007406 10.0000741,3.00007406 Z M14.2553548,7.22954149 C14.4505048,7.42469145 14.4505048,7.74109206 14.2553548,7.93624203 L9.0625604,13.1290364 C8.86741043,13.3241864 8.55100982,13.3241864 8.35585986,13.1290364 L8.32304092,13.090179 L6.23286187,10.9996009 C6.03843394,10.805173 6.03843394,10.489943 6.23286187,10.2955151 C6.4272898,10.1010872 6.74251975,10.1010872 6.93694768,10.2955151 L8.70904092,12.068179 L13.5486542,7.22954149 C13.7438042,7.03439152 14.0602048,7.03439152 14.2553548,7.22954149 Z" id="Combined-Shape" fill="#000000"></path>
    </g>
</svg>