<?xml version="1.0" encoding="UTF-8"?>
<svg width="20px" height="20px" viewBox="0 0 20 20" version="1.1" xmlns="http://www.w3.org/2000/svg" xmlns:xlink="http://www.w3.org/1999/xlink">
    <!-- Generator: Sketch 60.1 (88133) - https://sketch.com -->
    <title>02 - icon/avvisi</title>
    <desc>Created with Sketch.</desc>
    <g id="02---icon/avvisi" stroke="none" stroke-width="1" fill="none" fill-rule="evenodd">
        <path d="M10.0488672,3 C12.8791033,3 15.0685942,4.97195308 15.0685942,7.80218918 L15.0685942,9.08333813 C15.0685942,9.65009542 15.3457686,10.3198199 15.9584857,11.086326 C16.1250519,11.294708 16.6852316,11.9264638 16.501177,12.7235556 C16.3171224,13.5206474 15.819328,14.0133649 14.9984752,14.0133649 L13.0636756,14.013 L13.0618266,14.0859798 C12.9618103,15.8936665 11.4862385,17.0337732 10.0168009,17.0337732 C8.52808493,17.0337732 7.04032292,15.863555 6.97611852,14.0144882 L5.52173432,14.0133649 L5.52173432,14.0133649 C4.46038976,14.0133649 3.7236756,13.3475551 3.7236756,12.2862105 C3.7236756,11.8500971 3.87201359,11.4269532 4.14431832,11.0862994 C4.75701846,10.3198101 5.0196257,9.65009124 5.0196257,9.08333813 L5.0196257,7.80218917 C5.01962574,4.97195308 7.21863114,3 10.0488672,3 Z M12.0013119,14.0290476 L8.0250032,14.0290476 C8.00125771,14.9932941 8.96766876,16 10,16 C11.0323312,16 12.0179587,15.0405268 12.0013119,14.0290476 Z M10.0082796,4.01493934 C7.46248597,4.01493934 6.03615602,5.75513739 6.03615599,7.87781445 L6.03615599,9.1589634 C6.03615599,10.0549842 5.68816093,10.9872183 4.90907156,11.9618609 C4.81830229,12.0754134 4.76885573,12.216463 4.76885573,12.3618358 C4.76885573,12.7156213 5.05565556,13.0024212 5.40944032,13.0024212 L14.7863607,13.0024212 C14.9317284,13.0024212 15.072773,12.9529652 15.1863214,12.8621988 C15.4626572,12.6413059 15.5076049,12.2382168 15.2867206,11.9618804 C14.5076209,10.9872306 14.0139591,10.0549902 14.0139591,9.1589634 L14.0139591,7.87781446 C14.0139591,5.75513739 12.5540733,4.01493934 10.0082796,4.01493934 Z" id="Color" fill="#000000"></path>
    </g>
</svg>