<?xml version="1.0" encoding="UTF-8"?>
<svg width="20px" height="20px" viewBox="0 0 20 20" version="1.1" xmlns="http://www.w3.org/2000/svg" xmlns:xlink="http://www.w3.org/1999/xlink">
    <!-- Generator: Sketch 60.1 (88133) - https://sketch.com -->
    <title>02 - icon/carta-di-credito</title>
    <desc>Created with Sketch.</desc>
    <g id="02---icon/carta-di-credito" stroke="none" stroke-width="1" fill="none" fill-rule="evenodd">
        <path d="M17.0528541,4 C17.5940803,4 18,4.44827586 18,4.96551724 L18,15.0344828 C18,15.5517241 17.5602537,16 17.0528541,16 L2.94714588,16 C2.4397463,16 2,15.5517241 2,15.0344828 L2,4.96551724 C2,4.44827586 2.4397463,4 2.94714588,4 L17.0528541,4 Z M17,9 L3,9 L3,14.6845878 C3,14.8422939 3.12933025,15 3.25866051,15 L16.7413395,15 C16.8706697,15 17,14.8422939 17,14.6845878 L17,9 Z M8.5,13 C8.77614237,13 9,13.2238576 9,13.5 C9,13.7761424 8.77614237,14 8.5,14 L4.5,14 C4.22385763,14 4,13.7761424 4,13.5 C4,13.2238576 4.22385763,13 4.5,13 L8.5,13 Z M14,10 C15.1045695,10 16,10.8954305 16,12 C16,13.1045695 15.1045695,14 14,14 C13.6356829,14 13.2941173,13.9025897 12.9999275,13.7323937 C12.7066608,13.9023677 12.364732,14 12,14 C10.8954305,14 10,13.1045695 10,12 C10,10.8954305 10.8954305,10 12,10 C12.364732,10 12.7066608,10.0976323 13.0010775,10.2681881 C13.2941173,10.0974103 13.6356829,10 14,10 Z M14,11 C13.9137968,11 13.8301412,11.0109074 13.750338,11.0314174 C13.909554,11.3190203 14,11.6489477 14,12 C14,12.3510523 13.909554,12.6809797 13.7506935,12.9677509 C13.8301412,12.9890926 13.9137968,13 14,13 C14.5522847,13 15,12.5522847 15,12 C15,11.4477153 14.5522847,11 14,11 Z M12,11 C11.4477153,11 11,11.4477153 11,12 C11,12.5522847 11.4477153,13 12,13 C12.5522847,13 13,12.5522847 13,12 C13,11.4477153 12.5522847,11 12,11 Z M6.5,11 C6.77614237,11 7,11.2238576 7,11.5 C7,11.7761424 6.77614237,12 6.5,12 L4.5,12 C4.22385763,12 4,11.7761424 4,11.5 C4,11.2238576 4.22385763,11 4.5,11 L6.5,11 Z M17,7 L3,7 L3,8 L17,8 L17,7 Z M16.7413395,5 L3.25866051,5 C3.12933025,5 3,5.15770609 3,5.31541219 L3,6 L17,6 L17,5.31541219 C17,5.15770609 16.8706697,5 16.7413395,5 Z" id="Shape" fill="#000000" fill-rule="nonzero"></path>
    </g>
</svg>