<?xml version="1.0" encoding="UTF-8"?>
<svg width="20px" height="20px" viewBox="0 0 20 20" version="1.1" xmlns="http://www.w3.org/2000/svg" xmlns:xlink="http://www.w3.org/1999/xlink">
    <!-- Generator: Sketch 60.1 (88133) - https://sketch.com -->
    <title>02 - icon/circlearrow-up</title>
    <desc>Created with Sketch.</desc>
    <g id="02---icon/circlearrow-up" stroke="none" stroke-width="1" fill="none" fill-rule="evenodd">
        <path d="M10.0000741,2.00000823 C14.4182643,2.00000823 18.0001399,5.58188386 18.0001399,10.0000741 C18.0001399,14.4182643 14.4182643,18.0001399 10.0000741,18.0001399 C5.58188386,18.0001399 2.00000823,14.4182643 2.00000823,10.0000741 C2.00000823,5.58188386 5.58188386,2.00000823 10.0000741,2.00000823 Z M10.0000741,3.00007406 C6.13421232,3.00007406 3.00007406,6.13421232 3.00007406,10.0000741 C3.00007406,13.8659358 6.13421232,17.0000741 10.0000741,17.0000741 C13.8659358,17.0000741 17.0000741,13.8659358 17.0000741,10.0000741 C17.0000741,6.13421232 13.8659358,3.00007406 10.0000741,3.00007406 Z M10.5458574,8.14636248 L10.5786763,8.18521989 L13.6688554,11.275798 C13.8632833,11.4702259 13.8632833,11.7854559 13.6688554,11.9798838 C13.4744275,12.1743117 13.1591975,12.1743117 12.9647696,11.9798838 L10.1926763,9.20721989 L7.35306302,12.0458574 C7.15791305,12.2410074 6.84151244,12.2410074 6.64636248,12.0458574 C6.45121251,11.8507074 6.45121251,11.5343068 6.64636248,11.3391569 L9.83915687,8.14636248 C10.0343068,7.95121251 10.3507074,7.95121251 10.5458574,8.14636248 Z" id="Combined-Shape" fill="#000000"></path>
    </g>
</svg>