<?xml version="1.0" encoding="UTF-8"?>
<svg width="20px" height="20px" viewBox="0 0 20 20" version="1.1" xmlns="http://www.w3.org/2000/svg" xmlns:xlink="http://www.w3.org/1999/xlink">
    <!-- Generator: Sketch 62 (91390) - https://sketch.com -->
    <title>02 - icon/circleminus</title>
    <desc>Created with Sketch.</desc>
    <g id="02---icon/circleminus" stroke="none" stroke-width="1" fill="none" fill-rule="evenodd">
        <path d="M10.0000741,2.00000823 C14.4182643,2.00000823 18.0001399,5.58188386 18.0001399,10.0000741 C18.0001399,14.4182643 14.4182643,18.0001399 10.0000741,18.0001399 C5.58188386,18.0001399 2.00000823,14.4182643 2.00000823,10.0000741 C2.00000823,5.58188386 5.58188386,2.00000823 10.0000741,2.00000823 Z M10.0000741,3.00007406 C6.13421232,3.00007406 3.00007406,6.13421232 3.00007406,10.0000741 C3.00007406,13.8659358 6.13421232,17.0000741 10.0000741,17.0000741 C13.8659358,17.0000741 17.0000741,13.8659358 17.0000741,10.0000741 C17.0000741,6.13421232 13.8659358,3.00007406 10.0000741,3.00007406 Z M13.5927632,9.5 C13.8623524,9.5 14.0808976,9.71854522 14.0808976,9.98813442 C14.0808976,10.2577236 13.8623524,10.4762688 13.5927632,10.4762688 L6.48813442,10.4762688 C6.21854522,10.4762688 6,10.2577236 6,9.98813442 C6,9.71854522 6.21854522,9.5 6.48813442,9.5 L13.5927632,9.5 Z" id="Combined-Shape" fill="#2F9988"></path>
    </g>
</svg>