<?xml version="1.0" encoding="UTF-8"?>
<svg width="20px" height="20px" viewBox="0 0 20 20" version="1.1" xmlns="http://www.w3.org/2000/svg" xmlns:xlink="http://www.w3.org/1999/xlink">
    <!-- Generator: Sketch 62 (91390) - https://sketch.com -->
    <title>02 - icon/circleplus</title>
    <desc>Created with Sketch.</desc>
    <g id="02---icon/circleplus" stroke="none" stroke-width="1" fill="none" fill-rule="evenodd">
        <path d="M10.0000741,2.00000823 C14.4182643,2.00000823 18.0001399,5.58188386 18.0001399,10.0000741 C18.0001399,14.4182643 14.4182643,18.0001399 10.0000741,18.0001399 C5.58188386,18.0001399 2.00000823,14.4182643 2.00000823,10.0000741 C2.00000823,5.58188386 5.58188386,2.00000823 10.0000741,2.00000823 Z M10.0000741,3.00007406 C6.13421232,3.00007406 3.00007406,6.13421232 3.00007406,10.0000741 C3.00007406,13.8659358 6.13421232,17.0000741 10.0000741,17.0000741 C13.8659358,17.0000741 17.0000741,13.8659358 17.0000741,10.0000741 C17.0000741,6.13421232 13.8659358,3.00007406 10.0000741,3.00007406 Z M10.0250152,5.98192594 C10.2913153,5.98223256 10.5071177,6.19803495 10.5074243,6.46433502 L10.5112774,9.52138429 L13.5482539,9.52542262 C13.8155429,9.52573038 14.0321467,9.74233419 14.0324544,10.0096232 C14.0327613,10.2761179 13.8169734,10.4924032 13.5504788,10.49271 L13.5493676,10.49271 L10.5119846,10.4879993 L10.5154994,13.4775583 C10.5158051,13.7430669 10.3008157,13.958552 10.035307,13.9588577 L10.0342,13.9588577 C9.76789988,13.9585511 9.55209749,13.7427487 9.55179087,13.4764486 L9.54819801,10.4872922 L6.44179605,10.4845263 C6.17450704,10.4842185 5.95790323,10.2676147 5.95759547,10.0003257 C5.95728862,9.73383105 6.17307647,9.51754571 6.43957112,9.51723886 L6.4406823,9.51723886 L9.5474909,9.52067718 L9.54371575,6.46322539 C9.54344825,6.23090533 9.70801611,6.03688454 9.9270323,5.99180454 L10.0239081,5.98192594 L10.0250152,5.98192594 Z" id="Combined-Shape" fill="#2F9988"></path>
    </g>
</svg>