<?xml version="1.0" encoding="UTF-8"?>
<svg width="20px" height="20px" viewBox="0 0 20 20" version="1.1" xmlns="http://www.w3.org/2000/svg" xmlns:xlink="http://www.w3.org/1999/xlink">
    <!-- Generator: Sketch 60.1 (88133) - https://sketch.com -->
    <title>02 - icon/circlearrow-down</title>
    <desc>Created with Sketch.</desc>
    <g id="02---icon/circlearrow-down" stroke="none" stroke-width="1" fill="none" fill-rule="evenodd">
        <path d="M10.0000741,2.00000823 C14.4182643,2.00000823 18.0001399,5.58188386 18.0001399,10.0000741 C18.0001399,14.4182643 14.4182643,18.0001399 10.0000741,18.0001399 C5.58188386,18.0001399 2.00000823,14.4182643 2.00000823,10.0000741 C2.00000823,5.58188386 5.58188386,2.00000823 10.0000741,2.00000823 Z M10.0000741,3.00007406 C6.13421232,3.00007406 3.00007406,6.13421232 3.00007406,10.0000741 C3.00007406,13.8659358 6.13421232,17.0000741 10.0000741,17.0000741 C13.8659358,17.0000741 17.0000741,13.8659358 17.0000741,10.0000741 C17.0000741,6.13421232 13.8659358,3.00007406 10.0000741,3.00007406 Z M13.6683139,8.14636248 C13.8634638,8.34151244 13.8634638,8.65791305 13.6683139,8.85306302 L10.4755195,12.0458574 C10.2803695,12.2410074 9.9639689,12.2410074 9.76881893,12.0458574 L9.736,12.007 L6.64582095,8.9164219 C6.45139302,8.72199397 6.45139302,8.40676402 6.64582095,8.21233609 C6.84024887,8.01790816 7.15547883,8.01790816 7.34990676,8.21233609 L10.122,10.985 L12.9616133,8.14636248 C13.1567633,7.95121251 13.4731639,7.95121251 13.6683139,8.14636248 Z" id="Combined-Shape" fill="#000000"></path>
    </g>
</svg>