<?xml version="1.0" encoding="UTF-8"?>
<svg width="20px" height="20px" viewBox="0 0 20 20" version="1.1" xmlns="http://www.w3.org/2000/svg" xmlns:xlink="http://www.w3.org/1999/xlink">
    <!-- Generator: Sketch 60.1 (88133) - https://sketch.com -->
    <title>02 - icon/close</title>
    <desc>Created with Sketch.</desc>
    <g id="02---icon/close" stroke="none" stroke-width="1" fill="none" fill-rule="evenodd">
        <path d="M10.0000741,2.00000823 C14.4182643,2.00000823 18.0001399,5.58188386 18.0001399,10.0000741 C18.0001399,14.4182643 14.4182643,18.0001399 10.0000741,18.0001399 C5.58188386,18.0001399 2.00000823,14.4182643 2.00000823,10.0000741 C2.00000823,5.58188386 5.58188386,2.00000823 10.0000741,2.00000823 Z M10.0000741,3.00007406 C6.13421232,3.00007406 3.00007406,6.13421232 3.00007406,10.0000741 C3.00007406,13.8659358 6.13421232,17.0000741 10.0000741,17.0000741 C13.8659358,17.0000741 17.0000741,13.8659358 17.0000741,10.0000741 C17.0000741,6.13421232 13.8659358,3.00007406 10.0000741,3.00007406 Z M7.85861513,7.14106433 L10.023,9.3 L12.1733221,7.15538892 C12.3625416,6.96660466 12.6688657,6.96660466 12.8580852,7.15538892 C13.0467423,7.34361212 13.0470941,7.649134 12.8588709,7.83779115 L12.8580852,7.83857687 L10.707,9.983 L12.8234228,12.0944521 C13.011382,12.2819789 13.0117324,12.5863703 12.8242056,12.7743295 C12.823945,12.7745907 12.8236841,12.7748516 12.8234228,12.7751123 C12.6349034,12.9631981 12.3297128,12.9631981 12.1411934,12.7751123 L10.025,10.664 L7.82648635,12.8586021 C7.63726685,13.0473864 7.33094281,13.0473864 7.14172331,12.8586021 C6.95306617,12.6703789 6.95271439,12.364857 7.14093759,12.1761999 L7.14172331,12.1754142 L9.341,9.981 L7.17638567,7.82172454 C7.01192143,7.6576386 6.99109506,7.40407814 7.11408652,7.21733393 L7.17560285,7.14184715 C7.17586349,7.14158591 7.17612443,7.14132497 7.17638567,7.14106433 C7.36490507,6.95297856 7.67009574,6.95297856 7.85861513,7.14106433 Z" id="Combined-Shape" fill="#000000"></path>
    </g>
</svg>