<?xml version="1.0" encoding="UTF-8"?>
<svg width="20px" height="20px" viewBox="0 0 20 20" version="1.1" xmlns="http://www.w3.org/2000/svg" xmlns:xlink="http://www.w3.org/1999/xlink">
    <!-- Generator: Sketch 62 (91390) - https://sketch.com -->
    <title>02 - icon/delete</title>
    <desc>Created with Sketch.</desc>
    <g id="02---icon/delete" stroke="none" stroke-width="1" fill="none" fill-rule="evenodd">
        <path d="M16.5,4 C17.327,4 18,4.673 18,5.5 L18,5.5 L18,14.5 C18,15.327 17.327,16 16.5,16 L16.5,16 L8,16 C7.2510598,15.285633 2,10.4507786 2,10 C2,9.54922137 7.3413037,4.59996144 8,4 L8,4 Z M8.5,4.99882878 C5.14343031,8.14696975 3.46541528,9.82264376 3.46595491,10.0258508 C3.46663809,10.2290579 5.14465312,11.8882268 8.5,15.0033578 L8.5,15.0033578 L16.5321967,15.0033578 C16.8081967,15.0033578 17.0321967,14.7793578 17.0321967,14.5033578 L17.0321967,14.5033578 L17.0016879,5.50069325 C17.0007547,5.22530072 16.7773073,5.00251021 16.5019132,5.00238772 L16.5019132,5.00238772 Z M9.85861513,7.14106433 L12.023,9.3 L14.1733221,7.15538892 C14.3625416,6.96660466 14.6688657,6.96660466 14.8580852,7.15538892 C15.0467423,7.34361212 15.0470941,7.649134 14.8588709,7.83779115 L14.8580852,7.83857687 L12.707,9.983 L14.8234228,12.0944521 C15.011382,12.2819789 15.0117324,12.5863703 14.8242056,12.7743295 C14.823945,12.7745907 14.8236841,12.7748516 14.8234228,12.7751123 C14.6349034,12.9631981 14.3297128,12.9631981 14.1411934,12.7751123 L12.025,10.664 L9.82648635,12.8586021 C9.63726685,13.0473864 9.33094281,13.0473864 9.14172331,12.8586021 C8.95306617,12.6703789 8.95271439,12.364857 9.14093759,12.1761999 L9.14172331,12.1754142 L11.341,9.981 L9.17638567,7.82172454 C9.01192143,7.6576386 8.99109506,7.40407814 9.11408652,7.21733393 L9.17560285,7.14184715 C9.17586349,7.14158591 9.17612443,7.14132497 9.17638567,7.14106433 C9.36490507,6.95297856 9.67009574,6.95297856 9.85861513,7.14106433 Z" id="Shape" fill="#2F9988"></path>
    </g>
</svg>