<?xml version="1.0" encoding="UTF-8"?>
<svg width="20px" height="20px" viewBox="0 0 20 20" version="1.1" xmlns="http://www.w3.org/2000/svg" xmlns:xlink="http://www.w3.org/1999/xlink">
    <!-- Generator: Sketch 60.1 (88133) - https://sketch.com -->
    <title>02 - icon/disponi-bonifici</title>
    <desc>Created with Sketch.</desc>
    <g id="02---icon/disponi-bonifici" stroke="none" stroke-width="1" fill="none" fill-rule="evenodd">
        <path d="M17,6 L3,6 C2.44771525,6 2,6.44771525 2,7 L2,13 C2,13.5522847 2.44771525,14 3,14 L17,14 C17.5522847,14 18,13.5522847 18,13 L18,7 C18,6.44771525 17.5522847,6 17,6 Z M15.0074988,13 L5.00763767,13 C4.99544093,11.986939 4.01485205,11.0012804 3,11.0011334 L3,9.03121223 C4.0138234,9.03084485 5.0241694,8.01212278 5.01469121,7 L14.9784764,7 C14.9975063,8.01315142 16.0127016,9.00990466 17,9.02379132 L17,10.9896714 C16.0230615,10.9936391 14.9961838,12.0077322 15.0074988,13 Z M17,8 C16.5102198,7.87226808 16.1277319,7.48978015 16,7 L17,7 L17,8 Z M3,7 L4,7 C3.87240098,7.48985628 3.48985628,7.87240098 3,8 L3,7 Z M3,13 L3,12 C3.48985628,12.127599 3.87240098,12.5101437 4,13 L3,13 Z M6.39827604,15 C6.59664027,14.9997567 6.78759895,15.1092537 6.88281377,15.298361 C7.01717251,15.5654915 6.90952682,15.8913378 6.64213182,16.0256967 L6.64213182,16.0256967 L5.68413165,16.5074904 C9.03645455,17.979816 12.8605868,17.8277698 16.1115125,16.0402433 C16.4921815,15.8375144 16.7622796,15.8812114 16.9218068,16.1713343 C17.0813339,16.4614572 16.9852674,16.7342614 16.6336073,16.9897469 C13.2144025,18.8694466 9.21296567,19.0965076 5.65219499,17.6736407 L5.65219499,17.6736407 L5.92061487,18.2074389 C6.05497361,18.4748339 5.94732792,18.8004158 5.67993292,18.9347745 C5.41253793,19.0686043 5.08695607,18.9609587 4.95259733,18.6940926 L4.95259733,18.6940926 L3.97929004,16.7583219 C3.8449313,16.4911914 3.95257699,16.1653451 4.21997199,16.0309863 L4.21997199,16.0309863 L6.15547818,15.057679 C6.23350147,15.0185352 6.31654997,15 6.39827604,15 Z M17,12 L17,13 L16,13 C16.127599,12.5101437 16.5101437,12.127599 17,12 Z M10,8 C10.530433,8 11.0391408,8.21071368 11.4142136,8.58578644 C11.7892863,8.96085919 12,9.46956702 12,10 C12,11.1045695 11.1045695,12 10,12 C8.8954305,12 8,11.1045695 8,10 C8,8.8954305 8.8954305,8 10,8 Z M10,9 C9.44771525,9 9,9.44771525 9,10 C9,10.5522847 9.44771525,11 10,11 C10.5522847,11 11,10.5522847 11,10 C11,9.44771525 10.5522847,9 10,9 Z M15.2379964,1.05765787 C15.5053914,0.923828125 15.8309733,1.03147376 15.965332,1.29833982 L15.965332,1.29833982 L16.9386393,3.2341105 C17.072998,3.501241 16.9653523,3.82708736 16.6979574,3.9614461 L16.6979574,3.9614461 L14.7624512,4.93475339 C14.6844279,4.97389725 14.6013794,4.99243241 14.5196533,4.99243241 C14.3212891,4.99267575 14.1303304,4.8831787 14.0351156,4.69407144 C13.9007568,4.42694094 14.0084025,4.10109459 14.2757975,3.96673574 L14.2757975,3.96673574 L15.2337977,3.48494204 C11.8814748,2.01261642 8.05734252,2.16466263 4.80641681,3.95218907 C4.42574784,4.15491801 4.15564976,4.11122103 3.99612258,3.82109814 C3.83659539,3.53097525 3.93266189,3.25817103 4.28432208,3.00268548 C7.70352683,1.1229858 11.7049637,0.895924817 15.2657344,2.31879166 L15.2657344,2.31879166 L14.9973145,1.78499346 C14.8629557,1.51759847 14.9706014,1.19201661 15.2379964,1.05765787 Z" id="Shape" fill="#000000" fill-rule="nonzero"></path>
    </g>
</svg>