<?xml version="1.0" encoding="UTF-8"?>
<svg width="20px" height="20px" viewBox="0 0 20 20" version="1.1" xmlns="http://www.w3.org/2000/svg" xmlns:xlink="http://www.w3.org/1999/xlink">
    <!-- Generator: Sketch 60.1 (88133) - https://sketch.com -->
    <title>02 - icon/divieto</title>
    <desc>Created with Sketch.</desc>
    <g id="02---icon/divieto" stroke="none" stroke-width="1" fill="none" fill-rule="evenodd">
        <path d="M10.0000658,2 C14.4182561,2 18.0001317,5.58187563 18.0001317,10.0000658 C18.0001317,14.4182561 14.4182561,18.0001317 10.0000658,18.0001317 C5.58187563,18.0001317 2,14.4182561 2,10.0000658 C2,5.58187563 5.58187563,2 10.0000658,2 Z M10.0000658,3.00006583 C6.13420409,3.00006583 3.00006583,6.13420409 3.00006583,10.0000658 C3.00006583,13.8659276 6.13420409,17.0000658 10.0000658,17.0000658 C13.8659276,17.0000658 17.0000658,13.8659276 17.0000658,10.0000658 C17.0000658,6.13420409 13.8659276,3.00006583 10.0000658,3.00006583 Z M14,8 C14.5522847,8 15,8.44771525 15,9 L15,11 C15,11.5522847 14.5522847,12 14,12 L6,12 C5.44771525,12 5,11.5522847 5,11 L5,9 C5,8.44771525 5.44771525,8 6,8 L14,8 Z M13.5,9 L6.5,9 C6.22385763,9 6,9.22385763 6,9.5 L6,9.5 L6,10.5 C6,10.7761424 6.22385763,11 6.5,11 L6.5,11 L13.5,11 C13.7761424,11 14,10.7761424 14,10.5 L14,10.5 L14,9.5 C14,9.22385763 13.7761424,9 13.5,9 L13.5,9 Z" id="Combined-Shape" fill="#000000"></path>
    </g>
</svg>