<?xml version="1.0" encoding="UTF-8"?>
<svg width="20px" height="20px" viewBox="0 0 20 20" version="1.1" xmlns="http://www.w3.org/2000/svg" xmlns:xlink="http://www.w3.org/1999/xlink">
    <!-- Generator: Sketch 60.1 (88133) - https://sketch.com -->
    <title>02 - icon/delete</title>
    <desc>Created with Sketch.</desc>
    <g id="02---icon/delete" stroke="none" stroke-width="1" fill="none" fill-rule="evenodd">
        <path d="M11.593756,3.5 C12.0949359,3.5 12.5026681,3.88065625 12.5026681,4.34855469 L12.5026681,4.34855469 L12.502,5.499 L16.5011257,5.5 L16.5011257,6.5 L15.3245063,6.5 L14.4228556,16.0382619 C14.3983243,16.3011564 14.1623661,16.5029357 13.8796841,16.5029357 L13.8796841,16.5029357 L6.0813159,16.5029357 C5.79866109,16.5029357 5.56286611,16.3013088 5.53814435,16.0384396 L5.53814435,16.0384396 L4.63652092,6.5 L3.5,6.5 L3.5,5.5 L7.499,5.499 L7.5,4.34855469 C7.5,3.91664844 7.8474168,3.55907873 8.29505712,3.50662366 L8.40891213,3.5 Z M5.73140377,6.5 L6.58070084,15.5 L13.3801632,15.5 L14.2296507,6.50170786 L5.73140377,6.5 Z M10.5,8.5 L10.5,13.5 L9.5,13.5 L9.5,8.5 L10.5,8.5 Z M8.5,8.5 L8.5,13.5 L7.5,13.5 L7.5,8.5 L8.5,8.5 Z M12.5,8.5 L12.5,13.5 L11.5,13.5 L11.5,8.5 L12.5,8.5 Z M11.5011041,4.5 L8.50061913,4.50237659 L8.5,5.499 L11.501,5.499 L11.5011041,4.5 Z" id="Shape" fill="#000000"></path>
    </g>
</svg>