<?xml version="1.0" encoding="UTF-8"?>
<svg width="20px" height="20px" viewBox="0 0 20 20" version="1.1" xmlns="http://www.w3.org/2000/svg" xmlns:xlink="http://www.w3.org/1999/xlink">
    <!-- Generator: Sketch 60.1 (88133) - https://sketch.com -->
    <title>02 - icon/email_close</title>
    <desc>Created with Sketch.</desc>
    <g id="02---icon/email_close" stroke="none" stroke-width="1" fill="none" fill-rule="evenodd">
        <path d="M16.5,4 C17.327,4 18,4.673 18,5.5 L18,5.5 L18.0012537,8.75861491 C17.6935516,8.55249598 17.3590089,8.38332959 17.0039757,8.25746595 L17,7.31136164 L10,12.3105503 L3,7.30758117 L3.02859714,14.5033578 C3.02859714,14.7793578 3.25259714,15.0033578 3.52859714,15.0033578 L3.52859714,15.0033578 L11.7601631,15.0035647 C12.0127151,15.380082 12.3206206,15.7163522 12.6722296,16.0007255 L3.5,16 C2.673,16 2,15.327 2,14.5 L2,14.5 L2,5.5 C2,4.673 2.673,4 3.5,4 L3.5,4 Z M15.5321892,9.7 C16.0568644,9.7 16.5139773,9.81374917 16.8999439,10.0429835 C17.2892117,10.2741784 17.5816692,10.606026 17.7741439,11.0337474 C17.9633698,11.4542494 18.0457499,11.9391449 18.0230205,12.4867108 C17.9998883,13.0250598 17.8641298,13.4613113 17.6112613,13.7908067 C17.3475141,14.1344773 16.9854697,14.3099609 16.5429314,14.3099609 C16.3405618,14.3099609 16.1603843,14.2650682 16.0059879,14.1736655 L15.9161281,14.1128771 L15.8354154,14.042412 L15.8099882,14.014 C15.6693076,14.1431125 15.5125882,14.2275728 15.3391369,14.2696411 L15.2059003,14.2932792 L15.0663689,14.3011719 C14.7134361,14.3011719 14.429695,14.1467464 14.236602,13.8498659 C14.053094,13.5677224 13.9862275,13.2055286 14.0296579,12.7669824 C14.0673565,12.4214115 14.1555569,12.1113899 14.2949205,11.8379819 C14.4373141,11.5586295 14.620428,11.3401099 14.8443854,11.1855793 C15.0726899,11.0280492 15.323132,10.9480469 15.590783,10.9480469 C15.8440344,10.9480469 16.0715209,10.9958796 16.2725629,11.0935693 C16.3865513,11.1526656 16.4733826,11.2102281 16.533057,11.2662567 C16.5927314,11.3222853 16.6448534,11.3951869 16.689423,11.4849616 L16.5402747,13.1749916 L16.532993,13.271482 C16.5324069,13.336894 16.5428952,13.3805062 16.5593762,13.4056772 C16.573991,13.4279979 16.5954147,13.4382812 16.6484002,13.4382812 C16.7492005,13.4382812 16.8382531,13.3761179 16.9263215,13.2234186 C17.029417,13.0446644 17.0882402,12.8011536 17.0990277,12.4889022 C17.1299666,11.8537441 17.0055785,11.3787674 16.7340287,11.0554939 C16.4672186,10.7378628 16.0683332,10.5775391 15.5204705,10.5775391 C15.1814729,10.5775391 14.8834226,10.6624487 14.6215385,10.8324133 C14.3582536,11.0032869 14.1500002,11.2469783 13.9955566,11.5674045 C13.8377978,11.8947086 13.7483224,12.2722402 13.728079,12.7010225 C13.6988829,13.3469875 13.8251618,13.833873 14.0992149,14.1695012 C14.3670163,14.4974732 14.77137,14.6628906 15.3300408,14.6628906 C15.47837,14.6628906 15.6349932,14.6462382 15.7999621,14.6127005 C15.9629124,14.5795733 16.1012157,14.5359681 16.2147401,14.482646 C16.3126435,14.4366611 16.4256304,14.4772911 16.4749523,14.5669923 L16.4939433,14.6157583 L16.6052714,15.0669302 C16.6223733,15.1362377 16.6010892,15.207901 16.5522676,15.2565376 L16.5106576,15.2883009 L16.4040235,15.3491721 C16.2840064,15.4097043 16.141183,15.459147 15.9752318,15.4984302 C15.758036,15.5498437 15.5389642,15.5755859 15.3183221,15.5755859 C14.7695165,15.5755859 14.2959294,15.4635037 13.9005842,15.2371366 C13.4996461,15.0075672 13.199671,14.668136 13.0039765,14.2243478 C12.8120724,13.7891555 12.7295947,13.2750964 12.754253,12.6833047 C12.7789249,12.1158523 12.9092417,11.6038933 13.1458013,11.1494498 C13.3850171,10.6899037 13.7133525,10.3319599 14.1289524,10.079216 C14.5446702,9.82640034 15.0137794,9.7 15.5321892,9.7 Z M15.6770326,11.9 C15.520536,11.9 15.409254,11.961096 15.3219284,12.0958661 C15.2177104,12.2567065 15.1455579,12.5068354 15.1116933,12.8416091 C15.0929663,13.0663322 15.1115093,13.2279782 15.1589131,13.3234831 C15.1916117,13.3893611 15.22971,13.4130859 15.3020326,13.4130859 C15.3418353,13.4130859 15.3840699,13.3935581 15.4347069,13.3440719 C15.4761083,13.3036115 15.5148571,13.2477467 15.5468159,13.1907348 L15.5891445,13.1061387 L15.6955034,11.9003281 L15.6770326,11.9 Z M16.4995164,5.00485229 L3.50248718,5.00485229 C3.22648718,5.00485229 3.00248718,5.22885229 3.00248718,5.50485229 L3.00248718,5.50485229 L3,6.00111753 L10,11 L17.000806,6 L16.9995164,5.50485229 C16.9995164,5.22885229 16.7755164,5.00485229 16.4995164,5.00485229 L16.4995164,5.00485229 Z" id="Shape" fill="#000000"></path>
    </g>
</svg>