<?xml version="1.0" encoding="UTF-8"?>
<svg width="20px" height="20px" viewBox="0 0 20 20" version="1.1" xmlns="http://www.w3.org/2000/svg" xmlns:xlink="http://www.w3.org/1999/xlink">
    <!-- Generator: Sketch 60.1 (88133) - https://sketch.com -->
    <title>02 - icon/empty-mail</title>
    <desc>Created with Sketch.</desc>
    <g id="02---icon/empty-mail" stroke="none" stroke-width="1" fill="none" fill-rule="evenodd">
        <path d="M10.0000741,2.00000823 C14.4182643,2.00000823 18.0001399,5.58188386 18.0001399,10.0000741 C18.0001399,14.4182643 14.4182643,18.0001399 10.0000741,18.0001399 C5.58188386,18.0001399 2.00000823,14.4182643 2.00000823,10.0000741 C2.00000823,5.58188386 5.58188386,2.00000823 10.0000741,2.00000823 Z M10.0000741,3.00007406 C6.13421232,3.00007406 3.00007406,6.13421232 3.00007406,10.0000741 C3.00007406,13.8659358 6.13421232,17.0000741 10.0000741,17.0000741 C13.8659358,17.0000741 17.0000741,13.8659358 17.0000741,10.0000741 C17.0000741,6.13421232 13.8659358,3.00007406 10.0000741,3.00007406 Z M8.06466353,6.00123405 L11.978822,6.00994522 C12.324616,6.01071481 12.6454731,6.19007806 12.8272607,6.48423335 L15,9.99999996 L15,13 C15,13.5522847 14.5522847,14 14,14 L5.99999997,14 C5.44771522,14 4.99999997,13.5522847 4.99999997,13 L4.99999997,9.99999996 L7.21540751,6.46968724 C7.39875471,6.17751845 7.71973135,6.00046638 8.06466353,6.00123405 Z M6.99999996,10.9999999 L5.99999996,10.9999999 L5.99999996,12.9999999 L14,12.9999999 L13.9994544,10.9999999 L13,10.9999999 L12,11.9999999 L7.99999996,11.9999999 L6.99999996,10.9999999 Z M11.9999999,6.99999995 L7.99999994,6.99999995 L6.01061043,9.99999995 L6.99999995,9.99999995 L7.99999994,11 L11.9999999,11 L12.9999999,9.99999995 L13.9999999,9.99999995 L11.9999999,6.99999995 Z" id="Combined-Shape" fill="#000000"></path>
    </g>
</svg>