<?xml version="1.0" encoding="UTF-8"?>
<svg width="20px" height="20px" viewBox="0 0 20 20" version="1.1" xmlns="http://www.w3.org/2000/svg" xmlns:xlink="http://www.w3.org/1999/xlink">
    <!-- Generator: Sketch 60.1 (88133) - https://sketch.com -->
    <title>02 - icon/esiti-pagamenti</title>
    <desc>Created with Sketch.</desc>
    <g id="02---icon/esiti-pagamenti" stroke="none" stroke-width="1" fill="none" fill-rule="evenodd">
        <path d="M15,2 C15.5522847,2 16,2.44771525 16,3 L16,6.383 L15.2133443,6.38763175 L15.2133443,6.38763175 L15.1598092,6.38069328 C15.075071,6.35773392 15.0125913,6.28044925 15.012238,6.18840247 L15.012238,6.18840247 L15.0007647,3.19923235 C15.0003419,3.08907588 14.9109235,3 14.8007662,3 L14.8007662,3 L3.2,3 C3.08954305,3 3,3.08954305 3,3.2 L3,3.2 L3,16.5171573 C3,16.5702006 3.02107137,16.6210714 3.05857864,16.6585786 C3.1366835,16.7366835 3.2633165,16.7366835 3.34142136,16.6585786 L3.34142136,16.6585786 L3.6464466,16.3535587 C3.84246325,16.159054 4.15904336,16.1602796 4.35354808,16.3562963 L4.35354808,16.3562963 L4.64501339,16.6500272 L4.64501339,16.6500272 C4.84387145,16.847299 5.16045133,16.8460136 5.35491901,16.6499602 L5.35491901,16.6499602 L5.64591409,16.3565923 C5.64703112,16.3554661 5.64815351,16.3543453 5.64928121,16.3532298 C5.84560591,16.159036 6.16218368,16.1607635 6.35637747,16.3570882 L6.35637747,16.3570882 L6.64477093,16.6486462 L6.64477093,16.6486462 C6.84457006,16.8465897 7.16114896,16.8450834 7.35547984,16.6488944 L7.35547984,16.6488944 L7.64476839,16.3568398 C7.64588453,16.355713 7.64700602,16.3545915 7.64813283,16.3534754 C7.84432183,16.1591445 8.16090073,16.1606508 8.35523161,16.3568398 L8.35523161,16.3568398 L8.64476839,16.649145 C8.64588453,16.6502718 8.64700602,16.6513933 8.64813283,16.6525095 C8.84432183,16.8468403 9.16090073,16.845334 9.35523161,16.649145 L9.35523161,16.649145 L9.64476839,16.3568398 C9.64588453,16.355713 9.64700602,16.3545915 9.64813283,16.3534754 C9.84432183,16.1591445 10.1609007,16.1606508 10.3552316,16.3568398 L10.3552316,16.3568398 L10.6447684,16.649145 C10.6458845,16.6502718 10.647006,16.6513933 10.6481328,16.6525095 C10.8443218,16.8468403 11.1609007,16.845334 11.3552316,16.649145 L11.3552316,16.649145 L11.6447684,16.3568398 C11.6458845,16.355713 11.647006,16.3545915 11.6481328,16.3534754 C11.8443218,16.1591445 12.1609007,16.1606508 12.3552316,16.3568398 L12.3552316,16.3568398 L12.6447684,16.649145 C12.6458845,16.6502718 12.647006,16.6513933 12.6481328,16.6525095 C12.8443218,16.8468403 13.1609007,16.845334 13.3552316,16.649145 L13.3552316,16.649145 L13.6461386,16.3554565 L13.6461386,16.3554565 C13.8435694,16.1583669 14.1601517,16.1586497 14.3552393,16.3540862 L14.3552393,16.3540862 L14.6584524,16.6578415 C14.6959698,16.6954261 14.7468948,16.7165466 14.8,16.7165466 C14.9104569,16.7165466 15,16.6270035 15,16.5165466 L15,16.5165466 L15,15.5741431 C15,15.5738737 15.0000005,15.5736044 15.0000016,15.5733351 L15.0073605,15.5201965 C15.0309868,15.4356418 15.1087612,15.3737728 15.2008079,15.3741447 L15.2008079,15.3741447 L16,15.377 L16,16.666454 C16,16.8817708 15.9305029,17.0913371 15.8018439,17.2639876 L15.4006733,17.8023275 C15.2356689,18.0237505 14.9224076,18.0694869 14.7009846,17.9044826 C14.6622469,17.8756153 14.6278974,17.8412862 14.5990071,17.8025658 L14.4020118,17.5385411 C14.2368759,17.3172161 13.9235874,17.271666 13.7022625,17.4368019 C13.6632219,17.465931 13.6286474,17.5006087 13.5996347,17.5397358 L13.4050788,17.8021177 C13.2406026,18.0239334 12.9274512,18.0704163 12.7056355,17.9059402 C12.6665974,17.8769935 12.6319882,17.84251 12.6028996,17.8035776 L12.4040739,17.5374673 C12.2387915,17.3162517 11.9254729,17.2709089 11.7042573,17.4361913 C11.6653737,17.4652434 11.6309276,17.4998026 11.602003,17.5387812 L11.4057527,17.8032471 C11.241196,18.025003 10.9280277,18.0713721 10.7062718,17.9068153 C10.6675351,17.8780703 10.6331619,17.8438711 10.6042207,17.8052808 L10.4031175,17.5371293 C10.2374376,17.3162113 9.924038,17.271432 9.70311998,17.4371119 C9.66414078,17.4663448 9.6296437,17.5011181 9.60072264,17.5403292 L9.40835766,17.8011373 C9.24444499,18.0233697 8.93141255,18.0706472 8.70918013,17.9067345 C8.67018777,17.8779748 8.63558265,17.8437003 8.60645001,17.8049857 L8.40316384,17.5348376 C8.23712572,17.3141887 7.92365393,17.2699179 7.70300499,17.435956 C7.66440904,17.4649994 7.63022529,17.4994823 7.60151924,17.5383298 L7.40718065,17.8013257 C7.2430712,18.0234128 6.929997,18.070413 6.70790986,17.9063036 C6.66895944,17.8775215 6.63439736,17.8432331 6.60530658,17.8045127 L6.4026634,17.5347906 C6.23679383,17.3140149 5.92335593,17.2695047 5.70258026,17.4353743 C5.66399123,17.4643664 5.62980343,17.4987933 5.60108094,17.5375834 L5.40500829,17.8023822 C5.24068112,18.0243083 4.92756098,18.0710015 4.70563488,17.9066743 C4.66692909,17.8780143 4.63256716,17.8439123 4.60361399,17.8054253 L4.4021031,17.5375598 C4.23609529,17.3168881 3.92262958,17.2725742 3.70195783,17.438582 C3.66367264,17.4673833 3.62972559,17.5015376 3.60115782,17.5399974 L3.40379102,17.8057055 C3.23912948,18.0273836 2.9259393,18.0736047 2.70426118,17.9089432 C2.66525639,17.8799706 2.63068289,17.8454673 2.601631,17.8065216 L2.19844744,17.2660304 C2.0696046,17.093309 2,16.8835896 2,16.6681061 L2,3 C2,2.44771525 2.44771525,2 3,2 L15,2 Z M16.017693,7.17364818 C16.5615873,7.07774494 17.0802457,7.44091345 17.176149,7.98480775 L17.176149,7.98480775 L18.0443899,12.9088465 C18.1402931,13.4527408 17.7771246,13.9713992 17.2332303,14.0673024 L17.2332303,14.0673024 L6.400345,15.9774324 C5.85645069,16.0733356 5.33779231,15.7101671 5.24188907,15.1662728 L5.24188907,15.1662728 L4.37364818,10.2422341 C4.27774494,9.69833976 4.64091345,9.17968137 5.18480775,9.08377813 L5.18480775,9.08377813 Z M6.05,14.0078169 L6.22364818,14.9926247 L7.20845593,14.8189765 C6.99773278,14.3587195 6.5545716,14.0484147 6.05,14.0078169 L6.05,14.0078169 Z M14.2020732,8.50948981 L7.34408352,9.71873843 C7.529171,10.7138389 6.71107366,11.8925291 5.7127163,12.0689394 L5.7127163,12.0689394 L5.88114135,13.0241254 C6.88060103,12.8480429 8.01745039,13.6484496 8.20537803,14.644002 L8.20537803,14.644002 L15.0988956,13.4284889 C14.9154469,12.4532608 15.7506286,11.2762585 16.7120363,11.1027075 L16.7120363,11.1027075 L16.544313,10.1515013 C15.5696025,10.3092682 14.3967459,9.50394468 14.2020732,8.50948981 L14.2020732,8.50948981 Z M16.8848078,12.0976869 C16.4245508,12.3084101 16.114246,12.7515713 16.0736482,13.2561429 L16.0736482,13.2561429 L17.0584559,13.0824947 Z M10.9472116,10.0983287 C11.3389925,10.0292471 11.7421696,10.1186293 12.0680486,10.3468122 C12.3939275,10.5749951 12.615814,10.9232871 12.6848955,11.315068 C12.8287504,12.1309095 12.2839976,12.9088971 11.4681562,13.0527519 C10.6523147,13.1966068 9.87432713,12.651854 9.73047227,11.8360126 C9.58661741,11.0201711 10.1313702,10.2421835 10.9472116,10.0983287 Z M11.2523129,11.075463 L11.1624039,11.0831364 C10.8904567,11.131088 10.7088725,11.3904172 10.7568241,11.6623644 C10.8047757,11.9343115 11.0641049,12.1158958 11.3360521,12.0679442 C11.6079992,12.0199925 11.7895835,11.7606634 11.7416318,11.4887162 C11.6936802,11.216769 11.434351,11.0351848 11.1624039,11.0831364 Z M6.34480775,9.89493771 L5.36,10.0685859 L5.53364818,11.0533936 C5.9939051,10.8426705 6.3042099,10.3995093 6.34480775,9.89493771 L6.34480775,9.89493771 Z M16.1948078,8.15845593 L15.21,8.33210411 C15.4208408,8.79226298 15.8639362,9.10252173 16.3684559,9.14326368 L16.3684559,9.14326368 L16.1948078,8.15845593 Z M9.5,7 C9.77614237,7 10,7.22385763 10,7.5 C10,7.77614237 9.77614237,8 9.5,8 L5.5,8 C5.22385763,8 5,7.77614237 5,7.5 C5,7.22385763 5.22385763,7 5.5,7 L9.5,7 Z M12.5,5 C12.7761424,5 13,5.22385763 13,5.5 C13,5.77614237 12.7761424,6 12.5,6 L5.5,6 C5.22385763,6 5,5.77614237 5,5.5 C5,5.22385763 5.22385763,5 5.5,5 L12.5,5 Z" id="Combined-Shape" fill="#000000"></path>
    </g>
</svg>