<?xml version="1.0" encoding="UTF-8"?>
<svg width="20px" height="20px" viewBox="0 0 20 20" version="1.1" xmlns="http://www.w3.org/2000/svg" xmlns:xlink="http://www.w3.org/1999/xlink">
    <!-- Generator: Sketch 61 (89581) - https://sketch.com -->
    <title>02 - icon/esporta</title>
    <desc>Created with Sketch.</desc>
    <g id="02---icon/esporta" stroke="none" stroke-width="1" fill="none" fill-rule="evenodd">
        <path d="M6.39971387,3 L12.7938612,3.00159308 C12.9263948,3.00162017 13.0534957,3.05426545 13.1472323,3.14795963 L16.8577138,6.85676092 C16.951584,6.95058867 17.0042979,7.07788843 17.0042404,7.21061095 L17.0006064,15.6000001 C16.9996651,16.3729616 16.3729618,16.9993934 15.6,17 L6.4,17 C5.62680135,17 5,16.3731986 5,15.6 L5,12 L6,12 L6,15.5 C6,15.7454599 6.17687516,15.9496084 6.41012437,15.9919443 L6.5,16 L15.5,16 C15.7760366,15.9997292 15.9998505,15.7760365 16.0002707,15.5000001 L16.0002707,15.5000001 L16.0043302,8.00331097 L13.9999993,8.00165369 C12.8959126,7.99950776 12.0014216,7.10408843 12.0004211,6.00000004 L12.0004211,6.00000004 L12.0008418,4.00163539 L6.49986376,4 C6.22372138,4 5.99986376,4.22385763 6,4.5 L6,4.5 L6,5 L5,5 L5,4.4 C4.99971387,3.62680135 5.62651522,3 6.39971387,3 Z M11.5,13 C11.7761424,13 12,13.2238576 12,13.5 C12,13.7761424 11.7761424,14 11.5,14 L8.5,14 C8.22385763,14 8,13.7761424 8,13.5 C8,13.2238576 8.22385763,13 8.5,13 L11.5,13 Z M13.5,11 C13.7761424,11 14,11.2238576 14,11.5 C14,11.7761424 13.7761424,12 13.5,12 L8.5,12 C8.22385763,12 8,11.7761424 8,11.5 C8,11.2238576 8.22385763,11 8.5,11 L13.5,11 Z M6.80261069,6.35539537 L8.64644661,8.19554732 C8.84170876,8.39080947 8.84170876,8.70739196 8.64644661,8.9026541 L8.595,8.945 L6.79866539,10.7389942 C6.62509904,10.9125605 6.35567464,10.9318457 6.1608065,10.7968496 L6.09155861,10.7389942 C5.89629646,10.543732 5.89629646,10.2271495 6.09155861,10.0318874 L6.09155861,10.0318874 L7.031,9.094 L3.5,9.09438955 C3.22385763,9.09438955 3,8.87053193 3,8.59438955 C3,8.31824718 3.22385763,8.09438955 3.5,8.09438955 L7.129,8.094 L6.09550391,7.06250216 C5.90024177,6.86724001 5.90024177,6.55065752 6.09550391,6.35539537 C6.29076606,6.16013323 6.60734855,6.16013323 6.80261069,6.35539537 Z M13.5,9 C13.7761424,9 14,9.22385763 14,9.5 C14,9.77614237 13.7761424,10 13.5,10 L10.5,10 C10.2238576,10 10,9.77614237 10,9.5 C10,9.22385763 10.2238576,9 10.5,9 L13.5,9 Z M13.0142436,4.54841232 L13,6.11509178 C13,6.61579909 13.3632922,7 13.8290377,7 L15.5520729,6.99235319 L13.0142436,4.54841232 Z" id="Shape" fill="#000000"></path>
    </g>
</svg>