<?xml version="1.0" encoding="UTF-8"?>
<svg width="20px" height="20px" viewBox="0 0 20 20" version="1.1" xmlns="http://www.w3.org/2000/svg" xmlns:xlink="http://www.w3.org/1999/xlink">
    <!-- Generator: Sketch 62 (91390) - https://sketch.com -->
    <title>02 - icon/excel</title>
    <desc>Created with Sketch.</desc>
    <g id="02---icon/excel" stroke="none" stroke-width="1" fill="none" fill-rule="evenodd">
        <path d="M13.5351234,2.00531092 L13.7967359,2.00531092 C13.9267163,2.00531092 14.0515879,2.05592761 14.1448823,2.146432 L17.8481464,5.73894759 C17.9452161,5.83311431 18,5.96258639 18,6.0978265 L18,16.6344086 C18,17.4195396 17.348817,18.0512485 16.5548961,18.0512485 L5.44510386,18.0512485 C4.65118299,18.0512485 4,17.4195396 4,16.6344086 L4,15.9905688 L5,15.9905688 L5,16.6334058 C5,16.8593434 5.19678734,17.0502457 5.44510386,17.0502457 L16.5548961,17.0502457 C16.8032127,17.0502457 17,16.8593434 17,16.6334058 L17,6.72275655 L15.0237389,6.72275655 C13.9069594,6.72275655 13,5.81207835 13,4.69276993 L13,3.00430807 L5.44510386,3.00430807 C5.19678734,3.00430807 5,3.19521036 5,3.42114799 L5,6.0039894 L4,6.0039894 L4,3.42215083 C4,2.63701986 4.65118299,2.00531092 5.44510386,2.00531092 L13.4720341,2.00531092 C13.4929723,2.00398273 13.5140453,2.00396489 13.5351234,2.00531092 Z M13,7 C14.1045695,7 15,7.8954305 15,9 L15,13 C15,14.1045695 14.1045695,15 13,15 L4,15 C2.8954305,15 2,14.1045695 2,13 L2,9 C2,7.8954305 2.8954305,7 4,7 L13,7 Z M13,8 L4,8 C3.44771525,8 3,8.44771525 3,9 L3,13 C3,13.5522847 3.44771525,14 4,14 L13,14 C13.5522847,14 14,13.5522847 14,13 L14,9 C14,8.44771525 13.5522847,8 13,8 Z M6.64460033,9 C6.76336792,9 6.86498667,9.03720468 6.94398673,9.11175404 C7.0233665,9.1866617 7.06488203,9.2796331 7.06488203,9.38497506 C7.06488203,9.52205262 6.99331003,9.6912228 6.85381161,9.89956459 L6.16162834,10.9342468 L6.90938237,12.0859453 C6.98268603,12.1959007 7.03646163,12.2880244 7.07093721,12.3633263 C7.10857612,12.4455376 7.12792961,12.5254981 7.12792961,12.6029235 C7.12792961,12.6793611 7.10899702,12.7506368 7.07132709,12.8148972 C7.03347952,12.8794608 6.97985186,12.930854 6.91208915,12.9680141 C6.84483542,13.0048952 6.76944123,13.0232052 6.68747268,13.0232052 C6.59955592,13.0232052 6.52206788,13.0041061 6.45675112,12.9646907 C6.39610387,12.9280933 6.34612187,12.8818334 6.30766882,12.8262901 C6.27673538,12.7816084 6.22006509,12.69618 6.13652022,12.5682906 L5.56896522,11.6751615 L4.96349521,12.5988252 C4.9092806,12.6835355 4.87068418,12.7429146 4.84740633,12.7774003 C4.82103061,12.8164754 4.78961991,12.8541683 4.75327035,12.8905178 C4.71210119,12.931687 4.66346492,12.9641112 4.60803809,12.987561 C4.55125104,13.0115863 4.48681899,13.0232052 4.4152379,13.0232052 C4.29990349,13.0232052 4.20021273,12.9864477 4.12144292,12.913225 C4.03972274,12.8372599 4,12.7298406 4,12.5978797 C4,12.4497953 4.06846152,12.2800483 4.20149254,12.0850577 L4.99113594,10.9318891 L4.33059183,9.91233797 C4.26258526,9.80422497 4.21112293,9.71053715 4.17611446,9.63064603 C4.13800444,9.54367699 4.11852945,9.45828667 4.11852945,9.37488745 C4.11852945,9.27421367 4.16317588,9.18432553 4.24647949,9.10990764 C4.32822926,9.03687784 4.42895529,9 4.54385496,9 C4.67415087,9 4.78176846,9.0407051 4.85989232,9.12335789 C4.92380085,9.19097125 5.00729667,9.30943915 5.11312761,9.48119771 L5.58565808,10.2458379 L6.09146923,9.47959721 C6.16097512,9.37166357 6.16097512,9.37166357 6.2161573,9.2856381 C6.25342296,9.22746731 6.28986372,9.17857213 6.32582214,9.1388286 C6.36686622,9.09346408 6.41384533,9.05864427 6.4663626,9.03517911 C6.51937531,9.01149258 6.57902728,9 6.64460033,9 Z M11.6221647,9 C11.8594733,9 12.0664896,9.02970041 12.243228,9.08980941 C12.4202888,9.15002806 12.5688499,9.23089619 12.6882948,9.33288374 C12.8074007,9.43458184 12.8958403,9.5430368 12.9526761,9.65860291 C13.0096134,9.77437545 13.0385982,9.88934847 13.0385982,10.0028413 C13.0385982,10.1167799 12.9978911,10.2204474 12.9190106,10.3098453 C12.8370449,10.4027397 12.7311715,10.450864 12.6082289,10.450864 C12.4985141,10.450864 12.4085507,10.4212631 12.3434434,10.3586127 C12.2900106,10.3071963 12.2362075,10.2290648 12.1776874,10.1193907 C12.1163368,9.99208793 12.0441601,9.89472453 11.961786,9.82632469 C11.8886706,9.76561277 11.7590273,9.73212157 11.5717267,9.73212157 C11.3979503,9.73212157 11.2622577,9.76906213 11.1621465,9.84077305 C11.0684559,9.9078847 11.0261194,9.98084761 11.0261194,10.0658889 C11.0261194,10.1187571 11.0396261,10.1615282 11.0666451,10.1975536 C11.0980077,10.2393704 11.1424955,10.2764435 11.2011222,10.3085486 C11.2657605,10.3439458 11.3308307,10.3715049 11.3963914,10.3913256 C11.4668437,10.4126251 11.584989,10.4442415 11.7483354,10.4855066 C11.9600967,10.5350314 12.1521712,10.5897876 12.3246185,10.6498439 C12.5020579,10.7116387 12.6541799,10.7872549 12.7808254,10.8770743 C12.9123811,10.9703763 13.0154876,11.0889488 13.0892392,11.2317843 C13.1635107,11.3756264 13.2,11.5488353 13.2,11.7505203 C13.2,11.9931251 13.1370069,12.2129113 13.0112385,12.4075309 C12.8852724,12.6024566 12.7017519,12.7543988 12.4629883,12.8629278 C12.2272477,12.9700825 11.9501242,13.0232052 11.6322523,13.0232052 C11.2508556,13.0232052 10.9327468,12.9503423 10.6785961,12.8025361 C10.4968276,12.6952927 10.3487095,12.551732 10.235165,12.372786 C10.1204513,12.1919971 10.0619828,12.0128496 10.0619828,11.836265 C10.0619828,11.7194445 10.1036598,11.6166411 10.1849193,11.5332147 C10.26721,11.4487295 10.3734603,11.4058957 10.4973959,11.4058957 C10.6011444,11.4058957 10.6922808,11.4402868 10.7657152,11.5080724 C10.8327014,11.5699058 10.8872372,11.6573596 10.9307005,11.7688631 C10.9751568,11.8800037 11.0226295,11.9718105 11.0726787,12.0441893 C11.1176179,12.1091783 11.181927,12.1636477 11.267104,12.20768 C11.350547,12.2508158 11.4654735,12.2734304 11.6120771,12.2734304 C11.8137055,12.2734304 11.973104,12.2277287 12.0932588,12.1381587 C12.2074306,12.0530489 12.2610824,11.9532241 12.2610824,11.8312212 C12.2610824,11.7336968 12.2331617,11.6593461 12.1773658,11.6022964 C12.1139964,11.5375029 12.0308495,11.4872533 11.9266124,11.4517684 C11.8118023,11.4126841 11.6564675,11.3706571 11.4606592,11.3258522 C11.1887919,11.2621871 10.9600981,11.1873968 10.774268,11.1010251 C10.5802737,11.0108588 10.4248247,10.8866835 10.3094845,10.7288982 C10.1912217,10.5671146 10.1325961,10.3677875 10.1325961,10.1339803 C10.1325961,9.91025961 10.1942489,9.70942075 10.3172004,9.53430808 C10.4397553,9.3597601 10.6159165,9.22648631 10.8432666,9.13463688 C11.0660874,9.04461727 11.3258395,9 11.6221647,9 Z M7.80938335,9 C7.94904186,9 8.06691502,9.0483443 8.15614269,9.14402215 C8.24540443,9.23973654 8.28766883,9.37773236 8.28766883,9.55394258 L8.28766883,12.1448133 L9.70585455,12.1448133 C9.84999093,12.1448133 9.96678534,12.181807 10.0517921,12.2590859 C10.1374794,12.3369834 10.1816181,12.437872 10.1816181,12.5550074 C10.1816181,12.6739953 10.1377437,12.775022 10.0519153,12.8506865 C9.96766099,12.9249633 9.85104692,12.9601577 9.70585455,12.9601577 L7.89764996,12.9601577 C7.71027558,12.9601577 7.56787826,12.9162646 7.47472149,12.8220118 C7.38197203,12.7281712 7.33866358,12.5865271 7.33866358,12.4011713 L7.33866358,9.55394258 C7.33866358,9.37994643 7.37977051,9.24292332 7.46647124,9.14658917 C7.55401381,9.04931964 7.67073697,9 7.80938335,9 Z M14.0172355,3.46447887 L14,4.7292947 C14,5.29723228 14.4396029,5.73302009 15.0031796,5.73302009 L16.4201062,5.72434654 L14.0172355,3.46447887 Z" id="Shape" fill="#2F9988"></path>
    </g>
</svg>