<?xml version="1.0" encoding="UTF-8"?>
<svg width="20px" height="20px" viewBox="0 0 20 20" version="1.1" xmlns="http://www.w3.org/2000/svg" xmlns:xlink="http://www.w3.org/1999/xlink">
    <!-- Generator: Sketch 62 (91390) - https://sketch.com -->
    <title>02 - icon/external_link</title>
    <desc>Created with Sketch.</desc>
    <g id="02---icon/external_link" stroke="none" stroke-width="1" fill="none" fill-rule="evenodd">
        <path d="M16.0481926,4.05507618 C16.600253,4.05565092 17.0478752,4.50301606 17.0487672,5.05507601 L17.0550762,16.035258 C17.0546139,16.5872388 16.6076306,17.0350849 16.0556517,17.0366116 L5.05001905,17.0515104 C4.4977348,17.0522581 4.04941387,16.6051493 4.04866622,16.0528651 L4.0486653,9.55766997 C4.0486653,9.28152759 4.27252293,9.05766997 4.5486653,9.05766997 C4.82480768,9.05766997 5.0486653,9.28152759 5.0486653,9.55766997 L5.0486653,16.0522216 L16.0507055,16.0543915 L16.0481926,5.05507618 L9.54819258,5.05507618 C9.27205021,5.05507618 9.04819258,4.83121855 9.04819258,4.55507618 C9.04819258,4.2789338 9.27205021,4.05507618 9.54819258,4.05507618 L16.0481926,4.05507618 Z M3.54819258,2.95537224 L3.60419258,2.96037224 L7.56747329,2.96346235 C7.81293318,2.96346235 8.01708166,3.14033751 8.05941762,3.37358672 L8.06747329,3.46346235 C8.06747329,3.73960472 7.84361567,3.96346235 7.56747329,3.96346235 L7.56747329,3.96346235 L4.82519258,3.96137224 L10.8583912,9.994416 C11.0536534,10.1896781 11.0536534,10.5062606 10.8583912,10.7015228 C10.6631291,10.8967849 10.3465466,10.8967849 10.1512844,10.7015228 L4.04819258,4.59837224 L4.05079754,7.4745586 C4.05079754,7.75070098 3.82693991,7.9745586 3.55079754,7.9745586 C3.27465516,7.9745586 3.05079754,7.75070098 3.05079754,7.4745586 L3.04819258,3.45537224 C3.04819258,3.17922986 3.27205021,2.95537224 3.54819258,2.95537224 Z" id="logout" fill="#2F9988" transform="translate(10.051634, 10.003442) rotate(-270.000000) translate(-10.051634, -10.003442) "></path>
    </g>
</svg>