<?xml version="1.0" encoding="UTF-8"?>
<svg width="20px" height="20px" viewBox="0 0 20 20" version="1.1" xmlns="http://www.w3.org/2000/svg" xmlns:xlink="http://www.w3.org/1999/xlink">
    <!-- Generator: Sketch 60.1 (88133) - https://sketch.com -->
    <title>02 - icon/filtri</title>
    <desc>Created with Sketch.</desc>
    <g id="02---icon/filtri" stroke="none" stroke-width="1" fill="none" fill-rule="evenodd">
        <path d="M17.2071317,2 C17.400886,2 17.5894673,2.06252748 17.7448396,2.17828659 C18.1434309,2.47525445 18.225813,3.03911656 17.9288451,3.43770787 L17.9288451,3.43770787 L11.9992591,11.395 L12,16.006628 C12,16.3845586 11.7869376,16.730203 11.4493019,16.900008 L9.44930187,17.9058551 C8.95590171,18.1539977 8.35476256,17.9551771 8.10662,17.461777 C8.03651344,17.322379 8,17.1685095 8,17.0124751 L7.99925914,11.348 L2.07784122,3.43944233 C1.98458014,3.31489342 1.92560425,3.16885634 1.90574434,3.01584213 L1.89825914,2.9 C1.89825914,2.40294373 2.30120286,2 2.79825914,2 L2.79825914,2 Z M3.00264132,2.99611698 C6.42398327,7.49275635 8.42310283,10.1607174 9,11 C9.00207292,11.0030157 9.0035098,11.8929099 9.00431062,13.6696824 L9.00503483,17 L11.001916,16 C10.9987248,13.6674323 10.9968356,12.1509953 10.9962483,11.450689 L10.9962107,11 C11.5739106,10.1635365 13.5754242,7.49655695 17.0007515,2.99906121 L17.0007515,2.99906121 Z" id="Rectangle" fill="#000000"></path>
    </g>
</svg>