<?xml version="1.0" encoding="UTF-8"?>
<svg width="20px" height="20px" viewBox="0 0 20 20" version="1.1" xmlns="http://www.w3.org/2000/svg" xmlns:xlink="http://www.w3.org/1999/xlink">
    <!-- Generator: Sketch 60.1 (88133) - https://sketch.com -->
    <title>02 - icon/gruppi</title>
    <desc>Created with Sketch.</desc>
    <g id="02---icon/gruppi" stroke="none" stroke-width="1" fill="none" fill-rule="evenodd">
        <path d="M13.001117,2 C13.7992636,2 14.5499475,2.30860572 15.1146556,2.86889742 C16.2888222,4.03613952 16.29599,5.93927269 15.1307347,7.11154851 C15.0445546,7.19885617 14.9539184,7.28019757 14.8593236,7.35536189 C15.4749903,7.59901193 16.0406541,7.96817392 16.524426,8.44816237 C17.3739935,9.29271968 17.8569901,10.3684308 17.9726761,11.4752808 C17.9755071,11.502367 18.0014883,12.1550317 18.0000615,12.2427216 C17.1597898,12.9827698 15.2928741,14 13,14 C12.4803602,14 11.9856772,13.9485547 11.5208508,13.860207 C11.7644818,14.3737362 11.9147016,14.9205984 11.9726761,15.4752808 C11.9755071,15.502367 12.0014883,16.1550317 12.0000615,16.2427216 C11.1597898,16.9827698 9.29287409,18 7,18 C4.70712591,18 2.90014993,16.998385 2,16.2444926 C2.01168922,15.7300632 2.02693812,15.4791926 2.02936072,15.4570514 C2.14713043,14.37047 2.61923141,13.3151652 3.44636414,12.4804298 C3.93828478,11.9854692 4.51445661,11.6058376 5.14258407,11.3549756 C5.05363436,11.287326 4.96803589,11.2119164 4.88622235,11.1312962 C3.71166832,9.96599013 3.7037256,8.06305056 4.86781848,6.88825788 C5.43717594,6.31538189 6.19464027,6 7.001117,6 C7.79926356,6 8.54994752,6.30860572 9.11465558,6.86889742 C9.47393729,7.22606032 9.72395397,7.65212402 9.86455022,8.105067 C10.2533534,7.7897688 10.6841299,7.53807333 11.1425841,7.3549756 C11.0536344,7.28732599 10.9680359,7.21191636 10.8862223,7.13129618 C9.71166832,5.96599013 9.7037256,4.06305056 10.8678185,2.88825788 C11.4371759,2.31538189 12.1946403,2 13.001117,2 Z M7.00165572,12 C5.92763623,12 4.91888865,12.4200075 4.16065101,13.1829309 C3.49973423,13.8499226 3.03368841,14.7510312 3.00279496,15.7361298 C4.32279651,16.7047981 5.95275934,17.008705 7.01181531,17.008705 C8.08789873,17.008705 9.71328503,16.6975224 11.002324,15.7415937 C10.9098856,14.8571701 10.4951885,13.8319876 9.81634527,13.1571478 C9.06429943,12.4109834 8.06458156,12 7.00165572,12 Z M13.0016557,8 C11.9276362,8 10.9188886,8.42000752 10.160651,9.18293094 C10.0963357,9.24783744 10.0338657,9.31496097 9.97346249,9.38416316 C9.89430532,10.0163151 9.61288298,10.6264954 9.13073475,11.1115485 L9.06920715,11.1681667 C9.051995,11.2529613 9.03789804,11.338666 9.02708909,11.4251729 C9.57910753,11.6683708 10.0854767,12.012646 10.524426,12.4481624 L10.6643697,12.5973817 C11.5257034,12.8980314 12.3727127,13.008705 13.0118153,13.008705 C14.0878987,13.008705 15.713285,12.6975224 17.002324,11.7415937 C16.9098856,10.8571701 16.4951885,9.8319876 15.8163453,9.15714779 C15.0642994,8.41098342 14.0645816,8 13.0016557,8 Z M7.00108483,7 C6.46325243,7 5.95818749,7.21036389 5.57835945,7.59234495 C4.80257696,8.37516609 4.80789524,9.64403583 5.59036846,10.4205135 C5.96916717,10.7939222 6.47045784,11 7.00091327,11 C7.53926034,11 8.04329593,10.7898076 8.42003594,10.4079979 C9.197534,9.62569114 9.19255884,8.35699284 8.40957094,7.57880074 C8.03368872,7.20556341 7.53325583,7 7.00108483,7 Z M13.0010848,3 C12.4632524,3 11.9581875,3.21036389 11.5783594,3.59234495 C10.802577,4.37516609 10.8078952,5.64403583 11.5903685,6.42051348 C11.9691672,6.79392225 12.4704578,7 13.0009133,7 C13.5392603,7 14.0432959,6.78980755 14.4200359,6.40799794 C15.197534,5.62569114 15.1925588,4.35699284 14.4095709,3.57880074 C14.0336887,3.20556341 13.5332558,3 13.0010848,3 Z" id="Combined-Shape" fill="#000000"></path>
    </g>
</svg>