<?xml version="1.0" encoding="UTF-8"?>
<svg width="20px" height="20px" viewBox="0 0 20 20" version="1.1" xmlns="http://www.w3.org/2000/svg" xmlns:xlink="http://www.w3.org/1999/xlink">
    <!-- Generator: Sketch 62 (91390) - https://sketch.com -->
    <title>02 - icon/help</title>
    <desc>Created with Sketch.</desc>
    <g id="02---icon/help" stroke="none" stroke-width="1" fill="none" fill-rule="evenodd">
        <path d="M10.0000658,2 C14.4182561,2 18.0001317,5.58187563 18.0001317,10.0000658 C18.0001317,14.4182561 14.4182561,18.0001317 10.0000658,18.0001317 C5.58187563,18.0001317 2,14.4182561 2,10.0000658 C2,5.58187563 5.58187563,2 10.0000658,2 Z M10.0000658,3.00006583 C6.13420409,3.00006583 3.00006583,6.13420409 3.00006583,10.0000658 C3.00006583,13.8659276 6.13420409,17.0000658 10.0000658,17.0000658 C13.8659276,17.0000658 17.0000658,13.8659276 17.0000658,10.0000658 C17.0000658,6.13420409 13.8659276,3.00006583 10.0000658,3.00006583 Z M10,12 C10.2761424,12 10.5,12.2238576 10.5,12.5 C10.5,12.7761424 10.2761424,13 10,13 C9.72385763,13 9.5,12.7761424 9.5,12.5 C9.5,12.2238576 9.72385763,12 10,12 Z M10.019956,7 L10.1815361,7.00409758 C11.2935224,7.06389267 12.0012343,7.77101639 12,8.74607576 C11.999199,9.26439849 11.7726281,9.63206904 11.1974202,10.1117812 L11.1974202,10.1117812 L10.732106,10.4874447 C10.5631271,10.632126 10.4885908,10.7289677 10.4878957,10.7684767 L10.4878957,10.7684767 L10.4879617,11.0291192 C10.4888434,11.2843604 10.2747278,11.4896087 10.0124328,11.4904378 C9.75016696,11.4912521 9.5346839,11.2873934 9.53380442,11.0325771 L9.53380442,11.0325771 L9.5338682,10.7528793 C9.53997866,10.4055455 9.7124392,10.1303557 10.1001964,9.79839586 L10.1001964,9.79839586 L10.5851292,9.40616831 C10.9271646,9.11873217 11.0455263,8.94106051 11.0458254,8.74483215 C11.0464785,8.23363014 10.6927053,7.91799773 10.0223409,7.91960421 C9.32115171,7.92129381 8.95416472,8.28854439 8.95416472,8.92442254 C8.95416472,9.17965061 8.73936335,9.38420504 8.47708236,9.38420504 C8.21480137,9.38420504 8,9.17965061 8,8.92442254 C8,7.78658388 8.77835582,7.00303381 10.019956,7 L10.019956,7 Z" id="Combined-Shape" fill="#2F9988"></path>
    </g>
</svg>