<?xml version="1.0" encoding="UTF-8"?>
<svg width="20px" height="20px" viewBox="0 0 20 20" version="1.1" xmlns="http://www.w3.org/2000/svg" xmlns:xlink="http://www.w3.org/1999/xlink">
    <!-- Generator: Sketch 62 (91390) - https://sketch.com -->
    <title>02 - icon/icon-19</title>
    <desc>Created with Sketch.</desc>
    <g id="02---icon/icon-19" stroke="none" stroke-width="1" fill="none" fill-rule="evenodd">
        <path d="M13.4563006,2.58274536 C13.5027912,2.70062398 13.5027912,2.83175752 13.4563006,2.94963614 L12.4971908,5.38105704 L14.9290435,4.42237908 C15.1859288,4.32106499 15.4763068,4.44718039 15.5776209,4.7040657 C15.6241116,4.82194433 15.6241116,4.95307786 15.5776209,5.07095649 L14.6181908,7.50205704 L17.0503639,6.54369943 C17.3072492,6.44238533 17.5976272,6.56850073 17.6989413,6.82538605 C17.7454319,6.94326467 17.7454319,7.07439821 17.6989413,7.19227683 L14.8068808,14.5251942 C14.7560586,14.6540555 14.6540555,14.7560586 14.5251942,14.8068808 L7.19227683,17.6989413 C6.93539151,17.8002554 6.64501352,17.67414 6.54369943,17.4172546 C6.49720878,17.299376 6.49720878,17.1682425 6.54369943,17.0503639 L7.50219075,14.618057 L5.07095649,15.5776209 C4.81407117,15.678935 4.52369318,15.5528196 4.42237908,15.2959343 C4.37588843,15.1780557 4.37588843,15.0469221 4.42237908,14.9290435 L5.38119075,12.497057 L2.94963614,13.4563006 C2.69275083,13.5576147 2.40237283,13.4314993 2.30105874,13.174614 C2.25456809,13.0567353 2.25456809,12.9256018 2.30105874,12.8077232 L5.1931192,5.47480582 C5.24394137,5.34594447 5.34594447,5.24394137 5.47480582,5.1931192 L12.8077232,2.30105874 C13.0646085,2.19974465 13.3549865,2.32586004 13.4563006,2.58274536 Z M16.3463203,7.89532034 L14.1161908,8.77505704 L12.6855605,12.4038738 C12.6347383,12.5327352 12.5327352,12.6347383 12.4038738,12.6855605 L8.77519075,14.116057 L7.89532034,16.3463203 L13.9553203,13.9553203 L16.3463203,7.89532034 Z M14.225,5.774 L11.9961908,6.65205704 L10.5642401,10.2825535 C10.5134179,10.4114148 10.4114148,10.5134179 10.2825535,10.5642401 L6.65219075,11.996057 L5.774,14.225 L11.834,11.834 L14.225,5.774 Z M12.1036797,3.65267966 L6.04367966,6.04367966 L3.65267966,12.1036797 L9.71267966,9.71267966 L12.1036797,3.65267966 Z" id="Rectangle" fill="#2F9988" transform="translate(10.000000, 10.000000) rotate(-315.000000) translate(-10.000000, -10.000000) "></path>
    </g>
</svg>