<?xml version="1.0" encoding="UTF-8"?>
<svg width="20px" height="20px" viewBox="0 0 20 20" version="1.1" xmlns="http://www.w3.org/2000/svg" xmlns:xlink="http://www.w3.org/1999/xlink">
    <!-- Generator: Sketch 62 (91390) - https://sketch.com -->
    <title>02 - icon/icon-24</title>
    <desc>Created with Sketch.</desc>
    <g id="02---icon/icon-24" stroke="none" stroke-width="1" fill="none" fill-rule="evenodd">
        <path d="M15,2 C15.5522847,2 16,2.44771525 16,3 L16,17 C16,17.5522847 15.5522847,18 15,18 L5,18 C4.44771525,18 4,17.5522847 4,17 L4,3 C4,2.44771525 4.44771525,2 5,2 L15,2 Z M15,3 L5,3 L5,17 L15,17 L15,3 Z M12.5,14.75 C12.7761424,14.75 13,14.9738576 13,15.25 C13,15.5261424 12.7761424,15.75 12.5,15.75 C12.2238576,15.75 12,15.5261424 12,15.25 C12,14.9738576 12.2238576,14.75 12.5,14.75 Z M7.14644661,13.4393398 L7.5,13.793 L7.85355339,13.4393398 C8.04881554,13.2440777 8.36539803,13.2440777 8.56066017,13.4393398 C8.75592232,13.634602 8.75592232,13.9511845 8.56066017,14.1464466 L8.207,14.5 L8.56066017,14.8535534 C8.75592232,15.0488155 8.75592232,15.365398 8.56066017,15.5606602 C8.36539803,15.7559223 8.04881554,15.7559223 7.85355339,15.5606602 L7.5,15.207 L7.14644661,15.5606602 C6.95118446,15.7559223 6.63460197,15.7559223 6.43933983,15.5606602 C6.24407768,15.365398 6.24407768,15.0488155 6.43933983,14.8535534 L6.793,14.5 L6.43933983,14.1464466 C6.24407768,13.9511845 6.24407768,13.634602 6.43933983,13.4393398 C6.63460197,13.2440777 6.95118446,13.2440777 7.14644661,13.4393398 Z M12.5,13.25 C12.7761424,13.25 13,13.4738576 13,13.75 C13,14.0261424 12.7761424,14.25 12.5,14.25 C12.2238576,14.25 12,14.0261424 12,13.75 C12,13.4738576 12.2238576,13.25 12.5,13.25 Z M7.5,9 C7.77614237,9 8,9.22385763 8,9.5 L8,10 L8.5,10 C8.77614237,10 9,10.2238576 9,10.5 C9,10.7761424 8.77614237,11 8.5,11 L8,11 L8,11.5 C8,11.7761424 7.77614237,12 7.5,12 C7.22385763,12 7,11.7761424 7,11.5 L7,11 L6.5,11 C6.22385763,11 6,10.7761424 6,10.5 C6,10.2238576 6.22385763,10 6.5,10 L7,10 L7,9.5 C7,9.22385763 7.22385763,9 7.5,9 Z M13.5,10 C13.7761424,10 14,10.2238576 14,10.5 C14,10.7761424 13.7761424,11 13.5,11 L11.5,11 C11.2238576,11 11,10.7761424 11,10.5 C11,10.2238576 11.2238576,10 11.5,10 L13.5,10 Z M13,4 C13.5522847,4 14,4.44771525 14,5 L14,7 C14,7.55228475 13.5522847,8 13,8 L7,8 C6.44771525,8 6,7.55228475 6,7 L6,5 C6,4.44771525 6.44771525,4 7,4 L13,4 Z M13,5 L7,5 L7,7 L13,7 L13,5 Z" id="Rectangle" fill="#2F9988"></path>
    </g>
</svg>