<?xml version="1.0" encoding="UTF-8"?>
<svg width="20px" height="20px" viewBox="0 0 20 20" version="1.1" xmlns="http://www.w3.org/2000/svg" xmlns:xlink="http://www.w3.org/1999/xlink">
    <!-- Generator: Sketch 62 (91390) - https://sketch.com -->
    <title>02 - icon/icon-13</title>
    <desc>Created with Sketch.</desc>
    <g id="02---icon/icon-13" stroke="none" stroke-width="1" fill="none" fill-rule="evenodd">
        <path d="M9.95628374,13.3877478 C10.1515459,13.1924857 10.4681284,13.1924857 10.6633905,13.3877478 C10.8586527,13.58301 10.8586527,13.8995925 10.6633905,14.0948546 L10.6633905,14.0948546 L9.756,14.999 L13.5169439,14.9990198 C13.7930863,14.9990198 14.0169439,15.2228774 14.0169439,15.4990198 C14.0169439,15.7751621 13.7930863,15.9990198 13.5169439,15.9990198 L9.596,15.999 L10.6633905,17.0642399 C10.8586527,17.259502 10.8586527,17.5760845 10.6633905,17.7713466 C10.4681284,17.9666088 10.1515459,17.9666088 9.95628374,17.7713466 L8.135,15.954 L8.11244783,15.9350066 C8.02566465,15.8482234 7.97745177,15.7374757 7.9678092,15.6240653 L7.9678092,15.5350292 C7.97745177,15.4216188 8.02566465,15.3108711 8.11244783,15.2240879 L8.131,15.208 Z M16.0606602,11.2276731 L17.885,13.048 L17.9044961,13.0640132 C17.9912793,13.1507964 18.0394921,13.2615441 18.0491347,13.3749545 L18.0491347,13.4639906 C18.0394921,13.577401 17.9912793,13.6881487 17.9044961,13.7749318 L17.885,13.79 L16.0606602,15.6112719 C15.8870938,15.7848383 15.6176694,15.8041234 15.4228013,15.6691274 L15.3535534,15.6112719 C15.1582912,15.4160098 15.1582912,15.0994273 15.3535534,14.9041651 L15.3535534,14.9041651 L16.259,14 L12.5,14 C12.2238576,14 12,13.7761424 12,13.5 C12,13.2238576 12.2238576,13 12.5,13 L16.421,13 L15.3535534,11.9347799 C15.1582912,11.7395177 15.1582912,11.4229353 15.3535534,11.2276731 C15.5488155,11.032411 15.865398,11.032411 16.0606602,11.2276731 Z M14.5058594,2 C14.9160177,2 15.2675767,2.14648291 15.5605469,2.43945312 C15.8535171,2.73242334 16,3.0872375 16,3.50390625 L16,3.50390625 L16.0006448,10.1020345 C15.6983175,9.99440323 15.351747,10.0351676 15.0766471,10.2351537 L15.0766471,10.2351537 L14.998,10.292 L14.9980469,3.50390625 C14.9980469,3.40136667 14.9705813,3.30981447 14.9156496,3.22924816 L14.8515625,3.15234375 C14.7539058,3.05468701 14.6367194,3.00585937 14.5,3.00585937 L14.5,3.00585937 L4.49414062,3.00585937 C4.35742119,3.00585937 4.24023486,3.05468701 4.14257813,3.15234375 C4.04492139,3.25000049 3.99609375,3.36718682 3.99609375,3.50390625 L3.99609375,3.50390625 L3.99609375,4.00195313 L4.49414062,4.00195313 C4.63086006,4.00195313 4.74804639,4.05078076 4.84570312,4.1484375 C4.94335986,4.24609424 4.9921875,4.36328057 4.9921875,4.5 L4.9921875,4.5 L4.9921875,6.5078125 C4.9921875,6.64453193 4.94335986,6.76171826 4.84570312,6.859375 C4.74804639,6.95703174 4.63086006,7.00585937 4.49414062,7.00585937 L4.49414062,7.00585937 L3.99609375,7.00585937 L3.99609375,9.00195313 L4.49414062,9.00195313 C4.63086006,9.00195313 4.74804639,9.05078076 4.84570313,9.1484375 C4.94335986,9.24609424 4.9921875,9.36328057 4.9921875,9.5 L4.9921875,9.5 L4.9921875,11.5078125 C4.9921875,11.6445319 4.94335986,11.7617183 4.84570313,11.859375 C4.74804639,11.9570317 4.63086006,12.0058594 4.49414062,12.0058594 L4.49414062,12.0058594 L3.99609375,12.0058594 L3.99609375,13.5039063 C3.99609375,13.6406257 4.04492139,13.757812 4.14257813,13.8554688 C4.24023486,13.9531255 4.35742119,14.0019531 4.49414063,14.0019531 L4.49414063,14.0019531 L8.042,14.001 L7.04292438,14.9571553 L6.996,15.007 L4.5,15.0078125 C4.14111149,15.0078125 3.82708808,14.8956615 3.5579227,14.6713566 L3.4453125,14.5683594 C3.15234229,14.2753892 3.00585938,13.920575 3.00585938,13.5039062 L3.00585938,13.5039062 L3.00585938,12.0058594 L2.49804688,12.0058594 C2.36132744,12.0058594 2.24414111,11.9570317 2.14648438,11.859375 C2.04882764,11.7617183 2,11.6445319 2,11.5078125 L2,11.5078125 L2,9.5 C2,9.36328057 2.04882764,9.24609424 2.14648438,9.1484375 C2.24414111,9.05078076 2.36132744,9.00195313 2.49804688,9.00195313 L2.49804688,9.00195313 L3.00585938,9.00195313 L3.00585938,7.00585937 L2.49804688,7.00585937 C2.36132744,7.00585937 2.24414111,6.95703174 2.14648438,6.859375 C2.04882764,6.76171826 2,6.64453193 2,6.5078125 L2,6.5078125 L2,4.5 C2,4.40885371 2.04882813,4.29166621 2.14648438,4.1484375 C2.28971309,4.05078125 2.40690059,4.00195312 2.49804688,4.00195312 L2.49804688,4.00195312 L3.00585938,4.00195312 L3.00585938,3.50390625 C3.00585938,3.0872375 3.15234229,2.73242334 3.4453125,2.43945313 C3.73828271,2.14648291 4.0898417,2 4.5,2 L4.5,2 Z M9.49630541,5 C9.98239636,5 10.4389454,5.09248038 10.8651275,5.27747138 C11.2900237,5.46190418 11.6610624,5.71237587 11.9776619,6.02864147 C12.2943735,6.34501916 12.5439484,6.71582285 12.7261237,7.14045041 C12.9087075,7.56603002 13,8.01947783 13,8.5 C13,8.98052217 12.9087075,9.43396998 12.7261237,9.85954959 C12.5439484,10.2841771 12.2943735,10.6549808 11.9776619,10.9713585 C11.6610624,11.2876241 11.2900237,11.5380958 10.8651275,11.7225286 C10.4389454,11.9075196 9.98239636,12 9.49630541,12 C9.01510613,12 8.56102021,11.9075047 8.13487248,11.7225286 C7.70997633,11.5380958 7.33893758,11.2876241 7.02233813,10.9713585 C6.70562648,10.6549808 6.45605161,10.2841771 6.27387627,9.85954959 C6.09129247,9.43396998 6,8.98052217 6,8.5 C6,8.01947783 6.09129247,7.56603002 6.27387627,7.14045041 C6.45605161,6.71582285 6.70562648,6.34501916 7.02233813,6.02864147 C7.33893758,5.71237587 7.70997633,5.46190418 8.13487248,5.27747138 C8.56102021,5.0924953 9.01510613,5 9.49630541,5 Z M3.99414063,10.0078125 L2.99804688,10.0078125 L2.99804688,11 L3.99414063,11 L3.99414063,10.0078125 Z M9.97664728,6 L9.97664728,6.23797327 C9.97664728,6.36692937 9.92951734,6.4799986 9.83765969,6.57182164 C9.74556116,6.66388546 9.62990147,6.71075685 9.49631453,6.71075685 C9.36730982,6.71075685 9.25419796,6.66364467 9.16234031,6.57182164 C9.07048266,6.4799986 9.02335272,6.36692937 9.02335272,6.23797327 L9.02335272,6 C8.85006328,6.03453645 8.68248499,6.08593213 8.52051656,6.15420633 C8.35951952,6.22207106 8.20899193,6.30332774 8.06884168,6.39800013 L8.32661643,6.65567776 C8.41847408,6.74750079 8.46560402,6.86057003 8.46560402,6.98952612 C8.46560402,7.11848222 8.41847408,7.23155146 8.32661643,7.32337449 C8.27764373,7.37232874 8.22281102,7.40834809 8.16255319,7.43053997 C8.10543098,7.45157707 8.04867991,7.46230971 7.99264221,7.46230971 C7.93201772,7.46230971 7.87275181,7.45167625 7.81536029,7.43053997 C7.75510247,7.40834809 7.70026976,7.37232874 7.65129706,7.32337449 L7.39444916,7.06662339 C7.29924471,7.21019798 7.21759727,7.36172584 7.14947142,7.52127483 C7.08099023,7.68165602 7.03116524,7.85025449 7,8.02721641 L7.23343511,8.02721641 C7.36243982,8.02721641 7.47555168,8.0743286 7.56740933,8.16615163 C7.65926698,8.25797467 7.70639692,8.3710439 7.70639692,8.5 C7.70639692,8.6289561 7.65926698,8.74202533 7.56740933,8.83384837 C7.47555168,8.9256714 7.36243982,8.97278359 7.23343511,8.97278359 L7,8.97278359 C7.03116524,9.14974551 7.08099023,9.31834398 7.14947142,9.47872517 C7.21759727,9.63827416 7.29924471,9.78980202 7.39444916,9.93337661 L7.65129706,9.67662551 C7.74327519,9.58468203 7.85766486,9.53769029 7.98895674,9.53769029 C8.12024862,9.53769029 8.23463829,9.58468203 8.32661643,9.67662551 C8.41847408,9.76844854 8.46560402,9.88151778 8.46560402,10.0104739 C8.46560402,10.13943 8.41847408,10.2524992 8.32661643,10.3443222 L8.06884168,10.6019999 C8.20899193,10.6966723 8.35951952,10.7779289 8.52051656,10.8457937 C8.68248499,10.9140679 8.85006328,10.9654636 9.02335272,11 L9.02335272,10.7620267 C9.02335272,10.6330706 9.07048266,10.5200014 9.16234031,10.4281784 C9.25419796,10.3363553 9.36730982,10.2892431 9.49631453,10.2892431 C9.62990147,10.2892431 9.74556116,10.3361145 9.83765969,10.4281784 C9.92951734,10.5200014 9.97664728,10.6330706 9.97664728,10.7620267 L9.97664728,11 C10.1499367,10.9654636 10.317515,10.9140679 10.4794834,10.8457937 C10.6404805,10.7779289 10.7910081,10.6966723 10.9311583,10.6019999 L10.6733836,10.3443222 C10.5815259,10.2524992 10.534396,10.13943 10.534396,10.0104739 C10.534396,9.88151778 10.5815259,9.76844854 10.6733836,9.67662551 C10.7652412,9.58480247 10.8783531,9.53769029 11.0073578,9.53769029 C11.1363625,9.53769029 11.2494744,9.58480247 11.341332,9.67662551 L11.5996102,9.93480641 C11.6985626,9.79078716 11.7821837,9.63878701 11.8505286,9.47872517 C11.9190098,9.31834398 11.9688348,9.14974551 12,8.97278359 L11.7665649,8.97278359 C11.6329779,8.97278359 11.5173183,8.92591219 11.4252197,8.83384837 C11.3333621,8.74202533 11.2862321,8.6289561 11.2862321,8.5 C11.2862321,8.3710439 11.3333621,8.25797467 11.4252197,8.16615163 C11.5173183,8.07408781 11.6329779,8.02721641 11.7665649,8.02721641 L12,8.02721641 C11.9688348,7.85025449 11.9190098,7.68165602 11.8505286,7.52127483 C11.7821769,7.36119687 11.6985457,7.20918224 11.5995801,7.06515035 L11.3457446,7.31865973 C11.3007954,7.37001082 11.2467464,7.4076672 11.1846397,7.43053997 C11.1272482,7.45167625 11.0679823,7.46230971 11.0073578,7.46230971 C10.9467333,7.46230971 10.8874674,7.45167625 10.8300759,7.43053997 C10.7679692,7.4076672 10.7139201,7.37001082 10.6733836,7.32337449 C10.5815259,7.23155146 10.534396,7.11848222 10.534396,6.98952612 C10.534396,6.86057003 10.5815259,6.74750079 10.6733836,6.65567776 L10.9311583,6.39800014 C10.7910081,6.30332774 10.6404805,6.22207106 10.4794834,6.15420633 C10.317515,6.08593213 10.1499367,6.03453645 9.97664728,6 Z M9.49821854,7 C9.52132298,7 9.54209623,7.00759822 9.56126646,7.02289689 C9.58190016,7.03936346 9.59965864,7.06124308 9.61479484,7.08892489 L9.608,7.079 L9.61337856,7.09135673 C9.61856275,7.1030692 9.62781675,7.12358153 9.64318013,7.15761314 L9.67106216,7.21938996 C9.7097755,7.30520914 9.75270707,7.40674126 9.79982702,7.52393954 C9.89055197,7.75197754 9.94675361,7.92151859 9.96798296,8.0294119 C9.98942978,8.13841044 10,8.21817761 10,8.26585446 C10,8.47009656 9.95148484,8.64202946 9.8534077,8.78552399 C9.75533055,8.92901853 9.63781607,9 9.49821854,9 C9.36105146,9 9.24470827,8.92907534 9.1465923,8.78552399 C9.04851516,8.64202946 9,8.47009656 9,8.26585446 C9,8.21817761 9.01057022,8.13841044 9.03201704,8.0294119 C9.05324639,7.92151859 9.10944803,7.75197754 9.20028144,7.52366836 C9.24739842,7.40647888 9.2898531,7.30468007 9.3275158,7.21858091 C9.35621918,7.15296326 9.38337742,7.09219265 9.3817451,7.09458086 C9.39924392,7.05982744 9.41544452,7.03932777 9.43618812,7.02349324 C9.45693579,7.0076556 9.47742988,7 9.49821854,7 Z M3.99414062,5.0078125 L2.99804688,5.0078125 L2.99804688,6 L3.99414062,6 L3.99414062,5.0078125 Z" id="î©" fill="#2F9988"></path>
    </g>
</svg>