<?xml version="1.0" encoding="utf-8"?>
<!-- Generator: Adobe Illustrator 24.0.2, SVG Export Plug-In . SVG Version: 6.00 Build 0)  -->
<svg version="1.1" id="Livello_1" xmlns="http://www.w3.org/2000/svg" xmlns:xlink="http://www.w3.org/1999/xlink" x="0px" y="0px"
	 viewBox="0 0 20 20" style="enable-background:new 0 0 20 20;" xml:space="preserve">
<style type="text/css">
	.st0{fill-rule:evenodd;clip-rule:evenodd;fill:#FFFFFF;}
</style>
<title>02 - icon/icon-5</title>
<desc>Created with Sketch.</desc>
<g id="_x30_2---icon_x2F_icon-5">
	<path id="Combined-Shape" class="st0" d="M11,2c0.4,0,0.7,0.3,0.7,0.7l0,0L12,4.3c0,0,0,0,0,0.1c0,0,0,0,0,0
		c0.3,0.1,0.6,0.3,0.9,0.4l0,0l1.3-0.9c0.3-0.2,0.7-0.2,1,0l0,0l1.2,1.2c0.1,0.1,0.2,0.3,0.2,0.5c0,0.2-0.1,0.3-0.2,0.5l0,0
		l-0.9,1.4c0,0,0,0,0,0c0,0,0,0,0,0c0.1,0.3,0.3,0.6,0.3,0.9l0,0l1.6,0.3c0.2,0,0.3,0.1,0.5,0.2C17.9,9,18,9.2,18,9.4l0,0l0,1.7
		c0,0.2-0.1,0.4-0.2,0.5c-0.1,0.1-0.3,0.2-0.5,0.2l0,0L15.7,12c0,0,0,0-0.1,0c0,0,0,0,0,0c-0.1,0.3-0.3,0.6-0.4,0.9l0,0l0.9,1.3
		c0.1,0.1,0.2,0.3,0.2,0.5c0,0.2-0.1,0.4-0.2,0.5l0,0l-1.2,1.2c-0.1,0.1-0.3,0.2-0.5,0.2l0,0c-0.2,0-0.3-0.1-0.5-0.2l0,0l-1.4-0.9
		c0,0,0,0,0,0c0,0,0,0,0,0c-0.3,0.1-0.6,0.3-0.9,0.3l0,0l-0.3,1.6c0,0.4-0.3,0.7-0.7,0.7l0,0L10,18l-1,0c-0.4,0-0.7-0.3-0.7-0.7l0,0
		L8,15.7c0,0,0,0,0-0.1c0,0,0,0,0,0c-0.3-0.1-0.6-0.2-0.9-0.4l0,0l-1.3,0.9c-0.1,0.1-0.3,0.2-0.5,0.2l0,0c-0.2,0-0.4-0.1-0.5-0.2
		l0,0l-1.2-1.2c-0.1-0.1-0.2-0.3-0.2-0.5c0-0.2,0.1-0.3,0.2-0.5l0,0l0.9-1.4c0,0,0,0,0,0c0,0,0,0,0,0c-0.1-0.3-0.3-0.6-0.3-0.9l0,0
		l-1.6-0.3C2.3,11.3,2,11,2,10.7l0,0L2,9c0-0.2,0.1-0.4,0.2-0.5c0.1-0.1,0.3-0.2,0.5-0.2l0,0L4.3,8c0,0,0,0,0.1,0c0,0,0,0,0,0
		c0.1-0.3,0.2-0.6,0.4-0.9l0,0L3.9,5.8C3.8,5.6,3.7,5.5,3.7,5.3c0-0.2,0.1-0.4,0.2-0.5l0,0l1.2-1.2c0.3-0.3,0.7-0.3,1,0l0,0l1.4,0.9
		c0,0,0,0,0,0c0,0,0,0,0,0c0.3-0.1,0.6-0.3,0.9-0.3l0,0l0.3-1.6C8.7,2.3,9,2,9.3,2l0,0L10,2L11,2L11,2L11,2z M10.8,3L10,3L9.6,3
		c0,0,0,0,0,0c0,0,0,0,0,0.1l0,0L9.3,4.6c0,0.1,0,0.2-0.1,0.3C9.2,5,9.1,5,9,5.1C8.7,5.1,8,5.4,7.7,5.5c0,0-0.1,0-0.1,0
		c-0.2,0-0.4,0-0.6-0.2l0,0L5.7,4.5c0,0,0,0,0,0l0,0L4.8,5.3c0,0,0,0,0,0.1l0,0l0.9,1.3c0.1,0.1,0.1,0.1,0.1,0.2c0,0.1,0,0.2,0,0.3
		C5.6,7.5,5.3,8.3,5.2,8.6c0,0,0,0.1,0,0.1C5,8.9,4.8,9,4.6,9l0,0L3.1,9.3c0,0,0,0-0.1,0l0,0l0,1c0,0,0,0,0,0c0,0,0,0,0.1,0l0,0
		l1.5,0.3c0.1,0,0.2,0,0.3,0.1c0.1,0,0.2,0.1,0.2,0.2c0.1,0.3,0.3,1.1,0.5,1.4c0,0,0,0.1,0,0.1c0,0.2,0,0.4-0.2,0.6l0,0l-0.9,1.3
		c0,0,0,0,0,0l0,0l0.9,0.8c0,0,0,0,0.1,0l0,0l1.3-0.9c0.1-0.1,0.1-0.1,0.2-0.1c0.1,0,0.2,0,0.3,0c0.4,0.1,1,0.5,1.3,0.6
		c0,0,0.1,0,0.1,0c0.2,0.1,0.3,0.3,0.3,0.5l0,0l0.3,1.5c0,0,0,0,0,0.1l0,0l0.6,0l0.6,0c0,0,0,0,0-0.1l0,0l0.3-1.6
		c0-0.1,0-0.2,0.1-0.2c0-0.1,0.1-0.2,0.2-0.2c0.4-0.2,1-0.3,1.4-0.5c0,0,0.1,0,0.1,0c0.2,0,0.4,0,0.6,0.2l0,0l1.3,1c0,0,0,0,0,0l0,0
		l0.8-0.8c0,0,0,0,0-0.1l0,0l-0.9-1.3c-0.1-0.1-0.1-0.1-0.1-0.2c0-0.1,0-0.2,0-0.3c0.2-0.3,0.5-1,0.6-1.4c0,0,0-0.1,0-0.1
		c0.1-0.2,0.3-0.3,0.5-0.3l0,0l1.6-0.2c0,0,0,0,0.1,0l0,0l0-1.2c0,0,0,0-0.1,0l0,0l-1.5-0.3c-0.1,0-0.2,0-0.3-0.1
		c-0.1,0-0.2-0.1-0.2-0.2c-0.1-0.3-0.4-1.1-0.5-1.4c0,0,0-0.1,0-0.1c0-0.2,0-0.4,0.2-0.6l0,0l0.9-1.3c0,0,0,0,0,0l0,0l-0.8-0.8
		c0,0,0,0-0.1,0l0,0l-1.3,0.9c-0.1,0.1-0.1,0.1-0.2,0.1c-0.1,0-0.2,0-0.3,0c-0.3-0.2-1-0.5-1.3-0.6c0,0-0.1,0-0.1,0
		c-0.2-0.1-0.3-0.3-0.3-0.6l0,0L10.8,3C10.8,3,10.8,3,10.8,3C10.8,3,10.8,3,10.8,3L10.8,3z M10,7c0.8,0,1.5,0.3,2.1,0.9
		c1.2,1.2,1.2,3.1,0,4.2C11.6,12.7,10.8,13,10,13c-0.8,0-1.5-0.3-2.1-0.9c-1.2-1.2-1.2-3.1,0-4.2C8.4,7.3,9.2,7,10,7z M10,8
		C9.5,8,9,8.2,8.6,8.6c-0.8,0.8-0.8,2.1,0,2.8C9,11.8,9.5,12,10,12c0.5,0,1-0.2,1.4-0.6c0.8-0.8,0.8-2.1,0-2.8C11,8.2,10.5,8,10,8z"
		/>
</g>
</svg>
