<?xml version="1.0" encoding="UTF-8"?>
<svg width="20px" height="20px" viewBox="0 0 20 20" version="1.1" xmlns="http://www.w3.org/2000/svg" xmlns:xlink="http://www.w3.org/1999/xlink">
    <!-- Generator: Sketch 62 (91390) - https://sketch.com -->
    <title>02 - icon/icon-21</title>
    <desc>Created with Sketch.</desc>
    <g id="02---icon/icon-21" stroke="none" stroke-width="1" fill="none" fill-rule="evenodd">
        <path d="M5.84360428,9.15468885 C6.02670171,9.33802378 6.04704587,9.62261179 5.90463675,9.8284474 L5.84360428,9.90159267 L3.74509274,12 L12.4980927,12 C12.7742351,12 12.9980927,12.2238576 12.9980927,12.5 C12.9980927,12.7761424 12.7742351,13 12.4980927,13 L3.74509274,13 L5.84360428,15.0984073 C6.04958889,15.3046591 6.04958889,15.6390594 5.84360428,15.8453112 C5.63761966,16.0515629 5.30365262,16.0515629 5.09766801,15.8453112 L2.15258119,12.9015927 C2.06103248,12.8099252 2.01017208,12.6929445 2,12.5731511 L2,12.4268489 C2.00762906,12.3370039 2.0381453,12.248741 2.09154872,12.1715526 L2.15258119,12.0984073 L5.09766801,9.15468885 C5.30365262,8.94843705 5.63761966,8.94843705 5.84360428,9.15468885 Z M14.9004247,4.15468885 L17.8455115,7.09840733 C17.9370603,7.1900748 17.9879207,7.30705553 17.9980927,7.42684885 L17.9980927,7.57315115 C17.9904637,7.66299614 17.9599474,7.75125905 17.906544,7.8284474 L17.8455115,7.90159267 L14.9004247,10.8453112 C14.6944401,11.0515629 14.3604731,11.0515629 14.1544885,10.8453112 C13.971391,10.6619762 13.9510469,10.3773882 14.093456,10.1715526 L14.1544885,10.0984073 L16.253,8 L7.5,8 C7.22385763,8 7,7.77614237 7,7.5 C7,7.22385763 7.22385763,7 7.5,7 L16.253,7 L14.1544885,4.90159267 C13.9485038,4.69534087 13.9485038,4.36094064 14.1544885,4.15468885 C14.3604731,3.94843705 14.6944401,3.94843705 14.9004247,4.15468885 Z" id="Combined-Shape" fill="#2F9988"></path>
    </g>
</svg>