<?xml version="1.0" encoding="UTF-8"?>
<svg width="20px" height="20px" viewBox="0 0 20 20" version="1.1" xmlns="http://www.w3.org/2000/svg" xmlns:xlink="http://www.w3.org/1999/xlink">
    <!-- Generator: Sketch 62 (91390) - https://sketch.com -->
    <title>02 - icon/con-1</title>
    <desc>Created with Sketch.</desc>
    <g id="02---icon/con-1" stroke="none" stroke-width="1" fill="none" fill-rule="evenodd">
        <path d="M12.001117,2 C12.7992636,2 13.5499475,2.30860572 14.1146556,2.86889742 C15.2888222,4.03613952 15.29599,5.93927269 14.1307347,7.11154851 C14.0445546,7.19885617 13.9539184,7.28019757 13.8593236,7.35536189 C14.4749903,7.59901193 15.0406541,7.96817392 15.524426,8.44816237 C16.0483037,8.96895061 16.4327945,9.57763407 16.6777249,10.2273143 C16.8967201,10.4146328 17.0048042,10.6938315 17.0076452,10.9716528 L17.0104278,12.0220948 L17.4166667,12.025 C17.8583521,12.025 18.2285768,12.3321268 18.3253413,12.7443809 L18.3437184,12.8495176 L18.35,12.9583333 L18.35,17.0416667 C18.35,17.5201592 17.9895526,17.9147846 17.5254824,17.9687184 L17.4166667,17.975 L11.5833333,17.975 C11.1048408,17.975 10.7102154,17.6145526 10.6562816,17.1504824 L10.6554634,17.1228742 C9.70160349,17.6020479 8.43412164,18 7,18 C4.70712591,18 2.90014993,16.998385 2,16.2444926 C2.01168922,15.7300632 2.02693812,15.4791926 2.02936072,15.4570514 C2.14713043,14.37047 2.61923141,13.3151652 3.44636414,12.4804298 C3.93828478,11.9854692 4.51445661,11.6058376 5.14258407,11.3549756 C5.05363436,11.287326 4.96803589,11.2119164 4.88622235,11.1312962 C3.71166832,9.96599013 3.7037256,8.06305056 4.86781848,6.88825788 C5.43717594,6.31538189 6.19464027,6 7.001117,6 C7.79926356,6 8.54994752,6.30860572 9.11465558,6.86889742 C9.33279593,7.08575132 9.51065688,7.32800476 9.64820364,7.58625243 C9.80793959,7.49947643 9.97337668,7.42255376 10.1425841,7.3549756 C10.0536344,7.28732599 9.96803589,7.21191636 9.88622235,7.13129618 C8.71166832,5.96599013 8.7037256,4.06305056 9.86781848,2.88825788 C10.4371759,2.31538189 11.1946403,2 12.001117,2 Z M7.00165572,12 C5.92763623,12 4.91888865,12.4200075 4.16065101,13.1829309 C3.49973423,13.8499226 3.03368841,14.7510312 3.00279496,15.7361298 C4.32279651,16.7047981 5.95275934,17.008705 7.01181531,17.008705 C7.99235362,17.008705 9.42898045,16.7503288 10.6516289,15.9812082 L10.6513083,14.4213464 C10.4494441,13.951384 10.1684207,13.5071469 9.81634527,13.1571478 C9.06429943,12.4109834 8.06458156,12 7.00165572,12 Z M17.358,15.422 L17.2105346,15.459268 C17.1284242,15.4754124 17.0449616,15.4862822 16.9605684,15.4917349 L16.8333333,15.4958333 L15.552,15.495 C15.4684152,15.8007171 15.2127159,16.0292597 14.8984383,16.0719698 L14.7916667,16.0791667 L14.2083333,16.0791667 C13.8824523,16.0791667 13.6024241,15.8806087 13.4827775,15.5980216 L13.447,15.495 L12.1666667,15.4958333 C12.0388391,15.4958333 11.912631,15.4834846 11.7894654,15.459268 L11.641,15.422 L11.641,16.983 L17.358,16.983 L17.358,15.422 Z M14.5,14.7791531 C14.3368327,14.7791531 14.2534993,14.8541531 14.25,15.0041531 C14.2556735,15.1486156 14.3407093,15.2208469 14.5051075,15.2208469 C14.6695057,15.2208469 14.7511365,15.1486156 14.75,15.0041531 C14.7465007,14.8541531 14.6631673,14.7791531 14.5,14.7791531 Z M17.358,13.016 L11.641,13.016 L11.641,14.341 L11.7195478,14.3907761 C11.8219303,14.4464184 11.9332131,14.4823794 12.0492284,14.4968823 L12.1666667,14.5041667 L13.447,14.504 C13.5315848,14.1992829 13.7872841,13.9707403 14.1015617,13.9280302 L14.2083333,13.9208333 L14.7916667,13.9208333 C15.1175477,13.9208333 15.3975759,14.1193913 15.5172225,14.4019784 L15.552,14.504 L16.8333333,14.5041667 C16.9916094,14.5041667 17.1439422,14.4649658 17.2804522,14.3907761 L17.358,14.341 L17.358,13.016 Z M12.0016557,8 C11.2738505,8 10.5760184,8.19286928 9.96580153,8.55461862 C10.1015072,9.46059298 9.82304835,10.4150638 9.13073475,11.1115485 C9.04455461,11.1988562 8.95391839,11.2801976 8.85932358,11.3553619 C9.47499035,11.5990119 10.0406541,11.9681739 10.524426,12.4481624 L10.7059074,12.6395316 C10.8243436,12.3138271 11.1190279,12.0725962 11.4745176,12.0312816 L11.5833333,12.025 L12.0038273,12.025 L12.007613,10.9745715 C11.9987585,10.513904 12.3691733,10.0095752 13.0012912,10.0021745 C13.8192689,10.0052001 14.7496868,10.0018796 15.4438838,10.0001648 C15.2711301,9.68878138 15.0608748,9.40023525 14.8163453,9.15714779 C14.0642994,8.41098342 13.0645816,8 12.0016557,8 Z M16,11 L13,11 L13,12 L16,12 L16,11 Z M7.00108483,7 C6.46325243,7 5.95818749,7.21036389 5.57835945,7.59234495 C4.80257696,8.37516609 4.80789524,9.64403583 5.59036846,10.4205135 C5.96916717,10.7939222 6.47045784,11 7.00091327,11 C7.53926034,11 8.04329593,10.7898076 8.42003594,10.4079979 C9.197534,9.62569114 9.19255884,8.35699284 8.40957094,7.57880074 C8.03368872,7.20556341 7.53325583,7 7.00108483,7 Z M12.0010848,3 C11.4632524,3 10.9581875,3.21036389 10.5783594,3.59234495 C9.80257696,4.37516609 9.80789524,5.64403583 10.5903685,6.42051348 C10.9691672,6.79392225 11.4704578,7 12.0009133,7 C12.5392603,7 13.0432959,6.78980755 13.4200359,6.40799794 C14.197534,5.62569114 14.1925588,4.35699284 13.4095709,3.57880074 C13.0336887,3.20556341 12.5332558,3 12.0010848,3 Z" id="Combined-Shape" fill="#2F9988"></path>
    </g>
</svg>