<?xml version="1.0" encoding="UTF-8"?>
<svg width="20px" height="20px" viewBox="0 0 20 20" version="1.1" xmlns="http://www.w3.org/2000/svg" xmlns:xlink="http://www.w3.org/1999/xlink">
    <!-- Generator: Sketch 62 (91390) - https://sketch.com -->
    <title>02 - icon/icon-17</title>
    <desc>Created with Sketch.</desc>
    <g id="02---icon/icon-17" stroke="none" stroke-width="1" fill="none" fill-rule="evenodd">
        <path d="M11.0010589,2 C11.5507356,2 11.9399232,2.40518981 11.9927169,2.88748236 L11.9988485,3 L11.9988485,3 C12.5504063,2.9981859 12.9990028,3.44384119 13.0008169,3.99539893 L13.000846,4 L14,4 C15.1045695,4 16,4.8954305 16,6 L16,16 C16,17.1045695 15.1045695,18 14,18 L6,18 C4.8954305,18 4,17.1045695 4,16 L4,6 C4,4.8954305 4.8954305,4 6,4 L7.0022603,4 C7.00101993,3.45123669 7.44318757,3.00448604 7.9919345,3.00006875 L8.00039223,3 C8.00039223,2.57508243 8.32935895,2 9.00459153,2 L11.0010589,2 L11.0010589,2 Z M11.0055317,3.00261481 L8.98120122,3.00261481 L9,4 L8,4 L8,5 L6,5 L6,5 C5.37852533,5 5,5.44771525 5,6 L5,16 C5,16.5522847 5.44771525,17 6,17 L14,17 C14.5522847,17 15,16.5522847 15,16 L15,6 C15,5.44771525 14.5522847,5 14,5 L12,5 L11.9971227,4 L11,4 L11.0055317,3.00261481 Z M14,7 L14,16 L6,16 L6,7 L14,7 Z M13,8 L7,8 L7,15 L13,15 L13,8 Z M11.3333333,13 C11.7015232,13 12,13.2238576 12,13.5 C12,13.7761424 11.7015232,14 11.3333333,14 L8.66666667,14 C8.29847683,14 8,13.7761424 8,13.5 C8,13.2238576 8.29847683,13 8.66666667,13 L11.3333333,13 Z M11.3333333,11 C11.7015232,11 12,11.2238576 12,11.5 C12,11.7761424 11.7015232,12 11.3333333,12 L8.66666667,12 C8.29847683,12 8,11.7761424 8,11.5 C8,11.2238576 8.29847683,11 8.66666667,11 L11.3333333,11 Z M11.3333333,9 C11.7015232,9 12,9.22385763 12,9.5 C12,9.77614237 11.7015232,10 11.3333333,10 L8.66666667,10 C8.29847683,10 8,9.77614237 8,9.5 C8,9.22385763 8.29847683,9 8.66666667,9 L11.3333333,9 Z M13,5 L13,6 L7,6 L7,5 L13,5 Z" id="Combined-Shape" fill="#2F9988" transform="translate(10.000000, 10.000000) scale(-1, 1) translate(-10.000000, -10.000000) "></path>
    </g>
</svg>