<?xml version="1.0" encoding="UTF-8"?>
<svg width="20px" height="20px" viewBox="0 0 20 20" version="1.1" xmlns="http://www.w3.org/2000/svg" xmlns:xlink="http://www.w3.org/1999/xlink">
    <!-- Generator: Sketch 62 (91390) - https://sketch.com -->
    <title>02 - icon/icon-7</title>
    <desc>Created with Sketch.</desc>
    <g id="02---icon/icon-7" stroke="none" stroke-width="1" fill="none" fill-rule="evenodd">
        <path d="M17.7228098,5.38143261 C17.5533606,5.30363352 17.3539773,5.33302662 17.214187,5.45641385 L14.6943176,7.71959757 L12.4198866,5.38593148 L14.6723231,2.78458238 C14.7945561,2.64455436 14.8238575,2.44608583 14.7473043,2.27670945 C14.6717697,2.10720709 14.502977,1.99857132 14.3174119,2.0000142 L14.1816958,2.0000142 C12.7895442,2.0000142 10.3863955,2.11974873 9.31316399,3.20822637 L9.09671815,3.42317259 C7.95200457,4.59113035 7.74880541,6.50640113 8.35190451,7.96228685 L2.58334788,13.8500636 C1.80555071,14.6431124 1.80555071,15.9128003 2.58334788,16.7058491 L3.28742171,17.4196705 C3.65835542,17.7980573 4.16594349,18.0112706 4.69581931,18.0112706 C5.22569514,18.0112706 5.7332832,17.7980573 6.10421691,17.4196705 L11.9580022,11.5191469 C12.5609213,11.8323639 13.2281988,12.0016642 13.9075144,12.0137731 C14.935633,12.0107539 15.9189117,11.5924391 16.6340822,10.8538133 L16.8470289,10.6376174 C18.0127372,9.45591312 17.9947417,6.930545 18,5.81982292 C18.0008265,5.63219124 17.8926736,5.46113607 17.7228098,5.38143261 L17.7228098,5.38143261 Z M16.1497034,9.95953711 L15.9639999,10.1762329 C15.4209168,10.723503 14.6784259,11.0260762 13.9075144,11.0142732 C13.4854952,11.0157571 13.0665191,10.9428254 12.6698241,10.7988271 C12.3526189,10.6655113 12.0608842,10.4782937 11.8075399,10.2454656 L5.40089289,16.7053492 C5.21548617,16.8945596 4.96172699,17.0011825 4.69681906,17.0011825 C4.43191113,17.0011825 4.17815195,16.8945596 3.99274523,16.7053492 L3.28892134,15.9915278 C2.90072542,15.5946195 2.90072542,14.9602935 3.28892134,14.5633852 L9.54960483,8.17648325 C9.34543944,7.87766406 9.19700355,7.54438189 9.11146446,7.1927294 L9.11146446,7.1927294 C8.87052474,6.2179733 9.01148947,4.87106031 9.76780023,4.09900349 L9.98324633,3.8815579 C10.6330837,3.22297269 12.3179122,3.0282714 13.2509287,2.97103572 L11.4176374,5.08800603 C11.2538402,5.27813048 11.262078,5.56179396 11.4366327,5.74209237 L14.3359072,8.71634817 C14.5109547,8.89758036 14.7979377,8.90806628 14.9857446,8.74009223 L17.0259841,6.90255201 C16.9637497,7.89155454 16.7715478,9.32894489 16.1507031,9.95853736 L16.1497034,9.95953711 Z" id="Shape" fill="#2F9988"></path>
    </g>
</svg>