<?xml version="1.0" encoding="UTF-8"?>
<svg width="20px" height="20px" viewBox="0 0 20 20" version="1.1" xmlns="http://www.w3.org/2000/svg" xmlns:xlink="http://www.w3.org/1999/xlink">
    <!-- Generator: Sketch 62 (91390) - https://sketch.com -->
    <title>02 - icon/icon-18</title>
    <desc>Created with Sketch.</desc>
    <g id="02---icon/icon-18" stroke="none" stroke-width="1" fill="none" fill-rule="evenodd">
        <path d="M11.8033825,4.49713542 C12.7643228,3.66247583 14.1413471,3.98551211 14.9440167,4.68181627 C15.7552891,5.38558319 16.0114559,6.51305757 15.2556703,7.41947781 L15.1515362,7.52991039 C14.3539933,8.35107392 10.344803,12.1604483 9.16149661,13.244699 C8.45189673,13.8948976 7.65335093,13.9893057 6.89190401,13.4107888 C6.23142737,12.7373969 6.39938777,11.9318387 7.23580213,11.1427952 L8.40377686,10.1040575 C9.06527772,9.50781799 9.87514541,8.76449755 10.8329736,7.87443435 C11.027159,7.69398731 11.3415136,7.6944367 11.5351043,7.8754381 C11.7286949,8.05643949 11.7282128,8.34945135 11.5340274,8.52989839 L9.73055197,10.1920868 C9.05080911,10.8119956 8.49078613,11.3130942 8.05018684,11.695629 C7.4476328,12.2187754 7.36802288,12.5245207 7.56976083,12.7381249 C7.85595929,12.9529875 8.09415708,12.9248266 8.46539888,12.5846618 L10.010972,11.1396125 C11.7740483,9.47608835 13.8553846,7.57952098 14.4014228,6.97063046 C14.9474611,6.36173994 14.7242616,5.78584755 14.2675338,5.35934144 C13.8108061,4.93283534 12.9835572,4.79807537 12.5905617,5.1178682 C8.138309,9.08153212 5.79648061,11.2307444 5.56507649,11.5655051 C4.86449199,12.5790054 4.76531503,13.4094129 5.61568286,14.3444926 C6.53286233,15.3530396 8.10654857,15.2570932 9.14018082,14.439762 C10.1738131,13.6224308 13.3212647,10.6152831 15.1542965,8.84924369 C15.3452466,8.66527234 15.6635486,8.67100388 15.8564184,8.85267274 C16.0492881,9.03434159 16.047641,9.32734977 15.8527395,9.50712481 C12.6590389,12.4421301 10.6599888,14.3002914 9.85558941,15.0816088 C8.64899027,16.2535849 6.30495111,16.3129759 4.95611198,14.8905466 C3.44648829,13.2985606 4.11479607,11.6417973 4.99402952,10.8156684 C5.56864603,10.275758 10.6523977,5.49686506 11.8033825,4.49713542 Z" id="Path-8" fill="#2F9988"></path>
    </g>
</svg>