<?xml version="1.0" encoding="UTF-8"?>
<svg width="20px" height="20px" viewBox="0 0 20 20" version="1.1" xmlns="http://www.w3.org/2000/svg" xmlns:xlink="http://www.w3.org/1999/xlink">
    <!-- Generator: Sketch 62 (91390) - https://sketch.com -->
    <title>02 - icon/icon-11</title>
    <desc>Created with Sketch.</desc>
    <g id="02---icon/icon-11" stroke="none" stroke-width="1" fill="none" fill-rule="evenodd">
        <path d="M15.3673831,1.51813713 L17.9982963,16.4387869 C18.0389946,16.6695986 17.8766388,16.8913759 17.6358949,16.9338256 L11.6145011,17.9955598 C11.3737572,18.0380094 11.1453403,17.8851359 11.104642,17.6543242 L9,5.72182382 L9,17.6031974 C9,17.8375697 8.8015995,18.027785 8.55714173,18.027785 L2.44285827,18.027785 C2.1984005,18.027785 2,17.8375697 2,17.6031974 L2,2.45237254 C2,2.2180002 2.1984005,2.02778497 2.44285827,2.02778497 L8.55714173,2.02778497 C8.71274762,2.02778497 8.84969218,2.10485573 8.92868471,2.22132755 L14.857524,1.17690153 C15.0982679,1.13445189 15.3266848,1.28732544 15.3673831,1.51813713 Z M8.00987013,3.03901026 L3.00987013,3.03901026 L3.00987013,17.0390103 L8.00987013,17.0390103 L8.00987013,3.03901026 Z M14.4941641,2.26779675 L9.57012536,3.13603764 L12.0011998,16.9233462 L16.9252386,16.0551053 L14.4941641,2.26779675 Z M5.5,13 C6.32714932,13 7,13.6728507 7,14.5 C7,15.3271493 6.32714932,16 5.5,16 C4.67285068,16 4,15.3271493 4,14.5 C4,13.6728507 4.67285068,13 5.5,13 Z M15.4898162,13.7300304 C15.6334491,14.5446135 15.0876599,15.3240813 14.2730768,15.4677143 C13.4584937,15.6113473 12.6790259,15.065558 12.5353929,14.2509749 C12.3917599,13.4363919 12.9375492,12.656924 13.7521323,12.5132911 C14.5667153,12.3696581 15.3461832,12.9154474 15.4898162,13.7300304 Z M5.49506494,14 C5.22202912,14 5,14.2220291 5,14.4950649 C5,14.7681007 5.22202912,14.9901299 5.49506494,14.9901299 C5.76810075,14.9901299 5.99012987,14.7681007 5.99012987,14.4950649 C5.99012987,14.2220291 5.76810075,14 5.49506494,14 Z M13.9209204,13.4989558 C13.6520326,13.5463679 13.4719315,13.8035789 13.5193437,14.0724667 C13.5667559,14.3413545 13.8239668,14.5214555 14.0928546,14.4740433 C14.3617424,14.4266312 14.5418434,14.1694202 14.4944313,13.9005324 C14.4470191,13.6316446 14.1898082,13.4515436 13.9209204,13.4989558 Z M6.49011424,6 C6.76883839,6 6.9950493,6.22621091 6.9950493,6.50493506 C6.9950493,6.78365922 6.76883839,7.00987013 6.49011424,7.00987013 L4.50493506,7.00987013 C4.22621091,7.00987013 4,6.78365922 4,6.50493506 C4,6.22621091 4.22621091,6 4.50493506,6 L6.49011424,6 Z M14.0966122,5.85728816 C14.1450122,6.13177787 13.961519,6.39383324 13.6870293,6.44223318 L11.7320095,6.78695593 C11.4575198,6.83535587 11.1954644,6.65186272 11.1470645,6.37737301 C11.0986645,6.1028833 11.2821577,5.84082793 11.5566474,5.79242799 L13.5116672,5.44770525 C13.7861569,5.39930531 14.0482123,5.58279845 14.0966122,5.85728816 Z M6.49011424,4 C6.76883839,4 6.9950493,4.22621091 6.9950493,4.50493506 C6.9950493,4.78365922 6.76883839,5.00987013 6.49011424,5.00987013 L4.50493506,5.00987013 C4.22621091,5.00987013 4,4.78365922 4,4.50493506 C4,4.22621091 4.22621091,4 4.50493506,4 L6.49011424,4 Z M13.7493159,3.88767265 C13.7977158,4.16216236 13.6142227,4.42421773 13.339733,4.47261767 L11.3847131,4.81734042 C11.1102234,4.86574036 10.848168,4.68224722 10.7997681,4.40775751 C10.7513682,4.1332678 10.9348613,3.87121243 11.209351,3.82281249 L13.1643709,3.47808974 C13.4388606,3.4296898 13.7009159,3.61318294 13.7493159,3.88767265 Z" id="Combined-Shape" fill="#2F9988"></path>
    </g>
</svg>