<?xml version="1.0" encoding="UTF-8"?>
<svg width="20px" height="20px" viewBox="0 0 20 20" version="1.1" xmlns="http://www.w3.org/2000/svg" xmlns:xlink="http://www.w3.org/1999/xlink">
    <!-- Generator: Sketch 62 (91390) - https://sketch.com -->
    <title>02 - icon/icon-5</title>
    <desc>Created with Sketch.</desc>
    <g id="02---icon/icon-5" stroke="none" stroke-width="1" fill="none" fill-rule="evenodd">
        <path d="M11.0327111,2 C11.4005333,2 11.7041778,2.28871111 11.7258667,2.65102222 L11.7258667,2.65102222 L12.0245333,4.26773333 C12.0280889,4.2864 12.0298667,4.30542222 12.0302222,4.32462222 C12.0304,4.34311111 12.0362667,4.35733333 12.0432,4.368 C12.3527111,4.48035556 12.6526222,4.61813333 12.9377778,4.77902222 L12.9377778,4.77902222 L14.2412444,3.86968889 C14.5096889,3.62506667 14.9287111,3.63022222 15.1923556,3.88782222 L15.1923556,3.88782222 L16.3857778,5.0736 C16.5162667,5.20088889 16.5898667,5.37457778 16.5909333,5.56035556 C16.592,5.73404444 16.5294222,5.89777778 16.4142222,6.02542222 L16.4142222,6.02542222 L15.4855111,7.37831111 C15.4741333,7.39484444 15.4613333,7.41031111 15.4472889,7.42453333 C15.4353778,7.43644444 15.4295111,7.45048889 15.4270222,7.46453333 C15.5664,7.76231111 15.6810667,8.07111111 15.7690667,8.3856 L15.7690667,8.3856 L17.3333333,8.66382222 C17.5047111,8.67128889 17.6648889,8.74115556 17.7879111,8.86311111 C17.9198222,8.99395556 17.9925333,9.16782222 17.9925333,9.35324444 L17.9925333,9.35324444 L17.9995063,11.0321778 C18.0014222,11.2142222 17.9310222,11.3880889 17.8010667,11.5194667 C17.6789333,11.6430222 17.5184,11.7146667 17.3457778,11.7235556 L17.3457778,11.7235556 L15.7326222,12.0241778 C15.7136,12.0277333 15.6942222,12.0296889 15.6746667,12.0298667 C15.6599111,12.0300444 15.6451556,12.0350222 15.6323556,12.0439111 C15.5187556,12.3537778 15.3806222,12.6535111 15.2204444,12.9379556 L15.2204444,12.9379556 L16.1310222,14.2408889 C16.2469333,14.3681778 16.3105778,14.5317333 16.3109333,14.7050667 C16.3112889,14.8897778 16.2398222,15.0632889 16.1093333,15.1936 L16.1093333,15.1936 L14.9272889,16.3864889 C14.7952,16.5187556 14.6213333,16.5907556 14.4364444,16.5907556 L14.4364444,16.5907556 C14.2636444,16.5904 14.1016889,16.5278222 13.9752889,16.4135111 L13.9752889,16.4135111 L12.6229333,15.4851556 C12.6074667,15.4746667 12.5930667,15.4627556 12.5795556,15.4499556 C12.5656889,15.4364444 12.5504,15.4300444 12.5365333,15.4273778 C12.2460444,15.5639111 11.9365333,15.6782222 11.6135111,15.7681778 L11.6135111,15.7681778 L11.3358222,17.3345778 C11.3184,17.6983111 11.0174222,17.9907556 10.6488889,17.9934222 L10.6488889,17.9934222 L10.0021333,17.9953778 L8.96782222,18 C8.59893333,18 8.29546667,17.7102222 8.27448889,17.3473778 L8.27448889,17.3473778 L7.97528889,15.7322667 C7.97173333,15.7128889 7.96977778,15.6933333 7.9696,15.6736 C7.96942222,15.6561778 7.96337778,15.6417778 7.95573333,15.6305778 C7.64782222,15.52 7.34844444,15.3825778 7.06204444,15.2209778 L7.06204444,15.2209778 L5.75893333,16.1303111 C5.63235556,16.2462222 5.46933333,16.3102222 5.296,16.3109333 L5.296,16.3109333 C5.10986667,16.3109333 4.93724444,16.2403556 4.80675556,16.1118222 L4.80675556,16.1118222 L3.61422222,14.9269333 C3.48337778,14.7985778 3.40995556,14.6243556 3.40924444,14.4378667 C3.40871111,14.2647111 3.47093333,14.1018667 3.58524444,13.9752889 L3.58524444,13.9752889 L4.51537778,12.6216889 C4.52604444,12.6060444 4.53813333,12.5914667 4.55128889,12.5777778 C4.56213333,12.5667556 4.56942222,12.5521778 4.57262222,12.5367111 C4.432,12.2339556 4.31715556,11.9246222 4.23022222,11.6136889 L4.23022222,11.6136889 L2.66488889,11.3367111 C2.30222222,11.3184 2.01013333,11.0174222 2.00675556,10.6501333 L2.00675556,10.6501333 L2.00052808,8.96746667 C1.99982222,8.78222222 2.07128889,8.60817778 2.2016,8.47751111 C2.32337778,8.3552 2.4832,8.28444444 2.65493333,8.27555556 L2.65493333,8.27555556 L4.26666667,7.97546667 C4.28568889,7.97191111 4.30524444,7.96995556 4.32462222,7.96977778 C4.34008889,7.9696 4.3552,7.96462222 4.36817778,7.95608889 C4.48017778,7.64693333 4.61795556,7.34702222 4.77902222,7.06133333 L4.77902222,7.06133333 L3.86968889,5.75911111 C3.7536,5.63164444 3.68977778,5.46826667 3.68942222,5.29493333 C3.68906667,5.1104 3.76035556,4.93706667 3.89048889,4.80675556 L3.89048889,4.80675556 L5.0736,3.61368889 C5.3328,3.35342222 5.75182222,3.34346667 6.02364444,3.58417778 L6.02364444,3.58417778 L7.37831111,4.51324444 C7.39537778,4.52497778 7.41137778,4.53813333 7.42595556,4.55271111 C7.43608889,4.56284444 7.44906667,4.5696 7.46346667,4.57262222 C7.76177778,4.43395556 8.07111111,4.31946667 8.38666667,4.23111111 L8.38666667,4.23111111 L8.66311111,2.66471111 C8.68124444,2.30293333 8.98186667,2.01084444 9.3488,2.00622222 L9.3488,2.00622222 L9.99928889,2.00444444 L11.0314667,2 L11.0314667,2 Z M10.7834402,3 L10.0018721,3.00425191 L9.57135202,3.00595267 C9.56658676,3.00612275 9.56097055,3.01224549 9.56097055,3.01785801 C9.56097055,3.03690656 9.55926867,3.05578502 9.5560351,3.07449342 L9.5560351,3.07449342 L9.28271328,4.62150736 C9.27845858,4.71198795 9.25667452,4.80178823 9.21923318,4.88325477 C9.17753713,4.97390544 9.09652768,5.04040527 8.99969074,5.06370572 C8.65063528,5.14806356 7.98295652,5.37870467 7.65704662,5.53466463 C7.62862523,5.54827074 7.59850197,5.55762493 7.56735758,5.56255714 C7.34951702,5.59725271 7.12674101,5.53092295 6.96506247,5.38482742 L6.96506247,5.38482742 L5.6695919,4.4968591 C5.6541048,4.4861443 5.63946864,4.47423896 5.62602379,4.46114308 L5.62602379,4.46114308 L4.76191695,5.32696692 C4.77587236,5.3407431 4.7893172,5.36965607 4.80037942,5.38564324 L4.80037942,5.38564324 L5.6993121,6.67210031 C5.75819712,6.736049 5.80482862,6.81054241 5.83784508,6.89370972 C5.8756268,6.98912252 5.86643665,7.09678081 5.81265726,7.18420003 C5.62459959,7.49050743 5.32051251,8.29112087 5.20155114,8.63144353 C5.19099949,8.66137696 5.17619314,8.68960962 5.15764265,8.71529114 C5.02881039,8.89285079 4.82492524,9.00374053 4.60776543,9.01632618 L4.60776543,9.01632618 L3.0634801,9.30392518 C3.0437383,9.30749679 3.02382631,9.30936763 3.00374413,9.30936763 L3.00374413,9.30936763 L3,10.3549358 C3.00017019,10.3600381 3.00510564,10.3653104 3.01157278,10.3653104 C3.03063383,10.3653104 3.04969488,10.3668411 3.06841555,10.3702426 L3.06841555,10.3702426 L4.61576427,10.6437253 C4.70324086,10.6481473 4.7902069,10.6692368 4.87462012,10.7069937 C4.96720235,10.7483222 5.03527753,10.830299 5.05876346,10.9287732 C5.14028348,11.2697762 5.38388464,12.0184225 5.54284018,12.3505815 C5.55645521,12.3788141 5.56581555,12.4089176 5.570751,12.4398715 C5.60512896,12.6558684 5.53977679,12.877818 5.39562761,13.0404109 L5.39562761,13.0404109 L4.50401301,14.3370725 C4.49244024,14.35374 4.47950595,14.369217 4.46521017,14.3835034 L4.46521017,14.3835034 L5.32376726,15.2316181 C5.33789286,15.2173317 5.36682481,15.2040657 5.38333304,15.1926706 L5.38333304,15.1926706 L6.67148553,14.2943276 C6.73496563,14.2359915 6.80882719,14.1895606 6.89136834,14.1562257 C6.98752452,14.1172782 7.0893845,14.1401107 7.18460215,14.1807167 C7.53557595,14.3303911 8.18293686,14.679309 8.52178104,14.7961514 C8.55360618,14.8072064 8.58338907,14.8228534 8.61027876,14.8429224 C8.78863572,14.975752 8.89585412,15.174231 8.9074269,15.3910783 L8.9074269,15.3910783 L9.1938532,16.9360513 C9.19725696,16.9549298 9.19912902,16.9739783 9.19929921,16.9930269 L9.19929921,16.9930269 L9.80828924,17 L10.4264118,16.9981292 C10.4264118,16.9787405 10.4379846,16.948637 10.4413884,16.9294183 L10.4413884,16.9294183 L10.7163719,15.3067268 C10.7204564,15.22475 10.7391771,15.1432835 10.7733849,15.0582453 C10.8126983,14.9607916 10.900275,14.8997387 10.9990541,14.863508 C11.4103166,14.7126628 12.0146828,14.5173341 12.3638026,14.3670179 C12.3940012,14.3540156 12.4250702,14.342867 12.4575761,14.3379348 C12.6767782,14.3052802 12.8932573,14.3688887 13.0571482,14.5139638 L13.0571482,14.5139638 L14.3528291,15.4801608 C14.3695075,15.491556 14.3849947,15.5044818 14.3992904,15.5189382 L14.3992904,15.5189382 L15.2242637,14.7211948 C15.2104785,14.7074186 15.1977144,14.6785056 15.1866522,14.6626885 L15.1866522,14.6626885 L14.257423,13.3239865 C14.1998995,13.2595275 14.1530978,13.1840137 14.1209323,13.1037377 C14.0828102,13.0083249 14.0918301,12.9003264 14.1456095,12.812567 C14.3321355,12.5083006 14.6507226,11.7820951 14.7718965,11.4399016 C14.7824481,11.4104784 14.7970843,11.3825859 14.8154646,11.3572445 C14.9446372,11.1795148 15.1478416,11.068455 15.3639803,11.0558693 L15.3639803,11.0558693 L16.9377112,10.8177941 C16.957453,10.8142225 16.977365,10.8123517 16.9974472,10.8123517 L16.9974472,10.8123517 L17,9.64696002 C16.9824706,9.64934108 16.9511561,9.63539483 16.9314143,9.63182323 L16.9314143,9.63182323 L15.3852569,9.35697994 C15.2933554,9.35289811 15.205198,9.33180865 15.1228271,9.29388164 C15.0319467,9.25221294 14.965233,9.17108655 14.9419173,9.07397299 C14.858355,8.72650713 14.5759248,7.97080793 14.4188413,7.64545198 C14.4042052,7.6151784 14.3943343,7.58269383 14.389569,7.54935888 C14.3584246,7.32876993 14.4232662,7.11311319 14.5677558,6.95273125 L14.5677558,6.95273125 L15.4573281,5.65794044 C15.4687307,5.64127296 15.481665,5.62579602 15.4957906,5.61167969 L15.4957906,5.61167969 L14.6797711,4.78206918 C14.6658157,4.79618552 14.6363732,4.80945147 14.6202053,4.8206765 L14.6202053,4.8206765 L13.3312019,5.71935962 C13.2684026,5.77616511 13.1965832,5.82174555 13.1174459,5.85525058 C13.0204387,5.89640904 12.9094762,5.88807531 12.8197872,5.83280051 C12.5142998,5.64503629 11.8135878,5.32579328 11.4718504,5.20622965 C11.4425781,5.19602507 11.4148375,5.18156859 11.3894795,5.16337043 C11.2112927,5.03564313 11.0998196,4.83172166 11.0870555,4.6133437 L11.0870555,4.6133437 L10.8011398,3.06666991 C10.797736,3.04830167 10.7958639,3.02976335 10.7956937,3.01105496 C10.7956937,3.00561252 10.7910987,3 10.7834402,3 L10.7834402,3 Z M10.001117,7 C10.7992636,7 11.5499475,7.30860572 12.1146556,7.86889742 C13.2888222,9.03613952 13.29599,10.9392727 12.1307347,12.1115485 C11.5656392,12.6840373 10.8089498,13 10.0009233,13 C9.20568259,13 8.45461118,12.6913943 7.88622235,12.1312962 C6.71166832,10.9659901 6.7037256,9.06305056 7.86781848,7.88825788 C8.43717594,7.31538189 9.19464027,7 10.001117,7 Z M10.0010848,8 C9.46325243,8 8.95818749,8.21036389 8.57835945,8.59234495 C7.80257696,9.37516609 7.80789524,10.6440358 8.59036846,11.4205135 C8.96916717,11.7939222 9.47045784,12 10.0009133,12 C10.5392603,12 11.0432959,11.7898076 11.4200359,11.4079979 C12.197534,10.6256911 12.1925588,9.35699284 11.4095709,8.57880074 C11.0336887,8.20556341 10.5332558,8 10.0010848,8 Z" id="Combined-Shape" fill="#000000"></path>
    </g>
</svg>