<?xml version="1.0" encoding="UTF-8"?>
<svg width="20px" height="20px" viewBox="0 0 20 20" version="1.1" xmlns="http://www.w3.org/2000/svg" xmlns:xlink="http://www.w3.org/1999/xlink">
    <!-- Generator: Sketch 62 (91390) - https://sketch.com -->
    <title>02 - icon/icon-23</title>
    <desc>Created with Sketch.</desc>
    <g id="02---icon/icon-23" stroke="none" stroke-width="1" fill="none" fill-rule="evenodd">
        <path d="M14.5,2 C14.776,2 15,2.224 15,2.5 L15,2.5 L15,3 L16.5,3 C17.327,3 18,3.673 18,4.5 L18,4.5 L18,16.5 C18,17.327 17.327,18 16.5,18 L16.5,18 L3.5,18 C2.673,18 2,17.327 2,16.5 L2,16.5 L2,4.5 C2,3.673 2.673,3 3.5,3 L3.5,3 L5,3 L5,2.5 C5,2.224 5.224,2 5.5,2 C5.776,2 6,2.224 6,2.5 L6,2.5 L6,3 L14,3 L14,2.5 C14,2.224 14.224,2 14.5,2 Z M17,8 L3,8 L3,16.5 C3,16.776 3.224,17 3.5,17 L3.5,17 L16.5,17 C16.776,17 17,16.776 17,16.5 L17,16.5 L17,8 Z M6.5,14.146845 C6.776,14.146845 7,14.370845 7,14.646845 C7,14.922845 6.776,15.146845 6.5,15.146845 L4.5,15.146845 C4.224,15.146845 4,14.922845 4,14.646845 C4,14.370845 4.224,14.146845 4.5,14.146845 L6.5,14.146845 Z M15.5579007,14.146845 C15.8339007,14.146845 16.0579007,14.370845 16.0579007,14.646845 C16.0579007,14.922845 15.8339007,15.146845 15.5579007,15.146845 L13.5579007,15.146845 C13.2819007,15.146845 13.0579007,14.922845 13.0579007,14.646845 C13.0579007,14.370845 13.2819007,14.146845 13.5579007,14.146845 L15.5579007,14.146845 Z M11.0289504,14.146845 C11.3049504,14.146845 11.5289504,14.370845 11.5289504,14.646845 C11.5289504,14.922845 11.3049504,15.146845 11.0289504,15.146845 L9.02895036,15.146845 C8.75295036,15.146845 8.52895036,14.922845 8.52895036,14.646845 C8.52895036,14.370845 8.75295036,14.146845 9.02895036,14.146845 L11.0289504,14.146845 Z M4.15093758,9.79802367 C4.35221345,9.59654665 4.6785009,9.59654665 4.87972524,9.79802367 L4.87972524,9.79802367 L5.54595559,10.4650906 L6.21218593,9.79797207 C6.4134618,9.59649506 6.73974925,9.59644346 6.94097359,9.79797207 C7.14219793,9.99950068 7.14219793,10.3261979 6.94097359,10.5276749 L6.94097359,10.5276749 L6.27474325,11.1947418 L6.94097359,11.8618087 C7.14219793,12.0633373 7.14219793,12.3900345 6.94097359,12.5915115 C6.74242881,12.7903056 6.40557772,12.7851461 6.21218593,12.5915115 C6.21105227,12.5903764 5.54595559,11.9244446 5.54595559,11.9244446 L5.54595559,11.9244446 L4.87977677,12.5915115 C4.68112893,12.7904088 4.34443243,12.7851977 4.15098911,12.5915115 C3.94971324,12.3899829 3.94976477,12.0632857 4.15093758,11.8618087 L4.15093758,11.8618087 L4.81716792,11.1947418 L4.15093758,10.5277265 C3.94971324,10.3261979 3.94966171,9.99950068 4.15093758,9.79802367 Z M8.65093758,9.79802367 C8.85221345,9.59654665 9.1785009,9.59654665 9.37972524,9.79802367 L9.37972524,9.79802367 L10.0459556,10.4650906 L10.7121859,9.79797207 C10.9134618,9.59649506 11.2397493,9.59644346 11.4409736,9.79797207 C11.6421979,9.99950068 11.6421979,10.3261979 11.4409736,10.5276749 L11.4409736,10.5276749 L10.7747433,11.1947418 L11.4409736,11.8618087 C11.6421979,12.0633373 11.6421979,12.3900345 11.4409736,12.5915115 C11.2424288,12.7903056 10.9055777,12.7851461 10.7121859,12.5915115 C10.7110523,12.5903764 10.0459556,11.9244446 10.0459556,11.9244446 L10.0459556,11.9244446 L9.37977677,12.5915115 C9.18112893,12.7904088 8.84443243,12.7851977 8.65098911,12.5915115 C8.44971324,12.3899829 8.44976477,12.0632857 8.65093758,11.8618087 L8.65093758,11.8618087 L9.31716792,11.1947418 L8.65093758,10.5277265 C8.44971324,10.3261979 8.44966171,9.99950068 8.65093758,9.79802367 Z M15.5579007,10.646845 C15.8339007,10.646845 16.0579007,10.870845 16.0579007,11.146845 C16.0579007,11.422845 15.8339007,11.646845 15.5579007,11.646845 L13.5579007,11.646845 C13.2819007,11.646845 13.0579007,11.422845 13.0579007,11.146845 C13.0579007,10.870845 13.2819007,10.646845 13.5579007,10.646845 L15.5579007,10.646845 Z M5,4 L3.5,4 C3.224,4 3,4.224 3,4.5 L3,4.5 L3,7 L17,7 L17,4.5 C17,4.224 16.776,4 16.5,4 L16.5,4 L15,4 L15,4.5 C15,4.776 14.776,5 14.5,5 C14.224,5 14,4.776 14,4.5 L14,4.5 L14,4 L6,4 L6,4.5 C6,4.776 5.776,5 5.5,5 C5.224,5 5,4.776 5,4.5 L5,4.5 L5,4 Z" id="Shape" fill="#2F9988"></path>
    </g>
</svg>