<?xml version="1.0" encoding="UTF-8"?>
<svg width="20px" height="20px" viewBox="0 0 20 20" version="1.1" xmlns="http://www.w3.org/2000/svg" xmlns:xlink="http://www.w3.org/1999/xlink">
    <!-- Generator: Sketch 62 (91390) - https://sketch.com -->
    <title>02 - icon/icon-20</title>
    <desc>Created with Sketch.</desc>
    <g id="02---icon/icon-20" stroke="none" stroke-width="1" fill="none" fill-rule="evenodd">
        <path d="M16.5,4 C17.327,4 18,4.673 18,5.5 L18,5.5 L18,14.5 C18,15.327 17.327,16 16.5,16 L16.5,16 L3.5,16 C2.673,16 2,15.327 2,14.5 L2,14.5 L2,5.5 C2,4.673 2.673,4 3.5,4 L3.5,4 Z M3.50164208,4.99896424 C3.50109561,4.99896409 3.50054914,4.99896484 3.50000268,4.99896648 L3.41015169,5.00729253 C3.17703092,5.0503301 3.0007708,5.25500983 3.00150933,5.50046861 L3.00150933,5.50046861 L3.02859714,14.5033578 C3.02859714,14.7793578 3.25259714,15.0033578 3.52859714,15.0033578 L3.52859714,15.0033578 L16.5321967,15.0033578 C16.8081967,15.0033578 17.0321967,14.7793578 17.0321967,14.5033578 L17.0321967,14.5033578 L17.0016882,5.50078029 C17.0007549,5.22535367 16.7772543,5.0025491 16.5018261,5.00247473 L16.5018261,5.00247473 Z M8.5,12 C8.77614237,12 9,12.2238576 9,12.5 C9,12.7761424 8.77614237,13 8.5,13 L4.5,13 C4.22385763,13 4,12.7761424 4,12.5 C4,12.2238576 4.22385763,12 4.5,12 L8.5,12 Z M10.5,10 C10.7761424,10 11,10.2238576 11,10.5 C11,10.7761424 10.7761424,11 10.5,11 L4.5,11 C4.22385763,11 4,10.7761424 4,10.5 C4,10.2238576 4.22385763,10 4.5,10 L10.5,10 Z M15,6 C15.5522847,6 16,6.44771525 16,7 L16,9 C16,9.55228475 15.5522847,10 15,10 L13,10 C12.4477153,10 12,9.55228475 12,9 L12,7 C12,6.44771525 12.4477153,6 13,6 L15,6 Z M15,7 L13,7 L13,9 L15,9 L15,7 Z" id="Shape" fill="#2F9988"></path>
    </g>
</svg>