<?xml version="1.0" encoding="UTF-8"?>
<svg width="20px" height="20px" viewBox="0 0 20 20" version="1.1" xmlns="http://www.w3.org/2000/svg" xmlns:xlink="http://www.w3.org/1999/xlink">
    <!-- Generator: Sketch 62 (91390) - https://sketch.com -->
    <title>02 - icon/icon-6</title>
    <desc>Created with Sketch.</desc>
    <g id="02---icon/icon-6" stroke="none" stroke-width="1" fill="none" fill-rule="evenodd">
        <path d="M10.0014893,2 C11.0656847,2 12.0665967,2.4114743 12.8195408,3.1585299 C14.3850962,4.7148527 14.3946533,7.25236359 12.8409797,8.81539802 C12.650456,9.00841436 12.4435981,9.17956078 12.2234298,9.32755598 C13.2325913,9.63536216 14.1585316,10.1552114 14.9341229,10.861923 C16.1235101,11.9477824 16.7997012,13.3308396 16.9616606,14.7539325 C16.965624,14.7887575 17.0019974,15.6278979 17,15.740642 C15.8236268,16.6921326 13.2099609,18 9.99995694,18 C6.78995296,18 4.26020214,16.7122092 3,15.7429191 C3.01636481,15.0815098 3.03771314,14.7589619 3.04110475,14.7304947 C3.20598134,13.3334614 3.86691864,11.9766409 5.02489734,10.9034097 C5.8124927,10.1756335 6.75435285,9.64178888 7.78285143,9.32772296 C7.56949446,9.18907242 7.36818241,9.02555972 7.1816298,8.84172824 C5.61555776,7.28798683 5.60496747,4.75073408 7.15709131,3.18434384 C7.91623459,2.42050918 8.92618703,2 10.0014893,2 Z M8.53628969,10.1661388 C7.48512764,10.4101547 6.52158014,10.9176422 5.73688634,11.6532251 C4.7454528,12.5853904 4.0463429,13.84475 4,15.2214911 C5.98011891,16.5752698 8.4252071,17 10.0138846,17 C11.6281047,17 14.0663277,16.5651016 16,15.2291273 C15.8613343,13.9930862 15.2392519,12.5603251 14.2209272,11.6171914 C13.4654795,10.918878 12.5434299,10.4306223 11.53787,10.1842358 L11.3031915,10.9501842 L11.9758859,14.5628254 C12.0595699,14.9941906 11.9216294,15.4352873 11.6136625,15.7427206 L11.5047804,15.8400512 L10.7840162,16.3950957 C10.333922,16.7539384 9.70815856,16.7748621 9.23801659,16.4615867 L9.12391493,16.3763076 L8.467166,15.8276297 C8.13635482,15.5490056 7.96631974,15.1277647 8.00555859,14.7026571 L8.02645562,14.5610017 L8.77666426,11.0184147 Z M10.4159511,11.451 L9.64895109,11.451 L8.96819886,14.7630948 C8.94743592,14.8631589 8.97180845,14.9658946 9.03196592,15.044924 L9.0836476,15.0993391 L9.74029396,15.6479306 C9.84611214,15.7368939 9.99197012,15.7534083 10.1128875,15.6964954 L10.1819253,15.6535285 L10.9049426,15.0801015 C10.984772,15.0170837 11.032076,14.9232857 11.0373118,14.8255191 L11.0332016,14.7518689 L10.4159511,11.451 Z M10.6012984,9.99596028 L9.47929844,9.99596028 L9.62395109,10.478 L10.4519511,10.478 L10.6012984,9.99596028 Z M10.0016272,3 C9.19487864,3 8.43728124,3.31554584 7.86753917,3.88851742 C6.70386544,5.06274913 6.71184286,6.96605375 7.8855527,8.13077022 C8.45375075,8.69088337 9.20568676,9 10.0013699,9 C10.8088905,9 11.5649439,8.68471133 12.1300539,8.11199691 C13.296301,6.93853671 13.2888383,5.03548926 12.1143564,3.86820111 C11.5505331,3.30834512 10.7998837,3 10.0016272,3 Z" id="Combined-Shape" fill="#2F9988"></path>
    </g>
</svg>