<?xml version="1.0" encoding="UTF-8"?>
<svg width="20px" height="20px" viewBox="0 0 20 20" version="1.1" xmlns="http://www.w3.org/2000/svg" xmlns:xlink="http://www.w3.org/1999/xlink">
    <!-- Generator: Sketch 62 (91390) - https://sketch.com -->
    <title>02 - icon/in-evidenza</title>
    <desc>Created with Sketch.</desc>
    <g id="02---icon/in-evidenza" stroke="none" stroke-width="1" fill="none" fill-rule="evenodd">
        <path d="M7.33530225,7.13769139 L2.42041852,7.86420042 L2.33804391,7.88322034 C1.99777434,7.9918742 1.87871466,8.42863436 2.14771887,8.68890011 L5.68972067,12.1146788 L4.87432373,16.9347129 L4.86730776,17.0121549 C4.86333202,17.3666038 5.25151111,17.6162482 5.58826066,17.4444053 L10,15.192578 L14.4117393,17.4444053 L14.4845255,17.4748929 C14.8263589,17.588139 15.1879373,17.3025181 15.1256763,16.9347129 L14.3092928,12.1146788 L17.8522811,8.68890011 L17.9075463,8.62593542 C18.1178356,8.34150249 17.952896,7.91939059 17.5795815,7.86420042 L12.6637112,7.13769139 L10.4412373,2.76800787 C10.2594767,2.41066404 9.74052331,2.41066404 9.55876271,2.76800787 L7.33530225,7.13769139 Z M10,4.06851686 L11.8957779,7.79601309 L11.9463592,7.87527586 C12.0233353,7.97338233 12.1365771,8.03984377 12.263626,8.05862645 L16.4560467,8.67809515 L13.4352811,11.6019522 L13.3741952,11.6737155 C13.3030274,11.7759686 13.2736947,11.9023343 13.2947757,12.0268695 L13.990634,16.1367903 L10.2273426,14.2167653 L10.1390081,14.1818547 C10.0180479,14.1469441 9.88667746,14.158581 9.7726574,14.2167653 L6.00837945,16.1367903 L6.70522432,12.0268695 L6.71171653,11.9335303 C6.70812683,11.8097013 6.65626811,11.6905275 6.56471886,11.6019522 L3.54296676,8.67809515 L7.73637404,8.05862645 C7.89518507,8.0351481 8.0324227,7.93717168 8.1042221,7.79601309 L10,4.06851686 Z" id="Star" fill="#2F9988"></path>
    </g>
</svg>