<?xml version="1.0" encoding="UTF-8"?>
<svg width="20px" height="20px" viewBox="0 0 20 20" version="1.1" xmlns="http://www.w3.org/2000/svg" xmlns:xlink="http://www.w3.org/1999/xlink">
    <!-- Generator: Sketch 60.1 (88133) - https://sketch.com -->
    <title>02 - icon/locker</title>
    <desc>Created with Sketch.</desc>
    <g id="02---icon/locker" stroke="none" stroke-width="1" fill="none" fill-rule="evenodd">
        <path d="M10.0553526,2.02490877 C12.9212548,2.02490877 14.0015851,4.00288818 14.0015851,5 L14.0015851,5 L14.0015851,8.00763626 L14.9333333,8.00763626 C15.5200521,8.00763626 16,8.48440263 16,9.06723206 L16,9.06723206 L16,16.9404042 C16,17.5232336 15.5200521,18 14.9333333,18 L14.9333333,18 L5.06666667,18 C4.47994792,18 4,17.5232336 4,16.9404042 L4,16.9404042 L4,9.06723206 C4,8.48440263 4.47994792,8.00763626 5.06666667,8.00763626 L5.06666667,8.00763626 L6.00426989,8.00763626 L6.00426989,4.99667557 C6.00426989,3.99987166 7.1894503,2.02490877 10.0553526,2.02490877 Z M15,9 L5,9 L5,17 L15,17 L15,9 Z M10,10.0249088 C11.102768,10.0249088 12,10.9178531 12,12.0153873 C12,12.5817783 11.7635498,13.1071842 11.3535309,13.4803531 L11.3535309,13.4803531 L11.7588043,15.0798251 C11.7608795,15.0881259 11.7626953,15.0963046 11.7644043,15.1047275 C11.8106689,15.3367984 11.7543945,15.5709293 11.6099701,15.7471988 C11.4651032,15.9237125 11.2457275,16.0250308 11.0079193,16.0250308 L11.0079193,16.0250308 L8.9920807,16.0250308 C8.7535553,16.0250308 8.53370667,15.9232242 8.38893127,15.7461002 C8.24450682,15.5695865 8.18884277,15.3352115 8.23594665,15.1031558 L8.23594665,15.1031558 L8.64660645,13.4804752 C8.2364502,13.1073062 8,12.5819003 8,12.0153873 C8,10.9178531 8.89723205,10.0249088 10,10.0249088 Z M10,11.0249088 C9.44859315,11.0249088 9,11.4691074 9,12.0152652 C9,12.3595035 9.1772461,12.6740787 9.47424315,12.8565585 C9.66052245,12.9711826 9.7508545,13.1934879 9.69714355,13.4052799 L9.69714355,13.4052799 L9.28674315,15.0249088 L10.7132568,15.0249088 L10.3028564,13.4052799 C10.2491455,13.1934879 10.3394775,12.9711826 10.5257568,12.8565585 C10.8227539,12.6740787 11,12.3595035 11,12.0152652 C11,11.4691074 10.5514068,11.0249088 10,11.0249088 Z M10.0072962,3 C7.66157876,3 7,4.61235216 7,5.36506483 L7,5.36506483 L7,8 L13,8 L13,5.36506483 C13,4.61235216 12.3530136,3 10.0072962,3 Z" id="Shape" fill="#000000" fill-rule="nonzero"></path>
    </g>
</svg>