<?xml version="1.0" encoding="UTF-8"?>
<svg width="20px" height="20px" viewBox="0 0 20 20" version="1.1" xmlns="http://www.w3.org/2000/svg" xmlns:xlink="http://www.w3.org/1999/xlink">
    <!-- Generator: Sketch 60.1 (88133) - https://sketch.com -->
    <title>02 - icon/logout</title>
    <desc>Created with Sketch.</desc>
    <g id="02---icon/logout" stroke="none" stroke-width="1" fill="none" fill-rule="evenodd">
        <path d="M17.0137339,2.02452113 C17.5660187,2.02452113 18.0137339,2.47223638 18.0137339,3.02452113 L18.0137339,17.0786444 C18.0137339,17.6309291 17.5660187,18.0786444 17.0137339,18.0786444 L10.0322862,18.0786444 C9.48000145,18.0786444 9.0322862,17.6309291 9.0322862,17.0786444 L9.0322862,15.9848625 C9.0322862,15.7087201 9.25614383,15.4848625 9.5322862,15.4848625 C9.80842858,15.4848625 10.0322862,15.7087201 10.0322862,15.9848625 L10.0322862,17.078 L17.0132862,17.078 L17.0132862,3.024 L10.0322862,3.024 L10.0322862,4.22433198 C10.0322862,4.50047435 9.80842858,4.72433198 9.5322862,4.72433198 C9.25614383,4.72433198 9.0322862,4.50047435 9.0322862,4.22433198 L9.0322862,3.02452113 C9.0322862,2.47223638 9.48000145,2.02452113 10.0322862,2.02452113 L17.0137339,2.02452113 Z M10.1040863,7.23618577 L12.9479222,10.0763377 C13.1431844,10.2715999 13.1431844,10.5881824 12.9479222,10.7834445 L12.9034756,10.8195211 L10.100141,13.6197846 C9.92657465,13.7933509 9.65715025,13.8126361 9.46228211,13.67764 L9.39303423,13.6197846 C9.19777208,13.4245224 9.19777208,13.1079399 9.39303423,12.9126778 L9.39303423,12.9126778 L11.3334756,10.9745211 L2.80147562,10.9751799 C2.52533324,10.9751799 2.30147562,10.7513223 2.30147562,10.4751799 C2.30147562,10.1990376 2.52533324,9.97517995 2.80147562,9.97517995 L11.4314756,9.97452113 L9.39697953,7.94329255 C9.20171738,7.7480304 9.20171738,7.43144791 9.39697953,7.23618577 C9.59224167,7.04092362 9.90882416,7.04092362 10.1040863,7.23618577 Z" id="logout" fill="#000000"></path>
    </g>
</svg>