<?xml version="1.0" encoding="UTF-8"?>
<svg width="20px" height="20px" viewBox="0 0 20 20" version="1.1" xmlns="http://www.w3.org/2000/svg" xmlns:xlink="http://www.w3.org/1999/xlink">
    <!-- Generator: Sketch 62 (91390) - https://sketch.com -->
    <title>02 - icon/menu</title>
    <desc>Created with Sketch.</desc>
    <g id="02---icon/menu" stroke="none" stroke-width="1" fill="none" fill-rule="evenodd">
        <path d="M16.5,15 C16.7761424,15 17,15.2238576 17,15.5 C17,15.7761424 16.7761424,16 16.5,16 L3.5,16 C3.22385763,16 3,15.7761424 3,15.5 C3,15.2238576 3.22385763,15 3.5,15 L16.5,15 Z M16.5,9.5 C16.7761424,9.5 17,9.72385763 17,10 C17,10.2761424 16.7761424,10.5 16.5,10.5 L3.5,10.5 C3.22385763,10.5 3,10.2761424 3,10 C3,9.72385763 3.22385763,9.5 3.5,9.5 L16.5,9.5 Z M16.5,4 C16.7761424,4 17,4.22385763 17,4.5 C17,4.77614237 16.7761424,5 16.5,5 L3.5,5 C3.22385763,5 3,4.77614237 3,4.5 C3,4.22385763 3.22385763,4 3.5,4 L16.5,4 Z" id="Combined-Shape" fill="#2F9988"></path>
    </g>
</svg>