<?xml version="1.0" encoding="UTF-8"?>
<svg width="20px" height="20px" viewBox="0 0 20 20" version="1.1" xmlns="http://www.w3.org/2000/svg" xmlns:xlink="http://www.w3.org/1999/xlink">
    <!-- Generator: Sketch 60.1 (88133) - https://sketch.com -->
    <title>02 - icon/modifica</title>
    <desc>Created with Sketch.</desc>
    <g id="02---icon/modifica" stroke="none" stroke-width="1" fill="none" fill-rule="evenodd">
        <path d="M19.1982163,9.65908196 C19.4743586,9.65908196 19.6982163,9.88293958 19.6982163,10.159082 L19.6982163,13.159082 C19.6982163,13.4352243 19.4743586,13.659082 19.1982163,13.659082 L6.84960407,13.659082 C6.75089158,13.659082 6.65438773,13.6298629 6.57225397,13.5751071 L4.32225397,12.0751071 C4.09248963,11.9219309 4.0304027,11.6114962 4.18357893,11.3817319 C4.22019635,11.3268057 4.26732783,11.2796742 4.32225397,11.2430568 L6.57225397,9.74305681 C6.65438773,9.68830097 6.75089158,9.65908196 6.84960407,9.65908196 L19.1982163,9.65908196 Z M6.69887729,10.659082 L5.1407526,11.659082 L6.69887729,12.659082 L6.69887729,10.659082 Z M16.6982163,10.659082 L7.69821625,10.659082 L7.69821625,12.659082 L16.6982163,12.659082 L16.6982163,10.659082 Z M18.6982163,10.659082 L17.6982163,10.659082 L17.6982163,12.659082 L18.6982163,12.659082 L18.6982163,10.659082 Z M1.32512112,8.39210551 L3.89627156,11.4562833 C4.07377246,11.6678206 4.04618048,11.9831984 3.83464315,12.1606993 C3.62310581,12.3382002 3.30772802,12.3106082 3.13022712,12.0990709 L0.559076681,9.03489312 C0.381575784,8.82335578 0.409167766,8.50797799 0.620705098,8.33047709 C0.83224243,8.15297619 1.14762023,8.18056818 1.32512112,8.39210551 Z" id="Combined-Shape" fill="#000000" transform="translate(10.070152, 10.936285) rotate(-50.000000) translate(-10.070152, -10.936285) "></path>
    </g>
</svg>