<?xml version="1.0" encoding="UTF-8"?>
<svg width="20px" height="20px" viewBox="0 0 20 20" version="1.1" xmlns="http://www.w3.org/2000/svg" xmlns:xlink="http://www.w3.org/1999/xlink">
    <!-- Generator: Sketch 62 (91390) - https://sketch.com -->
    <title>02 - icon/more</title>
    <desc>Created with Sketch.</desc>
    <g id="02---icon/more" stroke="none" stroke-width="1" fill="none" fill-rule="evenodd">
        <path d="M9.5,14 C10.3284271,14 11,14.6715729 11,15.5 C11,16.3284271 10.3284271,17 9.5,17 C8.67157288,17 8,16.3284271 8,15.5 C8,14.6715729 8.67157288,14 9.5,14 Z M9.5,9 C10.3284271,9 11,9.67157288 11,10.5 C11,11.3284271 10.3284271,12 9.5,12 C8.67157288,12 8,11.3284271 8,10.5 C8,9.67157288 8.67157288,9 9.5,9 Z M9.5,4 C10.3284271,4 11,4.67157288 11,5.5 C11,6.32842712 10.3284271,7 9.5,7 C8.67157288,7 8,6.32842712 8,5.5 C8,4.67157288 8.67157288,4 9.5,4 Z" id="Combined-Shape" fill="#2F9988"></path>
    </g>
</svg>