<?xml version="1.0" encoding="UTF-8"?>
<svg width="20px" height="20px" viewBox="0 0 20 20" version="1.1" xmlns="http://www.w3.org/2000/svg" xmlns:xlink="http://www.w3.org/1999/xlink">
    <!-- Generator: Sketch 62 (91390) - https://sketch.com -->
    <title>02 - icon/move</title>
    <desc>Created with Sketch.</desc>
    <g id="02---icon/move" stroke="none" stroke-width="1" fill="none" fill-rule="evenodd">
        <path d="M9.22845136,2.29322335 C9.65396258,1.90367866 10.3234926,1.90208651 10.7517705,2.28950834 L10.7517705,2.28950834 L12.327656,3.71660054 C12.5478815,3.91614932 12.5583948,4.24890752 12.3514492,4.46066275 C12.1428435,4.67454082 11.7920319,4.68409369 11.571253,4.48136062 L11.571253,4.48136062 L11.0323091,3.98885725 C10.9367251,3.90121608 10.56,3.6 10.56,3.6 C10.56,3.6 10.5626689,3.86650116 10.5640034,4.04475124 L10.564,9.458 L15.8781561,9.45800875 C15.9655732,9.45781834 16.1234831,9.45730153 16.2427782,9.45689351 L16.4,9.45634269 C16.4,9.45634269 16.11785,9.09999586 16.0212263,8.9921792 L16.0212263,8.9921792 L15.5133322,8.42722868 C15.3137834,8.20478979 15.3254592,7.85563819 15.5414601,7.64647923 C15.7526846,7.44230024 16.0822585,7.45281353 16.2812766,7.67027244 L16.2812766,7.67027244 L17.7067767,9.22845136 C18.0963213,9.65396258 18.0979135,10.3234926 17.7104917,10.7517705 L17.7104917,10.7517705 L16.2833995,12.327656 C16.0838507,12.5478815 15.7510925,12.5583948 15.5393373,12.3514492 C15.3254592,12.1428435 15.3159063,11.7920319 15.5186394,11.571253 L15.5186394,11.571253 L16.0111427,11.0323091 C16.0987839,10.9367251 16.4,10.56 16.4,10.56 C16.4,10.56 16.1334988,10.5626689 15.9552488,10.5640034 L10.564,10.564 L10.5640034,15.9552488 C10.5626689,16.1334988 10.56,16.4 10.56,16.4 C10.56,16.4 10.9367251,16.0987839 11.0323091,16.0111427 L11.571253,15.5186394 C11.7920319,15.3159063 12.1428435,15.3254592 12.3514492,15.5393373 C12.5583948,15.7510925 12.5478815,16.0838507 12.327656,16.2833995 L10.7517705,17.7104917 C10.3234926,18.0979135 9.65396258,18.0963213 9.22845136,17.7067767 L7.67027244,16.2812766 C7.45281353,16.0822585 7.44230024,15.7526846 7.64647923,15.5414601 C7.85563819,15.3254592 8.20478979,15.3137834 8.42722868,15.5133322 L8.9921792,16.0212263 C9.09999586,16.11785 9.45634269,16.4 9.45634269,16.4 L9.45689351,16.2427782 C9.45730153,16.1234831 9.45781834,15.9655732 9.45800875,15.8781561 L9.458,10.564 L4.04475124,10.5640034 C3.86650116,10.5626689 3.6,10.56 3.6,10.56 C3.6,10.56 3.90121608,10.9367251 3.98885725,11.0323091 L4.48136062,11.571253 C4.68409369,11.7920319 4.67454082,12.1428435 4.46066275,12.3514492 C4.24890752,12.5583948 3.91614932,12.5478815 3.71660054,12.327656 L2.28950834,10.7517705 C1.90208651,10.3234926 1.90367866,9.65396258 2.29322335,9.22845136 L3.7187234,7.67027244 C3.91774147,7.45281353 4.24731538,7.44230024 4.45853989,7.64647923 C4.67454082,7.85563819 4.68621655,8.20478979 4.48666777,8.42722868 L3.97877367,8.9921792 C3.88214999,9.09999586 3.6,9.45634269 3.6,9.45634269 L3.75722183,9.45689351 C3.87651692,9.45730153 4.03442677,9.45781834 4.12184392,9.45800875 L9.458,9.458 L9.45800875,4.12184392 C9.45781834,4.03442677 9.45730153,3.87651692 9.45689351,3.75722183 L9.45634269,3.6 C9.45634269,3.6 9.09999586,3.88214999 8.9921792,3.97877367 L8.9921792,3.97877367 L8.42722868,4.48666777 C8.20478979,4.68621655 7.85563819,4.67454082 7.64647923,4.45853989 C7.44230024,4.24731538 7.45281353,3.91774147 7.67027244,3.7187234 L7.67027244,3.7187234 Z" id="Combined-Shape" fill="#2F9988"></path>
    </g>
</svg>