<?xml version="1.0" encoding="UTF-8"?>
<svg width="20px" height="20px" viewBox="0 0 20 20" version="1.1" xmlns="http://www.w3.org/2000/svg" xmlns:xlink="http://www.w3.org/1999/xlink">
    <!-- Generator: Sketch 62 (91390) - https://sketch.com -->
    <title>02 - icon/no-notifiche</title>
    <desc>Created with Sketch.</desc>
    <g id="02---icon/no-notifiche" stroke="none" stroke-width="1" fill="none" fill-rule="evenodd">
        <path d="M18.8930785,6.58343306 C19.0516314,6.77081377 19.0484755,7.04090906 18.8977628,7.22389326 L18.8343565,7.28809732 L6.31053949,16.3183963 C6.09973618,16.4967683 5.78424725,16.4704776 5.60587522,16.2596743 C5.44732231,16.0722935 5.45047826,15.8021983 5.60119092,15.6192141 L5.66459724,15.55501 L18.1884142,6.52471103 C18.3992176,6.34633901 18.7147065,6.37262975 18.8930785,6.58343306 Z M15.5,3 C16.327,3 17,3.673 17,4.5 L17,4.5 L17,5.594 L8.974,11.291 L2,6.30758117 L2.02859714,13.5033578 C2.02859714,13.7793578 2.25259714,14.0033578 2.52859714,14.0033578 L2.52859714,14.0033578 L5.155,14.003 L4.70813916,14.3209403 L4.60978273,14.4120107 L4.54637641,14.4762147 L4.45581228,14.5765884 C4.34717673,14.7084856 4.25789714,14.8510148 4.1880408,15.0003911 L2.5,15 C1.673,15 1,14.327 1,13.5 L1,13.5 L1,4.5 C1,3.673 1.673,3 2.5,3 L2.5,3 Z M17,10.481 L17,13.5 C17,14.327 16.327,15 15.5,15 L15.5,15 L10.635,15 L12.039,14.003 L15.5321967,14.0033578 C15.7775301,14.0033578 15.981777,13.8263701 16.0241364,13.5931959 L16.0321967,13.5033578 L16.022,11.176 L17,10.481 Z M15.4995164,4.00485229 L2.50248718,4.00485229 C2.22648718,4.00485229 2.00248718,4.22885229 2.00248718,4.50485229 L2.00248718,4.50485229 L2,5.00111753 L9,10 L16.000806,5 L15.9995164,4.50485229 C15.9995164,4.22885229 15.7755164,4.00485229 15.4995164,4.00485229 L15.4995164,4.00485229 Z" id="Shape" fill="#2F9988"></path>
    </g>
</svg>