<?xml version="1.0" encoding="UTF-8"?>
<svg width="20px" height="20px" viewBox="0 0 20 20" version="1.1" xmlns="http://www.w3.org/2000/svg" xmlns:xlink="http://www.w3.org/1999/xlink">
    <!-- Generator: Sketch 60.1 (88133) - https://sketch.com -->
    <title>02 - icon/notifiche</title>
    <desc>Created with Sketch.</desc>
    <g id="02---icon/notifiche" stroke="none" stroke-width="1" fill="none" fill-rule="evenodd">
        <path d="M16.5,4 C17.327,4 18,4.673 18,5.5 L18,5.5 L18,14.5 C18,15.327 17.327,16 16.5,16 L16.5,16 L3.5,16 C2.673,16 2,15.327 2,14.5 L2,14.5 L2,5.5 C2,4.673 2.673,4 3.5,4 L3.5,4 Z M3,7.30758117 L3.02859714,14.5033578 C3.02859714,14.7793578 3.25259714,15.0033578 3.52859714,15.0033578 L3.52859714,15.0033578 L16.5321967,15.0033578 C16.8081967,15.0033578 17.0321967,14.7793578 17.0321967,14.5033578 L17.0321967,14.5033578 L17,7.31136164 L10,12.3105503 L3,7.30758117 Z M16.4995164,5.00485229 L3.50248718,5.00485229 C3.22648718,5.00485229 3.00248718,5.22885229 3.00248718,5.50485229 L3.00248718,5.50485229 L3,6.00111753 L10,11 L17.000806,6 L16.9995164,5.50485229 C16.9995164,5.22885229 16.7755164,5.00485229 16.4995164,5.00485229 L16.4995164,5.00485229 Z" id="Shape" fill="#000000"></path>
    </g>
</svg>