<?xml version="1.0" encoding="UTF-8"?>
<svg width="20px" height="20px" viewBox="0 0 20 20" version="1.1" xmlns="http://www.w3.org/2000/svg" xmlns:xlink="http://www.w3.org/1999/xlink">
    <!-- Generator: Sketch 62 (91390) - https://sketch.com -->
    <title>02 - icon/pdf</title>
    <desc>Created with Sketch.</desc>
    <g id="02---icon/pdf" stroke="none" stroke-width="1" fill="none" fill-rule="evenodd">
        <path d="M13.5351234,2.00531092 L13.7967359,2.00531092 C13.9267163,2.00531092 14.0515879,2.05592761 14.1448823,2.146432 L17.8481464,5.73894759 C17.9452161,5.83311431 18,5.96258639 18,6.0978265 L18,16.6344086 C18,17.4195396 17.348817,18.0512485 16.5548961,18.0512485 L5.44510386,18.0512485 C4.65118299,18.0512485 4,17.4195396 4,16.6344086 L4,15.9905688 L5,15.9905688 L5,16.6334058 C5,16.8593434 5.19678734,17.0502457 5.44510386,17.0502457 L16.5548961,17.0502457 C16.8032127,17.0502457 17,16.8593434 17,16.6334058 L17,6.72275655 L15.0237389,6.72275655 C13.9069594,6.72275655 13,5.81207835 13,4.69276993 L13,3.00430807 L5.44510386,3.00430807 C5.19678734,3.00430807 5,3.19521036 5,3.42114799 L5,6.0039894 L4,6.0039894 L4,3.42215083 C4,2.63701986 4.65118299,2.00531092 5.44510386,2.00531092 L13.4720341,2.00531092 C13.4929723,2.00398273 13.5140453,2.00396489 13.5351234,2.00531092 Z M13,7 C14.1045695,7 15,7.8954305 15,9 L15,13 C15,14.1045695 14.1045695,15 13,15 L4,15 C2.8954305,15 2,14.1045695 2,13 L2,9 C2,7.8954305 2.8954305,7 4,7 L13,7 Z M13,8 L4,8 C3.44771525,8 3,8.44771525 3,9 L3,13 C3,13.5522847 3.44771525,14 4,14 L13,14 C13.5522847,14 14,13.5522847 14,13 L14,9 C14,8.44771525 13.5522847,8 13,8 Z M5.52500167,9 C5.81537679,9 6.04075468,9.0230389 6.20245356,9.07026874 C6.3672079,9.11705139 6.51068466,9.1953366 6.63171089,9.30488768 C6.75284112,9.4145329 6.84495949,9.54892135 6.90751319,9.70690198 C6.96932446,9.86300759 7,10.0373189 7,10.2292165 C7,10.6401564 6.8731711,10.9591114 6.6182972,11.1771728 C6.36742373,11.3918115 6.00206108,11.4967693 5.52500167,11.4967693 L4.94736316,11.4967693 L4.94736316,12.4527244 C4.94736316,12.6284792 4.90474912,12.7684984 4.81557529,12.8683365 C4.72601604,12.9686061 4.61016262,13.02 4.47493166,13.02 C4.33495541,13.02 4.21711316,12.9692496 4.12883685,12.8691063 C4.04161133,12.770155 4,12.6316519 4,12.4578359 L4,9.5698314 C4,9.37648455 4.04609104,9.22990193 4.14504028,9.13549591 C4.24186574,9.04311616 4.38547297,9 4.57243816,9 L5.52500167,9 Z M8.5688861,9 C8.80410114,9 9.00685894,9.02527976 9.17739457,9.07626994 C9.35247668,9.12861951 9.51138444,9.22679779 9.65284213,9.36955289 C10.0182579,9.73025187 10.2,10.2757629 10.2,10.9994809 C10.2,11.2363962 10.1820496,11.4533165 10.1460155,11.6502637 C10.1096428,11.8490611 10.0532907,12.0289282 9.9768533,12.189626 C9.90013177,12.3509211 9.80181512,12.4951902 9.68149239,12.6228475 C9.5864639,12.7212973 9.48234357,12.8004201 9.36930492,12.860016 C9.2569789,12.9192361 9.13642734,12.9608067 9.00781894,12.9847594 C8.88145893,13.0082933 8.73973885,13.02 8.58256755,13.02 L7.70011401,13.02 C7.56522537,13.02 7.46050647,12.9957468 7.38528485,12.9439072 C7.30741132,12.89024 7.25515464,12.8125125 7.23116452,12.7140163 C7.21017412,12.6278361 7.2,12.519417 7.2,12.3880002 L7.2,9.56099598 C7.2,9.37279791 7.23820985,9.23034912 7.31897134,9.13720801 C7.39973283,9.04406689 7.52324839,9 7.68643256,9 L8.5688861,9 Z M12.7588607,9 C12.9037438,9 13.0184224,9.03424052 13.0990781,9.10788264 C13.1801489,9.18190389 13.2213504,9.280429 13.2213504,9.39603998 C13.2213504,9.51320963 13.1802798,9.61261238 13.0990781,9.68675306 C13.0184224,9.76039519 12.9037438,9.79463571 12.7588607,9.79463571 L11.3684271,9.79463571 L11.3684271,10.5436767 L12.5135081,10.5436767 C12.6532704,10.5436767 12.7645402,10.5771125 12.8433928,10.6489036 C12.9230366,10.7214151 12.963219,10.8191724 12.963219,10.9346052 C12.963219,11.05059 12.9221528,11.1484241 12.8409005,11.2201173 C12.7614802,11.2901941 12.651108,11.3229779 12.5135081,11.3229779 L11.3684271,11.3229779 L11.3684271,12.4527244 C11.3684271,12.633746 11.3254177,12.7752107 11.2342377,12.8729821 C11.1433454,12.9704449 11.0247473,13.02 10.8854914,13.02 C10.7444046,13.02 10.6247608,12.9699166 10.5337929,12.8712766 C10.4429989,12.7728253 10.4,12.6319133 10.4,12.4527244 L10.4,9.5698314 C10.4,9.44652464 10.4188803,9.34268277 10.4584703,9.25829356 C10.5013673,9.16685538 10.5702128,9.09858838 10.6618151,9.05674535 C10.7458653,9.01835206 10.8485376,9 10.9698314,9 L12.7588607,9 Z M8.32090571,9.78275145 L8.05886933,9.78275145 L8.05886933,12.2346188 L8.38703272,12.2346188 C8.4974572,12.2346188 8.58354758,12.2311951 8.64476868,12.2244708 C8.70256784,12.2181223 8.76296348,12.20211 8.82599253,12.1762645 C8.88603925,12.1516419 8.93742097,12.1174547 8.98165832,12.0726402 C9.18965581,11.8697881 9.29610808,11.5121898 9.29610808,10.9942214 C9.29610808,10.6274929 9.24876113,10.3565541 9.15710666,10.1822638 C9.06611944,10.0092424 8.95697037,9.90206887 8.82894065,9.85669575 C8.69039025,9.80759414 8.52098472,9.78275145 8.32090571,9.78275145 Z M5.34498967,9.77930117 L4.94736316,9.77930117 L4.94736316,10.7149124 L5.34498967,10.7149124 C5.51038031,10.7149124 5.64663453,10.6974523 5.753263,10.6634384 C5.85089682,10.6322937 5.92211571,10.583533 5.97021794,10.5170847 C6.01781079,10.45134 6.04263618,10.3614904 6.04263618,10.244551 C6.04263618,10.1047993 6.00420253,9.99589521 5.9295618,9.91418813 C5.84724533,9.82872662 5.65161212,9.77930117 5.34498967,9.77930117 Z M14.0172355,3.46447887 L14,4.7292947 C14,5.29723228 14.4396029,5.73302009 15.0031796,5.73302009 L16.4201062,5.72434654 L14.0172355,3.46447887 Z" id="Shape" fill="#2F9988"></path>
    </g>
</svg>