<?xml version="1.0" encoding="UTF-8"?>
<svg width="20px" height="20px" viewBox="0 0 20 20" version="1.1" xmlns="http://www.w3.org/2000/svg" xmlns:xlink="http://www.w3.org/1999/xlink">
    <!-- Generator: Sketch 62 (91390) - https://sketch.com -->
    <title>02 - icon/plus</title>
    <desc>Created with Sketch.</desc>
    <g id="02---icon/plus" stroke="none" stroke-width="1" fill="none" fill-rule="evenodd">
        <path d="M10,3 C10.2761424,3 10.5,3.22385763 10.5,3.5 L10.5,10 L16.5,10 C16.7761424,10 17,10.2238576 17,10.5 C17,10.7761424 16.7761424,11 16.5,11 L10.5,11 L10.5,16.5 C10.5,16.7761424 10.2761424,17 10,17 C9.72385763,17 9.5,16.7761424 9.5,16.5 L9.5,11 L3.5,11 C3.22385763,11 3,10.7761424 3,10.5 C3,10.2238576 3.22385763,10 3.5,10 L9.5,10 L9.5,3.5 C9.5,3.22385763 9.72385763,3 10,3 Z" id="Combined-Shape" fill="#2F9988"></path>
    </g>
</svg>