<?xml version="1.0" encoding="UTF-8"?>
<svg width="59px" height="68px" viewBox="0 0 59 68" version="1.1" xmlns="http://www.w3.org/2000/svg" xmlns:xlink="http://www.w3.org/1999/xlink">
    <!-- Generator: Sketch 58 (84663) - https://sketch.com -->
    <title>icona_ratemensili</title>
    <desc>Created with Sketch.</desc>
    <defs>
        <rect id="path-1" x="0" y="0" width="63" height="71"></rect>
    </defs>
    <g id="Page-1" stroke="none" stroke-width="1" fill="none" fill-rule="evenodd" opacity="0.513058966">
        <g id="2smart" transform="translate(-1017.000000, -361.000000)">
            <g id="Group-12" transform="translate(256.000000, 231.000000)">
                <g id="Group-11">
                    <g id="Group-5" transform="translate(761.000000, 113.000000)">
                        <g id="icona_ratemensili" transform="translate(0.000000, 14.000000)">
                            <g id="Group-4">
                                <mask id="mask-2" fill="white">
                                    <use xlink:href="#path-1"></use>
                                </mask>
                                <g id="Rectangle"></g>
                                <path d="M55.8441118,8.55042857 L39.5490789,8.55042857 L39.5490789,6.24175824 C39.5490789,4.94932418 38.4353882,3.9010989 37.0622368,3.9010989 C35.6890855,3.9010989 34.5753947,4.94932418 34.5753947,6.24175824 L34.5753947,8.55042857 L20.0468487,8.55042857 L20.0468487,6.24175824 C20.0468487,4.94932418 18.9331579,3.9010989 17.5600066,3.9010989 C16.1868553,3.9010989 15.0731645,4.94932418 15.0731645,6.24175824 L15.0731645,8.55042857 L1.16218421,8.55042857 L1.16218421,6.24175824 C1.16218421,4.94932418 0.0484934211,3.9010989 -1.32465789,3.9010989 C-2.69780921,3.9010989 -3.8115,4.94932418 -3.8115,6.24175824 L-3.8115,8.55042857 L-20.7236842,8.55042857 C-22.0968355,8.55042857 -23.2105263,9.59865385 -23.2105263,10.8910879 L-23.2105263,63.7790659 C-23.2105263,65.0715 -22.0968355,66.1197253 -20.7236842,66.1197253 L-5.46027632,66.1197253 C-3.01446711,75.955956 6.37501974,83.3052363 17.5600066,83.3052363 C28.7449934,83.3052363 38.1344803,75.9555659 40.5802895,66.1197253 L55.8436974,66.1197253 C57.2168487,66.1197253 58.3305396,65.0715 58.3305396,63.7790659 L58.3305396,10.8910879 C58.3305396,9.59865385 57.2176776,8.55042857 55.8441118,8.55042857 Z M-3.8115,13.2317473 L-3.8115,15.3469231 C-3.8115,16.6393571 -2.69780921,17.6875824 -1.32465789,17.6875824 C0.0484934211,17.6875824 1.16218421,16.6393571 1.16218421,15.3469231 L1.16218421,13.2317473 L15.0731645,13.2317473 L15.0731645,15.3469231 C15.0731645,16.6393571 16.1868553,17.6875824 17.5600066,17.6875824 C18.9331579,17.6875824 20.0468487,16.6393571 20.0468487,15.3469231 L20.0468487,13.2317473 L34.5753947,13.2317473 L34.5753947,15.3469231 C34.5753947,16.6393571 35.6890855,17.6875824 37.0622368,17.6875824 C38.4353882,17.6875824 39.5490789,16.6393571 39.5490789,15.3469231 L39.5490789,13.2317473 L53.3572697,13.2317473 L53.3572697,22.8034835 L-18.2368421,22.8034835 L-18.2368421,13.2317473 L-3.8115,13.2317473 L-3.8115,13.2317473 Z M17.5600066,78.6239176 C7.26365132,78.6239176 -1.11327632,70.7394066 -1.11327632,61.0482967 C-1.11327632,51.3571868 7.26365132,43.4726758 17.5600066,43.4726758 C27.8563618,43.4726758 36.2332895,51.3567967 36.2332895,61.0482967 C36.2332895,70.7397967 27.8567763,78.6239176 17.5600066,78.6239176 Z M41.1966118,61.4384066 C41.1990987,61.3081099 41.2069737,61.1789835 41.2069737,61.0482967 C41.2069737,48.7758297 30.5989342,38.7913571 17.5600066,38.7913571 C4.52107895,38.7913571 -6.08696053,48.7758297 -6.08696053,61.0482967 C-6.08696053,61.1789835 -6.07867105,61.3081099 -6.07659868,61.4384066 L-18.2372566,61.4384066 L-18.2372566,27.4851923 L53.3568553,27.4851923 L53.3568553,61.4384066 L41.1966118,61.4384066 L41.1966118,61.4384066 Z" id="Shape" fill-opacity="0.4" fill="#676767" fill-rule="nonzero" mask="url(#mask-2)"></path>
                                <path d="M20.0468487,61.6389231 L20.0468487,50.3155934 C20.0468487,49.0231593 18.9331579,47.9749341 17.5600066,47.9749341 C16.1868553,47.9749341 15.0731645,49.0231593 15.0731645,50.3155934 L15.0731645,62.6087363 C15.0731645,63.2294011 15.3351118,63.8247088 15.8013947,64.2639725 L21.5169868,69.643978 C22.00275,70.1007967 22.6389671,70.3294011 23.2755987,70.3294011 C23.9118158,70.3294011 24.5484474,70.1007967 25.0342105,69.643978 C26.0053224,68.7299505 26.0053224,67.2479231 25.0342105,66.3338956 L20.0468487,61.6389231 Z" id="Path" fill-opacity="0.4" fill="#676767" fill-rule="nonzero" mask="url(#mask-2)"></path>
                            </g>
                        </g>
                    </g>
                </g>
            </g>
        </g>
    </g>
</svg>