<?xml version="1.0" encoding="UTF-8"?>
<svg width="20px" height="20px" viewBox="0 0 20 20" version="1.1" xmlns="http://www.w3.org/2000/svg" xmlns:xlink="http://www.w3.org/1999/xlink">
    <!-- Generator: Sketch 60.1 (88133) - https://sketch.com -->
    <title>02 - icon/reload</title>
    <desc>Created with Sketch.</desc>
    <g id="02---icon/reload" stroke="none" stroke-width="1" fill="none" fill-rule="evenodd">
        <path d="M3.81226777,7.68183486 C3.9769489,7.57574431 4.18472906,7.57387384 4.34927813,7.67000689 L4.4275504,7.72621159 L4.45417394,7.75660692 L5.60638631,9.51686169 L5.62147858,9.54217693 C5.70040991,9.67956508 5.71806815,9.71390683 5.73640876,9.78140791 C5.75513951,9.85034491 5.75637815,9.91865509 5.74078222,9.99560425 C5.66202705,10.3856313 5.18876094,10.5417996 4.8723654,10.2518996 L4.3859795,9.58900106 L4.38004559,9.64052165 L4.36477571,9.84182725 C4.15640227,12.4036681 5.69794009,14.7886943 8.1322491,15.643426 C10.7058789,16.5470859 13.5514894,15.4925803 14.9151836,13.1305834 C15.2091601,12.6158968 15.996926,12.925461 15.8618762,13.5025696 C15.8501524,13.5527279 15.8309314,13.6009048 15.8054232,13.644367 C14.1967781,16.4306151 10.8270939,17.6789297 7.79155994,16.6130898 C4.92598132,15.6069295 3.10196311,12.7917483 3.34008952,9.76717531 L3.3659795,9.56000106 L3.0590835,9.83739729 L2.77798674,10.0861635 C2.34041226,10.4504209 1.79797053,9.84856155 2.0759376,9.38369083 L2.12390139,9.31512552 L2.18604719,9.25091316 L3.81226777,7.68183486 Z M4.22188375,6.34697213 C5.83052884,3.56072397 9.20021305,2.31240936 12.2357472,3.37824941 C15.1013257,4.38440959 16.9253439,7.19959085 16.6872174,10.2241638 L16.659565,10.4310178 L17.1024059,10.0348709 L17.2493202,9.90517555 C17.6868947,9.5409182 18.2293364,10.1427776 17.9513694,10.6076483 L17.9034056,10.6762136 L17.8412598,10.7404259 L16.2150392,12.3095042 C16.0229112,12.4332765 15.7721207,12.4151938 15.573133,12.2347322 L14.4058284,10.4491622 L14.3365567,10.3250415 C14.3126613,10.2789951 14.3019026,10.2504318 14.2908982,10.2099312 C14.2721675,10.1409942 14.2709288,10.072684 14.2865248,9.99573484 C14.3652799,9.60570779 14.838546,9.44953947 15.1549416,9.7394395 L15.640565,10.4020178 L15.6472614,10.3508175 L15.6625313,10.1495119 C15.8709047,7.58767095 14.3293669,5.20264483 11.8950579,4.34791308 C9.32142808,3.44425324 6.47581755,4.49875878 5.11212335,6.86075565 C4.81814682,7.37544227 4.03038094,7.06587808 4.16543076,6.48876951 C4.17715459,6.43861125 4.19637555,6.39043434 4.22188375,6.34697213 Z" id="Combined-Shape" fill="#000000"></path>
    </g>
</svg>