<?xml version="1.0" encoding="UTF-8"?>
<svg width="20px" height="20px" viewBox="0 0 20 20" version="1.1" xmlns="http://www.w3.org/2000/svg" xmlns:xlink="http://www.w3.org/1999/xlink">
    <!-- Generator: Sketch 62 (91390) - https://sketch.com -->
    <title>02 - icon/riepilogo-distinte</title>
    <desc>Created with Sketch.</desc>
    <g id="02---icon/riepilogo-distinte" stroke="none" stroke-width="1" fill="none" fill-rule="evenodd">
        <path d="M11,2 C11.5815689,2 12,2.41654807 12,3 L12,5.00131237 L16.0032973,5 C16.5423584,5.00180054 17.0023041,5.40565491 16.9969,5.99644545 C16.9970926,6.71360747 16.9972678,7.36585145 16.9974254,7.95317738 L16.9974668,7.75608007 C16.6898543,7.55047182 16.3554815,7.38176769 16.0006792,7.25629868 L15.9999806,6 L6.99998061,6 L6.99998061,16.6188256 C6.99998061,16.6604608 7.01728567,16.700223 7.04775494,16.7285977 C7.10838039,16.7850553 7.20329502,16.7816767 7.2597527,16.7210512 L7.2597527,16.7210512 L7.77649197,16.1661657 C7.78457584,16.1574851 7.79296606,16.1490948 7.80164669,16.141011 C8.00373153,15.9528187 8.32011363,15.9640808 8.5083059,16.1661657 L8.5083059,16.1661657 L8.91891029,16.6070814 C8.92699416,16.615762 8.93538438,16.6241522 8.94406501,16.6322361 C9.14614985,16.8204284 9.46253195,16.8091662 9.65072422,16.6070814 L9.65072422,16.6070814 L10.0613286,16.1661657 C10.0694125,16.1574851 10.0778027,16.1490948 10.0864833,16.141011 C10.2885682,15.9528187 10.6049503,15.9640808 10.7931425,16.1661657 L10.7931425,16.1661657 L11.2037469,16.6070814 C11.2118308,16.615762 11.220221,16.6241522 11.2289017,16.6322361 C11.4309865,16.8204284 11.7473686,16.8091662 11.9355609,16.6070814 L11.9355609,16.6070814 L12.3461653,16.1661657 C12.3542491,16.1574851 12.3626393,16.1490948 12.37132,16.141011 C12.5734048,15.9528187 12.8897869,15.9640808 13.0779792,16.1661657 L13.0779792,16.1661657 L13.4819863,16.5999971 C13.4920942,16.6108511 13.5026799,16.62125 13.5137122,16.6311629 C13.7191168,16.815726 14.0352482,16.7988306 14.2198113,16.593426 L14.2198113,16.593426 L14.60014,16.1701492 C14.6191814,16.1489576 14.6399992,16.1294323 14.662366,16.1117863 C14.8791621,15.9407481 15.1935639,15.9778422 15.3646021,16.1946383 L15.3646021,16.1946383 L15.7322216,16.6606072 C15.7606661,16.6966616 15.8040594,16.7176992 15.8499834,16.7176996 C15.9328261,16.7177004 15.999984,16.6505438 15.9999848,16.5677011 L15.9999848,16.5677011 L16.0006792,15.7437013 C16.3562634,15.6179558 16.6913281,15.4487844 16.9995002,15.24256 L16.9990339,16.7814463 C16.9984514,17.0139197 16.9978761,16.9036991 17,17 C17.006446,17.2922718 16.786936,17.5954053 16.3414698,17.9094007 C16.1503352,18.0441723 15.8913183,18.0284168 15.7179026,17.8715001 L15.2232104,17.4238734 C15.0278179,17.2470708 14.7287468,17.2522578 14.5396028,17.4357297 L14.1000638,17.8620878 C13.9060146,18.0503178 13.5974931,18.050217 13.403567,17.8618602 L12.975923,17.4464977 C12.7819059,17.2580526 12.4732089,17.2580526 12.2791918,17.4464977 L11.8518476,17.861569 C11.6578017,18.0500422 11.3490491,18.0500102 11.1550422,17.861497 L10.7281972,17.4467388 C10.5339638,17.2580056 10.2247743,17.2582249 10.030809,17.4472336 L9.60387957,17.8632532 C9.40979007,18.052383 9.1003603,18.0524643 8.90617135,17.8634367 L8.47199691,17.4408023 C8.28099067,17.2548728 7.97771094,17.2514763 7.78258858,17.4330814 L7.31693593,17.8664756 C7.12986879,18.0404663 6.84171681,18.0455149 6.6487257,17.8781192 C6.23466964,17.5189774 6.02155983,17.231413 6.00939626,17.015426 C5.99417603,16.7451621 5.99417603,15.4050073 6.00939626,12.9949616 L2.99965337,13.0115345 C2.52322669,12.9969194 1.99998061,12.621615 1.99998061,11.982646 L1.99998061,3.00437794 C1.99998061,2.4119311 2.49718005,2 3.0043374,2 L11,2 Z M14.4931637,8 C16.4223801,8 17.9863275,9.56394737 17.9863275,11.4932047 C17.9841579,13.4215205 16.4214795,14.9841988 14.4931637,14.9863684 C12.5639474,14.9863684 11,13.4223801 11,11.4931637 C11,9.56394737 12.5639474,8 14.4931637,8 Z M9.5,13 C9.77614237,13 10,13.2238576 10,13.5 C10,13.7761424 9.77614237,14 9.5,14 L8.5,14 C8.22385763,14 8,13.7761424 8,13.5 C8,13.2238576 8.22385763,13 8.5,13 L9.5,13 Z M14.5,9 C13.1192969,9 12,10.1192969 12,11.5 C12,12.8807031 13.1192969,14 14.5,14 C15.8807031,14 17,12.8807031 17,11.5 C16.9986328,10.1198438 15.8801563,9.00136719 14.5,9 Z M15.419883,10.1 L16.0372749,10.7173918 L14.2906725,12.4639942 C14.2088012,12.5458655 14.0977836,12.5918772 13.9819766,12.5919181 C13.8662105,12.5919181 13.755152,12.5459064 13.6732807,12.4639942 L13.6732807,12.4639942 L12.8,11.5907135 L13.4174327,10.9732807 L13.9820175,11.5378655 L15.419883,10.1 Z M5.99998061,6 L4.99998061,6 L4.99998061,12 L5.99998061,12 L5.99998061,6 Z M2.99998061,3 L2.99998061,12 L3.99998061,12 C3.99346788,8.39470356 3.99346788,6.39470356 3.99998061,6 C4.00974971,5.40794467 4.41516345,5.00381796 5.00482869,5 C5.39793884,4.99745469 7.39632928,4.99745469 11,5 L11,5 L11,3.00281267 L2.99998061,3 Z M9.4,11 C9.73137085,11 10,11.2238576 10,11.5 C10,11.7761424 9.73137085,12 9.4,12 L8.6,12 C8.26862915,12 8,11.7761424 8,11.5 C8,11.2238576 8.26862915,11 8.6,11 L9.4,11 Z M9.4,9 C9.73137085,9 10,9.22385763 10,9.5 C10,9.77614237 9.73137085,10 9.4,10 L8.6,10 C8.26862915,10 8,9.77614237 8,9.5 C8,9.22385763 8.26862915,9 8.6,9 L9.4,9 Z M11.5,7 C11.7761424,7 12,7.22385763 12,7.5 C12,7.77614237 11.7761424,8 11.5,8 L8.5,8 C8.22385763,8 8,7.77614237 8,7.5 C8,7.22385763 8.22385763,7 8.5,7 L11.5,7 Z" id="documenti-adde-accr" fill="#2F9988"></path>
    </g>
</svg>