<?xml version="1.0" encoding="UTF-8"?>
<svg width="20px" height="20px" viewBox="0 0 20 20" version="1.1" xmlns="http://www.w3.org/2000/svg" xmlns:xlink="http://www.w3.org/1999/xlink">
    <!-- Generator: Sketch 62 (91390) - https://sketch.com -->
    <title>02 - icon/search</title>
    <desc>Created with Sketch.</desc>
    <g id="02---icon/search" stroke="none" stroke-width="1" fill="none" fill-rule="evenodd">
        <path d="M8,2 C11.3137085,2 14,4.6862915 14,8 C14,9.49258092 13.4549952,10.8578691 12.5531341,11.9077163 L17.866767,17.1512367 C18.0620205,17.3439016 18.064119,17.6583716 17.8714541,17.8536251 L17.866767,17.8583278 C17.6724255,18.0526693 17.3576612,18.0537195 17.1620273,17.8606792 L11.840749,12.6098206 C10.800118,13.4777827 9.4610442,14 8,14 C4.6862915,14 2,11.3137085 2,8 C2,4.6862915 4.6862915,2 8,2 Z M8,3 C5.23857625,3 3,5.23857625 3,8 C3,10.7614237 5.23857625,13 8,13 C10.7614237,13 13,10.7614237 13,8 C13,5.23857625 10.7614237,3 8,3 Z" id="Combined-Shape" fill="#2F9988"></path>
    </g>
</svg>