<?xml version="1.0" encoding="UTF-8"?>
<svg width="74px" height="72px" viewBox="0 0 74 72" version="1.1" xmlns="http://www.w3.org/2000/svg" xmlns:xlink="http://www.w3.org/1999/xlink">
    <!-- Generator: Sketch 58 (84663) - https://sketch.com -->
    <title>icona_spese</title>
    <desc>Created with Sketch.</desc>
    <defs>
        <rect id="path-1" x="0" y="0" width="74" height="78"></rect>
    </defs>
    <g id="Page-1" stroke="none" stroke-width="1" fill="none" fill-rule="evenodd">
        <g id="2smart" transform="translate(-771.000000, -260.000000)">
            <g id="Group-12" transform="translate(256.000000, 231.000000)">
                <g id="Group-11">
                    <g id="icona_spese" transform="translate(515.000000, 23.000000)">
                        <g id="hand-(1)">
                            <mask id="mask-2" fill="white">
                                <use xlink:href="#path-1"></use>
                            </mask>
                            <g id="Rectangle"></g>
                            <path d="M73.5726587,39.3768833 C72.7293719,36.8289369 70.1570361,35.1277151 67.313274,35.2345879 L66.7067083,35.2579057 C64.9274144,35.3259157 63.2537905,36.0137883 62.0002559,37.1893899 L52.6230926,45.8912705 C52.4008752,45.5730809 52.1460242,45.2704363 51.8559501,44.9881947 C50.6231353,43.7868465 48.8961583,43.0984881 47.1184185,43.0984881 L33.8915573,43.0984881 C31.3958841,43.0984881 28.9623696,42.794872 26.6573165,42.1968697 C20.6538185,40.6384689 14.9253729,41.7635488 10.0909772,45.450177 C8.05165269,47.0061489 6.58574256,48.7039702 5.68651284,49.903861 C4.66814548,49.2397918 3.45656807,48.8914834 2.19992569,48.9114007 C0.606072122,48.9371473 -0.880557722,49.543408 -1.98542923,50.620395 L-10.5348455,58.9433627 C-11.1662746,59.5578816 -11.1533249,60.5347969 -10.5048021,61.1347423 L-3.62952787,67.4946497 C-2.97634318,68.0984815 -1.92327049,68.0921661 -1.27837363,67.4791046 C-0.634512691,66.866043 -0.641246521,65.879412 -1.2949493,65.2746086 L-7.00060334,59.997032 L0.408718034,52.7831133 C0.896146225,52.3085006 1.55243878,52.0403469 2.25535059,52.0296595 C2.9649961,52.0175149 3.62336075,52.2652657 4.12840051,52.7243332 L17.3480097,64.7553037 C17.8520135,65.2143713 18.1353537,65.8293761 18.1451954,66.4881016 C18.1550373,67.1473128 17.8903447,67.7696044 17.3998087,68.2417883 L10.1189487,75.2477907 L8.24538069,73.5742587 C7.58028234,72.9801427 6.52824569,73.0044319 5.89474454,73.628181 C5.26227943,74.2519298 5.28817884,75.2385607 5.95327732,75.8317052 L9.01614902,78.5681365 C9.33833853,78.8552359 9.75065815,78.9980569 10.1624598,78.9980569 C10.595499,78.9980569 11.0275022,78.8401765 11.3533175,78.5273305 L19.7810062,70.4176227 C20.8920936,69.348894 21.4914075,67.9376863 21.4696519,66.4453524 C21.4592921,65.7628234 21.318399,65.1006974 21.0604403,64.4837495 L24.0290378,64.1597304 C25.4063719,64.0096226 26.8075334,63.9328684 28.1941911,63.9328684 L48.3196361,63.9328684 C48.6278397,63.9328684 48.9396695,63.9207238 49.2468372,63.8964344 L51.175312,63.7458409 C53.1302043,63.59379 55.014132,62.9574106 56.6245612,61.9071418 C57.4150132,61.3912372 58.1319107,60.7810903 58.7555698,60.0927319 L72.3170522,45.1295584 C73.7663867,43.5308374 74.2351673,41.3807496 73.5726587,39.3768833 L73.5726587,39.3768833 Z M69.7840837,43.1101469 L56.2220834,58.0733203 C55.7843822,58.5561914 55.2808966,58.9846546 54.7256119,59.3470507 C53.5948409,60.0849593 52.2713777,60.5313965 50.8997416,60.6387551 L48.9702309,60.7893486 C48.7552652,60.8063511 48.5356377,60.8150954 48.3196361,60.8150954 L28.1941911,60.8150954 C26.6795901,60.8150954 25.1489311,60.8981646 23.6452077,61.0618744 L18.8382654,61.586523 L8.20394153,51.969908 C8.92809087,50.9633598 10.2588058,49.3408352 12.1888346,47.8693901 C16.2094688,44.8035962 20.778654,43.9058641 25.7705185,45.2014547 C28.3640917,45.8747538 31.0964862,46.2157754 33.8915573,46.2157754 L47.1184185,46.2157754 C47.9974466,46.2157754 48.8516112,46.556797 49.4618028,47.1504272 C49.9077917,47.5847197 50.1906141,48.1171409 50.3071617,48.6753088 C50.3050897,48.8161866 50.3237373,48.9565788 50.3625866,49.0930845 C50.4066156,49.8241921 50.1730024,50.5693875 49.653977,51.1751623 L49.602696,51.2353999 C48.9826626,51.9601921 48.0580515,52.3765106 47.0666195,52.3765106 L35.5517137,52.3765106 C34.6333183,52.3765106 33.8894854,53.074099 33.8894854,53.9349114 C33.8894854,54.7962095 34.6333183,55.4942837 35.5517137,55.4942837 L47.0666195,55.4942837 C49.0717568,55.4942837 50.9411808,54.6529027 52.1962693,53.1853439 L52.2475503,53.1255922 C53.2089387,52.0024555 53.685489,50.643227 53.6901509,49.2869131 L64.3441583,39.3997151 C65.0123647,38.7735373 65.8991627,38.4087121 66.8424216,38.3727641 L67.4495051,38.3499321 C68.790062,38.2964957 70.0006033,39.1004711 70.3973832,40.3008478 C70.7211267,41.2792204 70.4916574,42.3294892 69.7840837,43.1101469 L69.7840837,43.1101469 Z" id="Shape" fill="#CBCBCB" fill-rule="nonzero" mask="url(#mask-2)"></path>
                            <path d="M2.21805535,55.3174576 C-0.264150187,55.3174576 -2.28327321,57.2115364 -2.28327321,59.5389361 C-2.28327321,61.8673073 -0.264150187,63.7613861 2.21805535,63.7613861 C4.70026089,63.7613861 6.71990173,61.8673073 6.71990173,59.5389361 C6.71990173,57.2115364 4.70026089,55.3174576 2.21805535,55.3174576 Z M2.21805535,60.6431271 C1.56901445,60.6431271 1.04066519,60.1481114 1.04066519,59.5389361 C1.04066519,58.9307323 1.56901445,58.4357166 2.21805535,58.4357166 C2.86657803,58.4357166 3.39492743,58.9307323 3.39492743,59.5389361 C3.39492743,60.1481114 2.86657803,60.6431271 2.21805535,60.6431271 Z" id="Shape" fill="#CBCBCB" fill-rule="nonzero" mask="url(#mask-2)"></path>
                            <path d="M28.4884092,52.6062873 L28.4029409,52.6252329 C27.5094091,52.8219761 26.9541244,53.661414 27.1649462,54.4993944 C27.3441705,55.2173858 28.0273986,55.7022 28.7815913,55.7022 C28.9069446,55.7022 29.035406,55.6881122 29.1628315,55.6599366 L29.2488178,55.6414768 C30.1423496,55.4447336 30.6965983,54.6052958 30.4868126,53.7673152 C30.2770269,52.9293348 29.382459,52.4105156 28.4884092,52.6062873 Z" id="Path" fill="#CBCBCB" fill-rule="nonzero" mask="url(#mask-2)"></path>
                            <path d="M2.0041256,69.1055153 L1.91813941,69.124461 C1.02460761,69.32169 0.470358814,70.1601563 0.680144516,70.9981367 C0.859886895,71.7166139 1.54259708,72.2009423 2.29678975,72.2009423 C2.42317905,72.2009423 2.55060452,72.187826 2.67906591,72.1596505 L2.76453414,72.1411906 C3.65806594,71.9444474 4.2128327,71.1050096 4.00252904,70.2670292 C3.79274334,69.4285628 2.89765754,68.9092579 2.0041256,69.1055153 Z" id="Path" fill="#CBCBCB" fill-rule="nonzero" mask="url(#mask-2)"></path>
                            <path d="M37.6516429,39.0713241 C47.3525497,39.0713241 55.2446373,31.6698919 55.2446373,22.5720959 C55.2446373,13.4742999 47.3525497,6.07238205 37.6516429,6.07238205 C33.6724478,6.07238205 29.9190961,7.28781812 26.7971736,9.58655641 C26.0839021,10.111205 25.4089618,10.6922048 24.7904824,11.3140106 C23.8653532,12.2433188 23.0546997,13.2726989 22.3818313,14.372032 C20.8615323,16.8568263 20.0586486,19.6928437 20.0586486,22.5720959 C20.0586486,31.6698919 27.9507362,39.0713241 37.6516429,39.0713241 Z M25.2654787,15.9236318 C25.8114396,15.0312434 26.4687683,14.1961776 27.2203709,13.4417523 C27.7223028,12.9365351 28.2708537,12.4653229 28.8494479,12.0392888 C31.3813804,10.1758145 34.4250866,9.19064097 37.6516429,9.19064097 C45.518867,9.19064097 51.9201809,15.19301 51.9201809,22.5720959 C51.9201809,29.9506961 45.518867,35.9535509 37.6516429,35.9535509 C29.7839009,35.9535509 23.382587,29.9506961 23.382587,22.5720959 C23.382587,20.2359521 24.0336997,17.9372138 25.2654787,15.9236318 Z" id="Shape" fill="#CBCBCB" fill-rule="nonzero" mask="url(#mask-2)"></path>
                            <path d="M39.1258409,27.9079668 C38.4555626,28.2815362 37.5848223,28.4141557 36.9943143,28.4141557 C35.8733851,28.4141557 34.890759,27.175402 34.890759,25.7637085 C34.890759,24.9028961 34.1464082,24.204822 33.2285308,24.204822 C32.3101355,24.204822 31.5663027,24.9028961 31.5663027,25.7637085 C31.5663027,28.4637058 33.3202149,30.7352402 35.681211,31.3604464 C35.7350819,32.1760807 36.4550873,32.8226616 37.3382593,32.8226616 C38.2452589,32.8226616 38.9813219,32.1411041 38.9989335,31.2938937 C41.3998147,30.7094934 43.4717726,29.0330468 43.4717726,26.1032728 C43.4717726,22.5905558 39.6469384,20.6741309 37.6827223,20.6741309 C37.6578588,20.6741309 35.2176104,20.4705867 35.2176104,19.0069142 C35.2176104,16.7591833 37.6578588,16.6960311 37.6827223,16.6960311 C38.1447689,16.6960311 38.7067875,16.9534977 39.1496685,17.3688445 C39.3625622,17.5689883 39.3853537,17.589877 39.3853537,18.4302864 C39.3853537,19.2910988 40.1302225,19.9857725 41.0475819,19.9857725 C41.9654592,19.9857725 42.710328,19.2852694 42.710328,18.4239712 C42.710328,17.4276246 42.710328,16.2986584 41.5008227,15.1638629 C40.7735655,14.4827913 39.9023072,13.997977 38.9958256,13.7560557 C38.9450626,12.9375066 38.2240213,12.2875253 37.3382593,12.2875253 C36.420382,12.2875253 35.6760312,12.9860852 35.6760312,13.8468976 L35.6760312,13.9489127 C33.85996,14.5818914 31.893154,16.0946284 31.893154,19.0069142 C31.893154,22.5788969 35.8521475,23.7865604 37.6708085,23.7914182 C38.1701504,23.8293096 40.1467982,24.6502875 40.1467982,26.102787 C40.1467982,26.95777 39.8323787,27.5139947 39.1258409,27.9079668 L39.1258409,27.9079668 Z" id="Path" fill="#CBCBCB" fill-rule="nonzero" mask="url(#mask-2)"></path>
                        </g>
                    </g>
                </g>
            </g>
        </g>
    </g>
</svg>