<?xml version="1.0" encoding="UTF-8"?>
<svg width="70px" height="69px" viewBox="0 0 70 69" version="1.1" xmlns="http://www.w3.org/2000/svg" xmlns:xlink="http://www.w3.org/1999/xlink">
    <!-- Generator: Sketch 58 (84663) - https://sketch.com -->
    <title>icona_tan</title>
    <desc>Created with Sketch.</desc>
    <defs>
        <rect id="path-1" x="0" y="0" width="70" height="71"></rect>
    </defs>
    <g id="Page-1" stroke="none" stroke-width="1" fill="none" fill-rule="evenodd" opacity="0.4">
        <g id="2smart" transform="translate(-1016.000000, -260.000000)">
            <g id="Group-12" transform="translate(256.000000, 231.000000)">
                <g id="Group-11">
                    <g id="Group-3" transform="translate(760.000000, 16.000000)">
                        <g id="icona_tan" transform="translate(0.000000, 11.000000)">
                            <mask id="mask-2" fill="white">
                                <use xlink:href="#path-1"></use>
                            </mask>
                            <g id="Rectangle"></g>
                            <path d="M73.3960356,77.5271366 C69.8009226,68.623208 61.4851597,62.4393176 52.0257816,61.5421295 C49.9348033,57.7013047 46.903241,54.4510939 43.2073077,52.0998181 C39.6095874,49.8109052 35.5157615,48.4705383 31.2733127,48.1777643 L31.2733127,38.3679132 L38.311439,38.3679132 C52.4301058,38.3679132 63.9161458,26.8250006 63.9161458,12.6368154 L63.9161458,3.78197359 C63.9161458,2.79779173 63.1222728,2 62.1429252,2 L53.3317522,2 C42.5165148,2 33.2460879,8.77345614 29.5000921,18.3207539 C25.7537487,8.77345614 16.4834956,2 5.66825829,2 L-3.14291477,2 C-4.12226234,2 -4.91613532,2.79779173 -4.91613532,3.78197359 L-4.91613532,12.6368154 C-4.91613532,26.8251753 6.57007853,38.3679132 20.6885714,38.3679132 L27.7268716,38.3679132 L27.7268716,48.1777643 C23.4844228,48.4705383 19.3907708,49.8110799 15.7928765,52.0998181 C12.0969433,54.4510939 9.06503339,57.70113 6.97440271,61.5421295 C-2.4851492,62.4393176 -10.8009121,68.623208 -14.3960251,77.5271366 C-15.4283903,80.0838433 -15.1243649,82.983459 -13.5832049,85.2833771 C-12.0237929,87.6107209 -9.42819156,89 -6.64085782,89 L65.6406945,89 C68.428202,89 71.0236295,87.6107209 72.5830415,85.2833771 C74.1243754,82.9832843 74.4284007,80.0838433 73.3960356,77.5271366 Z M31.2731389,27.7314471 C31.2731389,15.5081319 41.1684778,5.5637725 53.3317522,5.5637725 L60.3697047,5.5637725 L60.3697047,12.6366407 C60.3697047,24.8597812 50.4743657,34.803966 38.3112652,34.803966 L33.780957,34.803966 L53.1071663,15.3823579 C53.7995236,14.6865829 53.7995236,13.5582849 53.1071663,12.8621606 C52.4148089,12.1663856 51.2920531,12.1665602 50.5993481,12.8621606 L31.2731389,32.284118 L31.2731389,27.7314471 Z M5.89267038,15.3823579 L25.2188796,34.8041407 L20.6885714,34.8041407 C8.52564476,34.8041407 -1.36969422,24.8599559 -1.36969422,12.6366407 L-1.36969422,5.5637725 L5.66825829,5.5637725 C17.8315326,5.5637725 27.7268716,15.5079573 27.7268716,27.7312724 L27.7268716,32.2839433 L8.40048852,12.8623353 C7.70813116,12.1665602 6.58554923,12.1667349 5.89267038,12.8623353 C5.20031302,13.5581103 5.20031302,14.6864082 5.89267038,15.3823579 Z M69.6415222,83.2926535 C68.728577,84.6548563 67.270333,85.4362275 65.6406945,85.4362275 L-6.64068399,85.4362275 C-8.27032252,85.4362275 -9.72874036,84.6548563 -10.6416856,83.2926535 C-11.5358574,81.9580512 -11.7065566,80.3448245 -11.1099785,78.8669795 C-7.90059013,70.9184095 -0.326899388,65.484971 8.18494167,65.0248476 C8.82323848,64.9902597 9.39374234,64.613287 9.6779513,64.0378708 C13.4437635,56.4150905 21.0391827,51.6796979 29.5000921,51.6796979 C36.9722673,51.6796979 43.7673819,55.3748343 47.847823,61.4885008 C46.0090692,61.6139255 44.1939561,61.934824 42.432382,62.4492748 C41.491972,62.7238814 40.9510189,63.7126051 41.2244505,64.6576573 C41.4499056,65.4367576 42.1577336,65.9428234 42.9264015,65.9428234 C43.0899738,65.9428234 43.2568488,65.9197648 43.4219855,65.8715515 C45.4215302,65.2875756 47.5024265,64.9914825 49.6062681,64.9914825 L50.814895,65.0250223 C59.326736,65.4851457 66.9004268,70.9185842 70.1098152,78.8671542 C70.7065671,80.3448245 70.5360417,81.9580512 69.6415222,83.2926535 Z" id="Shape" fill="#747474" fill-rule="nonzero" mask="url(#mask-2)"></path>
                        </g>
                    </g>
                </g>
            </g>
        </g>
    </g>
</svg>