<?xml version="1.0" encoding="UTF-8"?>
<svg width="20px" height="20px" viewBox="0 0 20 20" version="1.1" xmlns="http://www.w3.org/2000/svg" xmlns:xlink="http://www.w3.org/1999/xlink">
    <!-- Generator: Sketch 62 (91390) - https://sketch.com -->
    <title>02 - icon/tutorial</title>
    <desc>Created with Sketch.</desc>
    <g id="02---icon/tutorial" stroke="none" stroke-width="1" fill="none" fill-rule="evenodd">
        <path d="M18,2.80032476 L18,15.6003248 C18,15.9752837 17.7395744,16.2999344 17.3735444,16.3812744 L10.1735444,17.9812744 C10.1314576,17.990627 10.089553,17.996494 10.0480986,17.9990902 L9.97573388,18.0003266 L9.87481725,17.9909083 L2.62645563,16.3812744 C2.26042559,16.2999344 2,15.9752837 2,15.6003248 L2,2.80032476 C2,2.28852641 2.47393344,1.90835046 2.97354437,2.01937511 L10,3.5808 L17.0264556,2.01937511 C17.5260666,1.90835046 18,2.28852641 18,2.80032476 Z M3.00683242,2.99595299 L3.00683242,15.5283772 L9.50111389,17 L9.50111389,4.46210685 L3.00683242,2.99595299 Z M17.0132019,3 L17.0132019,15.5324242 L10.4991608,17 L10.4991608,4.46615385 L17.0132019,3 Z" id="Shape" fill="#2F9988"></path>
    </g>
</svg>