<?xml version="1.0" encoding="UTF-8"?>
<svg width="20px" height="20px" viewBox="0 0 20 20" version="1.1" xmlns="http://www.w3.org/2000/svg" xmlns:xlink="http://www.w3.org/1999/xlink">
    <!-- Generator: Sketch 62 (91390) - https://sketch.com -->
    <title>02 - icon/user</title>
    <desc>Created with Sketch.</desc>
    <g id="02---icon/user" stroke="none" stroke-width="1" fill="none" fill-rule="evenodd">
        <path d="M10.0000741,2.00000823 C14.4182643,2.00000823 18.0001399,5.58188386 18.0001399,10.0000741 C18.0001399,12.535289 16.8207668,14.7951378 14.9807515,16.2608896 L15.0000615,16.2427216 C14.5944412,16.5999614 13.9495887,17.0217913 13.1330728,17.3626074 C12.2652045,17.7330988 11.3186627,17.953898 10.3255413,17.9936394 C10.3131034,17.9937011 10.3004045,17.9942021 10.2876913,17.9946725 C10.1920517,17.9984422 10.0962611,18.0001399 10.0000741,18.0001399 C9.80408812,18.0001399 9.6097478,17.9930918 9.41729274,17.9792353 C9.39942926,17.9770821 9.38210788,17.9757383 9.36481903,17.9743398 C8.23016777,17.886197 7.16168474,17.5601685 6.20919173,17.0466559 C5.7125396,16.7827293 5.30441434,16.4994453 5,16.2444926 L4.9449645,16.20087 C3.14763659,14.7338447 2.00000823,12.5009365 2.00000823,10.0000741 C2.00000823,5.58188386 5.58188386,2.00000823 10.0000741,2.00000823 Z M10.0016557,12 C8.92763623,12 7.91888865,12.4200075 7.16065101,13.1829309 C6.49973423,13.8499226 6.03368841,14.7510312 6.00279496,15.7361298 C7.32279651,16.7047981 8.95275934,17.008705 10.0118153,17.008705 C11.0878987,17.008705 12.713285,16.6975224 14.002324,15.7415937 C13.9098856,14.8571701 13.4951885,13.8319876 12.8163453,13.1571478 C12.0642994,12.4109834 11.0645816,12 10.0016557,12 Z M10.0000741,3.00007406 C6.13421232,3.00007406 3.00007406,6.13421232 3.00007406,10.0000741 C3.00007406,11.9585172 3.80442849,13.7291687 5.10078703,14.9996782 C5.28778004,14.0763595 5.7362204,13.1971008 6.44636414,12.4804298 C6.93828478,11.9854692 7.51445661,11.6058376 8.14258407,11.3549756 C8.05363436,11.287326 7.96803589,11.2119164 7.88622235,11.1312962 C6.71166832,9.96599013 6.7037256,8.06305056 7.86781848,6.88825788 C8.43717594,6.31538189 9.19464027,6 10.001117,6 C10.7992636,6 11.5499475,6.30860572 12.1146556,6.86889742 C13.2888222,8.03613952 13.29599,9.93927269 12.1307347,11.1115485 C12.0445546,11.1988562 11.9539184,11.2801976 11.8593236,11.3553619 C12.4749903,11.5990119 13.0406541,11.9681739 13.524426,12.4481624 C14.2512983,13.170748 14.7098349,14.062542 14.8995725,14.9982753 C16.1961305,13.7282642 17.0000741,11.958017 17.0000741,10.0000741 C17.0000741,6.13421232 13.8659358,3.00007406 10.0000741,3.00007406 Z M10.0010848,7 C9.46325243,7 8.95818749,7.21036389 8.57835945,7.59234495 C7.80257696,8.37516609 7.80789524,9.64403583 8.59036846,10.4205135 C8.96916717,10.7939222 9.47045784,11 10.0009133,11 C10.5392603,11 11.0432959,10.7898076 11.4200359,10.4079979 C12.197534,9.62569114 12.1925588,8.35699284 11.4095709,7.57880074 C11.0336887,7.20556341 10.5332558,7 10.0010848,7 Z" id="Combined-Shape" fill="#2F9988"></path>
    </g>
</svg>