<?xml version="1.0" encoding="UTF-8"?>
<svg width="20px" height="20px" viewBox="0 0 20 20" version="1.1" xmlns="http://www.w3.org/2000/svg" xmlns:xlink="http://www.w3.org/1999/xlink">
    <!-- Generator: Sketch 62 (91390) - https://sketch.com -->
    <title>02 - icon/warning</title>
    <desc>Created with Sketch.</desc>
    <g id="02---icon/warning" stroke="none" stroke-width="1" fill="none" fill-rule="evenodd">
        <path d="M10.8162314,3.1723813 C11.1695343,3.33005176 11.4560114,3.58574724 11.6326628,3.90108816 L17.8068668,14.6425378 C18.2577694,15.4474452 17.8922406,16.4262047 16.9904354,16.8286584 C16.7369414,16.9417866 16.4574188,17.0006828 16.174004,17.0006828 L3.8255961,17.0006828 C2.81734722,17.0006828 2,16.2711585 2,15.3712447 C2,15.1182824 2.06598634,14.8687942 2.19273331,14.6425378 L8.36693725,3.90108816 C8.81783986,3.09618078 9.91442622,2.76992761 10.8162314,3.1723813 Z M9.45551245,4.3081617 L3.08272337,15.2113852 C3.04047438,15.2868039 3.01847894,15.3699667 3.01847894,15.4542874 C3.01847894,15.7542587 3.29092801,15.9974335 3.62701097,15.9974335 L16.3835,15.9974335 C16.4779716,15.9974335 16.5711458,15.9778014 16.6556438,15.940092 C16.9562455,15.8059408 17.0780885,15.4796876 16.9277876,15.2113852 L10.5440876,4.3081617 C10.4852038,4.20304806 10.3897115,4.11781623 10.2719438,4.06525941 C9.9713421,3.93110818 9.60581332,4.03985924 9.45551245,4.3081617 Z M10.043146,13 C10.3431173,13 10.5862921,13.2431748 10.5862921,13.543146 C10.5862921,13.8431173 10.3431173,14.0862921 10.043146,14.0862921 C9.74317476,14.0862921 9.5,13.8431173 9.5,13.543146 C9.5,13.2431748 9.74317476,13 10.043146,13 Z M10,8 C10.2761424,8 10.5,8.22385763 10.5,8.5 L10.5,11.5 C10.5,11.7761424 10.2761424,12 10,12 C9.72385763,12 9.5,11.7761424 9.5,11.5 L9.5,8.5 C9.5,8.22385763 9.72385763,8 10,8 Z" id="Combined-Shape" fill="#2F9988"></path>
    </g>
</svg>