<?xml version="1.0" encoding="UTF-8"?>
<svg width="20px" height="20px" viewBox="0 0 20 20" version="1.1" xmlns="http://www.w3.org/2000/svg" xmlns:xlink="http://www.w3.org/1999/xlink">
    <!-- Generator: Sketch 60.1 (88133) - https://sketch.com -->
    <title>02 - icon/world</title>
    <desc>Created with Sketch.</desc>
    <g id="02---icon/world" stroke="none" stroke-width="1" fill="none" fill-rule="evenodd">
        <path d="M10.007926,2 C14.419126,2 18.007926,5.5888 18.007926,10 C18.007926,14.4112 14.419126,18 10.007926,18 C5.596726,18 2.007926,14.4112 2.007926,10 C2.007926,5.5888 5.596726,2 10.007926,2 Z M9.54044278,3.01658129 L9.52145376,3.01618036 C7.62461198,3.14485813 5.93265548,4.03261955 4.74772253,5.37732636 L4.89507678,5.45106704 C5.30198573,5.65472517 5.58860573,6.04262862 5.66344506,6.49085303 L5.66344506,6.49085303 L5.68392281,6.61265975 C5.78708549,7.23244812 5.47705572,7.84138499 4.91524118,8.12188623 L4.91524118,8.12188623 L4.39867491,8.3801693 C4.25020358,8.45449179 4.12300903,8.56674065 4.03137378,8.70436636 L4.03137378,8.70436636 L3.93669418,8.8307679 C3.70797766,9.10334042 3.38614507,9.27987823 3.03418393,9.32675073 C3.0109197,9.54729131 3,9.77239469 3,10 C3.36167384,10.0089166 3.71368949,10.1540976 3.9814428,10.4213317 L3.9814428,10.4213317 L4.47146092,10.9113504 C4.6061205,11.0463575 4.77582339,11.1371744 4.96366789,11.1746735 L4.96366789,11.1746735 L5.09508464,11.2074413 C5.69600409,11.3878003 6.11810885,11.9452803 6.11810885,12.5828065 L6.11810885,12.5828065 L6.11810885,12.6559899 C6.11810885,13.0480994 6.00294688,13.428425 5.78571217,13.7539238 L5.78571217,13.7539238 L5.71178311,13.8775277 C5.62115534,14.0469921 5.5627215,14.2339348 5.54148274,14.4244491 L5.54148274,14.4244491 L5.44264867,15.3091304 C6.66813295,16.3625834 8.26104343,17 10,17 C13.85975,17 17,13.85975 17,10 C17,9.75086193 16.9869164,9.5047216 16.9614003,9.26223001 C16.5714637,9.24785844 16.2317951,8.97407985 16.1333329,8.58442037 C16.0703889,8.3347119 15.9913001,8.12088359 15.9006109,7.95032712 C15.8373184,7.83129957 15.7297822,7.75917089 15.5944239,7.74542158 L15.5944239,7.74542158 L15.5502702,7.74292475 C15.4218784,7.74292475 15.2994531,7.80072026 15.2151527,7.90259876 C14.709003,8.51481779 14.210563,8.84101622 13.7054179,8.77785255 C13.2503708,8.72905601 12.9342614,8.39418159 12.8243307,8.13548622 C12.2679334,7.02269176 11.489727,6.3783734 10.6128152,6.07311533 C10.1089602,5.89767536 9.65974528,5.85925871 9.32835638,5.88795058 L9.32835638,5.88795058 L9.21551996,5.89536468 C9.09956712,5.90911995 8.97451946,5.94198127 8.8426668,5.994692 L8.8426668,5.994692 L8.70123337,6.04343475 C8.13669708,6.20651095 7.59213996,5.99155419 7.26951462,5.56792855 C6.92822674,5.11886555 6.88943037,4.50597959 7.27842996,3.99436431 L7.27842996,3.99436431 L7.30546202,3.95941711 C7.48785374,3.72498565 7.76393983,3.57913385 8.06348193,3.55462144 C8.66521681,3.50563227 9.15124111,3.31694521 9.54044278,3.01658129 Z M8.70117161,7.31293084 C8.85969748,7.31293084 9.01499627,7.35593666 9.14992982,7.43726775 L9.14992982,7.43726775 L10.1085737,8.01234846 C10.1952217,8.06428972 10.2954676,8.08175565 10.3933805,8.06191591 L10.3933805,8.06191591 L10.9683638,7.94665723 C11.3713789,7.86729426 11.7776592,8.08090556 11.9395797,8.45872011 L11.9395797,8.45872011 L12.4478145,9.64424913 C12.4816288,9.72303053 12.5367102,9.78609519 12.6100253,9.82994245 L12.6100253,9.82994245 L13.1297828,10.1419556 C13.3472305,10.2721786 13.4950623,10.4864276 13.5401102,10.736976 C13.5842657,10.9859639 13.5204315,11.2376813 13.3623486,11.4349784 L13.3623486,11.4349784 L12.8999128,12.012825 C12.8433639,12.0835697 12.8119945,12.1729663 12.8119945,12.2631175 L12.8119945,12.2631175 L12.8119945,13.0971973 C12.8119945,13.328114 12.7194533,13.551495 12.5565961,13.7137311 L12.5565961,13.7137311 L12.2697762,14.0008153 C12.2468264,14.023765 12.2262911,14.0500646 12.2097273,14.0775133 L12.2097273,14.0775133 L11.5783961,15.1299951 C11.4712998,15.3078734 11.3044386,15.4418141 11.1051646,15.5088566 C10.667495,15.6533061 10.1926619,15.4330227 10.0208007,15.0049197 L10.0208007,15.0049197 L9.71658559,14.2416976 L9.69482462,14.1687778 L9.19378678,12.1643613 C9.18683015,12.1364188 9.1766162,12.1087967 9.16364296,12.0828502 L9.16364296,12.0828502 L8.89464329,11.5451151 C8.8252571,11.4063427 8.68973238,11.3229627 8.54000955,11.3229627 C8.50702563,11.3229627 8.47443104,11.3270298 8.43899508,11.3361276 L8.43899508,11.3361276 L8.18601764,11.3991689 C7.92178454,11.4664735 7.63943021,11.4044933 7.427226,11.2346054 L7.427226,11.2346054 L6.5903585,10.5654269 C6.38359437,10.3992772 6.2637922,10.1500488 6.2637922,9.88478811 L6.2637922,9.88478811 L6.2637922,9.60182979 C6.2637922,9.41938323 6.32057983,9.24276407 6.42642035,9.09508065 L6.42642035,9.09508065 L7.43878422,7.67787716 C7.60238641,7.44920592 7.86687097,7.31293084 8.14820078,7.31293084 L8.14820078,7.31293084 Z M8.664,8.312 L8.214,8.312 L7.263,9.642 L7.263,9.823 L8.002,10.414 L8.19356093,10.3667215 C8.26939655,10.3472209 8.34635072,10.3342727 8.42372362,10.3278074 L8.42372362,10.3278074 L8.54000955,10.3229627 C9.06772301,10.3229627 9.54994045,10.6196415 9.78902652,11.0978136 L9.78902652,11.0978136 L10.0580262,11.6355487 C10.1037658,11.7270279 10.1394743,11.8235962 10.1640512,11.9223145 L10.1640512,11.9223145 L10.662,13.915 L10.853,14.393 L11.3528447,13.5620033 C11.3920678,13.4969972 11.4364852,13.4351874 11.4855329,13.3774096 L11.4855329,13.3774096 L11.5625066,13.2938714 L11.811,13.045 L11.8119945,12.2631175 C11.8119945,11.9987899 11.8874279,11.7397652 12.0273589,11.5171638 L12.0273589,11.5171638 L12.1189698,11.3882227 L12.489,10.924 L12.0960474,10.6877455 C11.8848119,10.561415 11.7128486,10.3837816 11.5937817,10.170552 L11.5937817,10.170552 L11.5287981,10.0384684 L11.061,8.947 L10.5909565,9.04220292 C10.297571,9.10165394 9.99531953,9.06478781 9.72600485,8.93977824 L9.72600485,8.93977824 L9.59428577,8.86996602 L8.664,8.312 Z M3.06701914,11.0130006 L3.09145088,11.1447964 C3.31148196,12.2062493 3.78241811,13.2042224 4.45827957,14.0517125 L4.45827957,14.0517125 L4.56701914,14.1820006 L4.5776493,14.1166694 C4.62816968,13.8555122 4.72020915,13.60275 4.84961469,13.3699643 L4.84961469,13.3699643 L5.01212517,13.0994346 C5.08184167,12.9625734 5.11810885,12.811665 5.11810885,12.6559899 L5.11810885,12.6559899 L5.11810885,12.5828065 C5.11810885,12.376406 4.97000954,12.1957212 4.76778397,12.1553006 C4.38606979,12.0790995 4.03804026,11.8928508 3.76389883,11.6180013 L3.76389883,11.6180013 L3.27467944,11.1287816 C3.23198669,11.0861716 3.18279242,11.0537636 3.13011566,11.0320833 L3.13011566,11.0320833 L3.06701914,11.0130006 Z M14.5626638,12.1095865 C14.7733473,11.8989029 15.1338181,12.0080311 15.1922713,12.3001926 L15.1922713,12.3001926 L15.3022678,12.8499777 C15.3204764,12.9409881 15.3041059,13.035518 15.2563534,13.1151054 L15.2563534,13.1151054 L14.834109,13.818846 C14.7091838,14.0270548 14.4218053,14.0623309 14.2502318,13.8905178 L14.2502318,13.8905178 L14.1090894,13.7491783 C14.0210241,13.66099 13.9828132,13.5346499 14.0072439,13.4124377 L14.0072439,13.4124377 L14.1718443,12.5890414 C14.1862843,12.5168071 14.2217859,12.4504644 14.2738738,12.3983764 L14.2738738,12.3983764 Z M4.03909446,6.14104152 L3.92949104,6.31339025 C3.60657683,6.84273251 3.35755574,7.41110134 3.18831908,8.00407596 L3.18831908,8.00407596 L3.12909446,8.22804152 L3.14563521,8.21528684 L3.19909718,8.15000581 C3.387238,7.86743959 3.64712991,7.63808566 3.95125217,7.48584675 L3.95125217,7.48584675 L4.4682862,7.22732982 C4.63729711,7.14294649 4.72858571,6.96364436 4.69762831,6.77765216 L4.69762831,6.77765216 L4.67719223,6.6560954 C4.65492598,6.5227399 4.5686169,6.40593161 4.44768417,6.34540468 L4.44768417,6.34540468 L4.03909446,6.14104152 Z M10.8959637,3.02400435 L10.8295115,3.11875631 C10.2223726,3.92457535 9.33658538,4.45428258 8.14483451,4.55130681 C8.12116588,4.55324368 8.10299473,4.56284321 8.09559888,4.5723459 L8.09559888,4.5723459 L8.07196121,4.60287974 C7.97432806,4.73129473 7.98201739,4.8527671 8.06537347,4.96244657 C8.15725757,5.08309557 8.3023221,5.13399689 8.47089257,5.06636902 C8.75777805,4.95168018 9.04274318,4.89076709 9.27773658,4.89005958 C9.70072672,4.85132039 10.2895751,4.90167843 10.9416092,5.12871365 C12.0554127,5.51643511 13.0407425,6.33224183 13.7311168,7.71491978 C13.7260211,7.70302986 13.8009048,7.78235887 13.8206926,7.78455709 C13.8980032,7.79421235 14.136063,7.63841677 14.4445756,7.26525197 C14.7186832,6.93398828 15.1234033,6.74292475 15.5502702,6.74292475 C15.5980319,6.74292475 15.645867,6.74553759 15.6951178,6.75050419 C15.9547647,6.77687813 16.1939192,6.87160771 16.3929523,7.02157514 L16.3929523,7.02157514 L16.4199637,7.04500435 L16.3526891,6.89580993 C15.3755102,4.84615273 13.4255237,3.37866942 11.1110216,3.05132927 L11.1110216,3.05132927 L10.8959637,3.02400435 Z" id="Shape" fill="#000000" fill-rule="nonzero"></path>
    </g>
</svg>