<?xml version="1.0" encoding="UTF-8"?>
<svg width="31px" height="30px" viewBox="0 0 31 30" version="1.1" xmlns="http://www.w3.org/2000/svg" xmlns:xlink="http://www.w3.org/1999/xlink">
    <!-- Generator: Sketch 57.1 (83088) - https://sketch.com -->
    <title>help</title>
    <desc>Created with Sketch.</desc>
    <g id="login" stroke="none" stroke-width="1" fill="none" fill-rule="evenodd">
        <g id="375_03a_login" transform="translate(-260.000000, -106.000000)" fill="#FFFFFF" fill-rule="nonzero">
            <g id="Group-6" transform="translate(-659.000000, -3.000000)">
                <g id="Group-5" transform="translate(674.000000, 106.000000)">
                    <g id="help" transform="translate(245.000000, 3.000000)">
                        <path d="M31,20.3027344 C31,15.9299469 27.9553909,12.1094513 23.6620026,10.9581756 C23.3921432,4.871521 18.1917343,0 11.8369141,0 C5.30991365,0 0,5.13862611 0,11.4550781 C0,13.5136413 0.566207855,15.5179596 1.64138794,17.2776032 L0.0435180664,22.8678131 L5.82030486,21.3217163 C7.49172974,22.2782135 9.37719727,22.8170013 11.3232117,22.8982544 C12.5126266,27.0533753 16.4607086,30 20.9794922,30 C22.7831268,30 24.5370941,29.535141 26.0782013,28.651886 L30.9562454,29.9576569 L29.6069489,25.236969 C30.5196457,23.7455749 31,22.0481872 31,20.3027344 Z M6.10695647,19.4210815 L2.64868929,20.3469086 L3.6053772,17.0001984 L3.38731381,16.6701507 C2.35967253,15.1142121 1.81640625,13.3108521 1.81640625,11.4550781 C1.81640625,6.1079407 6.31153873,1.7578125 11.8369141,1.7578125 C17.3622894,1.7578125 21.8574219,6.1079407 21.8574219,11.4550781 C21.8574219,16.8022155 17.3622894,21.1523438 11.8369141,21.1523438 C9.91928101,21.1523438 8.05604556,20.6266022 6.44800569,19.6321106 L6.10695647,19.4210815 Z M28.3513107,27.4367523 L25.7851639,26.7496491 L25.4424591,26.9654846 C24.1139755,27.8006745 22.5705033,28.2421875 20.9794922,28.2421875 C17.4280396,28.2421875 14.3072738,26.0199738 13.2015838,22.8334808 C18.6399231,22.2267151 22.9676056,18.0386353 23.5948333,12.7754974 C26.8873062,13.8457489 29.1835938,16.8658447 29.1835938,20.3027344 C29.1835938,21.8424225 28.7273636,23.3361053 27.8643341,24.6217346 L27.641304,24.9533844 L28.3513107,27.4367523 Z" id="Shape"></path>
                        <polygon id="Path" points="11 16 13 16 13 18 11 18"></polygon>
                        <path d="M14.25,8.57615894 C14.25,9.08394556 14.0476562,9.55261793 13.6803385,9.89603165 L11.625,11.8182171 L11.625,14 L13.375,14 L13.375,12.605624 L14.8618164,11.2152059 C15.5850586,10.5388556 16,9.57706438 16,8.57615894 C16,6.60414939 14.430013,5 12.5,5 C10.569987,5 9,6.60414939 9,8.57615894 L10.75,8.57615894 C10.75,7.59015417 11.5349935,6.78807947 12.5,6.78807947 C13.4650065,6.78807947 14.25,7.59015417 14.25,8.57615894 Z" id="Path"></path>
                    </g>
                </g>
            </g>
        </g>
    </g>
</svg>