<?xml version="1.0" encoding="UTF-8"?>
<svg width="33px" height="33px" viewBox="0 0 33 33" version="1.1" xmlns="http://www.w3.org/2000/svg" xmlns:xlink="http://www.w3.org/1999/xlink">
    <!-- Generator: Sketch 56.3 (81716) - https://sketch.com -->
    <title>login</title>
    <desc>Created with Sketch.</desc>
    <g id="login" stroke="none" stroke-width="1" fill="none" fill-rule="evenodd">
        <g id="login-logo-sinistra" transform="translate(-726.000000, -452.000000)" fill="#FFFFFF" fill-rule="nonzero">
            <g id="Group-5" transform="translate(680.000000, 452.000000)">
                <g id="login" transform="translate(46.000000, 0.000000)">
                    <circle id="Oval" cx="22" cy="23" r="1"></circle>
                    <path d="M15.40625,30.421875 L5.17857143,30.421875 C3.75083929,30.421875 2.58928571,29.2653281 2.58928571,27.84375 L2.58928571,17.2734375 C2.58928571,15.8518594 3.75083929,14.6953125 5.17857143,14.6953125 L23.8214286,14.6953125 C25.2491607,14.6953125 26.4107143,15.8518594 26.4107143,17.2734375 L26.4107143,19.8515625 C26.4107143,20.5635117 26.9903259,21.140625 27.7053571,21.140625 C28.4203884,21.140625 29,20.5635117 29,19.8515625 L29,17.2734375 C29,14.4302812 26.6768929,12.1171875 23.8214286,12.1171875 L22.2654621,12.1171875 L22.2654621,7.57105078 C22.2654621,3.39635742 18.7808013,0 14.4976049,0 C10.2144085,0 6.72974777,3.39635742 6.72974777,7.57105078 L6.72974777,12.1171875 L5.17857143,12.1171875 C2.32310714,12.1171875 0,14.4302812 0,17.2734375 L0,27.84375 C0,30.6869062 2.32310714,33 5.17857143,33 L15.40625,33 C16.1212812,33 16.7008929,32.4228867 16.7008929,31.7109375 C16.7008929,30.9989883 16.1212812,30.421875 15.40625,30.421875 Z M9.31903348,7.57105078 C9.31903348,4.81793555 11.6421406,2.578125 14.4976049,2.578125 C17.3530692,2.578125 19.6761763,4.81793555 19.6761763,7.57105078 L19.6761763,12.1171875 L9.31903348,12.1171875 L9.31903348,7.57105078 Z" id="Shape"></path>
                    <path d="M32.4628007,21.2362112 C31.8855554,20.8300449 31.0825404,20.9607179 30.6694971,21.527999 L24.3340018,30.224794 C24.1609953,30.4219719 23.9441587,30.4645401 23.8279642,30.472119 C23.7088133,30.4798873 23.4793805,30.4650453 23.2773896,30.2787937 L19.1830739,26.3522255 C18.6749798,25.8649018 17.8612323,25.8748176 17.3654775,26.3740149 C16.8696583,26.8732753 16.8795554,27.6729763 17.3876495,28.1602368 L21.4891631,32.0937523 C21.4930192,32.0974154 21.4968109,32.1010786 21.5007312,32.1046785 C22.1155726,32.6799807 22.9363252,33 23.7807923,33 C23.8533496,33 23.9260997,32.9976632 23.9988499,32.9928632 C24.9187663,32.9326109 25.7776934,32.4929712 26.35526,31.7867434 C26.37017,31.7684277 26.3845658,31.7497963 26.3985117,31.7307227 L32.7597138,22.9985595 C33.1728857,22.4313415 33.0399817,21.6422511 32.4628007,21.2362112 Z" id="Path"></path>
                    <circle id="Oval" cx="17" cy="23" r="1"></circle>
                    <circle id="Oval" cx="7" cy="23" r="1"></circle>
                    <circle id="Oval" cx="12" cy="23" r="1"></circle>
                </g>
            </g>
        </g>
    </g>
</svg>