<?xml version="1.0" encoding="UTF-8"?>
<svg width="20px" height="20px" viewBox="0 0 20 20" version="1.1" xmlns="http://www.w3.org/2000/svg" xmlns:xlink="http://www.w3.org/1999/xlink">
    <!-- Generator: Sketch 62 (91390) - https://sketch.com -->
    <title>02 - icon/login</title>
    <desc>Created with Sketch.</desc>
    <g id="02---icon/login" stroke="none" stroke-width="1" fill="none" fill-rule="evenodd">
        <path d="M9.06912878,13.984375 L5.04004329,13.984375 C4.47760336,13.984375 4.02002164,13.5287656 4.02002164,12.96875 L4.02002164,9.80468749 C4.02002164,9.24467188 4.47760336,8.78906249 5.04004329,8.78906249 L12.3841991,8.78906249 C12.9466391,8.78906249 13.4042208,9.24467188 13.4042208,9.80468749 L13.4042208,10.8203125 C13.4042208,11.1007773 13.6325526,11.328125 13.9142316,11.328125 C14.1959106,11.328125 14.4242424,11.1007773 14.4242424,10.8203125 L14.4242424,9.80468749 C14.4242424,8.68465623 13.509079,7.7734375 12.3841991,7.7734375 L11.7712426,7.7734375 L11.7712426,5.98253515 C11.7712426,4.33795898 10.3984975,3 8.71117768,3 C7.02385789,3 5.65111276,4.33795898 5.65111276,5.98253515 L5.65111276,7.7734375 L5.04004329,7.7734375 C3.91516342,7.7734375 3,8.68465623 3,9.80468749 L3,12.96875 C3,14.0887812 3.91516342,15 5.04004329,15 L9.06912878,15 C9.35080774,15 9.57913962,14.7726523 9.57913962,14.4921875 C9.57913962,14.2117227 9.35080774,13.984375 9.06912878,13.984375 Z M16.839343,11.1443567 C16.8441157,11.148757 16.8487987,11.1532536 16.8533889,11.1578439 L16.8672514,11.1717063 C17.0569331,11.3613881 17.0631347,11.6669551 16.8813054,11.8641768 L14.0610589,14.925258 C14.0388539,14.9655253 14.0106841,15.0033716 13.9765574,15.0374982 L13.9737702,15.0402854 C13.8853228,15.1287328 13.7715686,15.1764494 13.6558155,15.1834352 C13.5242118,15.1971352 13.387776,15.1560678 13.2828648,15.0593445 L13.2549565,15.031995 C13.2292704,15.0063089 13.2069489,14.9784978 13.1880034,14.9491184 L11.1457714,12.8550589 C10.9545775,12.6591304 10.9564931,12.345878 11.1500688,12.1523023 L11.1528559,12.1495152 C11.3449205,11.9574506 11.6563186,11.9574506 11.8483832,12.1495152 L11.8526101,12.1537941 L13.602,13.946 L16.1613162,11.1718898 C16.3409451,10.9770548 16.6445081,10.9647279 16.839343,11.1443567 Z M5.5,11 C5.77614237,11 6,11.2238576 6,11.5 C6,11.7761424 5.77614237,12 5.5,12 C5.22385763,12 5,11.7761424 5,11.5 C5,11.2238576 5.22385763,11 5.5,11 Z M7.5,11 C7.77614237,11 8,11.2238576 8,11.5 C8,11.7761424 7.77614237,12 7.5,12 C7.22385763,12 7,11.7761424 7,11.5 C7,11.2238576 7.22385763,11 7.5,11 Z M9.5,11 C9.77614237,11 10,11.2238576 10,11.5 C10,11.7761424 9.77614237,12 9.5,12 C9.22385763,12 9,11.7761424 9,11.5 C9,11.2238576 9.22385763,11 9.5,11 Z M8.71117768,4.015625 C9.83605756,4.015625 10.751221,4.89797461 10.751221,5.98253515 L10.751221,7.7734375 L6.6711344,7.7734375 L6.6711344,5.98253515 C6.6711344,4.89797461 7.58629781,4.015625 8.71117768,4.015625 Z" id="Combined-Shape" fill="#2F9988"></path>
    </g>
</svg>