<?xml version="1.0" encoding="UTF-8"?>
<svg width="60px" height="60px" viewBox="0 0 60 60" version="1.1" xmlns="http://www.w3.org/2000/svg" xmlns:xlink="http://www.w3.org/1999/xlink">
    <!-- Generator: Sketch 57.1 (83088) - https://sketch.com -->
    <title>ico-responsive</title>
    <desc>Created with Sketch.</desc>
    <g id="login" stroke="none" stroke-width="1" fill="none" fill-rule="evenodd">
        <g id="login-con-scritte" transform="translate(-673.000000, -226.000000)">
            <g id="Group-10" transform="translate(673.000000, 192.000000)">
                <g id="ico-responsive" transform="translate(0.000000, 34.000000)">
                    <circle id="Oval" stroke="#FFFFFF" cx="30" cy="30" r="29.5"></circle>
                    <g id="icons8-media_queries" transform="translate(15.000000, 16.250000)" fill="#FFFFFF" fill-rule="nonzero">
                        <path d="M2.5,0 C1.11875,0 0,1.11875 0,2.5 L0,20 C0,21.38125 1.11875,22.5 2.5,22.5 L27.5,22.5 C28.88125,22.5 30,21.38125 30,20 L30,2.5 C30,1.11875 28.88125,0 27.5,0 L2.5,0 Z M3.75,6.25 L7.5,6.25 C8.19,6.25 8.75,6.81 8.75,7.5 L8.75,16.25 C8.75,16.94 8.19,17.5 7.5,17.5 L3.75,17.5 C3.06,17.5 2.5,16.94 2.5,16.25 L2.5,7.5 C2.5,6.81 3.06,6.25 3.75,6.25 Z M12.5,6.25 L26.25,6.25 C26.94,6.25 27.5,6.81 27.5,7.5 L27.5,16.25 C27.5,16.94 26.94,17.5 26.25,17.5 L12.5,17.5 C11.81,17.5 11.25,16.94 11.25,16.25 L11.25,7.5 C11.25,6.81 11.81,6.25 12.5,6.25 Z M13.125,11.25 C12.779822,11.25 12.5,11.529822 12.5,11.875 C12.5,12.220178 12.779822,12.5 13.125,12.5 C13.470178,12.5 13.75,12.220178 13.75,11.875 C13.75,11.529822 13.470178,11.25 13.125,11.25 Z M5.625,15 C5.27982203,15 5,15.279822 5,15.625 C5,15.970178 5.27982203,16.25 5.625,16.25 C5.97017797,16.25 6.25,15.970178 6.25,15.625 C6.25,15.279822 5.97017797,15 5.625,15 Z M8.75,25 C8.2992051,24.9936246 7.87989829,25.2304691 7.65264035,25.6198411 C7.4253824,26.009213 7.4253824,26.490787 7.65264035,26.8801589 C7.87989829,27.2695309 8.2992051,27.5063754 8.75,27.5 L21.25,27.5 C21.7007949,27.5063754 22.1201017,27.2695309 22.3473597,26.8801589 C22.5746176,26.490787 22.5746176,26.009213 22.3473597,25.6198411 C22.1201017,25.2304691 21.7007949,24.9936246 21.25,25 L8.75,25 Z" id="Shape"></path>
                    </g>
                </g>
            </g>
        </g>
    </g>
</svg>