<?xml version="1.0" encoding="UTF-8"?>
<svg width="60px" height="60px" viewBox="0 0 60 60" version="1.1" xmlns="http://www.w3.org/2000/svg" xmlns:xlink="http://www.w3.org/1999/xlink">
    <!-- Generator: Sketch 57.1 (83088) - https://sketch.com -->
    <title>icon-speed</title>
    <desc>Created with Sketch.</desc>
    <g id="login" stroke="none" stroke-width="1" fill="none" fill-rule="evenodd">
        <g id="login-con-scritte" transform="translate(-673.000000, -327.000000)">
            <g id="Group-10" transform="translate(673.000000, 192.000000)">
                <g id="icon-speed" transform="translate(0.000000, 135.000000)">
                    <circle id="Oval" stroke="#FFFFFF" cx="30" cy="30" r="29.5"></circle>
                    <g id="icons8-speed" transform="translate(13.750000, 15.000000)" fill="#FFFFFF" fill-rule="nonzero">
                        <path d="M32.34875,14.00375 C31.37375,6.735 25.42875,0.93 18.14125,0.1075 C8.32,-1.00125 0,6.6525 0,16.25 C0,20.16625 1.39,23.75625 3.69875,26.56125 C4.1825,27.14875 4.8975,27.5 5.65875,27.5 L26.85375,27.5 C27.565,27.5 28.26,27.21375 28.71625,26.66875 C31.51625,23.32375 32.9975,18.83625 32.34875,14.00375 Z M21.4175,4.8 C21.7625,4.2025 22.5275,3.9975 23.125,4.3425 C23.7225,4.6875 23.9275,5.4525 23.5825,6.05 C23.2375,6.6475 22.4725,6.8525 21.875,6.5075 C21.2775,6.1625 21.0725,5.3975 21.4175,4.8 Z M16.25,2.5 C16.94,2.5 17.5,3.06 17.5,3.75 C17.5,4.44 16.94,5 16.25,5 C15.56,5 15,4.44 15,3.75 C15,3.06 15.56,2.5 16.25,2.5 Z M2.5,16.25 C2.5,15.56 3.06,15 3.75,15 C4.44,15 5,15.56 5,16.25 C5,16.94 4.44,17.5 3.75,17.5 C3.06,17.5 2.5,16.94 2.5,16.25 Z M6.05,23.5825 C5.4525,23.9275 4.6875,23.7225 4.3425,23.125 C3.9975,22.5275 4.2025,21.7625 4.8,21.4175 C5.3975,21.0725 6.1625,21.2775 6.5075,21.875 C6.8525,22.4725 6.6475,23.2375 6.05,23.5825 Z M6.5075,10.625 C6.1625,11.2225 5.3975,11.4275 4.8,11.0825 C4.20125,10.7375 3.9975,9.9725 4.3425,9.375 C4.6875,8.7775 5.4525,8.5725 6.05,8.9175 C6.6475,9.2625 6.8525,10.0275 6.5075,10.625 Z M10.625,6.5075 C10.0275,6.8525 9.2625,6.6475 8.9175,6.05 C8.5725,5.4525 8.7775,4.6875 9.375,4.3425 C9.9725,3.9975 10.7375,4.2025 11.0825,4.8 C11.4275,5.3975 11.2225,6.1625 10.625,6.5075 Z M14.085,17.5 C13.395,16.30375 13.80375,14.775 15,14.085 C15.75125,13.65125 21.4925,11.47625 25.65625,9.92 C26.49125,9.6075 27.12375,10.7025 26.435,11.27 C23.005,14.0975 18.25125,17.9825 17.5,18.41625 C16.30375,19.105 14.775,18.69625 14.085,17.5 Z M28.1575,23.125 C27.8125,23.7225 27.0475,23.9275 26.45,23.5825 C25.8525,23.2375 25.6475,22.4725 25.9925,21.875 C26.3375,21.2775 27.1025,21.0725 27.7,21.4175 C28.29875,21.7625 28.5025,22.5275 28.1575,23.125 Z M28.75,17.5 C28.06,17.5 27.5,16.94 27.5,16.25 C27.5,15.56 28.06,15 28.75,15 C29.44,15 30,15.56 30,16.25 C30,16.94 29.44,17.5 28.75,17.5 Z" id="Shape"></path>
                    </g>
                </g>
            </g>
        </g>
    </g>
</svg>