<?xml version="1.0" encoding="UTF-8"?>
<svg width="20px" height="20px" viewBox="0 0 20 20" version="1.1" xmlns="http://www.w3.org/2000/svg" xmlns:xlink="http://www.w3.org/1999/xlink">
    <!-- Generator: Sketch 62 (91390) - https://sketch.com -->
    <title>02 - icon/speed</title>
    <desc>Created with Sketch.</desc>
    <g id="02---icon/speed" stroke="none" stroke-width="1" fill="none" fill-rule="evenodd">
        <path d="M10.0000741,2.00000823 C14.4182643,2.00000823 18.0001399,5.58188386 18.0001399,10.0000741 C18.0001399,14.4182643 14.4182643,18.0001399 10.0000741,18.0001399 C5.58188386,18.0001399 2.00000823,14.4182643 2.00000823,10.0000741 C2.00000823,5.58188386 5.58188386,2.00000823 10.0000741,2.00000823 Z M10.0000741,3.00007406 C6.13421232,3.00007406 3.00007406,6.13421232 3.00007406,10.0000741 C3.00007406,11.9064922 3.76226156,13.6349633 4.99852314,14.897374 L5.00000823,15.0000082 L5.10277417,15.001625 C6.36518485,16.2378866 8.09365596,17.0000741 10.0000741,17.0000741 C11.9064922,17.0000741 13.6349633,16.2378866 14.897374,15.001625 L15.0000082,15.0000082 L15.0006517,14.8983676 C16.2374865,13.6358704 17.0000741,11.9069924 17.0000741,10.0000741 C17.0000741,6.13421232 13.8659358,3.00007406 10.0000741,3.00007406 Z M10,4.99995885 C12.7613689,4.99995885 15.0000412,7.23863112 15.0000412,10 L14.9990082,10.0420082 L15,11 L13.5,11 C13.2238576,11 13,10.7761424 13,10.5 C13,10.2238576 13.2238576,10 13.5,10 L14,10 L14,10 C14,9.20465334 13.7678458,8.46350743 13.3676075,7.84063224 L13,8.20710678 C12.8047379,8.40236893 12.4881554,8.40236893 12.2928932,8.20710678 C12.0976311,8.01184464 12.0976311,7.69526215 12.2928932,7.5 L12.2928932,7.5 L12.7222764,7.06929551 C12.1232099,6.51257664 11.3532134,6.13729833 10.4997444,6.03091807 L10.5000033,6.5 C10.5000033,6.77614237 10.2761457,7 10.0000033,7 C9.7238609,7 9.50000328,6.77614237 9.50000328,6.5 L9.4992594,6.03104237 C8.64571478,6.13764943 7.87570421,6.51320909 7.27672841,7.07022065 L7.70710678,7.5 C7.90236893,7.69526215 7.90236893,8.01184464 7.70710678,8.20710678 C7.51184464,8.40236893 7.19526215,8.40236893 7,8.20710678 L6.63239254,7.84063224 C6.23215417,8.46350743 6,9.20465334 6,10 L6.5,10 C6.77614237,10 7,10.2238576 7,10.5 C7,10.7761424 6.77614237,11 6.5,11 L5,11 L5,10 C4.99995885,7.23863112 7.23863112,4.99995885 10,4.99995885 Z M12.4321921,9.31624668 C11.6393532,9.95265919 10.5405317,10.8270934 10.3668815,10.9247216 C10.0903703,11.0797452 9.7370022,10.9877439 9.57750983,10.7184925 C9.41801745,10.449241 9.51249935,10.1051506 9.78901058,9.9498457 C9.96266079,9.85221743 11.2897413,9.36266935 12.2521854,9.01238925 C12.4451942,8.94205188 12.5913956,9.18851402 12.4321921,9.31624668 Z" id="Combined-Shape" fill="#2F9988"></path>
    </g>
</svg>