<?xml version="1.0" encoding="utf-8"?>
<!-- Generator: Adobe Illustrator 24.0.2, SVG Export Plug-In . SVG Version: 6.00 Build 0)  -->
<svg version="1.1" id="MappaInterattiva" xmlns="http://www.w3.org/2000/svg" xmlns:xlink="http://www.w3.org/1999/xlink" x="0px"
	 y="0px" viewBox="0 0 300 355" style="enable-background:new 0 0 300 355;" xml:space="preserve">
<style type="text/css">
	.st0{fill:none;}
	.st1{opacity:0.3;fill:none;}
</style>
<image style="display:none;overflow:visible;" width="524" height="302" xlink:href="../../../../../../../../../../Users/martapetrella/Desktop/Schermata 2020-08-11 alle 15.08.43.png"  transform="matrix(0.4557 0 0 0.5326 -24.2557 -12.5541)">
</image>
<g id="Page-1">
	<g id="_x31_280_x5F_bollo-auto_x5F_01" transform="translate(-331.000000, -315.000000)">
		<g id="Regioni" transform="translate(331.000000, 315.000000)">
			<path id="sardegna" class="st0" d="M53.8,283.8c-0.7-0.4-1.2-0.4-2-0.1c-1.4,0.5-2,0.1-3.1-2.7c-1.1-2.6-2-2.8-2.6-0.6
				c-0.8,2.6-2.2,1.7-3.4-2.3c-0.3-1.1,0.4-2,1.6-2c1.2,0,1.2-0.2,0-1.8c-1.2-1.5-1.2-1.8-0.2-2.7c1-0.9,1-2,0.1-2.5
				c-0.8-0.5-0.8-2.3,0.3-6.1c0.6-2.1,0.7-3.3,0.5-5.2c-0.2-1.9-0.1-2.6,0.3-2.8c0.8-0.5,1.1-0.4,1.1,0.3c0,0.3,0.2,0.5,0.5,0.5
				c0.6-0.2,1.1-2.9,0.8-4.1c-0.2-0.8-0.3-0.9-2.2-0.6l-2,0.3l0.3-1.9c0.1-1,0.6-2.8,1-3.9c1.2-3.2,1.1-7.1-0.4-10.8
				c-2.1-5.4-2.9-6.7-4.3-6.9c-0.9-0.1-1.2,0-1.4,0.6c-0.1,0.4-0.4,0.7-0.7,0.6c-0.6-0.2-0.8-1.8-0.3-2.4c0.5-0.5,0.6-2.3,0.1-2.8
				c-0.2-0.2-0.1-1.6,0.3-3.5c0.9-4.5,1.4-5,2.9-2.7c1,1.5,2.4,2.2,4.9,2.2c1.9,0,3-0.4,4.2-1.8c0.5-0.6,1.4-1,2.4-1.2
				c1.5-0.2,3.3-1.4,3.3-2.2c0-0.8,3.8-4.7,5.5-5.6c1.4-0.7,1.9-1.3,1.9-1.9c0-1,0.7-1.8,1.7-1.8c0.4,0,2.6,1,4.9,2.1
				c4,2.1,4.2,2.2,5.2,4.3c1.3,2.7,1.3,2.9,0,4c-0.8,0.7-0.9,0.9-0.4,0.9c1.1,0,4.2,6.9,4.2,9.4c0,1,0.3,1.8,1,2.6
				c0.5,0.6,1,1.5,1,1.8c0,1.4-1.3,4.5-2,4.9c-1.3,0.7-3.1,3.5-3.1,4.8c0,0.7,0.5,1.9,1.2,3c1.4,2,1.5,3.7,0.6,8.4
				c-0.3,1.7-0.6,4.6-0.6,6.5c0,2.5-0.3,5-1.2,8.8c-0.7,2.9-1.3,6.2-1.3,7.2c-0.1,2.1-0.6,2.6-2.5,2.6c-1,0-1.7-0.4-3-1.5
				c-1.4-1.2-2.2-1.6-4.9-2.1c-1.8-0.4-3.4-0.7-3.6-0.7c-0.4,0-0.4,2.8,0.1,5c0.5,2.4,0,3.5-2.3,5.6
				C56.4,284.4,55.4,284.6,53.8,283.8z"/>
			<path id="valle-d_aosta" class="st0" d="M23.8,40.8c-2.2,0.6-4,2.9-6.5,2.2c-2.2,1.1-4.9,1.9-7.2,0.7c-1.1,0.6-1.9,1.8-3.4,1.6
				c-1.6,0.2-3.1,1.7-2.2,3.4c1.1,3,4.3,5,4.9,8.3c0.7,1.2,2.6,1.3,3-0.3c1,0.4,0.9,2.3,2.2,1.1c2.6-0.6,5-2,7.2-3.3
				c2.9-0.5,6.1,1.7,8.6-0.5c1.9-1.6,0.7-4.2,0.1-6.2c-0.4-1.9-0.1-4.7-2.5-5.2C26.5,42.2,25.4,40.7,23.8,40.8z"/>
			<path id="piemonte" class="st0" d="M29,105.8c0.3,0.3,1.3,0.5,2.2,0.6c1.3,0.1,1.8,0,2.2-0.6c0.3-0.4,0.9-0.8,1.4-0.9
				c0.8-0.1,0.9-0.3,0.8-2.5c0-2.1,0.1-2.5,0.9-3c0.5-0.3,0.9-1,0.9-1.4s0.4-1.1,1-1.4c0.7-0.5,0.9-0.8,0.6-1.1
				c-0.6-0.6-0.5-1.1,0.4-2.5l0.8-1.3l1.4,1c1.3,0.9,1.5,0.9,2.1,0.4c0.3-0.3,1.6-0.6,2.9-0.7c1.7-0.1,2.3-0.3,2.2-0.6
				c-0.1-0.3,0.1-0.9,0.3-1.3c0.7-1.2,3-0.8,4.1,0.7l0.8,1.2l0.9-1c0.5-0.6,1.1-0.9,1.4-0.8c0.7,0.3,0.7-0.3,0.1-1.3
				c-0.4-0.6-0.3-1,0.4-1.9c0.5-0.7,1-1.2,1.2-1.2s0.9,0.5,1.6,1.2c0.7,0.6,1.5,1.2,1.8,1.2c0.3,0,0.7,0.4,0.9,0.8
				c0.8,1.5,1.6,0.7,1.7-1.6c0.1-1.2,0-2.4-0.2-2.7c-0.2-0.3-0.5-1.1-0.7-1.6c-0.3-0.7-0.7-1.1-1.5-1.2c-0.8-0.1-1.1-0.4-1.2-1.1
				c-0.1-0.5-0.5-1.4-1-1.9c-0.5-0.5-1-1.3-1-1.8c-0.1-0.5-0.5-0.8-1-0.9c-0.9-0.1-1.8-1.4-1.5-2c0.4-0.6-0.5-0.4-1,0.2
				c-0.4,0.5-1,0.6-2.5,0.4c-2.1-0.2-2.7-0.6-2.8-1.7c-0.1-1.1-0.7-2.2-1.3-2.7c-0.3-0.2-0.6-0.8-0.7-1.2s-0.3-1.2-0.5-1.8
				c-0.8-2-0.8-2.8-0.1-4.2c0.5-1.1,0.9-1.4,1.9-1.5c1.1-0.1,1.3,0.1,1.9,1.2c0.5,1,0.7,1.1,0.8,0.6c0.1-0.4,0.3-0.7,0.5-0.7
				s0.4-0.3,0.4-0.8c0-0.4,0.4-1,0.8-1.2c1.1-0.6,1-1.8-0.4-3.1c-0.8-0.7-1.3-1.6-1.4-2.6c-0.1-0.8-0.4-1.7-0.5-1.9
				c-0.2-0.2-0.4-1-0.5-1.8c-0.1-0.8-0.8-2-1.4-2.7c-1.3-1.4-1.4-1.9-0.6-2.9c0.4-0.5,0.5-1.2,0.3-2.2c-0.2-1.3-0.1-1.6,1.6-3.4
				c1.3-1.4,1.8-2.2,1.8-3.1c0-1-0.2-1.2-1.2-1.4c-0.9-0.2-2-1.1-3.7-2.9c-2-2.2-2.5-2.9-2.5-4c0-0.8,0.2-1.6,0.4-1.8
				c0.2-0.2,0.4-1.3,0.3-2.3c-0.1-2.1-1-2.7-2.1-1.6c-0.3,0.3-0.7,0.6-0.9,0.7c-0.8,0.3-4,6.9-4,8.2c0,0.8-0.6,2.3-1.7,4.1
				c-1.6,2.7-2.6,3.6-4.2,3.6c-1.2,0-2,2.2-1.7,5.1c0.1,1.4,0.5,2.7,0.7,3c0.3,0.4,0.5,1.5,0.4,2.9l-0.1,2.3L30,54.8
				c-2.3,1.2-3.8,1.4-5.1,0.7c-1.5-0.8-3.4-0.5-4.8,0.8c-0.7,0.7-1.7,1.2-2.1,1.2c-0.5,0-1.5,0.3-2.2,0.6c-0.7,0.3-1.9,0.6-2.5,0.5
				c-1.3-0.2-1.4,0.1-0.5,1.5c0.5,0.8,0.6,1.5,0.4,3.2c-0.4,3.7-0.6,4.1-4.2,5.9c-2.7,1.3-3.5,1.6-4.7,1.4C2.7,70.3,0,71.2,0,71.9
				c0,0.2,0.6,1.7,1.3,3.3c1.6,3.4,3.3,5,5.4,4.8c0.8-0.1,1.8,0.2,2.4,0.6c0.9,0.6,1,0.9,1,2.7c0,1.5-0.2,2.3-0.9,3.2
				c-0.5,0.7-1.5,2.3-2.3,3.7l-1.4,2.5L6,95.5c0.3,1.9,0.8,3.2,1.6,4.2c1.2,1.6,1.6,1.8,6.4,4.5c4.1,2.3,5.1,2.4,8.4,1.1
				c2.4-1,3.9-0.9,3.7,0.1c-0.1,0.3,0,0.9,0.2,1.1c0.3,0.4,0.5,0.3,1.2-0.3C28.2,105.5,28.5,105.4,29,105.8z"/>
			<path id="lombardia" class="st0" d="M66.9,85c-0.2-1-0.1-1.5,0.5-2.2c1-1.1,1-1.8,0-2.3c-0.8-0.4-1-1.5-0.4-2.6
				c0.2-0.4,0.8-1.7,1.4-2.9c0.9-2.1,1.2-2.4,3.2-3.2c1.5-0.7,2.3-0.8,2.4-0.5c0.2,0.3,0.5,0.3,1.1,0c0.7-0.4,0.8-0.3,0.8,0.3
				c0,0.4,0.4,0.9,1,1.2c0.8,0.4,1,0.3,1-0.1c0-0.7,1.1-1.1,1.4-0.6c0.4,0.6,1.8,0.4,2-0.3c0.4-1.2,1.7-1.7,1.7-0.7
				c0,0.5,0.2,0.5,0.8,0.2c1-0.5,1.4-0.3,2.2,1.5c0.7,1.4,0.7,1.4,2.9,1.5c1.2,0,2.4,0.2,2.5,0.4c0.4,0.7,2.5,1.6,3.3,1.4
				c0.4-0.1,0.8,0.2,1.1,0.8c0.3,0.7,0.9,1.1,2,1.5c1.6,0.5,1.6,0.5,2.9-1c1.4-1.7,3.2-2,3.6-0.7c0.1,0.5,0.7,0.9,1.5,1
				c0.7,0.1,1.4,0.4,1.6,0.6c0.1,0.2,0.8,0,1.5-0.4c2-1.2,3.6-1.4,4.7-0.7c1.2,0.8,1.3,0.8,3.1,0l1.5-0.6l-1.5-1.3
				c-0.8-0.7-1.6-1.3-1.8-1.3c-0.2,0-0.3-0.5-0.3-1c0-0.8-0.1-1-0.7-0.7c-1.4,0.6-2.6,0.4-3-0.5c-0.2-0.5-0.6-0.9-0.9-0.9
				c-0.4,0-0.5-0.3-0.3-0.8c0.2-0.6,0-0.9-0.7-1.2c-0.5-0.2-0.9-0.5-0.9-0.8c0-0.2-0.2-0.4-0.5-0.4c-0.3,0-1-0.5-1.5-1.1
				c-0.7-0.8-1.2-1.1-1.8-0.9c-0.5,0.1-0.8,0-0.8-0.2c0-0.2-0.3-0.4-0.6-0.4c-0.4,0-0.6-0.5-0.6-1.9c0-1.6-0.1-1.9-0.8-2.1
				c-0.7-0.2-0.8-0.4-0.6-1.5c0.1-0.7,0.1-2.1-0.1-3c-0.3-1.7-0.3-1.9,1.8-5.3c1.2-1.9,2.4-3.9,2.7-4.4c0.5-0.9,0.5-0.9-1.2-0.9
				c-1.2,0-1.8,0.2-1.8,0.5c0,0.5-1.6,1-3.1,1c-0.8,0-1.9-2.5-1.9-4.5c0-1-0.2-1.6-0.6-1.9c-0.8-0.4-0.8-1.6,0-2.3
				c0.3-0.3,0.6-0.8,0.6-1.2c0-0.4,0.3-1,0.7-1.3c1.3-1.1,1.7-7.3,0.6-8.5c-0.7-0.8-0.2-1.8,1.2-1.9c0.7-0.1,0.8-0.4,0.8-1.3
				c-0.1-1.4-1.3-2.5-2.7-2.5c-0.6,0-1.1-0.3-1.4-1c-0.3-0.7-0.7-1-1.6-1c-1.9,0-4-1.2-3.8-2.2c0.2-1.7-2.4-0.5-3.7,1.8
				c-0.8,1.5-1.2,3.6-0.6,3.6c0.2,0,0.8,0.5,1.5,1.1c1,0.9,1.3,1.5,1.5,3.5c0.3,2.9-0.3,3.9-2.3,3.9c-1,0-1.4-0.3-2.1-1.4
				c-0.5-0.8-0.9-1.9-0.9-2.5c0-0.6-0.2-1.3-0.5-1.5c-0.7-0.6-3.8,0.6-5,2c-0.8,0.9-1.3,1.1-2.6,1.1c-0.8,0-2-0.2-2.5-0.4
				c-1.4-0.6-3-3.2-3-4.9c0-1.6-0.8-2.5-2.4-2.5c-1.4,0-2,1.3-1.2,2.5c0.9,1.2,0.6,3.5-0.7,6.3c-0.8,1.8-1.6,2.9-2.4,3.4
				c-0.8,0.5-1.7,1.8-2.7,3.7l-1.5,2.9l1.2,1c1.3,1.1,1.4,1.8,0.6,3.5c-0.5,1-0.8,1.2-1.8,1.1c-1.3-0.1-2-1-2.4-3.1
				c-0.1-0.6-0.7-1.3-1.6-1.8c-1.4-0.8-1.4-1.1-0.5-3.1c0.5-1,0.2-1.4-1.2-1.8C53.1,36,53,36.1,53,37.6c0,1.4-0.2,1.9-1.8,3.5
				c-1.6,1.7-1.7,2-1.5,3.2c0.2,0.9,0.1,1.6-0.4,2.3c-0.6,0.9-0.6,1,0.5,2.1c1.5,1.5,1.9,2.6,2.4,5.5c0.3,1.9,0.6,2.7,1.6,3.6
				c0.7,0.6,1.2,1.5,1.2,1.9s0.2,0.8,0.4,0.8c0.8,0,0.1,1-0.8,1.2c-0.6,0.1-0.9,0.5-0.9,0.9c0,0.4-0.2,0.8-0.4,1
				c-0.2,0.2-0.5,0.6-0.7,1c-0.4,1.1-1.7,0.8-2.3-0.4c-0.8-1.6-1.7-1.6-2.4,0c-0.5,1.1-0.5,1.4,0,2.2c0.3,0.5,0.4,1,0.3,1.2
				s-0.1,0.5,0.2,0.6c0.2,0.1,0.4,0.7,0.4,1.2c0,0.5,0.2,1,0.4,1c0.5,0,1.6,2.2,1.6,3.1c0,1,2.9,1.5,3.9,0.6
				c0.4-0.3,1.1-0.6,1.5-0.6c0.7,0,0.8,0.2,0.8,1.2c0,0.9,0.2,1.2,0.7,1.2c0.9,0,1.6,0.7,1.6,1.6c0,0.3,0.4,1,1,1.5
				c0.5,0.5,1,1.3,1,1.8c0,0.7,0.3,0.9,1.1,1c1,0.1,1.2,0.4,2.5,3c0.1,0.3,0.5,0.6,0.8,0.6c0.3,0,0.7,0.2,0.9,0.5
				C66.9,86.7,67.1,86.4,66.9,85z"/>
			<path id="emilia-romagna" class="st0" d="M137.8,118.4c0.6-1.3,1-3.2,1.1-4.2c0-0.6,0.3-0.8,1.3-0.7c0.8,0.1,1.7-0.2,2.4-0.7
				c0.6-0.4,1.5-0.8,2-0.8c0.5,0,1.3-0.2,1.7-0.4c1.2-0.5,2.1-0.1,2.1,1c0,1,1.1,2.2,1.9,1.9c0.2-0.1,0.6,0.3,0.7,0.9
				c0.3,1.2,1,1.3,1.8,0.3c0.8-0.9,1.1-3.2,0.5-3.2c-0.6,0-7-6.7-8.2-8.6c-2.2-3.4-4.4-16-3.6-20c0.2-1.1,0.5-2.1,0.7-2.3
				c0.1-0.2,0.2-0.9,0.1-1.7c-0.2-1.3-0.2-1.4-2-1.4c-1.4,0-2-0.2-2.4-0.8c-0.4-0.6-1-0.8-2.9-0.9c-2.7-0.1-5.3,0.3-5.9,1
				c-0.7,0.9-2.9,2.2-3.5,2.2c-0.3,0-1-0.5-1.6-1c-0.8-0.8-1.2-1-2.1-0.7c-0.8,0.2-1.4,0.1-1.8-0.4c-0.7-0.7-2.5-0.9-2.5-0.3
				c0,0.7-3.3,0.9-4.5,0.3c-1.2-0.6-1.4-0.6-4.1,0.6c-1.2,0.6-1.9,0.7-2.4,0.4c-0.3-0.2-1.2-0.5-1.8-0.6c-0.7-0.2-1.3-0.6-1.4-1
				c-0.3-1.1-1.1-0.9-2,0.4c-0.4,0.6-1.2,1.3-1.7,1.4c-1.3,0.3-4.4-0.6-4.7-1.5c-0.1-0.4-0.5-0.7-1.1-0.7c-0.5,0-1.6-0.5-2.4-1
				c-1.2-0.8-2-1.1-3.6-1.1c-2.2,0-2.1,0-3.2-2.2c-0.3-0.6-2-0.6-2.3,0c-0.1,0.2-0.5,0.4-0.9,0.4c-0.4,0-0.7,0.2-0.7,0.4
				c0,0.6-1,0.5-1.6-0.2c-0.5-0.6-0.5-0.6-0.8,0c-0.2,0.3-0.6,0.6-0.8,0.6c-0.7,0-2.6-0.9-2.6-1.3c0-0.2-0.4-0.3-0.8-0.3
				s-0.8,0.2-0.8,0.4c0,0.2-0.7,0.4-1.6,0.3c-1.5-0.1-1.7,0-2.4,1.5c-0.5,0.9-1.1,2.3-1.5,3.2c-0.7,1.7-0.7,1.7,0.1,2.3
				c1,0.7,1.1,2.2,0.2,3.1c-0.4,0.4-0.6,1.2-0.6,2.3c0.1,1.7,0.1,1.7-1.5,1.9c-0.9,0.1-1.6,0.5-1.6,0.7c0,0.6,1.5,1.6,2,1.2
				c0.2-0.1,0.7,0.1,1.2,0.5c0.6,0.6,0.9,0.6,1.5,0.2c0.6-0.4,0.8-0.4,1,0.1c0.1,0.3,0.5,0.6,0.8,0.6c1.2,0,1.8,2.6,0.8,3.6
				c-0.3,0.3-0.6,0.8-0.7,1.1c-0.2,0.5,0.1,0.6,1.8,0.4c1.7-0.1,2.2,0,3,0.8c1.3,1.2,1.9,1,3.3-1c0.7-0.9,1.6-1.7,2-1.7
				c1.3-0.2,4.1,1.4,3.9,2.2c-0.1,0.8,1.1,2.4,1.8,2.4c0.8,0,2.9,1.2,3.3,1.9c0.2,0.4,1,0.7,2,0.7c1.2,0.1,1.8,0.3,2.2,0.9
				c0.3,0.4,0.9,0.8,1.3,0.8c0.4,0,0.9,0.4,1.1,0.9c0.2,0.5,0.9,1.4,1.6,2l1.2,1.2l0.6-0.9c0.8-1.1,2.9-1.2,3.8-0.1
				c0.4,0.4,0.9,0.8,1.2,0.8c0.3,0,0.8,0.4,1.2,0.8c1,1.1,1.6,1,2.4-0.4c0.7-1.3,1.9-1.4,1.8-0.2c-0.1,0.6,0.1,0.7,1.4,0.4
				c0.8-0.2,1.7-0.3,2-0.3c0.4,0,0.6-0.3,0.6-0.8c0-0.7,0.2-0.9,1.2-1c0.8-0.1,1.5-0.5,1.9-1.1c0.3-0.5,0.7-0.9,0.8-0.8
				c0.1,0.1,0.5-0.1,0.9-0.4c0.6-0.6,0.8-0.5,2,0.8c1.1,1.2,1.5,1.4,2.6,1.3c1.1-0.1,1.4,0,1.5,0.8c0.1,0.8,0.3,0.9,1.6,0.6
				c0.9-0.1,1.6-0.1,1.7,0.2c0.3,0.5-0.7,3.1-1.6,4c-0.4,0.5-0.5,0.8-0.2,1.2c0.2,0.3,0.5,1.1,0.7,1.9c0.3,1.6,2.3,3.5,3.7,3.5
				c0.6,0,1.5,0.4,2.1,0.8c0.9,0.7,2.3,1.3,3.4,1.5C137.3,119.4,137.6,119,137.8,118.4z"/>
			<path id="liguria" class="st0" d="M28,117.7c0.3-0.3,1.2-0.7,2.1-0.8c2.9-0.5,7.7-3.3,7.7-4.4c0-0.9,2.7-6,3.6-6.7
				c0.4-0.4,1.2-0.7,1.7-0.7c1.2,0,1.8-0.7,1.8-2.3c0-1.1,0.3-1.7,1.7-3c1.9-1.8,6-4.1,7.2-4.1c0.9,0,10.8,2.5,12.7,3.2
				c0.6,0.2,1.7,0.9,2.3,1.5c3.9,3.3,8.3,6,12,7.4c3.6,1.3,4,1.4,4.5,0.9c0.6-0.8,0.3-1.3-0.7-1.3c-0.5,0-0.8-0.3-0.8-0.8
				c0-0.6-0.3-0.8-1-0.8c-0.5,0-1-0.2-1-0.4c0-0.2-0.3-0.4-0.6-0.4c-0.4,0-0.6-0.4-0.6-1.3c0-1.1-0.3-1.5-1.8-2.6
				c-1-0.7-2.1-1.9-2.4-2.5c-1.1-2.1-2.6-2.7-4.3-1.8c-1.2,0.6-2.1,0.1-1.8-1.2c0.1-0.6,0.5-1.4,0.8-1.7c1.1-1.1,0.5-2.4-1.3-2.7
				c-0.8-0.1-1.8-0.4-2.2-0.6c-1.5-0.6-2.5-0.7-3-0.2c-0.7,0.8-2.2,0.7-2.8-0.2c-0.3-0.4-0.7-0.8-1-0.8c-0.3,0-0.8-0.3-1.2-0.7
				c-1-1-2-1.3-2.1-0.7c0,0.3-0.1,1.2-0.1,2c0,1.3-0.2,1.6-1,1.7c-0.5,0.1-1.3,0.6-1.7,1.1C54,93.9,53,94,53,93c0-1-0.8-1.9-2-2.2
				c-0.9-0.2-1.1-0.2-1.1,0.6c0,1.4-0.8,1.8-3.2,1.8c-1.7,0-2.3,0.2-2.5,0.6c-0.3,0.8-1.2,0.7-2.7-0.2C40.4,93,40.2,93,40,93.5
				c-0.1,0.3-0.1,1.1,0,1.7c0.2,0.9,0,1.3-0.8,1.8c-0.6,0.4-1,0.9-1,1.3c0,0.3-0.4,1-0.8,1.5c-0.6,0.7-0.8,1.3-0.8,2.8
				c0.1,2.6-0.2,3.2-1.3,3.2c-0.7,0-0.9,0.2-0.7,0.8c0.2,0.8,0.1,0.8-2.5,0.6c-1.5-0.1-3-0.3-3.4-0.5c-0.5-0.2-0.7-0.1-0.7,0.5
				c0,0.5-0.2,0.8-0.3,0.8s-0.6,0.7-0.9,1.5c-0.3,0.8-1.6,2.5-2.8,3.9c-2.4,2.7-2.3,2.5-1.8,3.7c0.3,0.8,0.6,0.9,2.9,1
				C26.9,118.3,27.7,118.1,28,117.7z"/>
			<path id="toscana" class="st0" d="M115,166.4c0.7-0.9,1-0.9,2.6-0.7c1,0.1,2.2,0.5,2.7,0.8c0.8,0.5,0.9,0.5,1.2-0.4
				c0.3-0.7,0.7-1,2-1.2c1.8-0.3,1.9-0.5,1-1.5c-0.8-0.9-0.2-2.9,0.9-2.9c1.7-0.1,4.2-2.8,3.8-4c-0.2-0.5,0-0.9,0.5-1.2
				c0.4-0.2,0.5-0.4,0.3-0.4c-0.5,0-1.5-2.2-1.2-2.8c0.1-0.2,0.6-0.3,1-0.2c0.4,0.1,0.8,0,0.9-0.2c0.1-0.2,0.8-0.6,1.5-1
				c1.2-0.6,1.3-0.8,1.1-1.9c-0.1-0.7,0.1-1.9,0.4-2.7c0.8-1.9,0.8-2.2-0.1-2.2c-0.6,0-0.7-0.3-0.8-1.4c-0.1-1.5,0.8-3.2,1.6-3.2
				c0.3,0,0.7-0.6,0.9-1.3c0.3-1,0.6-1.3,1.3-1.3c2.7-0.1,3-0.2,2.2-0.6c-0.4-0.2-0.7-0.8-0.7-1.4c0-0.7-0.3-1.1-0.8-1.2
				c-0.4-0.1-0.8-0.5-0.8-0.9c0-0.4-0.3-0.7-0.6-0.7c-0.7,0-0.7-0.2-0.2-1.2c0.2-0.4,0.6-0.7,0.7-0.6c0.2,0.1,0.6-0.1,0.8-0.4
				c0.4-0.5,0.4-0.7,0-0.9c-0.6-0.4-0.3-1.6,0.5-1.6c0.7,0,1.9-2.4,1.7-3.2c-0.2-0.5,0.7-1.5,2.4-2.4c0,0,0.2-0.4,0.3-0.9
				c0.2-0.8,0.1-0.9-0.7-0.9c-0.6,0-1,0.2-1,0.4c0,0.4-1.3,0.5-1.7,0.1c-0.1-0.1-1.1-0.3-2-0.3c-1.2,0-2.2-0.4-3.2-1.1
				c-0.8-0.6-1.9-1-2.4-1c-1.5,0-3.9-2.2-4.1-3.9c-0.1-0.8-0.5-1.6-0.8-1.7c-0.6-0.2-0.8-1.8-0.2-1.8c0.4,0,1.9-2.3,1.9-2.9
				c0-0.2-0.8-0.4-1.7-0.4c-1.7,0-2.8-0.5-1.9-0.9c1-0.4,0.4-0.7-1-0.6c-1.3,0.1-1.6,0-2.2-1.1c-0.8-1.2-1.4-1.5-1.4-0.8
				c0,0.2-0.2,0.4-0.5,0.4c-0.3,0-0.8,0.4-1.2,0.8c-0.4,0.4-1.2,0.8-1.7,0.8c-0.9,0-0.9,0.1-0.3,0.4c0.4,0.2,0.7,0.7,0.7,1
				c0,0.6-0.5,0.6-5.7,0.8c-1,0-2,0.3-2.4,0.7c-0.7,0.7-0.8,0.7-2,0c-0.7-0.4-1.2-0.8-1.2-1c0-0.2-0.3-0.3-0.6-0.3s-0.9-0.4-1.4-0.8
				c-1-1-2.2-1-2.7,0c-0.2,0.4-0.7,0.8-1.1,0.8c-0.8,0-3.6-2.6-3.6-3.4c0-0.3-0.3-0.5-0.8-0.5c-0.4,0-1-0.4-1.3-0.8
				c-0.4-0.6-1-0.8-2.2-0.8c-1.2,0-1.7-0.2-2.1-0.8c-0.6-0.8-2.3-1.9-3.1-1.9c-0.2,0-1-0.5-1.7-1.2c-1-0.9-1.2-1.3-0.9-1.7
				c0.3-0.4,0.1-0.7-1.1-1.2c-1.8-0.8-2.2-0.6-3.5,1.6C79,97.4,78.4,98,78.1,98c-1.1,0-0.5,1.2,1.4,2.6c1.4,1,1.9,1.7,1.9,2.4
				c0,0.6,0.2,0.9,0.4,0.7c0.2-0.1,0.5,0.1,0.6,0.6c0.1,0.5,0.5,0.8,1,0.8c0.4,0,0.9,0.3,1,0.7c0.1,0.4,0.6,0.9,1,1.1
				c0.6,0.2,0.9,0.7,0.9,1.4c0,0.6,0.7,1.8,1.9,3.1c2.9,3.3,3.6,5.2,4,10.6c0.3,4.3,0.8,7.1,1.6,7.7c0.7,0.5,2.4,3,3.4,4.9
				c1.2,2.4,1.8,5.6,1.6,8c-0.2,1.3,0,2.2,0.6,3.4c0.7,1.4,1,1.6,2.4,1.8c2.2,0.3,3.2,1.3,3,2.9c-0.2,1,0,1.4,0.9,2.2
				c0.6,0.6,1.2,1,1.4,1c1.3,0,6.4,5.3,7.9,8.4c0.6,1.1-0.1,3.3-1.1,3.3c-1.1,0-1.4,0.8-0.6,1.4C114.2,167.5,114.1,167.5,115,166.4z
				"/>
			<path id="marche" class="st0" d="M171.7,155.1c0.5-0.5,1.3-1.4,1.6-1.9c0.5-0.8,0.9-0.9,2.4-0.9c1.5,0,1.9-0.1,2.2-0.9
				c0.2-0.5,0.8-1,1.4-1.1c2.3-0.5,3.6-1.2,3.3-1.9c-0.1-0.3-0.4-1.7-0.6-3c-0.3-2.1-4.1-12.7-5.6-15.7c-0.4-0.7-0.6-1.6-0.6-2.1
				c0-1-1.4-2.3-2.6-2.3c-2.1,0-5.2-2.2-11.6-8.1c-5-4.6-7.3-5.6-7.3-3c0,0.6-0.4,1.5-0.8,2c-1,1-3,1.3-3,0.3c0-0.3-0.3-0.6-0.7-0.6
				c-0.4,0-0.8-0.4-1-0.9c-0.2-0.5-0.3-0.7-0.5-0.4c-0.1,0.3-0.7,0.5-1.4,0.5c-0.9,0-1.3-0.2-1.6-1.2c-0.5-1.4-0.9-1.4-2.2-0.4
				c-0.5,0.4-1.4,0.8-2,0.8c-0.9,0-1.1,0.3-1.5,1.9c-0.3,1-0.7,2.1-0.8,2.3c-0.5,0.7,1.2,1,2.8,0.5c1.2-0.3,1.4-0.3,2.4,0.7
				c0.6,0.6,1.1,1.2,1.1,1.4c0,0.6-1.2,1.5-1.7,1.3c-0.6-0.2-2.6,0.9-2.6,1.5c0,0.6,2,1,2.5,0.5c0.2-0.2,0.7-0.4,1.1-0.4
				c0.6,0,0.7,0.3,0.6,1.5c-0.1,1.4,0,1.5,1.2,1.5c1,0,1.6,0.4,3,1.8c0.9,1,1.8,1.6,2,1.4c0.1-0.2,0.5-0.3,0.8-0.2
				c0.3,0.1,0.9,0,1.3-0.2c0.4-0.2,1-0.3,1.4-0.2c0.5,0.2,0.6,0.6,0.4,1.8c-0.2,1.1-0.1,1.8,0.4,2.5c0.3,0.5,0.6,1.3,0.6,1.7
				s0.4,1.4,0.9,2.3c0.7,1.3,0.8,1.8,0.4,2.4c-0.4,0.6-0.3,0.8,0.2,1.1c0.5,0.3,0.7,1.1,0.9,2.8c0.2,2.7,1.2,4.1,2.9,4.1
				c0.8,0,1.4,0.5,2.3,1.6c1.1,1.4,1.3,1.5,2,1.1c1-0.7,1.8,0.1,1.9,1.9c0,1.4,1.5,3,2.7,3C170.4,156.1,171.1,155.6,171.7,155.1z"/>
			<path id="p_a-di-bolzano" class="st1" d="M145.6,14.2c-0.5-0.3-1-0.8-1-1.1c0-1.5-3.1-6-4.1-6c-0.7,0-1.6-1.2-2-2.9c-0.5-1.7-0.2-2.4,1.4-3
				c0.5-0.2,0.9-0.6,0.9-0.9c0-0.5-0.2-0.5-1.5,0c-8,3.4-11.1,4.3-11.5,3.3c-0.1-0.2-1.3-0.5-2.7-0.6c-3-0.3-9.8,1.1-11.1,2.3
				c-0.4,0.4-1,1.6-1.3,2.7c-0.7,2.9-1.7,3.8-4,3.8c-2.3,0-3.2-0.4-5.1-2.4c-1.1-1.1-1.6-1.5-2.1-1.3c-0.4,0.2-1.5,0.4-2.5,0.5
				c-2.5,0.3-2.7,1.1-1.9,6.7c0.2,1.6,0.4,3.5,0.3,4.3c-0.1,1.2,0.1,1.4,0.9,1.5c0.9,0.1,1.6,0.5,2.1,1c0.6-0.2,1-0.4,1.2-0.5
				c0-0.1,0.1-0.2,0.2-0.4c0.3-0.6,0.6-1.2,1.2-1.2c0.4,0,0.7,0.2,0.9,0.7l0.1,0.2c0.5,1.1,0.7,1.5,1.1,1.4c0.3-0.1,1-0.5,1.5-0.8
				c0.9-0.6,1.6-1.1,2.1-0.5c0.3,0.2,1.4,0.7,1.8,0.7c0,0,0,0,0,0c0-0.2-0.2-0.7-0.3-1c-0.2-0.8-0.4-1.4,0.1-1.8
				c0.2-0.1,0.5-0.2,1,0.1c0.3,0.2,0.5,0.4,0.8,0.6c0.7,0.6,1.4,1.2,2.1,1c0.6-0.1,0.9,0,1.1,0.2c0.5,0.4,0.4,1.2,0.4,1.8
				c0,0.2,0,0.5,0,0.5c0.3,0.7,0.2,4-1,5.4c-0.5,0.6-0.6,1.6-0.3,2c0,0.1,0.1,0.2,0.6,0c0.7-0.3,1.7-1.2,2.4-1.9
				c1-1,1.5-1.5,2.1-1.2c0.1,0.1,0.2,0.2,0.3,0.3c0.8-1.1,2.5-1.9,3.2-2.1c0.2-0.1,0.4-0.1,0.6,0c0.3-0.1,1.3-0.8,1.3-2.2
				c0.1-1.7,0.7-3.3,1.6-3.9c0.3-0.2,0.7-0.3,1.1-0.2c2.3,0.8,5.8-0.1,8.3-1c0,0,0.1,0,0.1,0c0.4-0.7,0.7-1.4,0.7-2.2
				c0-0.4,0.3-0.9,0.6-1.2c0.5-0.4,0.7-0.4,1.3,0.1c0.4,0.4,0.9,0.6,1.1,0.6c0.2,0,0.5,0.4,0.7,0.8c0.2,0.6,0.5,0.7,1.3,0.5
				c0.6-0.1,1.4-0.4,1.7-0.6s0.8-0.3,1-0.2s0.7-0.2,1.2-0.7l0.8-0.9L145.6,14.2z"/>
			<path id="p_a-di-trento" class="st1" d="M127.2,20.6c-0.2,0.1-0.9,1.2-1,3c-0.1,1.7-1.1,2.8-1.9,3.2c-0.3,0.2-0.6,0.2-0.9,0.2
				c-0.5,0.1-2.2,0.9-2.7,1.8c-0.4,0.8-0.9,1.6-1.6,1.4c-0.4-0.1-0.5-0.5-0.6-0.9c-0.1,0.1-0.2,0.2-0.3,0.3
				c-0.8,0.8-1.8,1.7-2.8,2.2c-0.3,0.1-0.6,0.2-0.9,0.2c-0.5,0-0.9-0.2-1.2-0.6c-0.7-0.9-0.5-2.5,0.4-3.5c0.9-1,1-3.6,0.8-4.1
				c-0.2-0.3-0.1-0.7-0.1-1.2c0-0.2,0.1-0.5,0-0.7c-1.2,0.3-2.2-0.5-3.1-1.1c0.2,0.7,0.3,1.3,0,1.8c-0.1,0.2-0.4,0.4-0.9,0.4
				c-0.8,0.1-2-0.4-2.6-0.8c-0.2,0.1-0.6,0.3-0.8,0.5c-0.7,0.5-1.4,0.9-2,1c-1.3,0.2-1.9-0.9-2.4-1.9c0,0,0,0.1,0,0.1
				c-0.1,0.3-0.3,0.5-0.4,0.7c-0.1,0.1-0.2,0.3-1.5,0.8c0.1,0.2,0.1,0.5,0.2,0.7c0.3,1.7-0.2,2.7-1.4,2.7c-0.8,0-0.9,0.4-0.3,1
				c0.9,0.9,0.3,8-0.8,9c-0.4,0.4-0.7,0.9-0.7,1.3s-0.3,0.9-0.7,1.3c-0.6,0.7-0.6,0.8,0,1.2c0.4,0.3,0.7,1.2,0.8,2.5
				c0.2,3.1,2.1,4.4,3.6,2.5c0.5-0.7,3.3-0.8,4.9-0.1c1.2,0.5,1.8,2.1,1.1,3c-0.4,0.4-0.3,0.7,0.2,1.4c0.8,0.9,0.8,0.9,2.1,0.3
				c0.7-0.4,1.3-0.4,2.1-0.2c0.9,0.3,1.3,0.2,1.7-0.3c0.3-0.4,0.5-0.9,0.5-1.2c0-1,2.4-5.6,3.2-6.1c0.4-0.3,1-0.5,1.3-0.3
				c0.3,0.1,0.5-0.1,0.5-0.5c0-0.5,0.6-1,1.9-1.6c2.1-1,3.8-1.1,4.1-0.3c0.6,1.6,2.4-0.6,1.9-2.4c-0.2-0.9,1.2-1.7,3-1.7
				c1.5,0,4.4-2.6,3.4-3c-0.4-0.1-0.7-0.6-0.7-1c0-0.4-0.4-0.9-1-1.1c-0.6-0.2-1-0.7-1-1.1c0-0.4-0.3-1-0.6-1.2
				c-0.7-0.6-0.8-1.5,0-1.8c0.3-0.1,0.7-0.7,0.8-1.4c0.1-0.6,0.4-1.1,0.6-1.1c0.7,0,0.4-0.9-0.4-1.1c-0.4-0.1-0.8-0.5-0.8-0.9
				c0-0.3,0.1-0.5,0.3-0.7C129.5,21.1,128.2,21,127.2,20.6z"/>
			<path id="veneto" class="st0" d="M144.8,81.1c-0.2-0.6,0-1.1,0.5-1.6c0.9-0.8,1.7-0.4,1.5,0.8c-0.2,1.3,0.5,0.7,1.1-0.8
				c0.8-1.8,0.7-2.9-0.2-2.9c-0.4,0-1.3-0.7-2.1-1.5c-1.8-1.9-6.5-8.8-6.6-9.7c-0.1-0.4,0.6-2.2,1.6-3.9c1.5-2.9,1.9-3.4,4.3-5
				c2.6-1.7,2.7-1.8,4.1-1.3c1.6,0.6,1.8,1.3,0.5,2.6c-0.7,0.8-0.5,0.7,1.9-0.5c5.5-3,9.2-4.8,10-4.8c1,0,0.9-0.4-0.2-2.8
				c-0.5-1.1-1-2.3-1-2.6c0-0.5-0.3-0.6-1.4-0.5c-0.9,0.1-1.4,0-1.4-0.4c0-0.4-0.1-0.4-0.5,0c-0.7,0.7-1.4,0.6-1.5-0.2
				c-0.1-0.5-0.3-0.5-1.4,0.4c-1.4,1.2-2,1.3-2.3,0.4c-0.1-0.3-0.6-0.6-1.1-0.6c-1.2,0-1.6-0.4-2.2-2.1c-0.3-0.8-0.9-1.8-1.4-2.2
				c-0.4-0.4-0.9-1.1-1-1.6c-0.1-0.5-0.3-1.4-0.5-1.8c-0.2-0.7,0-1.1,0.9-2c1.4-1.3,1.5-1.7,0.6-2.4c-0.3-0.3-0.6-0.8-0.6-1.2
				c0-0.4-0.4-0.8-0.9-1c-1.2-0.4-2.2-1.3-2.2-2.1c0-0.7,1.1-1.8,2.4-2.5c0.5-0.2,1.1-1.1,1.5-2c0.8-2.1,1.4-2.7,2.7-3
				c0.7-0.1,1.2-0.5,1.3-1c0.1-0.5,0.8-1,1.4-1.3c1-0.4,1.2-0.6,1.2-1.9c0-1.8-0.8-2.2-4.4-2.5c-2.4-0.2-2.7-0.1-3.3,0.7
				c-0.5,0.6-1.3,1-2.7,1.2c-1.1,0.2-2.1,0.4-2.2,0.6c-0.4,0.7-1.3,0.4-1.5-0.5c-0.3-1.1-2.2-2.1-2.2-1.1c0,0.4-0.3,1.4-0.7,2.2
				c-0.5,1.3-0.9,1.7-2.1,2.1c-0.8,0.3-2,0.5-2.5,0.5h-1.1l0.9,0.6c0.8,0.6,1.2,2.1,0.5,2.1c-0.2,0-0.5,0.5-0.6,1.1
				c-0.1,0.6-0.5,1.2-0.9,1.4c-0.6,0.2-0.6,0.3,0,0.9c0.4,0.4,0.6,1,0.6,1.4s0.2,0.6,0.3,0.5c0.5-0.3,1.5,0.9,2.6,3.2
				c0.1,0.3-0.1,0.8-0.6,1.3c-0.5,0.4-0.8,0.9-0.8,1.1c0,0.4-2.4,1.2-3.5,1.2c-1.3,0-1.7,0.4-1.8,1.7c0,0.6-0.1,1.6-0.1,2
				s-0.4,1-0.7,1.1c-0.8,0.3-2.7-0.4-2.7-1c0-0.6-1.1-0.5-2.8,0.3c-1,0.5-1.5,1-1.7,1.8c-0.2,0.9-0.4,1.1-1.3,1
				c-0.9-0.1-1.2,0.2-2.3,2.4c-0.7,1.4-1.3,2.7-1.3,3c0,0.3-0.2,0.9-0.5,1.5c-0.4,1-0.6,1-2.3,0.8c-1.1-0.1-1.9-0.1-2,0.1
				c-0.1,0.2-0.7,0.5-1.4,0.6c-1,0.2-1.3,0.1-1.3-0.4c0-0.3-0.3-0.6-0.6-0.6c-0.6,0-0.8-1.9-0.2-2.6c0.2-0.2,0.2-0.7,0.1-1.1
				c-0.3-0.7-0.3-0.7-0.9,0.2c-0.3,0.5-1.5,2.4-2.6,4.1c-2,3.2-2,3.2-1.9,6.1c0.1,2.6,0.2,3,0.9,3.1c0.6,0.1,0.8,0.4,0.8,1.7
				c0,1.6,0.7,2.6,1.6,2.3c0.2-0.1,0.9,0.5,1.5,1.2s1.3,1.4,1.6,1.4s0.7,0.2,0.8,0.5c0.1,0.3,0.5,0.6,1,0.7s0.9,0.6,1.1,1.1
				c0.2,0.5,0.5,0.9,0.7,0.9s0.4,0.3,0.4,0.6s0.1,0.7,0.1,0.9c0,0.2,0.3,0.1,0.6-0.1c0.3-0.3,0.6-0.4,0.6-0.2c0,0.2,0.2,0.1,0.5-0.1
				c0.8-0.6,2,0.1,2,1.1c0,0.7,0.2,0.9,0.7,0.9c0.4,0,0.9,0.4,1.1,0.9c0.2,0.5,1.1,1.2,2.1,1.7c1,0.4,1.8,1,1.8,1.3
				c0,0.3,0.4,0.4,1.3,0.3c1-0.1,1.5,0.1,2.4,0.9c1.1,1,1.1,1,2.1,0.3c0.6-0.4,1.2-0.9,1.5-1.2c0.6-0.8,4.1-1.6,6.5-1.4
				c2.8,0.2,3.8,0.5,3.8,1.2c0,0.4,0.4,0.5,2.1,0.4l2.1-0.2v1.5c0,1,0.2,1.5,0.5,1.5c0.3,0,0.6,0.4,0.7,0.8c0.1,0.4,0.3,0.8,0.5,0.8
				C144.9,82,145,81.6,144.8,81.1z"/>
			<path id="friuli-venezia-giulia" class="st0" d="M173,50c0.3-0.3,0.5-0.9,0.5-1.4c0-0.6,0.3-1.1,1-1.3c0.9-0.4,1.4-1.9,0.6-1.9
				c-0.5,0-0.1-1.9,0.6-2.4c0.3-0.2,0.5-1,0.5-1.6c0-0.9-0.1-1.1-0.5-0.7c-0.8,0.8-2.2,0.6-2.7-0.5c-0.3-0.7-0.3-1.2,0.4-2.5
				c0.5-0.9,1-1.6,1.1-1.6c0.5,0,2.4-2,2.4-2.5c0-0.7-3.5-1.8-4.9-1.6c-1.1,0.2-1.2,0.1-1.6-1.5c-0.5-1.7-0.5-1.7,1.2-3.4
				c0.9-0.9,2.7-2.3,4-3.1c1.3-0.8,2.4-1.4,2.4-1.4c0,0,0.2-0.4,0.3-0.9c0.2-0.7,0-0.9-2-1.5c-1.2-0.4-3.9-0.7-6-0.9
				c-4.3-0.2-13.4-2-14.7-2.8l-0.9-0.6l0.3,2.2c0.3,2.1,0.2,2.2-0.7,2.2c-1,0-2.9,1.1-2,1.2c0.3,0,0.5,0.4,0.5,0.8
				c0,0.6-0.3,0.8-1.6,0.7c-1.8,0-2.6,0.5-2.9,2c-0.3,1.3-1.6,3.1-2.3,3.1c-0.3,0-0.8,0.3-1.1,0.7c-0.6,0.7-0.6,0.8,0,1.3
				c0.4,0.3,1.1,0.7,1.6,0.9c0.5,0.1,0.9,0.6,0.9,1c0,0.4,0.3,0.9,0.6,1.2c1,0.8,0.7,2.6-0.4,3.4c-0.9,0.6-1,0.8-0.8,2.2
				c0.1,0.9,0.6,1.9,1.1,2.3c0.5,0.4,1.2,1.5,1.5,2.3c0.5,1.2,0.9,1.7,1.6,1.7c0.5,0.1,1.1,0.3,1.4,0.5c0.3,0.3,0.8,0.1,1.6-0.4
				c1.2-0.9,2.4-1.1,2.4-0.4c0,0.3,0.2,0.3,0.6-0.1c0.5-0.4,0.7-0.4,1.1,0.1c0.5,0.6,1.2,0.7,1.6,0.3c0.6-0.6,1.3-0.3,1.3,0.6
				c0,0.5,0.3,1.5,0.7,2.3l0.7,1.5l0.7-1.2c0.5-0.8,1-1.2,1.7-1.2c1.8,0,5.7,1.3,6.5,2.2C172.2,50.6,172.4,50.6,173,50z"/>
			<path id="sicilia" class="st0" d="M214.3,354.5c0-0.2-0.3-1-0.6-1.7c-0.6-1.2-0.6-1.5,0.1-3.6c0.6-1.9,1.1-2.5,2.8-3.8
				c1.7-1.3,2-1.7,2-2.8c0-1-0.2-1.3-0.9-1.4c-1.3-0.2-4.2-6.3-4.6-9.5c-0.3-2.5,0.2-4.2,1.3-4.6c0.7-0.3,1.8-3.8,1.8-5.7
				c0-1.4,1.9-4.6,6.1-10.1c0.9-1.2,1.9-3,2.2-4.4c0.4-1.2,0.9-2.4,1.3-2.6c0.6-0.3,0.6-0.4-0.1-0.7c-0.5-0.2-2.5,0.6-6.6,2.6
				l-5.8,2.9l-1.9-0.7c-3-1.1-4.9-0.9-7.1,0.8c-3.5,2.6-10.8,3.8-16.7,2.9c-1.7-0.3-3-0.3-3.1-0.1c-0.5,0.8-2.9,1.6-4.7,1.6
				c-1.7,0-2.6-0.3-6.1-2.2c-2.2-1.2-4.1-2.4-4.2-2.6c-0.1-0.2-0.2-0.9-0.4-1.6l-0.2-1.1l-2.6,0.3c-3,0.3-4.1,1-3.8,2.5
				c0.3,1.3,0,1.6-1.8,2.5c-2.3,1.1-3.2,0.9-5.2-1.1l-1.7-1.7l-2.3,1.4c-1.8,1.1-2.5,1.7-3.2,3.2c-0.5,1.1-0.9,2.4-0.8,3.2
				c0,0.8-0.2,1.7-0.5,2.1c-1,1.3-0.1,3.5,2.4,5.7c2.1,1.9,2.3,2,3.7,1.7c2.9-0.5,5.4-0.2,6.8,0.8c0.8,0.5,2.1,1.1,3,1.3
				c1.7,0.4,4.2,2.1,4.5,3.3c0.2,0.6,6,3.8,7,3.8c0.3,0,1.3,0.8,2.2,1.7c0.9,1,2.7,2.3,4.1,2.9c2.2,1,2.7,1.1,5.3,0.9
				c2.5-0.2,3.1-0.1,4.5,0.7c2.8,1.6,4.7,3.4,5.9,5.6c1.3,2.5,2,3.1,6.2,5c2.7,1.3,3.2,1.4,4.3,1c1.5-0.5,5.3,0.4,5.9,1.3
				C213.4,354.9,214.3,355.1,214.3,354.5z"/>
			<path id="calabria" class="st0" d="M238.7,313.3c0.5-0.7,1-2.2,1.1-3.3c0.2-1.8,0.6-2.5,2.8-5c1.9-2.3,2.8-3.1,3.8-3.2
				c0.7-0.1,1.9-0.8,2.7-1.6c1.4-1.3,1.4-1.4,1.4-3.8c0-1.4-0.3-3.4-0.6-4.6c-0.6-2.2-0.5-2.9,0.9-4.9c1-1.4,5.2-4,7.8-4.8
				c1.8-0.5,2.3-0.5,4.1,0c1.6,0.5,2.1,0.5,2.3,0.1c0.5-0.8,0.4-2.8-0.3-4c-0.7-1.3-0.8-7.4-0.2-9.6c0.5-1.7,0.2-2-2.4-3.2
				c-0.8-0.4-2.7-1.7-4.4-2.9c-2.5-2-3.2-2.3-4.6-2.3c-2.2,0-3.6-0.9-4.2-2.7c-1-2.9-1-3.3,0.7-6.1c1.3-2.2,1.6-3.1,1.5-4.5
				c0-1,0.1-2.1,0.2-2.6c0.2-0.8,0.1-0.8-2-0.8l-2.3,0l-0.3,2c-0.1,1.1-0.5,2.3-0.7,2.8c-0.2,0.4-0.4,1.3-0.4,1.9
				c0.1,1.3-0.7,1.4-1.4,0.3c-0.5-0.8-1.8-1.1-2.2-0.4c-0.1,0.2-1.2,0.5-2.4,0.6c-2,0.2-2.2,0.2-2.8-0.6c-1.5-2.2-3.9-2.8-5.6-1.5
				c-0.8,0.7-0.9,0.9-0.5,2.2c0.2,0.8,0.6,2.8,0.7,4.4c0.3,3.1,1.2,5.3,3.9,9.1c1.6,2.3,2.5,5.1,2.5,7.6c0,2,1.2,7.5,1.9,8.9
				c0.2,0.5,0.9,1,1.4,1.2c0.8,0.3,1,0.6,1,2.1c0,1.8-1,4.8-1.7,5.4c-0.2,0.2-1.3,0.2-2.3,0.1c-1.6-0.2-2.1-0.1-3.8,1l-1.9,1.2
				l1.2,1.5l1.2,1.5l-0.6,2.4c-0.3,1.3-1.2,3.4-1.9,4.7c-1.2,2.2-1.4,2.4-3.4,3c-1.7,0.5-2.1,0.7-1.8,1.3c0.2,0.4,0.3,2,0.4,3.6
				c0,1.6,0.2,3.2,0.3,3.4c0.6,0.9,2.5,1.4,6.1,1.4h3.6L238.7,313.3z"/>
			<path id="campania" class="st0" d="M222.6,246c1.1-1.4,2.8-2,3.9-1.4c0.8,0.4,1.9-0.9,1.9-2.2c0-0.4,0.5-1.3,1.2-1.9
				s1.2-1.2,1.2-1.4s-0.4-0.7-1-1.2c-0.5-0.5-1-1.3-1-1.8c0-0.6-0.3-1-1-1.3c-0.5-0.2-1-0.6-1-0.8c0-0.2-0.2-0.4-0.5-0.4
				c-0.6,0-2.3-2.2-2.2-2.8c0.1-0.8-0.7-2.5-1.5-3c-0.6-0.3-0.6-0.5-0.2-1.2c0.5-0.9,0.3-1.3-1.5-2.3c-1.1-0.6-1.6-5.7-0.6-6.3
				c0.3-0.2,0.8-0.3,1.3-0.3c1.5,0.1,1.8-0.1,2.7-1.6c0.8-1.3,0.9-1.7,0.6-2.7c-0.2-0.7-0.7-1.2-1-1.2s-0.9-0.2-1.4-0.4
				c-0.5-0.2-1.6-0.5-2.5-0.6c-1.7-0.1-3.9-1.5-4-2.3c0-0.2,0.2-0.6,0.5-0.9c0.3-0.2,0.6-0.9,0.7-1.4c0.2-0.9,0-1-1.3-1.2
				c-0.9-0.2-1.6-0.5-1.7-0.9c-0.1-0.4-0.6-0.8-1-0.9c-0.8-0.2-1.1-1.6-0.4-2c0.6-0.4,0.5-1.3-0.4-2.1c-0.9-0.9-1.3-0.9-2.2-0.4
				c-2.1,1.1-2.8,1.3-3.6,1.1c-0.4-0.1-1,0-1.2,0.3c-0.2,0.3-0.9,0.5-1.5,0.5s-1.4,0.3-2,0.6c-0.7,0.5-1.1,0.6-1.6,0.2
				c-0.4-0.2-1.1-0.4-1.5-0.4s-0.9-0.3-1-0.6c-0.1-0.3-0.5-0.6-0.7-0.6s-1.7-0.5-3.2-1.2c-2.1-0.9-3-1.1-3.8-0.8
				c-1,0.3-1.1,0.4-1,1.8l0.1,1.5l-1.5-0.1c-1.2-0.1-1.6-0.3-2.1-1.4l-0.6-1.2l-0.9,0.7c-0.7,0.6-0.9,1.2-1,2.7
				c0,1.4-0.3,2.1-0.7,2.5c-0.4,0.3-0.7,0.7-0.7,0.9c0,0.2-0.4,0.5-0.9,0.5c-0.8,0.1-0.8,0.1-0.1,0.9c1.1,1.1,4.3,6.3,6.1,9.9
				c1.5,3.1,1.6,3.2,2.9,3.2c0.7,0,1.7-0.3,2.2-0.6c0.8-0.5,1-0.4,3.5,1.3c3.3,2.3,3.7,3.2,1.8,4.9c-0.7,0.7-1.7,1.4-2.1,1.7
				c-0.7,0.5-0.7,0.5,0,0.2c0.4-0.1,1.2-0.5,1.6-0.8c0.6-0.4,1.4-0.5,2.4-0.3c1.1,0.2,1.6,0.1,2-0.4c0.3-0.3,0.9-0.6,1.3-0.6
				s1.3-0.3,1.8-0.7c0.9-0.6,1-0.6,2.7,1.3c2.6,2.9,5.5,10.3,4,10.3c-0.5,0-1.2,2.1-0.9,2.6c0.4,0.6,2.9,2.1,3.6,2.1
				c0.3,0,2.1,1.4,3.9,3.1s3.5,3.1,3.7,3.1C221.4,247.3,222,246.7,222.6,246z"/>
			<path id="lazio" class="st0" d="M163.9,205.2c0.1-0.2,1-0.6,2-1c1.8-0.6,2-0.6,5.5,0.4c3,0.8,3.8,1,4.4,0.6
				c0.7-0.4,1.4-0.4,3.5,0.2c0.3,0.1,1.1-0.3,1.7-0.8c1-0.8,1.1-1.2,1.1-3c0-1.9,0.1-2.1,1.5-3c0.8-0.5,1.6-1.3,1.7-1.6
				c0.8-2-1.3-7.1-2.9-7.1c-0.4,0-0.9-0.2-1-0.4c-0.1-0.2-0.7-0.4-1.4-0.4c-0.8,0-1.2-0.2-1.4-0.7c-0.3-0.9-1.6-1.3-2.2-0.6
				c-0.6,0.7-2.9,0.7-3.4,0.1c-0.5-0.8-2-1.5-3.1-1.5c-1,0-1-0.1-0.8-1.5c0.2-1.5-0.5-2.4-1.8-2.4c-0.3,0-0.8-0.3-1-0.6
				c-0.6-0.8-2.7-1.8-3.6-1.8c-0.4,0-1.1-0.2-1.5-0.4c-1.1-0.6-1-3.1,0-3.8c0.4-0.3,0.8-0.7,0.8-1c0-1,1.5-1.1,3.2-0.3
				c2.8,1.4,3.8,0.1,1.7-2.2c-0.7-0.8-1.3-1.8-1.3-2.1c0-0.4-0.4-0.9-0.8-1.1c-0.6-0.3-0.8-0.7-0.6-1.6c0.1-0.7,0.1-1.1-0.1-1.1
				c-0.8,0-0.9-1.6-0.3-2.3c0.6-0.6,0.6-0.8,0.1-1.6c-0.4-0.7-0.4-0.9,0-1c0.3-0.1,0.5-0.4,0.5-0.7c0-0.9,1.2-1.3,2.7-0.9
				c0.8,0.2,1.6,0.3,1.9,0.3c0.6,0,1.1-1.6,0.5-1.9c-0.2-0.2-0.7-0.9-1.1-1.6c-0.5-1-0.9-1.3-1.6-1.3c-0.8,0-1,0.3-1.4,1.6
				c-0.4,1.4-0.6,1.6-2.2,1.9c-1,0.2-1.9,0.5-2.1,0.7c-0.2,0.2-0.9,0.3-1.8,0.3c-1.2,0-1.5,0.2-1.6,0.8c-0.1,0.4-0.7,1.1-1.3,1.5
				c-0.6,0.4-1.2,0.8-1.3,0.9c-0.1,0.2-0.4,0.3-0.7,0.3c-0.3,0-0.6,0.4-0.6,0.9c0,0.7-0.3,1-1.2,1.2c-0.7,0.2-1.8,0.8-2.4,1.4
				c-1.1,1.1-2.2,1.5-2.2,0.7c0-0.2-0.5-0.4-1.2-0.4c-0.9,0-1.2-0.1-1-0.6c0.1-0.3,0.1-0.6-0.2-0.6s-0.4-0.4-0.4-1s-0.2-0.9-0.4-0.8
				c-0.2,0.1-0.7,0.1-1.1-0.1s-1-0.5-1.4-0.6c-0.4-0.1-0.7-0.6-0.7-1.1c0-0.5-0.2-1.1-0.5-1.4c-0.3-0.2-0.7-1-0.8-1.8
				c-0.3-1.6-0.6-1.7-3-1.3c-1.6,0.3-2,0.3-3-0.5c-1.3-0.9-1.5-1.8-0.8-2.6c0.3-0.3,0.3-0.6-0.2-1.1c-0.4-0.4-0.6-0.9-0.6-1.2
				c0-0.9-0.7-1-1.7-0.3c-1,0.7-1.3,1.7-0.6,1.7c0.5,0,0.5,1.4,0,1.7c-0.2,0.1-0.3,0.8-0.1,1.4c0.1,0.7,0.1,1.2-0.2,1.2
				c-0.2,0-1,0.6-1.8,1.3c-0.8,0.7-1.7,1.4-2.1,1.6c-0.9,0.3-1.4,1.2-0.8,1.6c0.2,0.1,0.4,0.7,0.4,1.4c0,1-0.1,1.1-1.7,1.4
				c-1.2,0.2-1.8,0.5-1.9,1c-0.2,0.8,0.1,1.1,1.9,1.9c1.6,0.8,4.1,3.4,4.4,4.6c0.1,0.6,0.7,2,1.4,3.3c1,2,1.3,2.2,2.3,2.2
				c1.4,0,6.1,3,7.3,4.6c0.4,0.6,1,1.8,1.3,2.7c0.3,0.9,1.1,2.1,1.9,2.7c2.5,2,5.2,4.9,6.6,6.9c1.3,1.9,1.6,2.1,5.2,3.3
				c3.5,1.2,3.9,1.5,5.5,3.4c1,1.2,1.7,2.4,1.7,2.7C161.7,205.6,163.5,205.8,163.9,205.2z"/>
			<path id="umbria" class="st0" d="M150,166.2c0.2-0.4,0.3-1,0.2-1.3c-0.3-0.8,1.1-1.2,1.6-0.5c0.6,0.8,1.3,0.4,1.3-0.6
				c0-0.4,0.7-1.1,1.9-1.8c1.2-0.7,1.9-1.3,1.9-1.8c0-0.8,0.7-1.2,2.4-1.2c0.6,0,1.1-0.2,1.1-0.3c0-0.2,0.6-0.4,1.3-0.5
				c2.6-0.4,2.9-0.7,3-2.7c0-0.6,0.4-1.3,1-1.6c0.7-0.4,0.9-0.9,0.7-1.4c-0.2-0.9-0.7-1-1.1-0.4c-0.5,0.8-1.3,0.4-2.1-0.9
				c-0.9-1.5-1.9-2-2.5-1.4c-0.7,0.7-1.4,0.5-1.4-0.4c0-0.4-0.3-0.9-0.6-1c-0.8-0.3-1.4-2.3-1.4-4.3c0-1.4-0.1-1.8-0.8-1.9
				c-0.9-0.2-1-1.3-0.3-2c0.3-0.3,0.2-0.8-0.4-1.9c-0.5-0.8-0.8-1.8-0.8-2.2c0-0.4-0.3-1.2-0.6-1.7c-0.4-0.6-0.6-1.5-0.5-2.5
				c0.1-1.5-0.2-2.1-0.5-1.1c-0.1,0.3-0.8,0.5-1.6,0.6c-1.3,0.1-1.7-0.1-3.3-1.9c-1.7-1.8-2-1.9-2.8-1.4c-0.7,0.4-0.9,0.4-1,0
				c-0.1-0.3-0.5-0.5-0.9-0.5c-1,0-1.4-1.1-0.6-1.7c0.5-0.4,0.4-0.5-1-0.5c-1.4-0.1-1.7,0.1-2.4,1.4c-0.5,0.8-0.8,1.7-0.7,2.1
				c0.1,0.4-0.2,1-0.7,1.3c-1.1,0.7-1.1,2.3,0,2.7c0.5,0.2,0.8,0.6,0.8,1.4c0,1,0.1,1.1,0.8,0.8c1.1-0.6,1.2-0.5,1.2,0.5
				c0,1.1-1,1.7-3,2.1c-1.2,0.2-1.6,0.5-1.9,1.4c-0.2,0.6-0.7,1.1-1,1.1c-0.9,0-1.5,1.3-1.1,2.4c0.2,0.5,0.5,0.8,0.7,0.7
				c0.6-0.3,0.6,1.6,0,3.1c-0.4,0.9-0.5,2-0.4,2.8c0.2,0.9,0.1,1.4-0.4,1.7c-0.6,0.4-0.6,0.6-0.2,1.4c0.3,0.5,0.7,1,1,1.2
				c0.7,0.4,0.7,1-0.1,1.8c-0.5,0.6-0.5,0.7,0.6,1.5c1,0.8,1.3,0.8,3,0.4c1.7-0.4,1.9-0.3,2.5,0.4c0.4,0.5,0.7,1.2,0.7,1.7
				s0.3,1,0.6,1.1c0.3,0.1,0.6,0.7,0.6,1.2c0,1.2,0.4,1.5,2.1,1.5c1.2,0,1.3,0.2,1.8,1.7c0.4,1.3,0.7,1.7,1.5,1.8
				c0.6,0.1,1.2,0.2,1.3,0.2C149.5,167,149.8,166.7,150,166.2z"/>
			<path id="abruzzo" class="st0" d="M186.7,189.8c0.3-0.3,1.1-0.8,1.8-1c1.1-0.4,1.3-0.5,0.9-1.2c-0.6-1.1-0.5-1.9,0.4-2.1
				c0.4-0.1,1.3-0.8,1.9-1.4c1-1,1.3-1.1,2-0.7c0.4,0.2,0.8,0.6,0.8,0.8s0.3,0.3,0.7,0.2c0.9-0.3,1.8,0.7,2.2,2.2
				c0.1,0.6,0.4,1.1,0.5,1.1s0.9-0.8,1.6-1.9c0.7-1,1.5-2,1.8-2.2c0.3-0.2,0.5-0.6,0.5-0.9c0-0.3,0.5-1.1,1.1-1.7
				c1.1-1.1,2-3.5,1.3-3.5c-0.2,0-0.5-0.6-0.6-1.3c-0.3-1.5-0.7-2-2.2-2.3c-0.5-0.1-3.6-2.8-6.9-6c-4.5-4.4-6.3-6.4-7.6-8.7
				c-1.7-2.9-3.5-7.4-3.5-8.7c0-0.8-0.6-0.9-2.1-0.1c-0.6,0.3-1.5,0.6-1.9,0.6c-0.4,0-0.9,0.4-1.1,1c-0.4,0.9-1.2,1.2-3.8,1.1
				c-0.3,0-0.7,0.5-1,1.1c-0.3,0.6-0.7,1.1-1,1.1s-0.6,0.4-0.7,0.8c-0.1,0.6-0.5,0.8-1.3,0.8c-1.2,0-1.5,0.5-0.5,0.9
				c0.8,0.3,0.7,2-0.1,2.8c-0.5,0.5-1.1,0.6-2.7,0.4c-1.7-0.2-2.1-0.2-2.1,0.4c0,0.3-0.2,0.6-0.5,0.6c-0.4,0-0.4,0.1,0,0.5
				c0.6,0.6,0.6,1.7-0.1,2.3c-0.5,0.4-0.5,0.6,0.2,1.4c0.6,0.7,0.7,1,0.4,1.6c-0.3,0.6-0.2,0.8,0.4,1.2c0.4,0.3,0.8,0.8,0.8,1.2
				c0,0.8,2.1,2.9,3.2,3.3c0.9,0.3,0.9,1.4-0.1,1.4c-0.4,0-0.8,0.3-0.9,0.8c-0.3,1-2,1-4,0l-1.5-0.8l-0.3,0.8
				c-0.2,0.4-0.6,0.9-0.9,1c-0.8,0.3-0.8,2.3,0,2.6c0.3,0.1,0.8,0.1,1,0c0.4-0.2,2.3,0.7,3.6,1.8c0.4,0.3,0.9,0.6,1.2,0.6
				c0.3,0,1,0.4,1.6,0.8c0.9,0.6,1,0.9,0.8,2c-0.2,1.1-0.1,1.3,0.5,1.3c0.9,0,3.2,1.1,3.2,1.6c0,0.6,1.6,0.4,2.4-0.2
				c0.8-0.8,2.6-0.4,3.1,0.7c0.3,0.5,0.7,0.7,1.1,0.5c0.4-0.1,0.9,0,1.2,0.3c0.3,0.3,0.7,0.5,1,0.4c0.3-0.1,0.8,0.2,1.2,0.6
				C184.6,190.5,186,190.6,186.7,189.8z"/>
			<path data-disabled="true" id="puglia" class="st0" d="M296.7,250.9c0.2-2.8,0.7-4,2.1-5.5c1.2-1.2,1.1-2.2-0.3-5.2c-1.2-2.6-3.3-4.8-8.3-8.9
				c-2.1-1.7-2.6-2.3-2.8-3.5c-0.3-1.6-0.8-2-4.2-3.3c-6.7-2.5-9.3-4.1-12.8-7.4c-3.6-3.5-4.6-4.1-12.5-7.1c-7.3-2.8-8.1-3.2-14-6.3
				c-3.1-1.6-6.1-3.1-6.6-3.3c-2.7-0.9-4.8-4.7-3.8-6.8c0.3-0.5,1.4-1.5,2.7-2.1c4.1-2.1,5.3-4,4.1-6.7c-0.7-1.6-2.4-2.1-5.6-1.7
				c-1.5,0.2-6.6,0.4-11.3,0.5c-9.7,0.3-8.6-0.2-9,4c-0.2,1.7-0.1,2,0.4,2c0.4,0,0.6,0.3,0.6,0.8c0,0.4-0.2,0.8-0.5,0.8
				s-1,0.5-1.7,1.2c-0.9,0.9-1.4,1.2-2.3,1.1c-1.1-0.1-1.2-0.1-1,1.4c0.1,1.4,1.1,2.9,1.9,2.9c0.2,0,0.7,0.4,1.2,0.9
				c0.9,1,1.2,2.7,0.5,3.2c-0.6,0.4-0.5,1,0.2,1c0.3,0,0.8,0.4,1,0.8c0.2,0.4,0.6,0.7,0.7,0.6c0.6-0.3,2.8,1,2.8,1.7
				c0,0.4-0.3,1.2-0.6,1.8c-0.6,1.1-0.5,1.2,0.1,1.9c0.5,0.5,1.3,0.7,2.5,0.8c0.9,0,2.1,0.3,2.5,0.6c1,0.7,1.7,0.7,2.4,0
				c0.4-0.4,1.3-0.5,3.3-0.4c1.5,0.1,2.7,0,2.7-0.2s0.5-0.5,1-0.7c0.9-0.4,1.1-0.4,1.4,0.1c0.2,0.3,0.6,0.6,1,0.6
				c0.9,0,3.3,2.8,3.1,3.5c-0.1,0.3-0.3,0.9-0.4,1.2c-0.3,0.8,2.2,2.1,2.8,1.5c0.7-0.7,2,0,2.4,1.4c0.2,0.7,1.4,2.3,2.6,3.5l2.2,2.3
				l0.9-0.9c1-1,3.4-1.4,4.7-0.8c0.4,0.2,1.1,0.4,1.5,0.6c0.6,0.2,0.7,0.7,0.7,3.3c0,4.3,0.3,5.5,1.3,5.5c0.6,0,1,0.4,1.4,1.2
				l0.5,1.2l1.6-1.6c0.9-0.9,2-1.8,2.5-2c1.2-0.5,8,0.4,8.3,1.1c0.1,0.3-0.5,0.7-1.3,1.1c-0.8,0.3-1.4,0.8-1.3,1.1
				c0.1,0.3,1.4,1.2,2.9,2.1c2.4,1.4,3,1.5,4.8,1.5c2.8-0.1,7.7,0.6,8.8,1.3c1.4,0.9,3.7,6.4,3.6,8.4c0,0.9,0.1,2,0.3,2.3
				c0.7,1.2,3.8,3.4,4.8,3.5c0.6,0,1.5,0.3,2,0.6c0.5,0.3,1.1,0.6,1.2,0.6C296.4,253.5,296.6,252.3,296.7,250.9z"/>
			<path id="molise" class="st0" d="M203.5,200.1c0.6,0,1.3-0.3,1.6-0.9c0.5-0.8,0.7-0.8,1.2-0.3c0.5,0.4,0.9,0.4,1.5,0.1
				c0.5-0.2,1.2-0.5,1.6-0.6c0.6-0.2,0.6-0.3,0.2-0.8c-0.3-0.3-0.5-1.4-0.6-2.5c-0.2-2.2,0.4-3,1.8-2.6c1.2,0.4,3.2-1.6,2.7-2.6
				c-0.4-0.8-0.3-3.1,0.3-5.5c0.3-1.3,0.3-1.5-0.7-1.9c-0.6-0.2-1.2-0.7-1.3-1c-0.1-0.3-1.1-0.8-2.3-1.2c-1.1-0.4-2.5-0.9-2.9-1.2
				c-0.9-0.6-1.7-0.4-1.7,0.5c0,0.3-0.5,1.1-1.2,1.7c-0.6,0.6-1.2,1.4-1.2,1.7s-0.2,0.7-0.5,0.9c-0.7,0.4-2.6,3.1-2.6,3.6
				c0,0.4-0.9,0.8-1.9,0.8c-0.4,0-0.8-0.4-1-1.1c-0.3-1.4-0.9-2-1.7-2c-0.3,0-0.9-0.3-1.3-0.7c-0.7-0.6-0.8-0.6-1.7,0.4
				c-0.5,0.6-1.2,1-1.5,1c-0.7,0-0.7,0.6,0,1.2c0.9,0.8,0.7,1.3-1.1,2.1c-0.9,0.4-2,1.1-2.5,1.5c-0.5,0.4-1.1,0.6-1.3,0.5
				c-0.2-0.2-0.2,0.3,0.2,0.9c0.3,0.7,0.5,1.4,0.4,1.5s0,0.9,0.2,1.6c0.2,0.8,0.2,1.5-0.1,1.9c-0.6,1,0.1,2.9,1.2,3.1
				c0.8,0.1,0.8,0,0.4-0.6c-0.4-0.6-0.4-0.9,0.2-1.7c0.9-1.4,2.9-1.3,6.2,0c1.5,0.6,3,1.2,3.3,1.2s0.7,0.3,0.8,0.6s0.6,0.6,1.1,0.6
				c0.5,0,1,0.2,1.2,0.4c0.2,0.2,0.6,0.2,1.1-0.2C202.1,200.4,202.9,200.1,203.5,200.1z"/>
			<path id="basilicata" class="st0" d="M241.4,249.4c0.9-0.3,2-0.6,2.6-0.6c1.2,0,1.7-1,2.1-3.8c0.3-2.2,1-2.9,2.5-2.5
				c1.2,0.3,4.5,0.2,5.1-0.1c0.2-0.1,0.6-1,0.9-1.9c0.3-0.9,1.1-2.6,1.9-3.8c1.4-2.1,1.4-2.2,0.7-2.9c-0.4-0.4-0.7-1-0.7-1.3
				c0-0.3-0.4-0.5-0.9-0.5c-0.9,0-1-0.2-1.2-2c-0.1-1.1-0.3-3.1-0.3-4.4c-0.1-2.1-0.2-2.4-1-2.5c-0.5-0.1-0.9-0.3-0.9-0.5
				c0-0.6-0.7-0.4-1.3,0.2c-0.3,0.3-0.9,0.5-1.3,0.4c-0.4-0.1-0.9,0-1.2,0.4c-0.3,0.3-0.8,0.6-1.2,0.6c-1,0-4.4-3.7-5.4-5.7
				c-0.7-1.5-0.9-1.6-1.5-1.2c-0.6,0.4-1.1,0.3-2.7-0.5c-2.2-1-2.3-1.2-1.4-1.9c0.3-0.3,0.6-0.7,0.6-1c0-0.7-1.9-2.6-3.2-3.3
				c-1-0.5-1.1-0.5-1.6,0.2c-0.4,0.6-0.9,0.7-3.3,0.5c-3.1-0.2-3.5,0-2.7,2.1c0.4,1,0.3,1.4-0.3,2.4c-1.2,2.2-2.4,3.1-3.7,2.8
				l-1.2-0.3l0.3,2.5c0.2,1.6,0.5,2.6,0.9,2.9c0.3,0.2,1.1,0.8,1.6,1.2c0.9,0.7,0.9,0.8,0.3,1.5c-0.6,0.6-0.6,0.7,0.3,1.5
				c0.6,0.5,1,1.3,1.1,2c0.1,1.4,1,2.9,1.7,2.9c0.3,0,0.6,0.2,0.8,0.5s0.7,0.7,1.1,0.9c0.4,0.2,0.8,0.9,0.9,1.4
				c0.1,0.5,0.6,1.4,1.1,2c1.2,1.3,1,2.6-0.5,3.6c-0.5,0.4-1,1-1,1.4c0,0.4-0.2,1.2-0.5,1.7c-0.4,0.8-0.3,1.3,0.3,2.6
				c0.4,0.9,0.9,1.6,1.1,1.6c0.2,0,0.9-0.4,1.5-1c1.3-1.1,1.7-1.2,2.1-0.6c0.1,0.2,0.5,0.2,1-0.1c0.6-0.4,0.8-0.3,1.3,0.3
				c0.3,0.4,0.7,0.6,1,0.5c0.3-0.2,0.4,0,0.4,0.4C237.3,249.9,238.7,250.4,241.4,249.4z"/>
		</g>
	</g>
</g>
</svg>
