<?xml version="1.0" encoding="UTF-8"?>
<svg width="56px" height="92px" viewBox="0 0 56 92" version="1.1" xmlns="http://www.w3.org/2000/svg" xmlns:xlink="http://www.w3.org/1999/xlink">
    <!-- Generator: Sketch 61 (89581) - https://sketch.com -->
    <title>04 - elements/OTP/display</title>
    <desc>Created with Sketch.</desc>
    <g id="04---elements/OTP/display" stroke="none" stroke-width="1" fill="none" fill-rule="evenodd">
        <path d="M3.04667576,6.39836449 C-0.229849525,28.1970953 -0.21436401,46.689461 3.08630582,61.8725422 C6.38221645,77.0337311 11.9499744,86.204156 19.7683282,89.4633437 C22.3491367,90.753748 25.2572709,91.4 28.5,91.4 C31.7427291,91.4 34.6508633,90.753748 37.1778747,89.4938031 C44.357825,84.9247438 49.6157626,75.723353 52.9163163,61.8610277 C56.2142189,48.0098368 56.2295374,29.5225502 52.9521287,6.408745 C44.4614259,2.53499611 35.9789041,0.6 27.5,0.6 C19.0276714,0.6 10.8788043,2.53191086 3.04667576,6.39836449 Z" id="Path" stroke="#2F9988" stroke-width="1.2" fill="#FFFFFF"></path>
        <rect id="Rectangle" stroke="#2F9988" fill="#F5F5F5" x="10.5" y="13" width="34" height="12" rx="1"></rect>
        <circle id="Oval" fill="#2F9988" cx="15.5" cy="38" r="4"></circle>
        <circle id="Oval" fill="#2F9988" cx="28.5" cy="38" r="4"></circle>
        <circle id="Oval" fill="#2F9988" cx="41.5" cy="38" r="4"></circle>
        <circle id="Oval" fill="#2F9988" cx="15.5" cy="51" r="4"></circle>
        <circle id="Oval" fill="#2F9988" cx="28.5" cy="51" r="4"></circle>
        <circle id="Oval" fill="#2F9988" cx="41.5" cy="51" r="4"></circle>
        <circle id="Oval" fill="#2F9988" cx="15.5" cy="64" r="4"></circle>
        <circle id="Oval" fill="#2F9988" cx="28.5" cy="64" r="4"></circle>
        <circle id="Oval" fill="#2F9988" cx="21.5" cy="76" r="4"></circle>
        <circle id="Oval" fill="#2F9988" cx="34.5" cy="76" r="4"></circle>
        <circle id="Oval" fill="#2F9988" cx="41.5" cy="64" r="4"></circle>
    </g>
</svg>