<?xml version="1.0" encoding="utf-8"?>
<!-- Generator: Adobe Illustrator 23.1.1, SVG Export Plug-In . SVG Version: 6.00 Build 0)  -->
<svg version="1.1" id="Livello_1" xmlns="http://www.w3.org/2000/svg" xmlns:xlink="http://www.w3.org/1999/xlink" x="0px" y="0px"
	 viewBox="0 0 75 18" style="enable-background:new 0 0 75 18;" xml:space="preserve">
<style type="text/css">
	.st0{enable-background:new    ;}
	.st1{fill:#0E977F;}
	.st2{fill-rule:evenodd;clip-rule:evenodd;fill:#0E977F;}
</style>
<g class="st0">
	<path class="st1" d="M0.6,11l1.2-0.1c0.1,0.5,0.2,0.8,0.4,1.1c0.2,0.3,0.5,0.5,0.9,0.7C3.5,13,4,13.1,4.5,13.1
		c0.5,0,0.9-0.1,1.2-0.2s0.6-0.3,0.8-0.6c0.2-0.2,0.3-0.5,0.3-0.8c0-0.3-0.1-0.5-0.3-0.8s-0.4-0.4-0.8-0.5c-0.2-0.1-0.8-0.2-1.7-0.5
		S2.6,9.3,2.3,9.1c-0.4-0.2-0.8-0.5-1-0.9C1,7.9,0.9,7.5,0.9,7.1c0-0.5,0.1-0.9,0.4-1.3S2,5.1,2.5,4.9C3,4.6,3.6,4.5,4.2,4.5
		c0.7,0,1.3,0.1,1.8,0.3c0.5,0.2,0.9,0.5,1.2,1s0.4,0.9,0.5,1.5L6.5,7.4c-0.1-0.6-0.3-1-0.6-1.3C5.5,5.8,5,5.6,4.3,5.6
		C3.5,5.6,3,5.8,2.6,6C2.3,6.3,2.1,6.6,2.1,7c0,0.3,0.1,0.6,0.4,0.8c0.2,0.2,0.9,0.4,1.9,0.7c1,0.2,1.7,0.4,2.1,0.6
		C6.9,9.3,7.3,9.7,7.6,10S8,10.9,8,11.4c0,0.5-0.1,1-0.4,1.4c-0.3,0.4-0.7,0.8-1.2,1c-0.5,0.2-1.1,0.4-1.8,0.4
		c-0.8,0-1.5-0.1-2.1-0.4c-0.6-0.2-1-0.6-1.3-1.1C0.8,12.2,0.6,11.6,0.6,11z"/>
	<path class="st1" d="M16.3,10.7l1.2,0.3c-0.3,1-0.7,1.8-1.4,2.3c-0.7,0.5-1.5,0.8-2.5,0.8c-1,0-1.8-0.2-2.4-0.6
		c-0.6-0.4-1.1-1-1.4-1.8C9.5,11,9.3,10.2,9.3,9.3c0-1,0.2-1.8,0.6-2.5c0.4-0.7,0.9-1.3,1.6-1.6c0.7-0.4,1.4-0.6,2.3-0.6
		c0.9,0,1.7,0.2,2.3,0.7c0.6,0.5,1.1,1.1,1.3,2l-1.2,0.3c-0.2-0.7-0.5-1.2-0.9-1.5s-0.9-0.5-1.5-0.5c-0.7,0-1.3,0.2-1.8,0.5
		c-0.5,0.3-0.8,0.8-1,1.4c-0.2,0.6-0.3,1.2-0.3,1.8c0,0.8,0.1,1.5,0.3,2.1c0.2,0.6,0.6,1,1.1,1.3s1,0.4,1.6,0.4
		c0.7,0,1.3-0.2,1.8-0.6C15.8,12.1,16.1,11.5,16.3,10.7z"/>
	<path class="st1" d="M18.7,9.5c0-1.5,0.4-2.8,1.2-3.6s1.9-1.3,3.2-1.3c0.9,0,1.6,0.2,2.3,0.6c0.7,0.4,1.2,1,1.6,1.7
		c0.4,0.7,0.5,1.6,0.5,2.5c0,0.9-0.2,1.8-0.6,2.5s-0.9,1.3-1.6,1.7s-1.5,0.6-2.3,0.6c-0.9,0-1.7-0.2-2.3-0.6c-0.7-0.4-1.2-1-1.6-1.7
		S18.7,10.3,18.7,9.5z M20,9.5c0,1.1,0.3,2,0.9,2.7c0.6,0.6,1.4,1,2.3,1c0.9,0,1.7-0.3,2.3-1c0.6-0.7,0.9-1.6,0.9-2.8
		c0-0.8-0.1-1.4-0.4-2c-0.3-0.6-0.6-1-1.1-1.3c-0.5-0.3-1-0.5-1.7-0.5c-0.9,0-1.6,0.3-2.2,0.9C20.3,7.1,20,8.1,20,9.5z"/>
	<path class="st1" d="M29.2,14V4.7h3.5c0.6,0,1.1,0,1.4,0.1c0.5,0.1,0.8,0.2,1.1,0.4s0.6,0.5,0.7,0.9c0.2,0.4,0.3,0.8,0.3,1.3
		c0,0.8-0.3,1.5-0.8,2s-1.4,0.8-2.7,0.8h-2.4V14H29.2z M30.4,9.1h2.4c0.8,0,1.4-0.1,1.7-0.4C34.8,8.4,35,8,35,7.4
		c0-0.4-0.1-0.7-0.3-1c-0.2-0.3-0.5-0.5-0.8-0.5c-0.2-0.1-0.6-0.1-1.1-0.1h-2.4V9.1z"/>
	<path class="st1" d="M37.9,14V4.7H42c0.8,0,1.5,0.1,1.9,0.3s0.8,0.5,1,0.9c0.3,0.4,0.4,0.9,0.4,1.4c0,0.7-0.2,1.2-0.6,1.7
		c-0.4,0.5-1.1,0.7-2,0.9c0.3,0.2,0.6,0.3,0.7,0.5c0.4,0.3,0.7,0.7,1,1.2l1.6,2.5h-1.5l-1.2-1.9c-0.4-0.6-0.7-1-0.9-1.3
		c-0.2-0.3-0.4-0.5-0.6-0.6c-0.2-0.1-0.4-0.2-0.6-0.2c-0.1,0-0.4,0-0.7,0h-1.4V14H37.9z M39.1,8.8h2.6c0.6,0,1-0.1,1.3-0.2
		s0.6-0.3,0.7-0.6S44,7.5,44,7.2c0-0.4-0.2-0.8-0.5-1.1c-0.3-0.3-0.8-0.4-1.5-0.4h-2.9V8.8z"/>
	<path class="st1" d="M47.4,14V4.7h1.2V14H47.4z"/>
	<path class="st1" d="M51.3,11.7L51,6.8V4.7h1.4v2.1L52,11.7H51.3z M51,14v-1.3h1.3V14H51z"/>
</g>
<path class="st1" d="M66.1,18.2c-5,0-9.1-4.1-9.1-9.1S61.1,0,66.1,0c5,0,9.1,4.1,9.1,9.1S71.1,18.2,66.1,18.2z M66.1,1.2
	c-4.4,0-7.9,3.6-7.9,7.9s3.6,7.9,7.9,7.9c4.4,0,7.9-3.6,7.9-7.9S70.5,1.2,66.1,1.2z"/>
<path id="Path-2" class="st2" d="M63.5,6.3v5.5c0,0.5,0.4,1,1,1c0.2,0,0.4-0.1,0.5-0.2l4.4-2.9c0.5-0.3,0.6-0.9,0.3-1.3
	c-0.1-0.1-0.2-0.2-0.3-0.3L65,5.5c-0.5-0.3-1.1-0.1-1.3,0.3C63.6,5.9,63.5,6.1,63.5,6.3z"/>
</svg>
