<?xml version="1.0" standalone="no"?>
<!DOCTYPE svg PUBLIC "-//W3C//DTD SVG 1.1//EN" "http://www.w3.org/Graphics/SVG/1.1/DTD/svg11.dtd" >
<svg xmlns="http://www.w3.org/2000/svg">
<metadata>
This is a custom SVG webfont generated by Font Squirrel.
Copyright   : 2011  Webank  Font by Davide Cioetto
</metadata>
<defs>
<font id="WebankTitleFontNormal" horiz-adv-x="948" >
<font-face units-per-em="2048" ascent="1638" descent="-410" />
<missing-glyph horiz-adv-x="492" />
<glyph unicode=" "  horiz-adv-x="492" />
<glyph unicode="&#x09;" horiz-adv-x="492" />
<glyph unicode="&#xa0;" horiz-adv-x="492" />
<glyph unicode="!" horiz-adv-x="569" d="M168 0v236h233v-236h-233zM168 1010v467h233v-467l-34 -613h-164z" />
<glyph unicode="&#x22;" horiz-adv-x="872" d="M156 885v592h176v-592h-176zM541 885v592h176v-592h-176z" />
<glyph unicode="#" horiz-adv-x="983" d="M-6 414v153h199l40 301h-180v154h201l57 414h170l-57 -414h217l57 414h170l-57 -414h178v-154h-198l-41 -301h180v-153h-201l-57 -414h-170l57 414h-217l-57 -414h-170l57 414h-178zM362 567h218l41 301h-218z" />
<glyph unicode="$" horiz-adv-x="983" d="M33 410v32h233v-32q0 -118 41 -181t135 -79v479l-84 30q-163 61 -234 153.5t-71 246.5q0 115 51 208t141 145t197 52v146h90v-146q210 0 300 -118.5t90 -262.5v-28h-234v28q0 89 -35.5 142t-120.5 61v-457l130 -45q150 -55 219 -144t69 -237q0 -139 -51 -233 t-144.5 -142.5t-222.5 -56.5v-178h-90v178q-161 8 -252.5 73t-124 159.5t-32.5 206.5zM287 1079q0 -146 155 -215v422q-68 -6 -111.5 -59.5t-43.5 -147.5zM532 150q88 13 136.5 71.5t48.5 134.5q0 100 -44.5 155.5t-140.5 82.5v-444z" />
<glyph unicode="%" horiz-adv-x="1554" d="M74 1067q0 218 74 307.5t206 89.5q133 0 207 -89.5t74 -307.5q0 -148 -35.5 -236t-97.5 -124.5t-148 -36.5q-84 0 -146.5 36.5t-98 124.5t-35.5 236zM250 1067q0 -102 8.5 -158t31 -83t64.5 -27q61 0 83 59t22 209q0 151 -22 209.5t-83 58.5t-82.5 -58.5t-21.5 -209.5z M369 -29l649 1493h158l-654 -1493h-153zM920 369q0 216 73.5 306.5t206.5 90.5t207 -90.5t74 -306.5q0 -217 -74 -307.5t-207 -90.5t-206.5 90.5t-73.5 307.5zM1096 369q0 -150 21.5 -210.5t82.5 -60.5t83 60.5t22 210.5t-22 209t-83 59q-43 0 -65 -27t-30.5 -83t-8.5 -158z " />
<glyph unicode="&#x26;" horiz-adv-x="1176" d="M43 379q0 230 205 387l92 70l-55 82q-95 148 -95 243q0 152 97.5 234t251.5 82q66 0 140 -26.5t127.5 -92.5t53.5 -180q0 -98 -46 -172t-132 -140l-76 -55l256 -365q26 42 42 105t16 121v28h184v-18q0 -45 -11.5 -114.5t-40 -146t-73.5 -140.5l199 -281h-248l-88 127 q-79 -74 -166 -115t-203 -41q-118 0 -202.5 39t-134.5 102t-71.5 132.5t-21.5 134.5zM264 395q0 -66 33.5 -119.5t90.5 -84.5t124 -31q123 0 227 112l-297 422l-43 -37q-135 -108 -135 -262zM387 1196q0 -88 86 -205l33 -43l51 47q48 46 77.5 91.5t29.5 99.5q0 65 -38 101 t-102 36q-53 0 -95 -31t-42 -96z" />
<glyph unicode="'" horiz-adv-x="492" d="M158 885v592h176v-592h-176z" />
<glyph unicode="(" horiz-adv-x="530" d="M76 549q0 183 40.5 354t109.5 318.5t151 255.5h153q-121 -206 -177 -435t-56 -493q0 -157 25 -326t77 -323.5t131 -280.5h-157q-131 175 -214 418.5t-83 511.5z" />
<glyph unicode=")" horiz-adv-x="530" d="M0 -381q233 394 233 930q0 250 -58.5 497.5t-174.5 430.5h158q56 -73 113 -181t97.5 -227t63.5 -248.5t23 -271.5q0 -133 -24 -270t-64.5 -254t-94 -219t-118.5 -187h-154z" />
<glyph unicode="*" horiz-adv-x="758" d="M33 1174l47 135l231 -90v258h140v-256l227 88l47 -135l-233 -70l159 -213l-114 -88l-156 217l-152 -217l-114 88l155 213z" />
<glyph unicode="+" horiz-adv-x="1229" d="M96 434v178h430v435h176v-435h431v-178h-431v-434h-176v434h-430z" />
<glyph unicode="," horiz-adv-x="492" d="M129 0v272h233v-272q0 -86 -21.5 -150.5t-72.5 -107.5t-139 -61v120q49 14 75.5 56t26.5 112v31h-102z" />
<glyph unicode="-" horiz-adv-x="721" d="M92 492v210h537v-210h-537z" />
<glyph unicode="." horiz-adv-x="492" d="M129 0v272h233v-272h-233z" />
<glyph unicode="/" horiz-adv-x="606" d="M-20 -29l464 1534h183l-465 -1534h-182z" />
<glyph unicode="0" horiz-adv-x="983" d="M56 743q0 410 107.5 581.5t327.5 171.5t327 -168.5t107 -584.5q0 -409 -107.5 -583.5t-326.5 -174.5t-327 168.5t-108 589.5zM290 743q0 -214 17 -341.5t60.5 -189t123.5 -61.5t123 55.5t60 189t17 347.5q0 215 -17 342t-60 186t-123 59t-123.5 -56t-60.5 -186t-17 -345z " />
<glyph unicode="1" horiz-adv-x="792" d="M120 1077v154h22q129 0 222 46.5t120 172.5v28h170v-1478h-233v1077h-301z" />
<glyph unicode="2" horiz-adv-x="1005" d="M75 0q0 215 79.5 348t237 270.5t224.5 223t67 267.5q0 98 -43.5 159.5t-136.5 61.5q-118 0 -160.5 -84t-42.5 -221h-221q0 150 43.5 254.5t138.5 160.5t246 56q211 0 310 -109t99 -282q0 -165 -65 -290t-208.5 -247.5t-207.5 -187t-100 -181.5h587v-199h-847z" />
<glyph unicode="3" horiz-adv-x="1002" d="M68 420h222q0 -115 45.5 -193t152.5 -78q105 0 154 72t49 190q0 141 -53 207t-182 66h-91v166h84q209 0 209 281q0 88 -41 149.5t-127 61.5q-99 0 -141.5 -71t-44.5 -162h-221q0 206 106.5 298.5t302.5 93.5q96 0 179.5 -32t146.5 -112.5t74 -222.5q0 -74 -28.5 -161 t-82 -133.5t-121.5 -57.5v-6q116 -9 190.5 -99.5t74.5 -240.5q0 -144 -48.5 -246t-148 -154.5t-246.5 -52.5q-202 0 -308 106t-106 331z" />
<glyph unicode="4" horiz-adv-x="1005" d="M53 330v202l502 944h237v-958h158v-188h-158v-330h-221v330h-518zM241 518h330v602h-4z" />
<glyph unicode="5" horiz-adv-x="1002" d="M77 366v30h221v-39q0 -88 48.5 -147t141.5 -59q113 0 160 92t47 239q0 314 -194 334q-73 0 -124 -37t-66 -99l-207 9l72 790h698v-189h-524l-47 -407l4 -4q100 115 244 115q141 0 226.5 -70.5t119 -178.5t32.5 -257q0 -233 -111.5 -374.5t-335.5 -141.5 q-194 0 -299.5 100.5t-105.5 293.5z" />
<glyph unicode="6" horiz-adv-x="1002" d="M62 680q0 180 20 319.5t70.5 246t138 179t225.5 72.5q126 0 208 -39t130.5 -113.5t61.5 -228.5h-233q0 76 -37.5 133t-118.5 57q-145 0 -188 -140.5t-43 -362.5l6 -4q85 155 282 155q101 0 182.5 -49.5t129 -149.5t47.5 -239q0 -170 -48 -290.5t-146.5 -183.5t-250.5 -63 q-175 0 -271 84.5t-130.5 236.5t-34.5 380zM316 448q0 -135 51 -219t150 -84q68 0 111 41.5t62 110.5t19 162q0 317 -192 317q-117 0 -159 -87.5t-42 -240.5z" />
<glyph unicode="7" horiz-adv-x="1002" d="M72 1267v211h861v-187q-112 -146 -212.5 -368t-165 -465.5t-80.5 -457.5h-246q13 163 55 329t109.5 332.5t144.5 316t169 289.5h-635z" />
<glyph unicode="8" horiz-adv-x="1002" d="M63 411q0 157 68 250.5t180 115.5v4q-201 69 -202 350q0 110 47.5 194.5t136.5 129t208 44.5q118 0 207 -44.5t136.5 -129t47.5 -194.5q0 -247 -200 -350v-4q113 -22 180.5 -115.5t67.5 -250.5q0 -142 -47.5 -240.5t-145.5 -148.5t-245 -50t-245.5 50t-146 148.5 t-47.5 240.5zM297 415q0 -130 45.5 -203.5t159.5 -73.5t159 73.5t45 203.5q0 131 -44.5 203.5t-159.5 72.5q-114 0 -159.5 -72.5t-45.5 -203.5zM318 1114q0 -223 183 -223q182 0 182 223q0 219 -182 219q-183 0 -183 -219z" />
<glyph unicode="9" horiz-adv-x="1005" d="M62 923q0 261 110 419.5t335 158.5q174 0 270.5 -84t131 -236.5t34.5 -419.5q0 -177 -20.5 -319t-70.5 -247.5t-141.5 -166t-230.5 -60.5q-126 0 -213.5 38.5t-132.5 118t-45 200.5h233q0 -76 38.5 -133.5t117.5 -57.5q78 0 126 46t69.5 118t28.5 157.5t7 182.5l-6 4 q-85 -156 -282 -156q-101 0 -182.5 49.5t-129 149.5t-47.5 238zM296 982q0 -317 192 -317q116 0 158.5 87t42.5 240q0 86 -22.5 175.5t-68 128.5t-110.5 39q-68 0 -111 -41t-62 -110t-19 -202z" />
<glyph unicode=":" horiz-adv-x="492" d="M129 0v272h233v-272h-233zM129 786v273h233v-273h-233z" />
<glyph unicode=";" horiz-adv-x="492" d="M129 0v272h233v-272q0 -86 -21.5 -150.5t-72.5 -107.5t-139 -61v120q49 14 75.5 56t26.5 112v31h-102zM129 786v273h233v-273h-233z" />
<glyph unicode="&#x3c;" horiz-adv-x="1229" d="M96 446v154l1037 467v-178l-828 -365l828 -366v-178z" />
<glyph unicode="=" horiz-adv-x="1229" d="M96 219v178h1037v-178h-1037zM96 649v178h1037v-178h-1037z" />
<glyph unicode="&#x3e;" horiz-adv-x="1229" d="M96 -20v178l828 366l-828 365v178l1037 -467v-154z" />
<glyph unicode="?" d="M72 1036q0 211 97 340t306 129q126 0 216.5 -46t138 -135t47.5 -216q0 -118 -43 -201t-129.5 -175t-118 -135t-31.5 -114v-86h-209v125q0 98 37 159.5t111 132.5t111.5 133t37.5 161q0 97 -38.5 158t-127.5 61q-99 0 -141.5 -75t-42.5 -216h-221zM332 0v236h233v-236 h-233z" />
<glyph unicode="@" horiz-adv-x="1638" d="M59 741q0 159 57.5 300.5t162.5 245t252.5 161t320.5 57.5q206 0 372 -80t260.5 -224t94.5 -327q0 -146 -49.5 -259t-129.5 -185.5t-171 -109.5t-170 -37q-73 0 -108.5 33.5t-35.5 89.5h-4q-110 -123 -254 -123q-79 0 -144 41.5t-102.5 118.5t-37.5 175q0 106 36.5 207 t103 181t147.5 124t169 44q157 0 236 -160l39 121h145l-153 -557q-23 -84 -23 -103q0 -45 68 -45q42 0 87.5 32.5t82 89.5t59.5 134t23 162q0 142 -74.5 254.5t-200 174.5t-266.5 62q-128 0 -241 -48.5t-194.5 -133t-126 -195t-44.5 -229.5q0 -133 47 -243.5t130.5 -189.5 t190.5 -121t222 -42q105 0 200.5 22t171 62t133.5 98h172q-56 -102 -151.5 -180.5t-230 -123t-295.5 -44.5q-220 0 -397 92.5t-278.5 268t-101.5 409.5zM549 645q0 -61 20.5 -109.5t63 -74t106.5 -25.5q67 0 128.5 63t99 155.5t37.5 166.5q0 199 -166 199q-61 0 -114 -33 t-93 -90.5t-61 -124.5t-21 -127z" />
<glyph unicode="A" horiz-adv-x="1063" d="M-18 0l415 1477h299l385 -1477h-243l-90 362h-429l-94 -362h-243zM362 551h347l-168 727h-4z" />
<glyph unicode="B" horiz-adv-x="1100" d="M121 0v1477h473q177 0 285 -86.5t108 -272.5q0 -268 -215 -334v-4q128 -22 195 -110t67 -267q0 -121 -55 -212t-157 -141t-238 -50h-463zM354 178h232q103 0 159 66.5t56 193.5q0 80 -29 136t-81 85t-120 29h-217v-510zM354 854h185q103 0 159 63t56 170q0 122 -61 166.5 t-175 44.5h-164v-444z" />
<glyph unicode="C" horiz-adv-x="1063" d="M86 739q0 269 45 437t150.5 248.5t289.5 80.5q272 0 356.5 -140t84.5 -323v-26h-234v24q0 123 -46.5 205t-162.5 82q-91 0 -144.5 -48t-79.5 -176.5t-26 -357.5q0 -230 26 -361.5t80 -182.5t144 -51q129 0 173 105t44 249v26h234v-32q0 -144 -43 -262.5t-144.5 -191.5 t-263.5 -73q-182 0 -288 81t-150.5 249t-44.5 438z" />
<glyph unicode="D" horiz-adv-x="1139" d="M121 0v1477h416q166 0 270 -52t157.5 -149t71 -222.5t17.5 -314.5t-17.5 -315.5t-71 -223t-157.5 -148.5t-270 -52h-416zM354 178h193q99 0 158 51t86.5 173t27.5 337q0 207 -26 330t-85 176t-161 53h-193v-1120z" />
<glyph unicode="E" horiz-adv-x="985" d="M121 0v1477h790v-199h-557v-410h525v-198h-525v-471h574v-199h-807z" />
<glyph unicode="F" d="M121 0v1477h780v-199h-547v-410h514v-198h-514v-670h-233z" />
<glyph unicode="G" horiz-adv-x="1100" d="M86 739q0 201 29 344t88 237t150 139.5t218 45.5q168 0 263.5 -72.5t130 -169.5t34.5 -184v-26h-221v34q0 100 -48 170t-157 70q-88 0 -143 -49.5t-83 -176.5t-28 -356q0 -230 25.5 -361.5t76.5 -182.5t134 -51q89 0 142.5 45t77.5 142.5t24 262.5h-246v178h467v-778 h-176v172h-4q-50 -107 -122.5 -154t-197.5 -47q-119 0 -202 46t-133.5 139t-74.5 236t-24 347z" />
<glyph unicode="H" horiz-adv-x="1139" d="M121 0v1477h233v-592h430v592h234v-1477h-234v686h-430v-686h-233z" />
<glyph unicode="I" horiz-adv-x="455" d="M111 0v1477h233v-1477h-233z" />
<glyph unicode="J" horiz-adv-x="909" d="M33 350v94h221v-71q0 -107 33 -164.5t123 -58.5q72 0 106 39t41.5 97t7.5 156v1035h234v-1069q0 -157 -48.5 -254.5t-135 -140t-209.5 -42.5q-205 1 -287.5 105t-85.5 274z" />
<glyph unicode="K" horiz-adv-x="1063" d="M121 0v1477h233v-643h4l443 643h256l-422 -623l467 -854h-264l-355 664l-129 -187v-477h-233z" />
<glyph unicode="L" horiz-adv-x="909" d="M94 0v1477h234v-1278h565v-199h-799z" />
<glyph unicode="M" horiz-adv-x="1479" d="M121 0v1477h364l258 -1094h5l253 1094h357v-1477h-221v1229h-4l-295 -1229h-197l-295 1229h-4v-1229h-221z" />
<glyph unicode="N" horiz-adv-x="1176" d="M121 0v1477h285l423 -1100h5v1100h221v-1477h-285l-424 1128h-4v-1128h-221z" />
<glyph unicode="O" horiz-adv-x="1139" d="M86 739q0 201 28 343.5t87.5 237t150.5 140t217 45.5t218 -45.5t151 -139.5t87 -237t28 -344q0 -200 -28.5 -344.5t-87 -237.5t-150.5 -139.5t-218 -46.5t-217.5 46.5t-150 140t-87 237.5t-28.5 344zM319 745q0 -185 18 -301t53 -181.5t79 -89t100 -23.5q80 0 133.5 46 t85 177t31.5 372q0 235 -31.5 363.5t-85.5 173.5t-133 45q-58 0 -101.5 -23.5t-77.5 -86t-52.5 -176.5t-18.5 -296z" />
<glyph unicode="P" horiz-adv-x="1024" d="M121 0v1477h463q135 0 226 -54t134 -151t43 -225q0 -202 -112 -319.5t-316 -117.5h-205v-610h-233zM354 788h166q67 0 119.5 25.5t83.5 82t31 146.5q0 126 -57.5 191t-192.5 65h-150v-510z" />
<glyph unicode="Q" horiz-adv-x="1139" d="M86 739q0 201 28 343.5t87.5 237t150.5 140t217 45.5t218 -45.5t151 -139.5t87 -237t28 -344q0 -200 -31.5 -350.5t-83.5 -234.5l149 -160l-139 -127l-149 153q-86 -49 -230 -49q-126 0 -217.5 46.5t-150 140t-87 237.5t-28.5 344zM319 745q0 -185 18 -301t53 -181.5 t79 -89t100 -23.5q48 0 84 14l-110 108l133 136l96 -97q24 61 35.5 166.5t11.5 267.5q0 235 -31.5 363.5t-85.5 173.5t-133 45q-58 0 -101.5 -23.5t-77.5 -86t-52.5 -176.5t-18.5 -296z" />
<glyph unicode="R" horiz-adv-x="1100" d="M121 0v1477h516q166 0 268.5 -92t102.5 -289q0 -97 -28 -174.5t-83.5 -126t-132.5 -60.5v-4q57 -6 97.5 -25t69 -55.5t44 -89.5t18.5 -133q1 -50 2.5 -103.5t3 -110t2.5 -85.5q6 -88 70 -129h-264q-29 34 -39 131q-4 45 -6 137.5t-4 141.5q-2 80 -22 131.5t-66 75.5 t-125 24h-191v-641h-233zM354 819h187q74 0 126 28.5t79.5 82t27.5 129.5q0 120 -53.5 179.5t-167.5 59.5h-199v-479z" />
<glyph unicode="S" horiz-adv-x="1063" d="M68 422v35h233v-37q0 -270 240 -270q105 0 163 62.5t58 152.5q0 111 -52.5 171.5t-156.5 90.5l-160 55q-163 64 -234 157t-71 248q0 200 123 309t332 109q249 0 331 -113.5t82 -275.5v-33h-233v31q0 213 -205 213q-84 0 -140 -51.5t-56 -161.5q0 -62 22 -106.5t70 -78.5 t127 -65l157 -57q106 -38 170.5 -90t95.5 -125.5t31 -175.5q0 -229 -126 -337t-357 -108q-246 0 -345 131.5t-99 319.5z" />
<glyph unicode="T" d="M12 1278v199h924v-199h-342v-1278h-234v1278h-348z" />
<glyph unicode="U" horiz-adv-x="1100" d="M102 436v1041h234v-1059q0 -137 53.5 -202.5t161.5 -65.5q213 0 213 268v1059h233v-1041q0 -247 -113.5 -356t-332.5 -109q-143 0 -243.5 46t-153 149.5t-52.5 269.5z" />
<glyph unicode="V" horiz-adv-x="985" d="M-12 1477h248l247 -1180h4l263 1180h247l-368 -1477h-297z" />
<glyph unicode="W" horiz-adv-x="1518" d="M12 1477h236l192 -1147h4l193 1147h246l196 -1153h4l191 1153h231l-291 -1477h-270l-188 1112h-4l-187 -1112h-270z" />
<glyph unicode="X" horiz-adv-x="1024" d="M0 0l385 752l-352 725h258l233 -490l230 490h252l-355 -725l373 -752h-258l-254 535l-260 -535h-252z" />
<glyph unicode="Y" horiz-adv-x="985" d="M-8 1477h260l246 -637l252 637h243l-391 -899v-578h-233v578z" />
<glyph unicode="Z" d="M37 0v186l612 1092h-575v199h831v-199l-612 -1079h618v-199h-874z" />
<glyph unicode="[" horiz-adv-x="569" d="M158 -381v1858h415v-166h-206v-1526h206v-166h-415z" />
<glyph unicode="\" horiz-adv-x="606" d="M-20 1505h182l465 -1534h-183z" />
<glyph unicode="]" horiz-adv-x="569" d="M-4 -215h207v1526h-207v166h416v-1858h-416v166z" />
<glyph unicode="^" horiz-adv-x="1229" d="M117 580l418 856h155l422 -856h-176l-322 677l-321 -677h-176z" />
<glyph unicode="_" horiz-adv-x="1024" d="M0 -156h1024v-102h-1024v102z" />
<glyph unicode="`" horiz-adv-x="455" d="M-29 1556h246l123 -299h-152z" />
<glyph unicode="a" d="M63 283q0 118 31.5 186t85 102t139.5 62l173 47q42 11 70.5 26.5t43.5 43.5t15 73q0 81 -34 123.5t-118 42.5q-99 0 -133.5 -57t-34.5 -156h-209q0 185 88.5 276t298.5 91q158 0 254 -67.5t96 -207.5v-637q0 -32 16.5 -54.5t41.5 -22.5q23 0 37 6v-146q-58 -26 -109 -26 q-80 0 -131 35t-55 112h-4q-89 -164 -275 -164q-89 0 -153.5 34t-99 103.5t-34.5 174.5zM285 303q0 -73 36 -119.5t101 -46.5q98 0 148.5 69.5t50.5 194.5v187q-35 -27 -129 -60.5t-117 -44.5q-90 -42 -90 -180z" />
<glyph unicode="b" horiz-adv-x="985" d="M106 0v1477h222v-494h4q32 76 96 118t154 42q71 0 130 -22t107 -83t75.5 -176t27.5 -291q0 -295 -86.5 -447.5t-274.5 -152.5q-105 0 -159 47t-83 119h-4v-137h-209zM315 545q0 -196 40 -295.5t147 -99.5q74 0 115 48.5t56 138.5t15 224q0 225 -38 314.5t-134 89.5 q-83 0 -126.5 -48t-59 -136.5t-15.5 -235.5z" />
<glyph unicode="c" horiz-adv-x="909" d="M63 557q0 182 37.5 311.5t128.5 202t244 72.5q151 0 235.5 -65.5t114 -155t29.5 -179.5h-221q0 97 -35.5 165.5t-122.5 68.5q-77 0 -118 -51t-55.5 -142t-14.5 -227q0 -98 7.5 -172.5t28 -130.5t57.5 -86.5t95 -30.5q60 0 97.5 31.5t54 91.5t16.5 146h209 q-8 -140 -45.5 -236t-119 -147.5t-212.5 -51.5q-154 0 -244.5 72t-128 201.5t-37.5 312.5z" />
<glyph unicode="d" horiz-adv-x="985" d="M63 571q0 232 47.5 358t122 170t170.5 44q89 0 154.5 -43t95.5 -117h4v494h222v-1477h-209v137h-4q-27 -71 -82 -118.5t-160 -47.5q-188 0 -274.5 152.5t-86.5 447.5zM297 561q0 -104 8 -176.5t29 -126.5t57 -81t92 -27q108 0 147.5 99t39.5 296q0 147 -15.5 235.5 t-59 136.5t-126.5 48q-49 0 -81 -21t-52.5 -69t-29.5 -125t-9 -189z" />
<glyph unicode="e" d="M76 541q0 165 32 298.5t122.5 218.5t252.5 85q149 0 234.5 -58t120 -167t34.5 -273v-117h-575v-65q0 -145 36.5 -241.5t147.5 -96.5q103 0 139.5 80t36.5 168h209q0 -92 -26.5 -166t-76.5 -126.5t-123.5 -81t-160.5 -28.5q-111 0 -198 39.5t-146 166t-59 364.5zM297 680 h354v61q0 114 -41 181t-129 67q-66 0 -107.5 -39.5t-59 -105.5t-17.5 -142v-22z" />
<glyph unicode="f" horiz-adv-x="569" d="M20 948v164h154v105q0 152 68.5 214t212.5 62q72 0 120 -6v-172h-61q-62 0 -90.5 -25t-28.5 -80v-98h180v-164h-180v-948h-221v948h-154z" />
<glyph unicode="g" horiz-adv-x="985" d="M90 569q0 245 70.5 409.5t279.5 164.5q63 0 113.5 -23.5t84 -61.5t44.5 -81h4v135h209v-1059q0 -137 -41.5 -234t-133.5 -148.5t-237 -51.5q-151 0 -231 48.5t-106.5 112.5t-26.5 126h209q0 -55 44 -94t115 -39q86 0 136.5 56t50.5 153v180h-4q-30 -73 -99.5 -113.5 t-150.5 -40.5q-123 0 -196.5 73.5t-103.5 198.5t-30 289zM311 592q0 -81 4.5 -149t21.5 -128t53 -94.5t93 -34.5q115 0 153 112t38 284q0 169 -35.5 276t-140.5 107q-111 0 -149 -97t-38 -276z" />
<glyph unicode="h" horiz-adv-x="985" d="M106 0v1477h222v-484l6 -4q32 50 73 83t92 52t105 19q134 0 204.5 -71t70.5 -232v-840h-222v764q0 71 -15.5 115.5t-48 65t-89.5 20.5q-73 0 -124.5 -58t-51.5 -159v-748h-222z" />
<glyph unicode="i" horiz-adv-x="455" d="M117 0v1112h221v-1112h-221zM117 1270v223h221v-223h-221z" />
<glyph unicode="j" horiz-adv-x="455" d="M-49 -203h51q65 0 90 33t25 119v1163h221v-1184q0 -169 -70.5 -239t-220.5 -70q-46 0 -96 6v172zM117 1270v223h221v-223h-221z" />
<glyph unicode="k" d="M106 0v1477h222v-830h4l334 465l256 2l-332 -430l375 -684h-242l-270 506l-125 -152v-354h-222z" />
<glyph unicode="l" horiz-adv-x="455" d="M117 0v1477h221v-1477h-221z" />
<glyph unicode="m" horiz-adv-x="1516" d="M117 0v1112h209v-129h6q42 73 113.5 116.5t150.5 43.5q195 0 256 -170q52 85 117.5 127.5t160.5 42.5q125 0 197 -71t72 -226v-846h-221v764q0 106 -32 153.5t-102 47.5q-73 0 -124.5 -58t-51.5 -159v-748h-221v764q0 106 -32 153.5t-103 47.5t-122.5 -58t-51.5 -159 v-748h-221z" />
<glyph unicode="n" horiz-adv-x="985" d="M106 0v1112h209v-129h7q43 75 116.5 117.5t165.5 42.5q134 0 204.5 -71t70.5 -232v-840h-222v764q0 71 -15.5 115.5t-48 65t-89.5 20.5q-73 0 -124.5 -58t-51.5 -159v-748h-222z" />
<glyph unicode="o" d="M63 557q0 182 37.5 311.5t128.5 202t244 72.5q154 0 246 -72.5t129 -202t37 -311.5q0 -138 -22.5 -244t-70.5 -182t-127 -118t-192 -42q-147 0 -238.5 72t-131.5 204t-40 310zM285 557q0 -154 14.5 -243t55 -133t118.5 -44q79 0 120.5 44.5t56 133t14.5 242.5 q0 136 -15 226.5t-56.5 142t-119.5 51.5q-77 0 -118 -51t-55.5 -142t-14.5 -227z" />
<glyph unicode="p" horiz-adv-x="985" d="M106 -365v1477h209v-135h4q37 78 99 122t149 44q184 0 269.5 -153t85.5 -447q0 -217 -50 -345t-126.5 -177.5t-163.5 -49.5q-89 0 -153.5 41.5t-96.5 118.5h-4v-496h-222zM315 569q0 -140 15 -231.5t57 -139.5t117 -48q67 0 106 36.5t58.5 125t19.5 241.5q0 133 -15 224 t-57 139.5t-114 48.5q-107 0 -147 -100.5t-40 -295.5z" />
<glyph unicode="q" horiz-adv-x="985" d="M63 543q0 295 86.5 447.5t274.5 152.5q106 0 160 -47t82 -119h4v135h209v-1477h-222v496h-4q-30 -76 -96 -118t-156 -42q-148 0 -243 130.5t-95 441.5zM297 553q0 -218 42.5 -310.5t129.5 -92.5q83 0 126.5 47.5t59 135.5t15.5 236q0 196 -39.5 296t-147.5 100 q-72 0 -114 -48.5t-57 -139.5t-15 -224z" />
<glyph unicode="r" horiz-adv-x="645" d="M106 0v1112h222v-172h4q81 203 256 203q30 0 53 -10v-228q-52 13 -92 13q-93 0 -157 -56t-64 -196v-666h-222z" />
<glyph unicode="s" horiz-adv-x="872" d="M57 317v41h197v-34q0 -65 17 -109.5t55.5 -67t99.5 -22.5q90 0 135 42.5t45 119.5q0 122 -121 164l-180 63q-88 32 -137 71.5t-73.5 101t-24.5 149.5q0 153 100.5 230t275.5 77q192 0 268.5 -89t76.5 -216v-50h-209v29q0 172 -146 172q-71 0 -114 -35.5t-43 -109.5 q0 -44 14.5 -72.5t47.5 -49t93 -42.5l141 -49q85 -30 137 -70.5t77.5 -101t25.5 -148.5q0 -114 -51 -191t-140 -113t-204 -36q-137 0 -216.5 40t-113 116t-33.5 190z" />
<glyph unicode="t" horiz-adv-x="569" d="M8 948v164h152v318h221v-318h180v-164h-180v-665q0 -42 9.5 -68t31 -37.5t59.5 -11.5q50 0 80 6v-166q-70 -18 -178 -18q-79 0 -127.5 21t-72 79t-23.5 168v692h-152z" />
<glyph unicode="u" horiz-adv-x="985" d="M106 336v776h222v-797q0 -90 37.5 -127.5t111.5 -37.5q76 0 128 48t52 138v776h222v-1112h-209v131h-6q-42 -76 -116.5 -118t-166.5 -42q-88 0 -148 32.5t-93.5 112.5t-33.5 220z" />
<glyph unicode="v" horiz-adv-x="872" d="M14 1112h238l192 -876h5l174 876h235l-291 -1112h-258z" />
<glyph unicode="w" horiz-adv-x="1403" d="M31 1112h229l154 -876h4l164 876h249l164 -876h4l152 876h221l-252 -1112h-248l-172 864h-4l-157 -864h-258z" />
<glyph unicode="x" horiz-adv-x="872" d="M6 0l301 578l-284 534h241l172 -367l180 367h238l-287 -534l299 -578h-239l-193 412l-192 -412h-236z" />
<glyph unicode="y" horiz-adv-x="872" d="M16 1112h238l190 -836h5l176 836h231l-303 -1153q-31 -112 -64.5 -180.5t-74 -102t-96.5 -45.5t-150 -12q-30 0 -88 8v178q48 -8 72 -8q62 0 97 18.5t52 67.5l29 92z" />
<glyph unicode="z" horiz-adv-x="834" d="M51 0v174l481 750h-452v188h702v-184l-463 -740h463v-188h-731z" />
<glyph unicode="{" horiz-adv-x="569" d="M14 479v137q68 5 117 66.5t49 144.5v379q0 126 67.5 198.5t160.5 72.5h147v-127h-68q-55 0 -76.5 -37.5t-21.5 -106.5v-379q0 -127 -63.5 -194.5t-124.5 -81.5v-4q61 -14 124.5 -82.5t63.5 -196.5v-379q0 -68 21 -104.5t77 -36.5h68v-129h-147q-93 0 -160.5 73.5 t-67.5 196.5v379q0 53 -23 101.5t-62.5 78.5t-80.5 31z" />
<glyph unicode="|" horiz-adv-x="455" d="M139 -29v1534h176v-1534h-176z" />
<glyph unicode="}" horiz-adv-x="569" d="M14 -252h68q57 0 77.5 35.5t20.5 105.5v379q0 128 64 196.5t125 82.5v4q-61 14 -125 81.5t-64 194.5v379q0 71 -20.5 107.5t-77.5 36.5h-68v127h148q61 0 112.5 -31.5t83 -93t31.5 -146.5v-379q0 -81 49.5 -143.5t116.5 -67.5v-137q-67 -3 -116.5 -65.5t-49.5 -145.5 v-379q0 -125 -67 -197.5t-160 -72.5h-148v129z" />
<glyph unicode="~" horiz-adv-x="1229" d="M141 506q43 87 111.5 133.5t144.5 46.5q82 0 238 -76q27 -12 48.5 -22.5t60 -25t55 -19t35.5 -4.5q91 0 180 157l73 -155q-48 -85 -115.5 -133t-140.5 -48q-81 0 -237 76q-76 37 -122 54.5t-77 17.5q-93 0 -180 -158z" />
<glyph unicode="&#xa1;" horiz-adv-x="569" d="M168 104l35 611h164l34 -611v-469h-233v469zM168 877v235h233v-235h-233z" />
<glyph unicode="&#xa2;" horiz-adv-x="983" d="M98 557q0 266 81 417.5t280 168.5v153h90v-153q193 -13 264.5 -136t71.5 -264h-221q0 55 -10 103t-36 84.5t-69 46.5v-840q69 20 98 87t29 182h209q-11 -200 -87.5 -311t-248.5 -124v-182h-90v182q-200 17 -280.5 167.5t-80.5 418.5zM319 557q0 -82 6.5 -154t21.5 -125 t42 -89t70 -52v840q-55 -17 -86 -73t-42.5 -144.5t-11.5 -202.5z" />
<glyph unicode="&#xa3;" horiz-adv-x="983" d="M25 147l36 27q86 61 149.5 148t63.5 192q0 59 -36 137h-201v142h141l-35 71q-67 128 -67 230q0 96 48 180.5t144.5 137t231.5 52.5q118 0 200.5 -32t135 -89t75.5 -128t23 -152v-25h-221v23q0 52 -17.5 106t-62 92.5t-123.5 38.5q-92 0 -146.5 -49t-54.5 -129 q0 -104 66 -233l47 -94h340v-142h-287q21 -61 21 -121q0 -110 -63 -191.5t-177 -166.5l4 -8q76 47 150 47q27 0 57 -7.5t67 -20.5t74 -23t58 -10q62 0 153 53l62 33l77 -164l-40 -25q-127 -76 -261 -76q-45 1 -88 11.5t-98.5 30t-93.5 29t-76 9.5q-73 0 -195 -63z" />
<glyph unicode="&#xa4;" horiz-adv-x="983" d="M12 326l105 104q-97 129 -97 287q0 163 97 289l-105 104l92 94l105 -106q127 96 283 96q155 0 282 -96l105 106l92 -94l-105 -106q45 -60 71 -133t26 -154q0 -159 -97 -285l105 -106l-92 -95l-107 109q-119 -98 -280 -98q-158 0 -283 98l-105 -109zM184 717 q0 -134 90 -228t218 -94q129 0 218 94t89 228q0 88 -41 163t-112 117.5t-154 42.5q-84 0 -155 -42.5t-112 -117.5t-41 -163z" />
<glyph unicode="&#xa5;" horiz-adv-x="983" d="M4 1436h254l234 -588l243 588h244l-301 -674h205v-141h-267l-22 -48v-98h289v-139h-289v-336h-221v336h-289v139h289v98l-21 48h-268v141h207z" />
<glyph unicode="&#xa6;" horiz-adv-x="455" d="M139 -29v574h176v-574h-176zM139 934v571h176v-571h-176z" />
<glyph unicode="&#xa7;" horiz-adv-x="985" d="M49 651q0 95 53 170.5t138 124.5q-64 37 -97.5 98t-33.5 140q0 103 50.5 175.5t137.5 109t197 36.5q202 0 288 -97.5t86 -225.5h-221q0 76 -41.5 116.5t-118.5 40.5q-68 0 -112.5 -37.5t-44.5 -95.5q0 -48 36 -88.5t119 -87.5l277 -156q63 -35 103 -83t55.5 -102.5 t15.5 -121.5q0 -88 -44 -162.5t-120 -125.5q56 -47 86.5 -108.5t30.5 -131.5q0 -174 -107.5 -268.5t-281.5 -94.5q-195 0 -295.5 103.5t-100.5 275.5h222q0 -90 42 -145t132 -55q67 0 111 41.5t44 113.5t-39.5 114t-111.5 81l-234 129q-105 58 -163 135.5t-58 181.5z M246 678q0 -35 16.5 -61.5t51.5 -52t87 -56.5l234 -137l33 24q71 61 71 148q0 61 -34 101t-87 71l-243 143l-27 -22q-102 -73 -102 -158z" />
<glyph unicode="&#xa8;" horiz-adv-x="455" d="M-41 1298v224h197v-224h-197zM299 1298v224h197v-224h-197z" />
<glyph unicode="&#xa9;" horiz-adv-x="1638" d="M59 739q0 157 58 296t164.5 246.5t244 165.5t293.5 58t294.5 -58.5t243.5 -164.5t163.5 -246t58.5 -297t-58.5 -296.5t-164.5 -246.5t-245.5 -166t-291.5 -59q-206 0 -381 103t-277 279t-102 386zM246 739q0 -122 44 -232t124 -193.5t185 -130t220 -46.5q116 0 222.5 47 t185 130t122.5 193t44 232t-44.5 232.5t-123 193t-184.5 128.5t-222 46q-115 0 -219.5 -45.5t-184.5 -128.5t-124.5 -193.5t-44.5 -232.5zM414 741q0 138 52.5 243.5t150 161.5t225.5 56q94 0 172 -37t129.5 -108.5t64.5 -171.5h-164q-16 73 -68.5 118.5t-137.5 45.5 q-77 0 -133.5 -40.5t-85.5 -111.5t-29 -156q0 -136 68 -223.5t188 -87.5q77 0 132.5 47.5t65.5 126.5h170q-16 -98 -69.5 -173.5t-136.5 -115t-181 -39.5q-92 0 -167.5 32t-130.5 93.5t-85 149.5t-30 190z" />
<glyph unicode="&#xaa;" horiz-adv-x="647" d="M16 946q0 70 21.5 113t61 63.5t106.5 38.5l106 27q50 12 71 29.5t21 56.5q0 76 -94 76q-108 0 -108 -105h-152q0 74 25.5 121.5t88 72.5t165.5 25q239 0 239 -164v-364q0 -21 9.5 -35t25.5 -14q13 0 29 4v-117q-3 0 -18.5 -4.5t-31 -7t-34.5 -2.5q-55 0 -89.5 24 t-37.5 72h-6q-32 -49 -78 -72.5t-119 -23.5q-97 0 -149 47t-52 139zM193 963q0 -29 23.5 -52.5t62.5 -23.5q56 0 90 36t34 91v116q-14 -10 -36 -18t-66 -22.5t-57 -22.5q-51 -25 -51 -104z" />
<glyph unicode="&#xab;" horiz-adv-x="834" d="M102 479v236l295 280v-227l-180 -170l180 -170v-227zM436 479v236l295 280v-227l-180 -170l180 -170v-227z" />
<glyph unicode="&#xac;" horiz-adv-x="1229" d="M96 649v178h1037v-608h-177v430h-860z" />
<glyph unicode="&#xad;" horiz-adv-x="721" d="M92 492v210h537v-210h-537z" />
<glyph unicode="&#xae;" horiz-adv-x="1638" d="M59 739q0 157 58 296t164.5 246.5t244 165.5t293.5 58t294.5 -58.5t243.5 -164.5t163.5 -246t58.5 -297t-58.5 -296.5t-164.5 -246.5t-245.5 -166t-291.5 -59q-206 0 -381 103t-277 279t-102 386zM246 739q0 -122 44 -232t124 -193.5t185 -130t220 -46.5q116 0 222.5 47 t185 130t122.5 193t44 232t-44.5 232.5t-123 193t-184.5 128.5t-222 46q-115 0 -219.5 -45.5t-184.5 -128.5t-124.5 -193.5t-44.5 -232.5zM492 299v879h337q109 0 181.5 -27t108.5 -83t36 -144q0 -208 -223 -248l237 -377h-176l-221 371h-129v-371h-151zM643 799h156 q98 0 151.5 24.5t53.5 108.5q0 117 -193 117h-168v-250z" />
<glyph unicode="&#xaf;" horiz-adv-x="455" d="M-61 1350v127h577v-127h-577z" />
<glyph unicode="&#xb0;" horiz-adv-x="819" d="M104 1157q0 60 24 117t67 100t98 66.5t117 23.5t117.5 -23.5t98.5 -66.5t66 -98t23 -119q0 -82 -40.5 -153.5t-111 -113.5t-153.5 -42t-153.5 42t-111.5 113t-41 154zM244 1157q0 -71 48.5 -119.5t117.5 -48.5q68 0 116.5 48.5t48.5 119.5q0 70 -48 118t-117 48 q-70 0 -118 -48t-48 -118z" />
<glyph unicode="&#xb1;" horiz-adv-x="1229" d="M96 0v178h1037v-178h-1037zM96 557v178h430v312h176v-312h431v-178h-431v-313h-176v313h-430z" />
<glyph unicode="&#xb2;" horiz-adv-x="641" d="M33 580q0 139 52.5 223.5t160 168t146 124t38.5 121.5q0 54 -26.5 86t-77.5 32q-64 0 -89.5 -47.5t-25.5 -107.5h-176q0 284 293 284q278 0 278 -235q0 -95 -42 -158t-103.5 -110.5t-138.5 -111.5t-103 -130h379v-139h-565z" />
<glyph unicode="&#xb3;" horiz-adv-x="641" d="M20 827h177q0 -47 29 -91t91 -44q63 0 95 42.5t32 105.5q0 135 -145 135h-61v127h55q65 0 97 36.5t32 86.5q0 42 -26 76t-77 34q-55 0 -81.5 -39t-26.5 -86h-176q0 124 80 189t217 65q69 0 129 -23.5t98.5 -74t38.5 -125.5q0 -68 -48 -126t-116 -68v-5q81 -5 134 -59 t53 -145q0 -127 -84.5 -200t-219.5 -73q-99 0 -165 27t-99 85t-33 150z" />
<glyph unicode="&#xb4;" horiz-adv-x="455" d="M115 1257l123 299h245l-217 -299h-151z" />
<glyph unicode="&#xb5;" horiz-adv-x="985" d="M106 -365v1477h222v-762q0 -107 35.5 -153.5t117.5 -46.5q72 0 124 56.5t52 160.5v745h222v-1112h-209v131h-6q-42 -76 -104 -118t-130 -42q-65 0 -102 37v-373h-222z" />
<glyph unicode="&#xb6;" horiz-adv-x="1229" d="M109 1087q0 136 59 223t165 127t253 40h508v-1770h-187v1628h-227v-1628h-186v1004q-103 0 -192 49t-141 134.5t-52 192.5z" />
<glyph unicode="&#xb8;" horiz-adv-x="455" d="M10 -412l33 82q71 -26 135 -26q115 0 115 80q0 35 -26.5 56t-67.5 21q-25 0 -78 -16l-37 35l113 180h102l-84 -119q52 10 82 10q43 0 80.5 -20t58.5 -54.5t21 -76.5q0 -84 -67.5 -135t-172.5 -51q-114 0 -207 34z" />
<glyph unicode="&#xb9;" horiz-adv-x="641" d="M82 1210v115h14q192 0 223 123v16h123v-884h-176v630h-184z" />
<glyph unicode="&#xba;" horiz-adv-x="647" d="M29 1108q0 174 66 265t229 91q162 0 228 -91t66 -265q0 -168 -66 -258t-228 -90q-163 0 -229 90t-66 258zM205 1108q0 -102 25 -161.5t94 -59.5t93.5 58t24.5 163q0 109 -24 168t-94 59q-48 0 -74 -29t-35.5 -79t-9.5 -119z" />
<glyph unicode="&#xbb;" horiz-adv-x="834" d="M102 201v227l181 170l-181 170v227l295 -280v-236zM436 201v227l180 170l-180 170v227l295 -280v-236z" />
<glyph unicode="&#xbc;" horiz-adv-x="1477" d="M20 1210v115h15q190 0 223 123v16h123v-884h-176v630h-185zM152 -63l862 1562h151l-862 -1562h-151zM780 195v127l324 563h176v-574h102v-116h-102v-195h-164v195h-336zM901 311h215v375h-4z" />
<glyph unicode="&#xbd;" horiz-adv-x="1477" d="M20 1210v115h15q190 0 223 123v16h123v-884h-176v630h-185zM152 -63l862 1562h151l-862 -1562h-151zM842 0q0 139 52.5 223.5t160 168t146 124t38.5 121.5q0 36 -12 63.5t-34.5 42.5t-57.5 15q-65 0 -90 -48t-25 -110h-176q0 285 293 285q278 0 278 -236 q0 -119 -52.5 -176.5t-177.5 -154t-157 -177.5h379v-141h-565z" />
<glyph unicode="&#xbe;" horiz-adv-x="1477" d="M-33 827h176q0 -47 29.5 -91t91.5 -44q64 0 95.5 42.5t31.5 105.5q0 135 -145 135h-62v127h56q65 0 97 36.5t32 86.5q0 42 -26 76t-77 34q-56 0 -82 -39.5t-26 -85.5h-176q0 124 79 189t218 65q69 0 129 -23.5t98.5 -74t38.5 -125.5q0 -68 -48 -126t-116 -68v-5 q81 -5 133.5 -59t52.5 -145q0 -127 -84.5 -200t-218.5 -73q-99 0 -165 27t-99 85t-33 150zM221 -63l862 1562h152l-862 -1562h-152zM780 195v127l324 563h176v-574h102v-116h-102v-195h-164v195h-336zM901 311h215v375h-4z" />
<glyph unicode="&#xbf;" d="M72 4q0 119 42.5 202.5t126.5 171.5t118 135t34 116v86h209v-123q0 -100 -37 -161t-111.5 -133.5t-111.5 -134t-37 -159.5q0 -219 166 -219q100 0 142 75.5t42 215.5h222q0 -211 -97 -340t-307 -129q-126 0 -216.5 46.5t-137.5 135.5t-47 215zM383 877v235h233v-235h-233 z" />
<glyph unicode="&#xc0;" horiz-adv-x="1063" d="M-18 0l415 1477h299l385 -1477h-243l-90 362h-429l-94 -362h-243zM291 1858h246l122 -299h-151zM362 551h347l-168 727h-4z" />
<glyph unicode="&#xc1;" horiz-adv-x="1063" d="M-18 0l415 1477h299l385 -1477h-243l-90 362h-429l-94 -362h-243zM362 551h347l-168 727h-4zM434 1559l123 299h246l-217 -299h-152z" />
<glyph unicode="&#xc2;" horiz-adv-x="1063" d="M-18 0l415 1477h299l385 -1477h-243l-90 362h-429l-94 -362h-243zM252 1559l186 299h221l183 -299h-187l-110 182l-117 -182h-176zM362 551h347l-168 727h-4z" />
<glyph unicode="&#xc3;" horiz-adv-x="1063" d="M-18 0l415 1477h299l385 -1477h-243l-90 362h-429l-94 -362h-243zM238 1573q0 85 52 166.5t154 81.5q21 0 41 -7.5t68 -27.5q76 -37 115 -37q61 0 61 78h127q0 -46 -21 -105.5t-61 -99t-94 -39.5q-30 0 -62 10t-69.5 27t-64.5 27t-50 10q-32 0 -50.5 -24.5t-18.5 -59.5 h-127zM362 551h347l-168 727h-4z" />
<glyph unicode="&#xc4;" horiz-adv-x="1063" d="M-18 0l415 1477h299l385 -1477h-243l-90 362h-429l-94 -362h-243zM279 1599v224h196v-224h-196zM362 551h347l-168 727h-4zM618 1599v224h197v-224h-197z" />
<glyph unicode="&#xc5;" horiz-adv-x="1063" d="M-18 0l415 1477h299l385 -1477h-243l-90 362h-429l-94 -362h-243zM330 1747q0 91 63 155t154 64t154 -64t63 -155t-63 -155t-154 -64t-154 64t-63 155zM362 551h347l-168 727h-4zM432 1747q0 -47 34 -81t81 -34q46 0 80.5 33.5t34.5 81.5q0 31 -15.5 57.5t-42 42 t-57.5 15.5q-48 0 -81.5 -34.5t-33.5 -80.5z" />
<glyph unicode="&#xc6;" horiz-adv-x="1518" d="M-25 0l560 1477h895v-199h-519v-410h490v-198h-490v-471h537v-199h-758v362h-342l-129 -362h-244zM410 551h280v737h-18z" />
<glyph unicode="&#xc7;" horiz-adv-x="1063" d="M86 739q0 269 45 437t150.5 248.5t289.5 80.5q272 0 356.5 -140t84.5 -323v-26h-234v24q0 123 -46.5 205t-162.5 82q-91 0 -144.5 -48t-79.5 -176.5t-26 -357.5q0 -230 26 -361.5t80 -182.5t144 -51q129 0 173 105t44 249v26h234v-32q0 -138 -39.5 -253t-131.5 -190 t-241 -84l-63 -90q50 10 82 10q43 0 80.5 -20.5t58 -54.5t20.5 -76q0 -57 -31.5 -98.5t-86 -64.5t-121.5 -23q-114 0 -207 34l33 82q71 -26 135 -26q115 0 115 80q0 35 -26.5 56t-68.5 21q-24 0 -77 -16l-37 35l96 151q-121 12 -202.5 63t-129.5 145.5t-70 234t-22 325.5z " />
<glyph unicode="&#xc8;" horiz-adv-x="985" d="M121 0v1477h790v-199h-557v-410h525v-198h-525v-471h574v-199h-807zM262 1858h246l123 -299h-152z" />
<glyph unicode="&#xc9;" horiz-adv-x="985" d="M121 0v1477h790v-199h-557v-410h525v-198h-525v-471h574v-199h-807zM406 1559l122 299h246l-217 -299h-151z" />
<glyph unicode="&#xca;" horiz-adv-x="985" d="M121 0v1477h790v-199h-557v-410h525v-198h-525v-471h574v-199h-807zM223 1559l187 299h221l182 -299h-186l-111 182l-117 -182h-176z" />
<glyph unicode="&#xcb;" horiz-adv-x="985" d="M121 0v1477h790v-199h-557v-410h525v-198h-525v-471h574v-199h-807zM250 1599v224h196v-224h-196zM590 1599v224h196v-224h-196z" />
<glyph unicode="&#xcc;" horiz-adv-x="455" d="M-29 1858h246l123 -299h-152zM111 0v1477h233v-1477h-233z" />
<glyph unicode="&#xcd;" horiz-adv-x="455" d="M111 0v1477h233v-1477h-233zM115 1559l123 299h245l-217 -299h-151z" />
<glyph unicode="&#xce;" horiz-adv-x="455" d="M-68 1559l187 299h221l182 -299h-186l-111 182l-116 -182h-177zM111 0v1477h233v-1477h-233z" />
<glyph unicode="&#xcf;" horiz-adv-x="455" d="M-41 1599v224h197v-224h-197zM111 0v1477h233v-1477h-233zM299 1599v224h197v-224h-197z" />
<glyph unicode="&#xd0;" horiz-adv-x="1139" d="M0 688v166h121v623h416q166 0 270 -52t157.5 -149t71 -222.5t17.5 -314.5t-17.5 -315.5t-71 -223t-157.5 -148.5t-270 -52h-416v688h-121zM354 178h193q99 0 158 51t86.5 173t27.5 337q0 207 -26 330t-85 176t-161 53h-193v-444h244v-166h-244v-510z" />
<glyph unicode="&#xd1;" horiz-adv-x="1176" d="M121 0v1477h285l423 -1100h5v1100h221v-1477h-285l-424 1128h-4v-1128h-221zM279 1573q0 85 52 166.5t154 81.5q21 0 41 -7.5t68 -27.5q76 -37 115 -37q61 0 61 78h127q0 -46 -21 -105.5t-61 -99t-94 -39.5q-30 0 -62 10t-69.5 27t-64.5 27t-50 10q-32 0 -50.5 -24.5 t-18.5 -59.5h-127z" />
<glyph unicode="&#xd2;" horiz-adv-x="1139" d="M86 739q0 201 28 343.5t87.5 237t150.5 140t217 45.5t218 -45.5t151 -139.5t87 -237t28 -344q0 -200 -28.5 -344.5t-87 -237.5t-150.5 -139.5t-218 -46.5t-217.5 46.5t-150 140t-87 237.5t-28.5 344zM313 1858h246l123 -299h-152zM319 745q0 -185 18 -301t53 -181.5 t79 -89t100 -23.5q80 0 133.5 46t85 177t31.5 372q0 235 -31.5 363.5t-85.5 173.5t-133 45q-58 0 -101.5 -23.5t-77.5 -86t-52.5 -176.5t-18.5 -296z" />
<glyph unicode="&#xd3;" horiz-adv-x="1139" d="M86 739q0 201 28 343.5t87.5 237t150.5 140t217 45.5t218 -45.5t151 -139.5t87 -237t28 -344q0 -200 -28.5 -344.5t-87 -237.5t-150.5 -139.5t-218 -46.5t-217.5 46.5t-150 140t-87 237.5t-28.5 344zM319 745q0 -185 18 -301t53 -181.5t79 -89t100 -23.5q80 0 133.5 46 t85 177t31.5 372q0 235 -31.5 363.5t-85.5 173.5t-133 45q-58 0 -101.5 -23.5t-77.5 -86t-52.5 -176.5t-18.5 -296zM457 1559l123 299h245l-217 -299h-151z" />
<glyph unicode="&#xd4;" horiz-adv-x="1139" d="M86 739q0 201 28 343.5t87.5 237t150.5 140t217 45.5t218 -45.5t151 -139.5t87 -237t28 -344q0 -200 -28.5 -344.5t-87 -237.5t-150.5 -139.5t-218 -46.5t-217.5 46.5t-150 140t-87 237.5t-28.5 344zM274 1559l187 299h221l182 -299h-186l-111 182l-116 -182h-177z M319 745q0 -185 18 -301t53 -181.5t79 -89t100 -23.5q80 0 133.5 46t85 177t31.5 372q0 235 -31.5 363.5t-85.5 173.5t-133 45q-58 0 -101.5 -23.5t-77.5 -86t-52.5 -176.5t-18.5 -296z" />
<glyph unicode="&#xd5;" horiz-adv-x="1139" d="M86 739q0 201 28 343.5t87.5 237t150.5 140t217 45.5t218 -45.5t151 -139.5t87 -237t28 -344q0 -200 -28.5 -344.5t-87 -237.5t-150.5 -139.5t-218 -46.5t-217.5 46.5t-150 140t-87 237.5t-28.5 344zM260 1573q0 85 52 166.5t155 81.5q21 0 40 -7t68 -28q76 -37 115 -37 q32 0 47 23.5t15 54.5h127q0 -48 -21 -106t-62 -98t-94 -40q-30 0 -62 10t-69.5 27t-63.5 27t-50 10q-32 0 -51 -24.5t-19 -59.5h-127zM319 745q0 -185 18 -301t53 -181.5t79 -89t100 -23.5q80 0 133.5 46t85 177t31.5 372q0 235 -31.5 363.5t-85.5 173.5t-133 45 q-58 0 -101.5 -23.5t-77.5 -86t-52.5 -176.5t-18.5 -296z" />
<glyph unicode="&#xd6;" horiz-adv-x="1139" d="M86 739q0 201 28 343.5t87.5 237t150.5 140t217 45.5t218 -45.5t151 -139.5t87 -237t28 -344q0 -200 -28.5 -344.5t-87 -237.5t-150.5 -139.5t-218 -46.5t-217.5 46.5t-150 140t-87 237.5t-28.5 344zM301 1599v224h197v-224h-197zM319 745q0 -185 18 -301t53 -181.5 t79 -89t100 -23.5q80 0 133.5 46t85 177t31.5 372q0 235 -31.5 363.5t-85.5 173.5t-133 45q-58 0 -101.5 -23.5t-77.5 -86t-52.5 -176.5t-18.5 -296zM641 1599v224h197v-224h-197z" />
<glyph unicode="&#xd7;" horiz-adv-x="1229" d="M143 164l357 360l-357 359l115 116l354 -360l359 360l114 -116l-358 -359l358 -360l-114 -117l-359 363l-354 -363z" />
<glyph unicode="&#xd8;" horiz-adv-x="1139" d="M86 739q0 201 28 343.5t87.5 237t150.5 140t217 45.5q140 0 236 -57l55 135l105 -51l-68 -158q53 -61 87.5 -151t51.5 -208t17 -276q0 -200 -28.5 -344.5t-87 -237.5t-150.5 -139.5t-218 -46.5q-139 0 -233 58l-57 -138l-105 52l68 161q-79 91 -117.5 246.5t-38.5 388.5z M319 745q0 -232 33 -374h4l369 884q-29 41 -67 56.5t-89 15.5q-58 0 -101.5 -23.5t-77.5 -86t-52.5 -176.5t-18.5 -296zM416 221q51 -71 153 -71q80 0 133.5 46t85 177t31.5 372q0 230 -31 361h-4z" />
<glyph unicode="&#xd9;" horiz-adv-x="1100" d="M102 436v1041h234v-1059q0 -137 53.5 -202.5t161.5 -65.5q213 0 213 268v1059h233v-1041q0 -247 -113.5 -356t-332.5 -109q-143 0 -243.5 46t-153 149.5t-52.5 269.5zM295 1858h246l123 -299h-152z" />
<glyph unicode="&#xda;" horiz-adv-x="1100" d="M102 436v1041h234v-1059q0 -137 53.5 -202.5t161.5 -65.5q213 0 213 268v1059h233v-1041q0 -247 -113.5 -356t-332.5 -109q-143 0 -243.5 46t-153 149.5t-52.5 269.5zM438 1559l123 299h246l-217 -299h-152z" />
<glyph unicode="&#xdb;" horiz-adv-x="1100" d="M102 436v1041h234v-1059q0 -137 53.5 -202.5t161.5 -65.5q213 0 213 268v1059h233v-1041q0 -247 -113.5 -356t-332.5 -109q-143 0 -243.5 46t-153 149.5t-52.5 269.5zM256 1559l186 299h222l182 -299h-187l-110 182l-117 -182h-176z" />
<glyph unicode="&#xdc;" horiz-adv-x="1100" d="M102 436v1041h234v-1059q0 -137 53.5 -202.5t161.5 -65.5q213 0 213 268v1059h233v-1041q0 -247 -113.5 -356t-332.5 -109q-143 0 -243.5 46t-153 149.5t-52.5 269.5zM283 1599v224h196v-224h-196zM623 1599v224h196v-224h-196z" />
<glyph unicode="&#xdd;" horiz-adv-x="985" d="M-8 1477h260l246 -637l252 637h243l-391 -899v-578h-233v578zM381 1559l123 299h246l-218 -299h-151z" />
<glyph unicode="&#xde;" horiz-adv-x="1024" d="M121 0v1477h233v-281h230q135 0 226 -53.5t134 -151.5t43 -225q0 -202 -112 -319t-316 -117h-205v-330h-233zM354 506h166q103 0 168.5 62.5t65.5 193.5q0 125 -57.5 190.5t-192.5 65.5h-150v-512z" />
<glyph unicode="&#xdf;" horiz-adv-x="985" d="M90 0v1102q0 391 385 391q163 0 273 -77.5t110 -260.5q0 -125 -48.5 -202t-156.5 -105v-4q100 -10 160 -66.5t84.5 -138t24.5 -180.5q0 -139 -41 -245.5t-129 -166t-220 -59.5h-104v178h55q103 0 154 73.5t51 215.5q0 150 -51 223.5t-152 73.5h-53v163h39 q55 0 110.5 48.5t55.5 154.5q0 209 -164 209q-85 0 -123.5 -52.5t-38.5 -156.5v-1118h-221z" />
<glyph unicode="&#xe0;" d="M63 283q0 118 31.5 186t85 102t139.5 62l173 47q42 11 70.5 26.5t43.5 43.5t15 73q0 81 -34 123.5t-118 42.5q-99 0 -133.5 -57t-34.5 -156h-209q0 185 88.5 276t298.5 91q158 0 254 -67.5t96 -207.5v-637q0 -32 16.5 -54.5t41.5 -22.5q23 0 37 6v-146q-58 -26 -109 -26 q-80 0 -131 35t-55 112h-4q-89 -164 -275 -164q-89 0 -153.5 34t-99 103.5t-34.5 174.5zM219 1556h246l123 -299h-152zM285 303q0 -73 36 -119.5t101 -46.5q98 0 148.5 69.5t50.5 194.5v187q-35 -27 -129 -60.5t-117 -44.5q-90 -42 -90 -180z" />
<glyph unicode="&#xe1;" d="M63 283q0 118 31.5 186t85 102t139.5 62l173 47q42 11 70.5 26.5t43.5 43.5t15 73q0 81 -34 123.5t-118 42.5q-99 0 -133.5 -57t-34.5 -156h-209q0 185 88.5 276t298.5 91q158 0 254 -67.5t96 -207.5v-637q0 -32 16.5 -54.5t41.5 -22.5q23 0 37 6v-146q-58 -26 -109 -26 q-80 0 -131 35t-55 112h-4q-89 -164 -275 -164q-89 0 -153.5 34t-99 103.5t-34.5 174.5zM285 303q0 -73 36 -119.5t101 -46.5q98 0 148.5 69.5t50.5 194.5v187q-35 -27 -129 -60.5t-117 -44.5q-90 -42 -90 -180zM362 1257l123 299h246l-217 -299h-152z" />
<glyph unicode="&#xe2;" d="M63 283q0 118 31.5 186t85 102t139.5 62l173 47q42 11 70.5 26.5t43.5 43.5t15 73q0 81 -34 123.5t-118 42.5q-99 0 -133.5 -57t-34.5 -156h-209q0 185 88.5 276t298.5 91q158 0 254 -67.5t96 -207.5v-637q0 -32 16.5 -54.5t41.5 -22.5q23 0 37 6v-146q-58 -26 -109 -26 q-80 0 -131 35t-55 112h-4q-89 -164 -275 -164q-89 0 -153.5 34t-99 103.5t-34.5 174.5zM180 1257l187 299h221l182 -299h-186l-111 183l-117 -183h-176zM285 303q0 -73 36 -119.5t101 -46.5q98 0 148.5 69.5t50.5 194.5v187q-35 -27 -129 -60.5t-117 -44.5 q-90 -42 -90 -180z" />
<glyph unicode="&#xe3;" d="M63 283q0 118 31.5 186t85 102t139.5 62l173 47q42 11 70.5 26.5t43.5 43.5t15 73q0 81 -34 123.5t-118 42.5q-99 0 -133.5 -57t-34.5 -156h-209q0 185 88.5 276t298.5 91q158 0 254 -67.5t96 -207.5v-637q0 -32 16.5 -54.5t41.5 -22.5q23 0 37 6v-146q-58 -26 -109 -26 q-80 0 -131 35t-55 112h-4q-89 -164 -275 -164q-89 0 -153.5 34t-99 103.5t-34.5 174.5zM166 1272q0 85 52 166.5t155 81.5q21 0 40 -7t68 -28q76 -37 115 -37q61 0 61 78h127q0 -46 -21 -105.5t-61 -99t-94 -39.5q-30 0 -62 10t-69.5 27t-64.5 27t-50 10q-32 0 -50.5 -24.5 t-18.5 -59.5h-127zM285 303q0 -73 36 -119.5t101 -46.5q98 0 148.5 69.5t50.5 194.5v187q-35 -27 -129 -60.5t-117 -44.5q-90 -42 -90 -180z" />
<glyph unicode="&#xe4;" d="M63 283q0 118 31.5 186t85 102t139.5 62l173 47q42 11 70.5 26.5t43.5 43.5t15 73q0 81 -34 123.5t-118 42.5q-99 0 -133.5 -57t-34.5 -156h-209q0 185 88.5 276t298.5 91q158 0 254 -67.5t96 -207.5v-637q0 -32 16.5 -54.5t41.5 -22.5q23 0 37 6v-146q-58 -26 -109 -26 q-80 0 -131 35t-55 112h-4q-89 -164 -275 -164q-89 0 -153.5 34t-99 103.5t-34.5 174.5zM207 1298v224h196v-224h-196zM285 303q0 -73 36 -119.5t101 -46.5q98 0 148.5 69.5t50.5 194.5v187q-35 -27 -129 -60.5t-117 -44.5q-90 -42 -90 -180zM547 1298v224h196v-224h-196z " />
<glyph unicode="&#xe5;" d="M63 283q0 118 31.5 186t85 102t139.5 62l173 47q42 11 70.5 26.5t43.5 43.5t15 73q0 81 -34 123.5t-118 42.5q-99 0 -133.5 -57t-34.5 -156h-209q0 185 88.5 276t298.5 91q158 0 254 -67.5t96 -207.5v-637q0 -32 16.5 -54.5t41.5 -22.5q23 0 37 6v-146q-58 -26 -109 -26 q-80 0 -131 35t-55 112h-4q-89 -164 -275 -164q-89 0 -153.5 34t-99 103.5t-34.5 174.5zM258 1446q0 91 63 155t154 64t154 -64t63 -155t-63 -155t-154 -64t-154 64t-63 155zM285 303q0 -73 36 -119.5t101 -46.5q98 0 148.5 69.5t50.5 194.5v187q-35 -27 -129 -60.5 t-117 -44.5q-90 -42 -90 -180zM360 1446q0 -48 34.5 -81.5t80.5 -33.5q48 0 81.5 33.5t33.5 81.5q0 30 -15 56.5t-42 42.5t-58 16q-47 0 -81 -34t-34 -81z" />
<glyph unicode="&#xe6;" horiz-adv-x="1442" d="M63 283q0 163 69.5 235.5t203.5 106.5l174 45q56 14 75 43t19 110q0 166 -135 166q-99 0 -133.5 -57t-34.5 -156h-209q0 185 88.5 276t298.5 91q118 0 178 -46.5t80 -97.5q39 67 110 104.5t161 39.5q133 0 212.5 -58.5t112.5 -167.5t33 -272v-117h-551v-79 q0 -141 36 -230.5t126 -93.5q103 0 139.5 80t36.5 168h209q0 -92 -26.5 -166t-76.5 -126.5t-123 -81t-161 -28.5q-141 3 -203 61.5t-98 141.5q-42 -98 -120.5 -150.5t-176.5 -52.5q-134 0 -224 78.5t-90 233.5zM285 291q0 -62 35.5 -108t93.5 -46q99 0 145.5 65t46.5 193 v176q-24 -28 -160 -67q-71 -20 -106 -49.5t-45 -66.5t-10 -97zM817 680h328v61q0 112 -38 180t-122 68q-87 0 -127.5 -84t-40.5 -176v-49z" />
<glyph unicode="&#xe7;" horiz-adv-x="909" d="M63 557q0 182 37.5 311.5t128.5 202t244 72.5q151 0 235.5 -65.5t114 -155t29.5 -179.5h-221q0 97 -35.5 165.5t-122.5 68.5q-77 0 -118 -51t-55.5 -142t-14.5 -227q0 -98 7.5 -172.5t28 -130.5t57.5 -86.5t95 -30.5q60 0 97.5 31.5t54 91.5t16.5 146h209 q-6 -129 -38.5 -219t-100 -144t-176.5 -66l-68 -96q50 10 82 10q43 0 80.5 -20t58.5 -54.5t21 -76.5q0 -84 -67.5 -135t-172.5 -51q-114 0 -207 34l33 82q71 -26 135 -26q115 0 115 80q0 35 -26.5 56t-67.5 21q-25 0 -78 -16l-37 35l96 155q-137 9 -219 82.5t-116 199 t-34 300.5z" />
<glyph unicode="&#xe8;" d="M76 541q0 165 32 298.5t122.5 218.5t252.5 85q149 0 234.5 -58t120 -167t34.5 -273v-117h-575v-65q0 -145 36.5 -241.5t147.5 -96.5q103 0 139.5 80t36.5 168h209q0 -92 -26.5 -166t-76.5 -126.5t-123.5 -81t-160.5 -28.5q-111 0 -198 39.5t-146 166t-59 364.5zM244 1556 h245l123 -299h-151zM297 680h354v61q0 114 -41 181t-129 67q-66 0 -107.5 -39.5t-59 -105.5t-17.5 -142v-22z" />
<glyph unicode="&#xe9;" d="M76 541q0 165 32 298.5t122.5 218.5t252.5 85q149 0 234.5 -58t120 -167t34.5 -273v-117h-575v-65q0 -145 36.5 -241.5t147.5 -96.5q103 0 139.5 80t36.5 168h209q0 -92 -26.5 -166t-76.5 -126.5t-123.5 -81t-160.5 -28.5q-111 0 -198 39.5t-146 166t-59 364.5zM297 680 h354v61q0 114 -41 181t-129 67q-66 0 -107.5 -39.5t-59 -105.5t-17.5 -142v-22zM387 1257l123 299h246l-217 -299h-152z" />
<glyph unicode="&#xea;" d="M76 541q0 165 32 298.5t122.5 218.5t252.5 85q149 0 234.5 -58t120 -167t34.5 -273v-117h-575v-65q0 -145 36.5 -241.5t147.5 -96.5q103 0 139.5 80t36.5 168h209q0 -92 -26.5 -166t-76.5 -126.5t-123.5 -81t-160.5 -28.5q-111 0 -198 39.5t-146 166t-59 364.5zM205 1257 l186 299h221l183 -299h-187l-110 183l-117 -183h-176zM297 680h354v61q0 114 -41 181t-129 67q-66 0 -107.5 -39.5t-59 -105.5t-17.5 -142v-22z" />
<glyph unicode="&#xeb;" d="M76 541q0 165 32 298.5t122.5 218.5t252.5 85q149 0 234.5 -58t120 -167t34.5 -273v-117h-575v-65q0 -145 36.5 -241.5t147.5 -96.5q103 0 139.5 80t36.5 168h209q0 -92 -26.5 -166t-76.5 -126.5t-123.5 -81t-160.5 -28.5q-111 0 -198 39.5t-146 166t-59 364.5zM231 1298 v224h197v-224h-197zM297 680h354v61q0 114 -41 181t-129 67q-66 0 -107.5 -39.5t-59 -105.5t-17.5 -142v-22zM571 1298v224h197v-224h-197z" />
<glyph unicode="&#xec;" horiz-adv-x="455" d="M-29 1556h246l123 -299h-152zM117 0v1112h221v-1112h-221z" />
<glyph unicode="&#xed;" horiz-adv-x="455" d="M115 1257l123 299h245l-217 -299h-151zM117 0v1112h221v-1112h-221z" />
<glyph unicode="&#xee;" horiz-adv-x="455" d="M-68 1257l187 299h221l182 -299h-186l-111 183l-116 -183h-177zM117 0v1112h221v-1112h-221z" />
<glyph unicode="&#xef;" horiz-adv-x="455" d="M-41 1298v224h197v-224h-197zM117 0v1112h221v-1112h-221zM299 1298v224h197v-224h-197z" />
<glyph unicode="&#xf0;" d="M63 557q0 125 21 227t68 176.5t118 113t170 38.5q107 0 168 -68l4 5q-37 57 -105.5 139t-135.5 147l-178 -98l-74 74l176 98q-70 67 -131 107l162 90q42 -26 135 -107l186 103l66 -76l-176 -96q135 -131 210.5 -255t106.5 -270.5t31 -347.5q0 -138 -22.5 -244t-70.5 -182 t-127 -118t-192 -42q-147 0 -238.5 72t-131.5 204t-40 310zM285 557q0 -154 14.5 -243t55 -133t118.5 -44q79 0 120.5 44.5t56 133t14.5 242.5q0 122 -15 206.5t-57 134.5t-119 50q-76 0 -117.5 -49.5t-56 -134.5t-14.5 -207z" />
<glyph unicode="&#xf1;" horiz-adv-x="985" d="M106 0v1112h209v-129h7q43 75 116.5 117.5t165.5 42.5q134 0 204.5 -71t70.5 -232v-840h-222v764q0 71 -15.5 115.5t-48 65t-89.5 20.5q-73 0 -124.5 -58t-51.5 -159v-748h-222zM184 1272q0 51 22 109t68 98.5t117 40.5q21 0 41 -7.5t68 -27.5q76 -37 114 -37q62 0 62 78 h127q0 -48 -21 -106t-61 -98t-94 -40q-30 0 -62 10t-70 27t-64 27t-50 10q-32 0 -51 -24.5t-19 -59.5h-127z" />
<glyph unicode="&#xf2;" d="M63 557q0 182 37.5 311.5t128.5 202t244 72.5q154 0 246 -72.5t129 -202t37 -311.5q0 -138 -22.5 -244t-70.5 -182t-127 -118t-192 -42q-147 0 -238.5 72t-131.5 204t-40 310zM219 1556h246l123 -299h-152zM285 557q0 -154 14.5 -243t55 -133t118.5 -44q79 0 120.5 44.5 t56 133t14.5 242.5q0 136 -15 226.5t-56.5 142t-119.5 51.5q-77 0 -118 -51t-55.5 -142t-14.5 -227z" />
<glyph unicode="&#xf3;" d="M63 557q0 182 37.5 311.5t128.5 202t244 72.5q154 0 246 -72.5t129 -202t37 -311.5q0 -138 -22.5 -244t-70.5 -182t-127 -118t-192 -42q-147 0 -238.5 72t-131.5 204t-40 310zM285 557q0 -154 14.5 -243t55 -133t118.5 -44q79 0 120.5 44.5t56 133t14.5 242.5 q0 136 -15 226.5t-56.5 142t-119.5 51.5q-77 0 -118 -51t-55.5 -142t-14.5 -227zM362 1257l123 299h246l-217 -299h-152z" />
<glyph unicode="&#xf4;" d="M63 557q0 182 37.5 311.5t128.5 202t244 72.5q154 0 246 -72.5t129 -202t37 -311.5q0 -138 -22.5 -244t-70.5 -182t-127 -118t-192 -42q-147 0 -238.5 72t-131.5 204t-40 310zM180 1257l187 299h221l182 -299h-186l-111 183l-117 -183h-176zM285 557q0 -154 14.5 -243 t55 -133t118.5 -44q79 0 120.5 44.5t56 133t14.5 242.5q0 136 -15 226.5t-56.5 142t-119.5 51.5q-77 0 -118 -51t-55.5 -142t-14.5 -227z" />
<glyph unicode="&#xf5;" d="M63 557q0 182 37.5 311.5t128.5 202t244 72.5q154 0 246 -72.5t129 -202t37 -311.5q0 -138 -22.5 -244t-70.5 -182t-127 -118t-192 -42q-147 0 -238.5 72t-131.5 204t-40 310zM166 1272q0 85 52 166.5t155 81.5q21 0 40 -7t68 -28q76 -37 115 -37q61 0 61 78h127 q0 -46 -21 -105.5t-61 -99t-94 -39.5q-30 0 -62 10t-69.5 27t-64.5 27t-50 10q-32 0 -50.5 -24.5t-18.5 -59.5h-127zM285 557q0 -154 14.5 -243t55 -133t118.5 -44q79 0 120.5 44.5t56 133t14.5 242.5q0 136 -15 226.5t-56.5 142t-119.5 51.5q-77 0 -118 -51t-55.5 -142 t-14.5 -227z" />
<glyph unicode="&#xf6;" d="M63 557q0 182 37.5 311.5t128.5 202t244 72.5q154 0 246 -72.5t129 -202t37 -311.5q0 -138 -22.5 -244t-70.5 -182t-127 -118t-192 -42q-147 0 -238.5 72t-131.5 204t-40 310zM207 1298v224h196v-224h-196zM285 557q0 -154 14.5 -243t55 -133t118.5 -44q79 0 120.5 44.5 t56 133t14.5 242.5q0 136 -15 226.5t-56.5 142t-119.5 51.5q-77 0 -118 -51t-55.5 -142t-14.5 -227zM547 1298v224h196v-224h-196z" />
<glyph unicode="&#xf7;" horiz-adv-x="1229" d="M96 434v178h1037v-178h-1037zM467 98q0 64 42 107t105 43q62 0 105 -43t43 -107q0 -63 -43 -105t-105 -42q-63 0 -105 42t-42 105zM467 948q0 62 42 105t105 43q62 0 105 -43t43 -105q0 -63 -43 -106t-105 -43q-63 0 -105 43t-42 106z" />
<glyph unicode="&#xf8;" d="M63 557q0 182 37.5 311.5t128.5 202t244 72.5q105 0 191 -43l61 135l98 -53l-67 -146q47 -47 75.5 -118t41 -163t12.5 -198q0 -283 -92.5 -434.5t-319.5 -151.5q-110 0 -190 39l-64 -139l-98 55l72 152q-70 71 -100 190.5t-30 288.5zM285 557q0 -69 4.5 -136t9.5 -104h4 l283 615q-45 45 -113 45q-77 0 -118 -51t-55.5 -142t-14.5 -227zM362 182q43 -45 111 -45q59 0 97.5 31t58.5 85.5t27.5 130t7.5 173.5q0 146 -17 242h-4z" />
<glyph unicode="&#xf9;" horiz-adv-x="985" d="M106 336v776h222v-797q0 -90 37.5 -127.5t111.5 -37.5q76 0 128 48t52 138v776h222v-1112h-209v131h-6q-42 -76 -116.5 -118t-166.5 -42q-88 0 -148 32.5t-93.5 112.5t-33.5 220zM238 1556h245l123 -299h-151z" />
<glyph unicode="&#xfa;" horiz-adv-x="985" d="M106 336v776h222v-797q0 -90 37.5 -127.5t111.5 -37.5q76 0 128 48t52 138v776h222v-1112h-209v131h-6q-42 -76 -116.5 -118t-166.5 -42q-88 0 -148 32.5t-93.5 112.5t-33.5 220zM381 1257l123 299h246l-218 -299h-151z" />
<glyph unicode="&#xfb;" horiz-adv-x="985" d="M106 336v776h222v-797q0 -90 37.5 -127.5t111.5 -37.5q76 0 128 48t52 138v776h222v-1112h-209v131h-6q-42 -76 -116.5 -118t-166.5 -42q-88 0 -148 32.5t-93.5 112.5t-33.5 220zM199 1257l186 299h221l182 -299h-186l-110 183l-117 -183h-176z" />
<glyph unicode="&#xfc;" horiz-adv-x="985" d="M106 336v776h222v-797q0 -90 37.5 -127.5t111.5 -37.5q76 0 128 48t52 138v776h222v-1112h-209v131h-6q-42 -76 -116.5 -118t-166.5 -42q-88 0 -148 32.5t-93.5 112.5t-33.5 220zM225 1298v224h197v-224h-197zM565 1298v224h197v-224h-197z" />
<glyph unicode="&#xfd;" horiz-adv-x="872" d="M16 1112h238l190 -836h5l176 836h231l-303 -1153q-31 -112 -64.5 -180.5t-74 -102t-96.5 -45.5t-150 -12q-30 0 -88 8v178q48 -8 72 -8q62 0 97 18.5t52 67.5l29 92zM324 1257l122 299h246l-217 -299h-151z" />
<glyph unicode="&#xfe;" horiz-adv-x="985" d="M106 -365v1842h222v-494h4q32 76 96 118t154 42q88 0 153 -40t106 -116t61 -185.5t20 -258.5q0 -217 -50 -345t-126.5 -177.5t-163.5 -49.5q-89 0 -153.5 41.5t-96.5 118.5h-4v-496h-222zM315 569q0 -140 15 -231.5t57 -139.5t117 -48q67 0 106 36.5t58.5 125t19.5 241.5 q0 133 -15 224t-57 139.5t-114 48.5q-107 0 -147 -100.5t-40 -295.5z" />
<glyph unicode="&#xff;" horiz-adv-x="872" d="M16 1112h238l190 -836h5l176 836h231l-303 -1153q-31 -112 -64.5 -180.5t-74 -102t-96.5 -45.5t-150 -12q-30 0 -88 8v178q48 -8 72 -8q62 0 97 18.5t52 67.5l29 92zM168 1298v224h197v-224h-197zM508 1298v224h197v-224h-197z" />
<glyph unicode="&#x152;" horiz-adv-x="1630" d="M86 739q0 393 111.5 579.5t343.5 186.5q196 0 274 -119h4v91h725v-199h-520v-410h487v-198h-487v-471h537v-199h-742v106h-4q-41 -68 -116 -101.5t-167 -33.5q-152 0 -250.5 80.5t-147 251.5t-48.5 436zM319 745q0 -185 18 -301t53 -181.5t79 -89t100 -23.5q75 0 126 27 t79.5 102t28.5 208v502q0 132 -28 207.5t-74.5 103t-114.5 27.5q-65 0 -111.5 -23t-81.5 -85t-54.5 -177t-19.5 -297z" />
<glyph unicode="&#x153;" horiz-adv-x="1479" d="M63 557q0 182 37 311.5t127 202t238 72.5q134 0 198 -48t105 -122q53 89 120.5 129.5t168.5 40.5q133 0 212.5 -58.5t112.5 -167.5t33 -272v-117h-551v-79q0 -141 36 -230.5t126 -93.5q103 0 139.5 80t36.5 168h209q0 -92 -26.5 -166t-76.5 -126.5t-123.5 -81 t-160.5 -28.5q-128 0 -190 61t-80 118q-87 -179 -303 -179q-108 0 -183 41.5t-120.5 119.5t-65 185t-19.5 240zM285 557q0 -208 37 -314t143 -106q59 0 97.5 31t58 84t27 130t7.5 175q0 209 -38 314.5t-152 105.5q-106 0 -143 -106t-37 -314zM866 680h328v61q0 112 -38 180 t-122 68q-87 0 -127.5 -84t-40.5 -176v-49z" />
<glyph unicode="&#x178;" horiz-adv-x="985" d="M-8 1477h260l246 -637l252 637h243l-391 -899v-578h-233v578zM225 1599v224h197v-224h-197zM565 1599v224h197v-224h-197z" />
<glyph unicode="&#x2c6;" horiz-adv-x="455" d="M-68 1257l187 299h221l182 -299h-186l-111 183l-116 -183h-177z" />
<glyph unicode="&#x2dc;" horiz-adv-x="455" d="M-82 1272q0 85 52 166.5t155 81.5q21 0 40 -7t68 -28q76 -37 115 -37q32 0 47 23.5t15 54.5h127q0 -48 -21 -106t-62 -98t-94 -40q-30 0 -62 10t-69.5 27t-63.5 27t-50 10q-32 0 -51 -24.5t-19 -59.5h-127z" />
<glyph unicode="&#x2000;" horiz-adv-x="983" />
<glyph unicode="&#x2001;" horiz-adv-x="1966" />
<glyph unicode="&#x2002;" horiz-adv-x="983" />
<glyph unicode="&#x2003;" horiz-adv-x="1966" />
<glyph unicode="&#x2004;" horiz-adv-x="655" />
<glyph unicode="&#x2005;" horiz-adv-x="491" />
<glyph unicode="&#x2006;" horiz-adv-x="327" />
<glyph unicode="&#x2007;" horiz-adv-x="327" />
<glyph unicode="&#x2008;" horiz-adv-x="245" />
<glyph unicode="&#x2009;" horiz-adv-x="393" />
<glyph unicode="&#x200a;" horiz-adv-x="109" />
<glyph unicode="&#x2010;" horiz-adv-x="721" d="M92 492v210h537v-210h-537z" />
<glyph unicode="&#x2011;" horiz-adv-x="721" d="M92 492v210h537v-210h-537z" />
<glyph unicode="&#x2012;" horiz-adv-x="721" d="M92 492v210h537v-210h-537z" />
<glyph unicode="&#x2013;" horiz-adv-x="1024" d="M0 498v198h1024v-198h-1024z" />
<glyph unicode="&#x2014;" horiz-adv-x="2048" d="M0 498v198h2048v-198h-2048z" />
<glyph unicode="&#x2018;" horiz-adv-x="492" d="M129 885v274q0 132 53 213t180 105v-119q-102 -31 -102 -168v-31h102v-274h-233z" />
<glyph unicode="&#x2019;" horiz-adv-x="492" d="M129 885v121q49 12 75.5 55t26.5 113v30h-102v273h233v-273q0 -86 -21.5 -150.5t-73 -108t-138.5 -60.5z" />
<glyph unicode="&#x201a;" horiz-adv-x="492" d="M129 0v272h233v-272q0 -86 -21.5 -150.5t-72.5 -107.5t-139 -61v120q49 14 75.5 56t26.5 112v31h-102z" />
<glyph unicode="&#x201c;" horiz-adv-x="872" d="M137 885v274q0 132 53 213t181 105v-119q-48 -14 -75.5 -58.5t-27.5 -109.5v-31h103v-274h-234zM502 885v274q0 132 53 213t180 105v-119q-102 -31 -102 -168v-31h102v-274h-233z" />
<glyph unicode="&#x201d;" horiz-adv-x="872" d="M137 885v121q103 26 103 168v30h-103v273h234v-273q0 -133 -52.5 -213t-181.5 -106zM502 885v121q47 12 74.5 56.5t27.5 111.5v30h-102v273h233v-273q0 -86 -21.5 -150.5t-73 -108t-138.5 -60.5z" />
<glyph unicode="&#x201e;" horiz-adv-x="872" d="M137 0v272h234v-272q0 -86 -22 -150.5t-73 -107.5t-139 -61v120q103 27 103 168v31h-103zM502 0v272h233v-272q0 -86 -21.5 -150.5t-72.5 -107.5t-139 -61v120q48 13 75 56.5t27 111.5v31h-102z" />
<glyph unicode="&#x2022;" horiz-adv-x="1024" d="M147 739q0 101 49 185t133 133t183 49q76 0 141 -27.5t116.5 -79t79.5 -118t28 -142.5q0 -99 -49.5 -184t-133 -134.5t-182.5 -49.5t-182.5 49.5t-133 134.5t-49.5 184z" />
<glyph unicode="&#x2026;" horiz-adv-x="2048" d="M225 0v272h234v-272h-234zM907 0v272h234v-272h-234zM1589 0v272h234v-272h-234z" />
<glyph unicode="&#x202f;" horiz-adv-x="393" />
<glyph unicode="&#x2039;" horiz-adv-x="492" d="M98 479v236l295 280v-227l-180 -170l180 -170v-227z" />
<glyph unicode="&#x203a;" horiz-adv-x="492" d="M98 201v227l181 170l-181 170v227l295 -280v-236z" />
<glyph unicode="&#x205f;" horiz-adv-x="491" />
<glyph unicode="&#x2122;" horiz-adv-x="2048" d="M66 1335v142h679v-142h-251v-710h-177v710h-251zM913 625v852h244l229 -605l230 605h244v-852h-164v673h-4l-248 -673h-115l-248 673h-4v-673h-164z" />
<glyph unicode="&#xe000;" horiz-adv-x="1110" d="M0 1110h1110v-1110h-1110v1110z" />
<glyph unicode="&#xfb01;" horiz-adv-x="1024" d="M686 0v1112h221v-1112h-221zM686 1270v223h221v-223h-221zM20 948v164h154v105q0 152 68.5 214t212.5 62q72 0 120 -6v-172h-61q-62 0 -90.5 -25t-28.5 -80v-98h180v-164h-180v-948h-221v948h-154z" />
<glyph unicode="&#xfb02;" horiz-adv-x="1024" d="M686 0v1477h221v-1477h-221zM20 948v164h154v105q0 152 68.5 214t212.5 62q72 0 120 -6v-172h-61q-62 0 -90.5 -25t-28.5 -80v-98h180v-164h-180v-948h-221v948h-154z" />
<glyph unicode="&#xfb03;" horiz-adv-x="1593" d="M1255 0v1112h221v-1112h-221zM1255 1270v223h221v-223h-221zM589 948v164h154v105q0 152 68.5 214t212.5 62q72 0 120 -6v-172h-61q-62 0 -90.5 -25t-28.5 -80v-98h180v-164h-180v-948h-221v948h-154zM20 948v164h154v105q0 152 68.5 214t212.5 62q72 0 120 -6v-172h-61 q-62 0 -90.5 -25t-28.5 -80v-98h180v-164h-180v-948h-221v948h-154z" />
<glyph unicode="&#xfb04;" horiz-adv-x="1593" d="M1255 0v1477h221v-1477h-221zM589 948v164h154v105q0 152 68.5 214t212.5 62q72 0 120 -6v-172h-61q-62 0 -90.5 -25t-28.5 -80v-98h180v-164h-180v-948h-221v948h-154zM20 948v164h154v105q0 152 68.5 214t212.5 62q72 0 120 -6v-172h-61q-62 0 -90.5 -25t-28.5 -80v-98 h180v-164h-180v-948h-221v948h-154z" />
</font>
</defs>
</svg>
