<?xml version="1.0" encoding="UTF-8"?>
<svg width="104px" height="44px" viewBox="0 0 104 44" version="1.1" xmlns="http://www.w3.org/2000/svg" xmlns:xlink="http://www.w3.org/1999/xlink">
    <!-- Generator: Sketch 56.3 (81716) - https://sketch.com -->
    <title>token</title>
    <desc>Created with Sketch.</desc>
    <g id="login" stroke="none" stroke-width="1" fill="none" fill-rule="evenodd">
        <g id="1280_03a_login-copy-3" transform="translate(-405.000000, -387.000000)">
            <g id="Group" transform="translate(-1.000000, 104.000000)">
                <g id="token" transform="translate(406.000000, 283.000000)">
                    <g id="Combined-Shape-2" fill="#FFFFFF" stroke="#5A9066" stroke-width="3">
                        <path d="M102.5,29.9285714 L102.5,14.0714286 L93.2555556,14.0714286 L93.2555556,2 C93.2555556,1.72385763 93.0316979,1.5 92.7555556,1.5 L2,1.5 C1.72385763,1.5 1.5,1.72385763 1.5,2 L1.5,42 C1.5,42.2761424 1.72385763,42.5 2,42.5 L92.7555556,42.5 C93.0316979,42.5 93.2555556,42.2761424 93.2555556,42 L93.2555556,29.9285714 L102.5,29.9285714 Z" id="Combined-Shape"></path>
                    </g>
                    <circle id="Oval" fill="#5A9066" cx="18.5" cy="22.5" r="9.5"></circle>
                    <path d="M36,14 L81,14 C81.5522847,14 82,14.4477153 82,15 L82,29 C82,29.5522847 81.5522847,30 81,30 L36,30 C35.4477153,30 35,29.5522847 35,29 L35,15 C35,14.4477153 35.4477153,14 36,14 Z" id="Rectangle" fill="#D8D8D8"></path>
                </g>
            </g>
        </g>
    </g>
</svg>