<?xml version="1.0" encoding="UTF-8"?>
<svg width="20px" height="20px" viewBox="0 0 20 20" version="1.1" xmlns="http://www.w3.org/2000/svg" xmlns:xlink="http://www.w3.org/1999/xlink">
    <!-- Generator: Sketch 62 (91390) - https://sketch.com -->
    <title>02 - icon/anagrafiche</title>
    <desc>Created with Sketch.</desc>
    <g id="02---icon/anagrafiche" stroke="none" stroke-width="1" fill="none" fill-rule="evenodd">
        <path d="M15.4850629,4 C15.7399635,4 15.9519639,4.18367805 15.9959281,4.42590224 L16.0042936,4.51923626 L16.0032167,5.99464454 L16.480508,5.99487531 C16.7035461,5.99487531 16.8937386,6.13550382 16.9672544,6.33292964 L16.9913733,6.42077369 L16.9997388,6.51410608 L16.9997388,15.9986494 C16.9997388,16.6141756 16.6336819,16.9957661 16.0045724,16.9949053 L4.00065963,17.0017241 C3.49128923,17.0017241 2.99907824,16.5802431 3.0000013,15.9997185 L3.00433179,8.51600701 C3.00433179,8.26110636 3.18977098,8.00098852 3.46885584,8.00171084 L4.0035346,7.99593009 L4.00445768,4.51923077 C4.00445768,4.2961927 4.14508619,4.10600017 4.34251201,4.03248439 L4.43035606,4.0083655 L4.52368845,4 L15.4850629,4 Z M10.5494523,7.00162098 C9.54329026,7.00768333 9.55578575,9.00688333 8.54913549,8.99963121 C7.87803532,8.99479646 6.3614657,8.9951139 3.99942663,9.00058354 L3.99993078,15.4384661 C3.99993078,15.7156705 4.24831335,15.9981279 4.48197119,16.0014696 L16.0000681,15.9949999 L15.9992734,7.0013935 C13.036834,6.99750359 11.220227,6.99757942 10.5494523,7.00162098 Z M12.0008128,7.99675464 C12.5329105,7.99675464 13.0333665,8.20249179 13.4098385,8.57601959 C14.1773694,9.33902409 14.1969135,10.5736974 13.4650617,11.3582395 C13.6995732,11.4822244 13.9183714,11.6387648 14.1146922,11.824276 C14.6244296,12.3068802 14.9142258,12.9215723 14.9836369,13.554058 C14.9853355,13.5695358 15.0009241,13.942487 15.0000681,13.9925955 C14.4959082,14.4154802 13.3757656,14.9967546 12.0000497,14.9967546 C10.6243337,14.9967546 9.54015475,14.4244032 9.00006811,13.9936076 C9.0070816,13.6996479 9.01623089,13.5562933 9.01768443,13.5436412 C9.08834583,12.9227375 9.37160467,12.3197062 9.86788126,11.8427145 C10.069293,11.6497072 10.2942448,11.4873889 10.536579,11.3582002 L10.590883,11.4176188 C9.80784699,10.6407481 9.80255185,9.37212168 10.5786138,8.58892656 C10.9581854,8.20700923 11.4631616,7.99675464 12.0008128,7.99675464 Z M11.9996162,11.9967546 C11.4625749,11.9967546 10.9581714,12.1644657 10.5790302,12.4691047 C10.2485524,12.7354376 10.0155157,13.0952546 10.0000681,13.4886092 C10.6601077,13.8754032 11.4751371,13.9967546 12.0046963,13.9967546 C12.5427697,13.9967546 13.3555107,13.872498 14.0000681,13.490791 C13.9538462,13.1376364 13.7464854,12.7282761 13.4070438,12.4588093 C13.0309988,12.1608623 12.5311104,11.9967546 11.9996162,11.9967546 Z M7.49967196,12.9967546 C7.77581434,12.9967546 7.99967196,13.2206123 7.99967196,13.4967546 C7.99967196,13.772897 7.77581434,13.9967546 7.49967196,13.9967546 L5.49967196,13.9967546 C5.22352959,13.9967546 4.99967196,13.772897 4.99967196,13.4967546 C4.99967196,13.2206123 5.22352959,12.9967546 5.49967196,12.9967546 L7.49967196,12.9967546 Z M7.49967196,10.9967546 C7.77581434,10.9967546 7.99967196,11.2206123 7.99967196,11.4967546 C7.99967196,11.772897 7.77581434,11.9967546 7.49967196,11.9967546 L5.49967196,11.9967546 C5.22352959,11.9967546 4.99967196,11.772897 4.99967196,11.4967546 C4.99967196,11.2206123 5.22352959,10.9967546 5.49967196,10.9967546 L7.49967196,10.9967546 Z M12.0006105,8.99675464 C11.7316943,8.99675464 11.4791619,9.10193659 11.2892478,9.29292711 C10.9013566,9.68433768 10.9040157,10.3187726 11.2952523,10.7070114 C11.4846517,10.8937158 11.735297,10.9967546 12.0005247,10.9967546 C12.2696983,10.9967546 12.5217161,10.8916584 12.7100861,10.7007536 C13.0988351,10.3096002 13.0963475,9.67525106 12.7048536,9.28615501 C12.5169125,9.09953635 12.266696,8.99675464 12.0006105,8.99675464 Z M15.0013992,4.99501044 L4.99974148,4.99760665 L4.99989321,7.99815735 C6.32523234,7.99665036 7.32529064,7.99618279 8.00006811,7.99675464 C9.01223432,7.99761241 9.00313118,6.00096574 10.0044474,5.99899768 L13.7687196,5.99894591 C14.3618876,5.99922291 14.8305072,5.99947572 14.996956,5.99948077 C14.9988595,5.40530725 15.0003406,5.07048381 15.0013992,4.99501044 Z" id="Combined-Shape" fill="#2F9988" transform="translate(9.999869, 10.500862) scale(-1, 1) translate(-9.999869, -10.500862) "></path>
    </g>
</svg>