<?xml version="1.0" encoding="UTF-8"?>
<svg width="20px" height="20px" viewBox="0 0 20 20" version="1.1" xmlns="http://www.w3.org/2000/svg" xmlns:xlink="http://www.w3.org/1999/xlink">
    <!-- Generator: Sketch 62 (91390) - https://sketch.com -->
    <title>02 - icon/documenti-online</title>
    <desc>Created with Sketch.</desc>
    <g id="02---icon/documenti-online" stroke="none" stroke-width="1" fill="none" fill-rule="evenodd">
        <path d="M7.40000005,3.00038154 L11.7935897,3.00157891 C11.926284,3.00161507 12.0535217,3.0543963 12.1472785,3.14829738 L14.888805,5.89404183 C14.9828963,5.98827794 15.0355082,6.1161552 15.0349759,6.24932179 L15.0199999,9.875 L15.0597989,9.83689564 C15.1143047,9.78147963 15.1825493,9.74079567 15.2566757,9.71870328 L15.3341508,9.70275652 C15.4449444,9.69039846 15.5577089,9.72004027 15.6479841,9.78268694 L15.7110917,9.8357198 L17.1810332,11.305666 C17.3313441,11.4577044 17.3501329,11.7050866 17.23686,11.8815039 L17.1802275,11.9522816 L14.7954593,14.3380618 C14.6814624,14.5214587 14.5262558,14.6765399 14.3428061,14.7903904 L12.68688,16.4456274 C12.6459783,16.4868081 12.5974315,16.5198484 12.5445452,16.542952 L12.4623742,16.5699301 L11.2433001,16.8466481 C11.0520194,16.9446916 10.8352397,17 10.6055846,17 L10.5649999,17 L10.5614097,17.0019672 C10.4943713,17.017301 10.4249355,17.0166917 10.3587858,17.0017754 L4.4000001,17 C3.62680145,17 3.0000001,16.3731986 3.0000001,15.6 L3.0000001,6.4 C2.99961861,5.62680135 3.62641996,5 4.39961861,5 L4.39980937,5.0000477 L5.99999992,5 L6.0000001,4.4 C5.99964105,3.67228362 6.55484881,3.0742479 7.26478935,3.00640881 L7.39961861,3 C7.39974579,3 7.39987297,3.00000002 7.40000005,3.00038154 Z M5.99999992,6 L4.49989794,6.00002555 L4.49989794,6.00002555 L4.40992041,6.00805567 C4.17667344,6.05039163 3.99981846,6.25454011 4.0000001,6.5 L4.0000001,6.5 L4.0000001,15.5 C4.0000001,15.7761424 4.22385772,16 4.5000001,16 L4.5000001,16 L10.1139999,16 L10.3399999,15 L7.4000001,15 C6.76585791,15 6.23019031,14.5783802 6.05802627,14.0001694 L5.5000001,14 C5.22385772,14 5.0000001,13.7761424 5.0000001,13.5 C5.0000001,13.2238576 5.22385772,13 5.5000001,13 L5.99999992,13 L5.99999992,12 L5.5000001,12 C5.22385772,12 5.0000001,11.7761424 5.0000001,11.5 C5.0000001,11.2238576 5.22385772,11 5.5000001,11 L5.99999992,11 L5.99999992,6 Z M11.1873314,15.44 L11.0703314,15.96 L11.5903314,15.843 L11.1873314,15.44 Z M14.5742928,11.7 L11.6812928,14.595 L12.3917189,15.3044261 L15.2847189,12.4114261 L14.5742928,11.7 Z M7.50000006,4.00020438 C7.49993201,4.00000001 7.49986389,4 7.49979576,4 L7.40992041,4.00805567 C7.17667344,4.05039163 6.99981846,4.25454011 7.0000001,4.5 L7.0000001,4.5 L7.0000001,13.5 C7.0000001,13.7761424 7.22385772,14 7.5000001,14 L7.5000001,14 L10.8959999,14 L14.0019999,10.894 L14.0043303,7.00331097 L11.9999995,7.00110206 C11.4480367,6.9996721 11.0009475,6.55196428 11.0002808,6.00000004 L11.0002808,6.00000004 L11.0008419,4.00163539 Z M11.5000001,11 C11.7761425,11 12.0000001,11.2238576 12.0000001,11.5 C12.0000001,11.7761424 11.7761425,12 11.5000001,12 L8.5000001,12 C8.22385772,12 8.0000001,11.7761424 8.0000001,11.5 C8.0000001,11.2238576 8.22385772,11 8.5000001,11 L11.5000001,11 Z M15.4385435,10.8327133 L15.2235435,11.0487133 L15.9421168,11.7672867 L16.1551168,11.5532867 L15.4385435,10.8327133 Z M12.5000001,9 C12.7761425,9 13.0000001,9.22385763 13.0000001,9.5 C13.0000001,9.77614237 12.7761425,10 12.5000001,10 L8.5000001,10 C8.22385772,10 8.0000001,9.77614237 8.0000001,9.5 C8.0000001,9.22385763 8.22385772,9 8.5000001,9 L12.5000001,9 Z M12.0083718,4.5 L12,5.45857032 C12,5.76492728 12.2135277,6 12.4872731,6 L13.5,5.99532131 L12.0083718,4.5 Z" id="Shape" fill="#2F9988"></path>
    </g>
</svg>