<?xml version="1.0" encoding="UTF-8"?>
<svg width="20px" height="20px" viewBox="0 0 20 20" version="1.1" xmlns="http://www.w3.org/2000/svg" xmlns:xlink="http://www.w3.org/1999/xlink">
    <!-- Generator: Sketch 62 (91390) - https://sketch.com -->
    <title>02 - icon/info-bonifico</title>
    <desc>Created with Sketch.</desc>
    <g id="02---icon/info-bonifico" stroke="none" stroke-width="1" fill="none" fill-rule="evenodd">
        <path d="M9.5659646,3.10979738 C9.83491198,2.96340087 10.165079,2.96340087 10.4340263,3.10979738 L10.4340263,3.10979738 L16.5577466,6.44313071 C17.336641,6.8671074 17.0208082,8 16.1237157,8 L16.1237157,8 L15.5,8 L15.5,16 L16.5,16 C16.7761424,16 17,16.2238576 17,16.5 C17,16.7761424 16.7761424,17 16.5,17 L3.5,17 C3.22385763,17 3,16.7761424 3,16.5 C3,16.2238576 3.22385763,16 3.5,16 L4.5,16 L4.5,8 L3.87627522,8 C2.97918276,8 2.66334998,6.8671074 3.44224435,6.44313071 L3.44224435,6.44313071 Z M14.5,8 L13.5,8 L13.5,16 L14.5,16 L14.5,8 Z M12.5,8 L11.5,8 L11.5,16 L12.5,16 L12.5,8 Z M10.5,8 L9.5,8 L9.5,16 L10.5,16 L10.5,8 Z M8.5,8 L7.5,8 L7.5,16 L8.5,16 L8.5,8 Z M6.5,8 L5.5,8 L5.5,16 L6.5,16 L6.5,8 Z M10.0015466,3.98580621 L4.5,7.00048336 L15.5,7.00048336 L10.0015466,3.98580621 Z" id="Combined-Shape" fill="#2F9988"></path>
    </g>
</svg>