<?xml version="1.0" encoding="UTF-8"?>
<svg width="20px" height="20px" viewBox="0 0 20 20" version="1.1" xmlns="http://www.w3.org/2000/svg" xmlns:xlink="http://www.w3.org/1999/xlink">
    <!-- Generator: Sketch 60.1 (88133) - https://sketch.com -->
    <title>02 - icon/profilatura-utenti</title>
    <desc>Created with Sketch.</desc>
    <g id="02---icon/profilatura-utenti" stroke="none" stroke-width="1" fill="none" fill-rule="evenodd">
        <path d="M14.3217193,4.85 C15.5355993,4.85 16.5197493,5.83318991 16.5197493,7.04614699 C16.5197493,7.53616883 16.3580165,7.99979656 16.0715701,8.37559095 L15.958379,8.51227666 L15.895,8.576 L15.9448147,8.595758 C16.0419217,8.63788814 17.0098557,9.07269759 17.0098557,11.3524183 C17.0098557,13.632139 16.0575396,14.9941127 14.5514002,14.9982437 C13.0452607,15.0023747 6.87443009,15.0049735 5.46029441,15.0014788 C4.04615873,14.9979841 3.01682898,13.5476219 3.01682898,11.4161892 C3.01682898,9.28475652 3.7751561,8.74136809 3.91313305,8.66538391 L4.0549572,8.5957347 L4.104,8.576 L4.04164043,8.5121182 C3.76423694,8.20352832 3.57874388,7.82165886 3.51000145,7.40777847 L3.48776083,7.22856163 L3.48025073,7.04614699 C3.48025073,5.83318991 4.46440066,4.85 5.67828069,4.85 C6.67827339,4.85 7.5223611,5.51723611 7.78877323,6.43049518 L7.82775408,6.58491079 L7.839,6.648 L7.85052661,6.58491079 C8.04015702,5.69841284 8.76521844,5.01021369 9.67113955,4.87441599 L9.84303264,4.85551382 L10,4.85 C10.9999927,4.85 11.8440804,5.51723611 12.1104925,6.43049518 L12.1494734,6.58491079 L12.161,6.648 L12.1722459,6.58491079 C12.3618763,5.69841284 13.0869377,5.01021369 13.9928589,4.87441599 L14.164752,4.85551382 L14.3217193,4.85 Z M15.0463038,9.4210997 C14.1880912,9.40145817 14.0519303,9.42101468 13.5011091,9.422 C12.9502879,9.42298532 12.6985116,9.80892176 12.7000066,10.5 C12.7008571,10.8794155 12.7014825,11.7374826 12.7018828,13.0742014 L12.7021091,13.9994573 C13.2548152,14.0000569 13.7790361,14.0002376 14.2747717,13.9999994 C15.0183752,13.9996422 15.9577497,13.1814103 16.0050431,11.7810184 C16.0523365,10.3806265 15.9045163,9.44074122 15.0463038,9.4210997 Z M4.96658812,9.4210997 C4.10837558,9.44074122 3.96055534,10.3806265 4.00784877,11.7810184 C4.0551422,13.1814103 4.99451667,13.9996422 5.73812015,13.9999994 C6.2338558,14.0002376 6.75807668,14.0000569 7.3107828,13.9994573 C7.31115169,12.1272046 7.31185251,10.9607188 7.31288526,10.5 C7.31438025,9.80892176 7.06260399,9.42298532 6.5117828,9.422 C5.9609616,9.42101468 5.82480066,9.40145817 4.96658812,9.4210997 Z M10.0012337,9.34884476 C8.81797367,9.34606347 8.3001219,10.152566 8.29999762,10.5 C8.29991794,10.7316227 8.30191873,11.905956 8.306,14.023 L11.693,14.023 C11.7011525,11.9989427 11.7046842,10.8246094 11.7035952,10.5 C11.7019615,10.013086 11.1844938,9.35166955 10.0012337,9.34884476 Z M7.839,7.442 L7.81727422,7.55332838 C7.74182693,7.87205677 7.59618222,8.16792158 7.39260609,8.42098118 L7.26360677,8.56752078 L7.214,8.615 L7.31222697,8.65625075 C7.38427312,8.69070058 7.45206653,8.72913029 7.51555711,8.7715869 L7.60755961,8.83829787 L7.7333795,8.94976709 C7.78168925,8.99802367 7.8265793,9.04998216 7.86807883,9.10559549 L7.92778888,9.19175073 L7.967,9.262 L8.05763124,9.16133681 L8.18913107,9.03299059 L8.33044339,8.91325044 L8.47979465,8.80401088 L8.594,8.732 L8.5215022,8.67136136 C8.23997093,8.4158309 8.02983063,8.09226948 7.91147698,7.73210295 L7.86004347,7.54911475 L7.839,7.442 Z M12.161,7.442 L12.140202,7.54806832 C12.0533731,7.91883298 11.8717338,8.25841593 11.6155014,8.53562054 L11.4812627,8.66888022 L11.408,8.73 L11.5189207,8.80145263 L11.6681252,8.91159862 L11.8108689,9.03299059 L11.9431664,9.16159612 L12.032,9.26 L12.0728358,9.19084652 L12.1169833,9.12599906 L12.1639934,9.06419038 L12.2666205,8.94976709 C12.3454934,8.87098104 12.4341736,8.80136734 12.5325575,8.74073193 L12.687398,8.65648826 L12.785,8.615 L12.7365008,8.56752389 C12.5102209,8.33247523 12.3394081,8.05055493 12.2363488,7.7417476 L12.1827419,7.55339663 L12.161,7.442 Z M5.67828069,5.8246988 C5.00258468,5.8246988 4.45494953,6.37162888 4.45494953,7.04614699 C4.45494953,7.72066509 5.00258468,8.26759518 5.67828069,8.26759518 C6.3539767,8.26759518 6.90161185,7.72066509 6.90161185,7.04614699 C6.90161185,6.37162888 6.3539767,5.8246988 5.67828069,5.8246988 Z M10,5.8246988 C9.32430399,5.8246988 8.77666884,6.37162888 8.77666884,7.04614699 C8.77666884,7.72066509 9.32430399,8.26759518 10,8.26759518 C10.675696,8.26759518 11.2233312,7.72066509 11.2233312,7.04614699 C11.2233312,6.37162888 10.675696,5.8246988 10,5.8246988 Z M14.3217193,5.8246988 C13.6460233,5.8246988 13.0983881,6.37162888 13.0983881,7.04614699 C13.0983881,7.72066509 13.6460233,8.26759518 14.3217193,8.26759518 C14.9974153,8.26759518 15.5450505,7.72066509 15.5450505,7.04614699 C15.5450505,6.37162888 14.9974153,5.8246988 14.3217193,5.8246988 Z" id="Combined-Shape" fill="#000000"></path>
    </g>
</svg>