<svg id="MappaInterattiva" width="300px" height="355px" viewBox="0 0 300 355" version="1.1" xmlns="http://www.w3.org/2000/svg" xmlns:xlink="http://www.w3.org/1999/xlink">
    <g id="Page-1" stroke="none" stroke-width="1" fill="none" fill-rule="evenodd">
        <g id="1280_bollo-auto_01" transform="translate(-331.000000, -315.000000)" fill="none" fill-rule="nonzero">
            <g id="Regioni" transform="translate(331.000000, 315.000000)">
                <path d="M53.8237802,283.758843 C53.1280648,283.373237 52.6180769,283.34605 51.8090082,283.65144 C50.3956401,284.184928 49.8425105,283.716488 48.6599954,280.984574 C47.5397102,278.396434 46.6906995,278.209331 46.0326892,280.405579 C45.2435702,283.039425 43.8434797,282.096145 42.678837,278.146002 C42.3469577,277.020362 43.0593764,276.118689 44.2806334,276.118689 C45.4445941,276.118689 45.4390718,275.911671 44.2329164,274.330319 C43.0560287,272.787339 43.0382615,272.541747 44.0380578,271.636941 C44.9934769,270.772298 45.0441479,269.659067 44.150838,269.159149 C43.3066091,268.686695 43.3982395,266.86617 44.4560061,263.095874 C45.0479204,260.986065 45.1700461,259.750588 44.9739599,257.855915 C44.7774722,255.957368 44.843198,255.296996 45.2545797,255.036435 C46.0494431,254.532979 46.3763613,254.610166 46.3763613,255.301291 C46.3763613,255.640672 46.594942,255.845484 46.862101,255.75643 C47.4444867,255.562304 47.9580522,252.906166 47.659143,251.634199 C47.4599585,250.786607 47.3188535,250.745099 45.4911342,250.996478 L43.536176,251.265352 L43.7876566,249.369599 C43.9259712,248.326934 44.3896412,246.551398 44.818034,245.423961 C46.0320149,242.22902 45.8881002,238.289961 44.4226074,234.600792 C42.273344,229.190336 41.4795912,227.907098 40.1626314,227.71381 C39.2557281,227.580706 38.926912,227.710743 38.7484293,228.273093 C38.6205241,228.676084 38.3115407,228.938574 38.0617981,228.856399 C37.4471361,228.654151 37.2451066,227.026185 37.7695881,226.501704 C38.2852503,225.986041 38.3261862,224.190762 37.8338798,223.682232 C37.6152172,223.456367 37.7138001,222.096285 38.0866933,220.194262 C38.9651705,215.713398 39.5351554,215.180616 41.0141675,217.457866 C42.0158734,219.000211 43.3928029,219.609686 45.8755591,219.609686 C47.8238375,219.609686 48.8522857,219.16224 50.0377394,217.798853 C50.539173,217.222158 51.4641552,216.764665 52.4169789,216.62209 C53.9055195,216.399355 55.7295756,215.197888 55.7295756,214.440157 C55.7295756,213.609221 59.4863019,209.779731 61.2352633,208.827827 C62.5942853,208.088155 63.1342035,207.557049 63.1342035,206.959881 C63.1342035,205.930026 63.8315987,205.190148 64.802322,205.190148 C65.2053598,205.190148 67.4111868,206.14978 69.7041584,207.322661 C73.7355691,209.38478 73.9082139,209.526582 74.9340354,211.618187 C76.2484855,214.298296 76.2479243,214.501752 74.9231506,215.586429 C74.0860146,216.271848 73.9989751,216.466987 74.5255143,216.477934 C75.6503981,216.501321 78.7228939,223.385454 78.7228939,225.882451 C78.7228939,226.8731 79.0369086,227.717411 79.6971871,228.502111 C80.2330483,229.138948 80.6714802,229.952471 80.6714802,230.309943 C80.6714802,231.670563 79.372802,234.850554 78.6617239,235.231113 C77.3809688,235.916552 75.6051558,238.727672 75.6051558,240.069671 C75.6051558,240.810181 76.0770879,242.013027 76.7672148,243.031507 C78.1338051,245.04829 78.2541108,246.756759 77.3589498,251.434789 C77.037472,253.114813 76.7744129,256.045226 76.7743739,257.946812 C76.7743271,260.408278 76.426789,262.934215 75.5679145,266.715451 C74.9043974,269.636615 74.3123935,272.879698 74.2523498,273.922305 C74.1304346,276.039198 73.6928327,276.493632 71.7677854,276.50244 C70.8093537,276.506824 70.0210921,276.118915 68.7945973,275.039313 C67.4067401,273.81767 66.5761123,273.456324 63.8633294,272.894059 C62.0690712,272.522172 60.4695118,272.218714 60.3087534,272.219708 C59.883112,272.222343 59.9512112,274.996623 60.431943,277.238195 C60.9359488,279.588291 60.4617876,280.729629 58.091987,282.870599 C56.4178708,284.383064 55.3507041,284.605149 53.8237802,283.758843 Z" id="sardegna"></path>
                <path d="M23.8179752,40.8162249 C21.6343742,41.3726714 19.7898271,43.6742386 17.3145695,43.0083783 C15.0781032,44.0651057 12.3872347,44.8696769 10.0682651,43.6782084 C8.95016219,44.2801934 8.16709192,45.4289673 6.68259658,45.2370783 C5.06610411,45.4166386 3.55495233,46.9450358 4.52697329,48.6227468 C5.67126904,51.6620345 8.81359397,53.6069673 9.43497411,56.8920577 C10.1510721,58.0640386 12.073641,58.2126495 12.3943895,56.5510564 C13.3679774,56.9955947 13.2904471,58.8161139 14.5987278,57.6958482 C17.1953626,57.0610605 19.6012196,55.7407893 21.7841388,54.3710714 C24.6808212,53.9052988 27.8630996,56.0457331 30.4188107,53.8473906 C32.3411375,52.2493153 31.1512919,49.6212167 30.5284184,47.6849879 C30.1656616,45.7555564 30.468383,42.9742523 28.0317929,42.4481632 C26.4875692,42.1866619 25.4063379,40.6619838 23.8179752,40.8162249 Z" id="valle-d_aosta"></path>
                <path d="M28.9932058,105.778434 C29.3048934,106.037108 30.3079944,106.31723 31.2223221,106.400922 C32.5209879,106.519792 32.9971525,106.392592 33.3984945,105.8196 C33.6810633,105.416178 34.3031108,105.030271 34.7808255,104.962024 C35.578507,104.848065 35.6456515,104.640296 35.6035036,102.416445 C35.5628149,100.269765 35.6628822,99.9259769 36.4852323,99.3871523 C36.9954218,99.0528619 37.4128521,98.4366906 37.4128521,98.0178865 C37.4128521,97.5990783 37.8602897,96.9632509 38.4071577,96.6049235 C39.1023974,96.1493879 39.2782262,95.8302002 38.9917344,95.5437084 C38.4089314,94.960903 38.479154,94.489044 39.3648892,93.0362961 L40.1448604,91.7570221 L41.583796,92.7348002 C42.8385275,93.5874125 43.1009782,93.641766 43.6340001,93.1593824 C43.9771344,92.8488495 45.2682892,92.5537194 46.5773988,92.4865893 C48.2288536,92.4018947 48.8795371,92.2202016 48.8068179,91.8640523 C48.7503358,91.5874358 48.8902138,91.0134208 49.1176426,90.5884523 C49.7741289,89.3618057 52.142259,89.7744002 53.1857084,91.2972208 L54.0012399,92.4874071 L54.8711001,91.5108249 C55.3745042,90.945666 55.9848358,90.6278262 56.3198371,90.7563783 C57.0132974,91.0224865 57.0672933,90.4829016 56.4466508,89.4891043 C56.0788015,88.900081 56.1563453,88.5380838 56.8629111,87.5458071 C57.3404823,86.8751139 57.86307,86.3263687 58.0242111,86.3263687 C58.1853522,86.3263687 58.9064905,86.8524865 59.6267371,87.4955221 C60.3469796,88.1385536 61.16157,88.6646714 61.4369371,88.6646714 C61.7123084,88.6646714 62.1309892,89.0259988 62.3673399,89.4676194 C63.1605851,90.9498167 63.9684399,90.2148413 64.0917522,87.8987673 C64.1541275,86.7273125 64.070744,85.4997043 63.9064632,85.1707482 C63.7421864,84.8417879 63.4230193,84.1029331 63.1971974,83.5288399 C62.9115029,82.8025153 62.4542453,82.4469084 61.6938234,82.3596906 C60.8659015,82.264718 60.5693823,81.9981865 60.4704645,81.2600427 C60.3986495,80.724181 59.9334275,79.847318 59.4366358,79.3114564 C58.939844,78.7755988 58.4706851,77.9864221 58.3940659,77.5577303 C58.3128768,77.1034687 57.8902508,76.7262947 57.3810234,76.6536536 C56.4454097,76.5201783 55.5402933,75.2563893 55.9293974,74.6267961 C56.321296,73.9926906 55.4736275,74.1989303 54.9133796,74.873992 C54.5075371,75.3630002 53.9618947,75.4519687 52.45977,75.2740646 C50.384181,75.0282413 49.7994851,74.6714139 49.6789467,73.5769646 C49.5599823,72.4968495 49.0143851,71.3646742 48.3856714,70.8932797 C48.070996,70.6573399 47.7780316,70.1312221 47.7346426,69.7241262 C47.6912536,69.3170345 47.45697,68.4939413 47.2140193,67.8950427 C46.4158467,65.9274701 46.3873056,65.1044139 47.0693289,63.7227701 C47.5986686,62.6504386 48.0085632,62.3329975 48.9861522,62.2382756 C50.0507536,62.1351249 50.3281179,62.3033386 50.9139892,63.407429 C51.4359111,64.3909975 51.6328837,64.5352071 51.7439289,64.0150564 C51.8240207,63.6399577 52.0520536,63.3330536 52.2506823,63.3330536 C52.4493111,63.3330536 52.6118248,62.9884769 52.6118248,62.5673303 C52.6118248,62.1461797 52.96257,61.6138934 53.3912577,61.3844673 C54.5126207,60.7843276 54.351533,59.5571098 52.9878892,58.3116208 C52.2073632,57.5987262 51.7250659,56.7115071 51.5698015,55.7029975 C51.4403988,54.8624345 51.2063495,53.9993262 51.0496919,53.7849783 C50.8930385,53.5706345 50.6487234,52.7501838 50.5067741,51.9617427 C50.3648207,51.1733057 49.7281467,49.9709879 49.0919495,49.2899386 C47.7862262,47.8921564 47.6942947,47.4362468 48.5006289,46.3574139 C48.87327,45.8588386 48.9908618,45.1133016 48.8455303,44.1706975 C48.645796,42.8752564 48.7945097,42.5592742 50.4235632,40.8176879 C51.7406782,39.4095865 52.2221084,38.5797208 52.2221084,37.7174509 C52.2221084,36.7053947 52.047496,36.5050728 50.9791015,36.2913947 C50.1211426,36.1197988 48.9764823,35.2294646 47.2839316,33.4172262 C45.235844,31.2243167 44.8305851,30.5636879 44.8246262,29.408166 C44.8206933,28.6472427 45.003459,27.8386934 45.2307727,27.6113797 C45.4580823,27.3840701 45.5896097,26.3421824 45.523059,25.2960701 C45.3916056,23.2297975 44.5730166,22.6015399 43.4610481,23.7135043 C43.1430193,24.0315331 42.7380358,24.3512427 42.561081,24.423966 C41.8050275,24.734692 38.582003,31.3668043 38.582003,32.6118331 C38.582003,33.454344 37.9906258,34.9224577 36.9259578,36.7230331 C35.3081507,39.4590619 34.2786411,40.3397386 32.6980212,40.3397386 C31.4570758,40.3397386 30.7470847,42.5396386 31.0384023,45.4820427 C31.1722044,46.8334893 31.5075674,48.2022824 31.7836549,48.5238002 C32.090573,48.8812235 32.2596008,50.0048262 32.2186496,51.4153769 L32.1516686,53.7223851 L30.0159366,54.8254071 C27.7511458,55.9950783 26.1794162,56.2010057 24.8690815,55.4997372 C23.3272475,54.6745728 21.4486973,54.9822783 20.1106463,56.2791701 C19.4250871,56.9436413 18.460599,57.4872947 17.9673341,57.4872947 C17.4740729,57.4872947 16.4741523,57.7702769 15.7452912,58.1161399 C15.0164301,58.4620112 13.8938499,58.6677536 13.2506605,58.5733564 C11.9184123,58.3778262 11.81451,58.6665167 12.7198541,60.0482468 C13.2112874,60.7982673 13.303853,61.5455386 13.1214695,63.290466 C12.7322042,67.0147646 12.4730347,67.3754509 8.90186096,69.1628756 C6.24191219,70.4942221 5.42602356,70.7352783 4.25144712,70.5368386 C2.71042726,70.2764838 -5.68434189e-14,71.153503 -5.68434189e-14,71.9124865 C-5.68434189e-14,72.1518208 0.589816438,73.6242125 1.31070247,75.1844797 C2.88336041,78.5882879 4.65221671,80.1694482 6.73082836,80.0294591 C7.4997674,79.9776742 8.53067877,80.2283632 9.11014932,80.6080482 C9.9938326,81.1870605 10.1326459,81.5495632 10.1326459,83.2782577 C10.1326459,84.7694386 9.90120493,85.585418 9.22326082,86.484444 C8.72309753,87.1477071 7.68549904,88.8303043 6.91748301,90.2235413 L5.5210911,92.7567002 L6.00365877,95.5170577 C6.33195247,97.3949632 6.82761822,98.725003 7.55412493,99.677503 C8.7853274,101.291692 9.10880055,101.520908 13.9460215,104.206833 C18.0602581,106.491313 19.0448905,106.6161 22.3459549,105.271393 C24.761504,104.28741 26.2112404,104.32798 26.0394337,105.374741 C25.9823515,105.722532 26.081301,106.239489 26.2593197,106.523544 C26.5135521,106.929193 26.7807575,106.854214 27.5047512,106.174056 C28.2455762,105.478089 28.5377433,105.40043 28.9932058,105.778434 Z" id="piemonte"></path>
                <path d="M66.8745563,85.0281208 C66.6899536,84.0441167 66.8209467,83.5108728 67.4157563,82.8250482 C68.4080042,81.6809756 68.4095289,81.0096125 67.4210782,80.4806139 C66.5822905,80.0317071 66.4136001,78.9334893 67.0161851,77.8447317 C67.2221782,77.4725345 67.8534111,76.149703 68.4189193,74.9050975 C69.3530864,72.8491399 69.6459111,72.5542687 71.6207042,71.6809276 C73.1395796,71.009203 73.8759892,70.8518838 74.0655686,71.1586276 C74.2664618,71.4836714 74.551996,71.4824509 75.1658618,71.1539221 C75.8743508,70.7747509 75.9948563,70.8164591 75.9948563,71.4408454 C75.9948563,71.8426728 76.4332878,72.3711988 76.9691495,72.6153577 C77.7506001,72.9714125 77.9434426,72.9534742 77.9434426,72.5247454 C77.9434426,71.8703016 78.9995371,71.408618 79.3179686,71.9238536 C79.7040892,72.5485975 81.069833,72.3393988 81.3372727,71.6145454 C81.7869399,70.3957975 83.0097645,69.9071838 83.0097645,70.9462523 C83.0097645,71.4258125 83.1660358,71.4609043 83.7972563,71.1230879 C84.80547,70.5835071 85.2138563,70.855344 86.0439933,72.6186043 C86.7040303,74.0205701 86.7651029,74.0508454 88.9870508,74.077644 C90.2350179,74.0926975 91.3736084,74.2874427 91.5172467,74.5104125 C91.9418577,75.1695454 94.061596,76.0685838 94.7975782,75.9016893 C95.2470029,75.7997714 95.6053221,76.081003 95.8517001,76.7290235 C96.1121864,77.4141536 96.7193453,77.858881 97.8613632,78.2010372 C99.4946453,78.6903824 99.5001481,78.688566 100.745711,77.2476577 C102.182954,75.5850167 103.981741,75.2467399 104.32878,76.5738372 C104.459999,77.0756098 104.991591,77.4302427 105.855467,77.5923084 C106.584426,77.7290591 107.282021,78.0046605 107.405686,78.2047523 C107.531144,78.4077454 108.197021,78.2343125 108.91213,77.8123851 C110.888086,76.646544 112.504528,76.4127167 113.604697,77.1335714 C114.772244,77.8985797 114.911391,77.8987112 116.735658,77.1364851 L118.210207,76.5203797 L116.712459,75.187903 C115.888696,74.4550317 115.071196,73.855418 114.895786,73.855418 C114.720377,73.855418 114.576858,73.3982262 114.576858,72.839429 C114.576858,72.0188468 114.445688,71.8803824 113.894855,72.1195071 C112.504117,72.7232303 111.275719,72.5175167 110.879563,71.6145454 C110.667981,71.1322687 110.252937,70.7376783 109.957248,70.7376783 C109.606712,70.7376783 109.492507,70.4590071 109.629052,69.936855 C109.784243,69.3433934 109.594191,69.043155 108.895067,68.7773468 C108.376199,68.5800742 107.951666,68.2389536 107.951666,68.0193043 C107.951666,67.7996591 107.704199,67.6199427 107.401737,67.6199427 C107.099275,67.6199427 106.418386,67.1048509 105.888652,66.475303 C105.194465,65.6503112 104.695055,65.3909262 104.100282,65.5464619 C103.623644,65.6711057 103.275065,65.5784427 103.275065,65.327092 C103.275065,65.0877454 103.012006,64.8919235 102.690488,64.8919235 C102.250667,64.8919235 102.105907,64.4206564 102.105907,62.9887893 C102.105907,61.3767043 101.979389,61.0525728 101.278606,60.8693098 C100.581603,60.6870413 100.486762,60.4497125 100.676448,59.3624221 C100.800282,58.652618 100.745202,57.2826947 100.554044,56.3181413 C100.217826,54.6216167 100.277411,54.4500084 102.380806,51.0569632 C103.576675,49.1278646 104.797269,47.1549167 105.093225,46.672644 C105.620625,45.8132345 105.596247,45.7957769 103.868621,45.7957769 C102.632797,45.7957769 102.105907,45.9559523 102.105907,46.3316386 C102.105907,46.8285043 100.524665,47.3546509 99.0313919,47.3546509 C98.1974905,47.3546509 97.1175316,44.8409961 97.1175316,42.9000536 C97.1175316,41.9197934 96.898396,41.266003 96.4939796,41.0396797 C95.7087029,40.6002125 95.6882947,39.4171893 96.4550084,38.7808687 C96.7765262,38.5140372 97.0395851,37.9936235 97.0395851,37.6243975 C97.0395851,37.2551756 97.3742618,36.6502112 97.7833015,36.2800358 C99.0360481,35.1463153 99.4344686,29.0078838 98.3342166,27.7921235 C97.5868179,26.9662605 98.1432645,26.0401071 99.5036207,25.8457728 C100.182997,25.7487208 100.335406,25.4915303 100.268037,24.5557934 C100.170245,23.1975413 98.9203097,22.023029 97.5726358,22.023029 C96.9487138,22.023029 96.4840549,21.6957742 96.1892412,21.0487358 C95.8552837,20.3157824 95.4470823,20.0742906 94.541296,20.0738386 C92.6421275,20.072881 90.5910933,18.8741509 90.7020851,17.830003 C90.8867166,16.0932084 88.2676467,17.3469865 87.0001755,19.6021523 C86.1508262,21.1133673 85.8208755,23.1921783 86.4303686,23.1921783 C86.5969467,23.1921783 87.2778933,23.6896482 87.9435851,24.2976619 C88.9553453,25.2217646 89.2000837,25.8008098 89.4352303,27.8267961 C89.7680577,30.6945043 89.1408152,31.7691413 87.1388248,31.7611317 C86.1859878,31.7573221 85.7427851,31.4633016 85.0286947,30.3612742 C84.5315248,29.5940016 84.1102303,28.455555 84.0924851,27.8313947 C84.0747316,27.2072345 83.8513015,26.5231728 83.5959604,26.3112619 C82.8833289,25.7198303 79.762133,26.9423509 78.5706481,28.2795906 C77.7650988,29.1836756 77.2209686,29.4276536 76.0101892,29.4276536 C75.1645508,29.4276536 74.0326714,29.2271838 73.4949111,28.9821577 C72.0693358,28.332629 70.5388138,25.8154276 70.5388138,24.120366 C70.5388138,22.4811536 69.7308193,21.6644591 68.0905262,21.6457071 C66.7281358,21.6301317 66.0757056,22.9901591 66.8864125,24.1557577 C67.7452632,25.3905824 67.508896,27.6679851 66.2283768,30.4959495 C65.4134453,32.2956742 64.6419604,33.3781975 63.792644,33.9136769 C62.9660988,34.4348057 62.0621905,35.675281 61.094859,37.6159893 L59.6400974,40.5345988 L60.8025686,41.5372728 C62.1173453,42.671318 62.2286289,43.3761701 61.3585344,45.058755 C60.8498782,46.0423851 60.5531782,46.2121646 59.5195303,46.1111221 C58.2339645,45.9854509 57.5330207,45.0822701 57.1130741,43.0103714 C56.9839056,42.3731016 56.3837495,41.6717591 55.5431905,41.175818 C54.1376618,40.3465317 54.0969604,40.0890824 55.0555344,38.0909879 C55.5265015,37.1092851 55.2493673,36.679455 53.8784084,36.2652495 C53.065881,36.0197632 53.0015412,36.1208221 53.0015412,37.6424714 C53.0015412,39.0535235 52.7523111,39.5510632 51.2304933,41.1780043 C49.6450467,42.8729797 49.4854262,43.2098756 49.707344,44.3927838 C49.8781385,45.3032098 49.7575919,46.015829 49.3197358,46.684081 C48.7099714,47.6146975 48.728259,47.6992276 49.7711618,48.7708934 C51.2213001,50.2610303 51.7023399,51.3642988 52.1803714,54.2964372 C52.4977755,56.2432934 52.8285029,56.9872687 53.7657851,57.8628208 C54.4171755,58.4713071 54.9501275,59.3372345 54.9501275,59.7870988 C54.9501275,60.2369632 55.1401179,60.6050345 55.3723179,60.6050345 C56.1613056,60.6050345 55.4816289,61.5567167 54.5326467,61.7807386 C53.981633,61.9108153 53.5879097,62.2858769 53.587244,62.6813221 C53.5866275,63.0540372 53.3979563,63.4846851 53.1679755,63.6383139 C52.9379947,63.7919345 52.6365974,64.2245303 52.4981988,64.5996331 C52.1103892,65.6507345 50.7757878,65.4277317 50.1943878,64.2146838 C49.4422303,62.645355 48.4552755,62.6324673 47.8147796,64.1836235 C47.3591495,65.2870646 47.3623344,65.6024632 47.8365234,66.3362221 C48.1421042,66.8090756 48.2864536,67.3669153 48.1573097,67.5758756 C48.0281659,67.7848358 48.1007371,68.0659605 48.3185782,68.2005906 C48.5364193,68.3352249 48.7146522,68.8734619 48.7146522,69.3966701 C48.7146522,69.9198824 48.8771782,70.3479619 49.0758275,70.3479619 C49.5339727,70.3479619 50.6632385,72.5841125 50.6632385,73.4913208 C50.6632385,74.494792 53.5712905,74.9454167 54.5180125,74.0886413 C54.8966042,73.7460249 55.5871426,73.4657016 56.0525371,73.4657016 C56.7329207,73.4657016 56.8987138,73.6947742 56.8987138,74.6348509 C56.8987138,75.5008893 57.0805837,75.8040043 57.6002042,75.8040043 C58.4730481,75.8040043 59.2370166,76.5362632 59.2370166,77.3728851 C59.2370166,77.7213413 59.6754481,78.4183276 60.2113097,78.921744 C60.7471714,79.4251605 61.1856029,80.2332577 61.1856029,80.7175153 C61.1856029,81.3855002 61.4412768,81.6277482 62.2450303,81.7213071 C63.2509262,81.8383893 63.4592412,82.0967632 64.7010563,84.7674988 C64.8505508,85.0890167 65.2168097,85.3520756 65.5149686,85.3520756 C65.8131193,85.3520756 66.1973125,85.5712934 66.3687234,85.8392221 C66.9173371,86.696766 67.1250974,86.3636303 66.8745563,85.0281208 Z" id="lombardia"></path>
                <path d="M137.842959,118.380608 C138.414788,117.057124 138.882106,115.225422 138.911806,114.19115 C138.930188,113.550896 139.165638,113.430095 140.230322,113.514637 C141.051685,113.57986 141.942562,113.321269 142.662418,112.808688 C143.287195,112.363804 144.1946,111.990497 144.678878,111.97911 C145.163156,111.967722 145.942137,111.779824 146.409952,111.561555 C147.570143,111.020244 148.482258,111.448015 148.482258,112.533436 C148.482258,113.523588 149.622073,114.720551 150.337774,114.481985 C150.587497,114.398741 150.904984,114.781529 151.0433,115.332617 C151.335956,116.498671 152.010566,116.617739 152.856134,115.652589 C153.631002,114.768148 153.974888,112.437424 153.330521,112.437424 C152.706463,112.437424 146.366892,105.760171 145.12866,103.798689 C142.957577,100.359473 140.697512,87.8032153 141.530604,83.8089208 C141.755933,82.7285591 142.06174,81.7132153 142.210178,81.5526167 C142.358608,81.3920057 142.408384,80.6466701 142.320784,79.8963167 C142.163617,78.5500728 142.136929,78.5320235 140.303095,78.5320235 C138.866144,78.5320235 138.323423,78.3515057 137.909999,77.7360495 C137.487221,77.1066701 136.88593,76.918492 135.037014,76.8369577 C132.361918,76.7189797 129.763236,77.1758961 129.186812,77.8655632 C128.473712,78.7187591 126.312015,80.0908934 125.680975,80.0908934 C125.340541,80.0908934 124.640941,79.6365536 124.126297,79.0812495 C123.36281,78.2574249 122.972202,78.1195687 122.004028,78.3322153 C121.168733,78.5156756 120.635411,78.4107742 120.202486,77.9778495 C119.549867,77.3252303 117.694602,77.1258536 117.694602,77.7083386 C117.694602,78.3784358 114.385355,78.5886331 113.234625,77.9916331 C112.061538,77.3830194 111.799934,77.4228331 109.13443,78.6155879 C107.904434,79.165981 107.215199,79.2823975 106.78333,79.0126934 C106.447297,78.8028331 105.625988,78.5111303 104.9582,78.3644632 C104.226138,78.2036714 103.665422,77.7971427 103.546038,77.3406125 C103.257665,76.2378783 102.413584,76.4149358 101.521334,77.7653345 C101.092643,78.4141399 100.340193,79.0482372 99.8492166,79.1744427 C98.5043084,79.5201372 95.4077988,78.5322167 95.1867481,77.6869194 C95.0757768,77.2625714 94.6455234,76.9731577 94.1256399,76.9731577 C93.6446864,76.9731577 92.5690632,76.503066 91.735359,75.9285043 C90.5718645,75.126666 89.7314741,74.8775632 88.1197303,74.856781 C85.964744,74.8289961 85.9987714,74.8522153 84.9391837,72.6862646 C84.6313673,72.0570536 82.9020275,72.0658605 82.6850042,72.6977509 C82.6135549,72.9057783 82.2189645,73.0759851 81.8081412,73.0759851 C81.3973138,73.0759851 81.0611782,73.2513577 81.0611782,73.4657016 C81.0611782,74.0675016 80.0464426,73.926481 79.4818755,73.2462167 C79.0233768,72.6937605 78.9445262,72.6937605 78.6353536,73.2462167 C78.4478453,73.5812797 78.075044,73.855418 77.8069138,73.855418 C77.1051275,73.855418 75.2220563,72.9339947 75.2184604,72.5888345 C75.2167919,72.4280797 74.8646782,72.2965482 74.4359864,72.2965482 C74.0072988,72.2965482 73.6565536,72.4751016 73.6565536,72.6933372 C73.6565536,72.9155262 72.9463673,73.0441399 72.0426275,72.9856235 C70.5164741,72.8868084 70.3840097,72.9661934 69.6068988,74.4452756 C69.1549056,75.3055605 68.4592796,76.7664783 68.0610727,77.6917523 C67.3420426,79.3625016 67.3427166,79.378044 68.1585029,79.9494454 C69.1461111,80.6411961 69.2263426,82.1271331 68.3247645,83.0287071 C67.8805673,83.4729043 67.6972262,84.2180509 67.7554426,85.342603 C67.8411234,86.997855 67.8380248,87.001829 66.2671796,87.2530194 C65.4014084,87.3914632 64.693059,87.7235303 64.693059,87.9909536 C64.693059,88.6261769 66.1689933,89.5413619 66.6820508,89.2242742 C66.9011864,89.0888427 67.4299796,89.2943345 67.8571549,89.6809194 C68.5010412,90.2636262 68.7648768,90.3019605 69.4003097,89.9051303 C70.0306179,89.5114934 70.2072399,89.5318728 70.3944974,90.0198577 C70.5197412,90.346229 70.8603316,90.6132577 71.1513768,90.6132577 C72.3101741,90.6132577 72.9175385,93.2400865 71.9784522,94.1903057 C71.6985234,94.4735468 71.3651207,94.9813358 71.2375549,95.3187331 C71.040607,95.8396358 71.3084536,95.9072016 73.0130905,95.7666208 C74.7156316,95.6262125 75.1708385,95.7405947 76.0098768,96.5196331 C77.2879179,97.7062851 77.8771138,97.5338797 79.321733,95.5505756 C79.9726179,94.6569783 80.8798632,93.8715783 81.3378234,93.8052413 C82.6482727,93.6154194 85.4133481,95.1903742 85.2719536,96.046081 C85.1419097,96.8331084 86.3622727,98.407603 87.1023234,98.407603 C87.9001385,98.407603 89.9984988,99.5991824 90.3701412,100.263271 C90.5983878,100.671124 91.3286453,100.928425 92.4166632,100.984344 C93.635107,101.046974 94.2590495,101.298325 94.6471878,101.882893 C94.9435755,102.329273 95.5197645,102.694492 95.9276166,102.694492 C96.3358262,102.694492 96.822381,103.088663 97.0100125,103.571355 C97.1974796,104.053632 97.8972358,104.9658 98.5650193,105.598397 L99.779181,106.748577 L100.380065,105.890684 C101.164203,104.77117 103.230808,104.728262 104.158926,105.812228 C104.525986,106.240919 105.063899,106.591665 105.354291,106.591665 C105.644682,106.591665 106.199699,106.94241 106.587656,107.371097 C107.564493,108.450489 108.180755,108.34786 108.994528,106.970256 C109.740529,105.707371 110.915444,105.564551 110.812889,106.74921 C110.759596,107.36488 110.944569,107.424321 112.176903,107.187543 C112.961012,107.036889 113.878125,106.915607 114.214922,106.918032 C114.5936,106.920765 114.816673,106.599082 114.799499,106.075048 C114.777233,105.395725 115.024429,105.203318 116.045867,105.104967 C116.882732,105.024391 117.536156,104.652407 117.949815,104.021088 C118.296204,103.492422 118.673156,103.153426 118.787485,103.267755 C118.901814,103.382084 119.307767,103.192903 119.689597,102.847348 C120.336475,102.261929 120.47256,102.315913 121.684351,103.638658 C122.768534,104.822104 123.209304,105.039921 124.334099,104.948088 C125.476889,104.854792 125.702423,104.972137 125.808134,105.715065 C125.919755,106.499507 126.089625,106.567143 127.415723,106.355092 C128.299696,106.213734 129.001971,106.285393 129.154708,106.532528 C129.45906,107.024976 128.447871,109.587736 127.563738,110.564692 C127.123852,111.050762 127.057593,111.399263 127.338743,111.74811 C127.557915,112.020058 127.866258,112.856367 128.023943,113.606573 C128.368511,115.245929 130.331403,117.075847 131.769291,117.098191 C132.329834,117.106903 133.255236,117.481196 133.825741,117.929959 C134.676258,118.598971 136.116266,119.237634 137.182754,119.418834 C137.291189,119.437258 137.588284,118.970055 137.842959,118.380608 Z" id="emilia-romagna"></path>
                <path d="M28.0250038,117.740339 C28.2830745,117.429378 29.229464,117.052344 30.1280893,116.90248 C32.9941714,116.424502 37.8007788,113.643802 37.8044704,112.461563 C37.8074232,111.517632 40.4721234,106.478051 41.3718522,105.714802 C41.8140275,105.339695 42.5597412,105.032795 43.0289823,105.032795 C44.24427,105.032795 44.8174796,104.302073 44.8174796,102.752848 C44.8174796,101.668866 45.150044,101.094087 46.5331097,99.7876564 C48.4720426,97.9561564 52.483244,95.6795838 53.7713125,95.6795838 C54.6910837,95.6795838 64.5281659,98.1905797 66.4256289,98.9097002 C67.0570221,99.1489975 68.1092577,99.8033303 68.7639316,100.363784 C72.6612234,103.700174 77.0234947,106.397158 80.7853262,107.796029 C84.3563495,109.123948 84.8120741,109.211918 85.2381563,108.655529 C85.8245412,107.889818 85.5448673,107.371097 84.545633,107.371097 C84.0490138,107.371097 83.7892015,107.103387 83.7892015,106.591665 C83.7892015,106.020074 83.5293892,105.812228 82.8149084,105.812228 C82.2790467,105.812228 81.8406152,105.636855 81.8406152,105.422515 C81.8406152,105.208171 81.5775563,105.032795 81.2560385,105.032795 C80.8562577,105.032795 80.6714659,104.632176 80.6714659,103.765492 C80.6714659,102.715471 80.3630166,102.264444 78.8724604,101.134899 C77.8830152,100.385092 76.7869344,99.2477509 76.4367316,98.6074728 C75.305896,96.5399591 73.8095125,95.9325906 72.1002974,96.8473358 C70.8884248,97.4959071 70.0398234,96.9079605 70.3012426,95.6008769 C70.4261659,94.9762482 70.7937851,94.1997865 71.1181755,93.8754043 C72.26397,92.7296016 71.6630042,91.4827769 69.8191837,91.1803893 C69.0360851,91.0519605 68.0446221,90.7987687 67.6159385,90.6177413 C66.0932536,89.9747386 65.1053905,89.9215687 64.6596645,90.4586303 C63.9988508,91.2548714 62.4362988,91.1229742 61.874596,90.2235413 C61.6068768,89.7948495 61.1669536,89.4441084 60.8969988,89.4441084 C60.6270399,89.4441084 60.0858645,89.1238071 59.6943933,88.7323317 C58.7373275,87.775266 57.6900522,87.4010468 57.6306234,87.9948947 C57.6044823,88.2561002 57.5606412,89.1713057 57.5331933,90.0286851 C57.4903878,91.3658262 57.3486316,91.606566 56.5365604,91.7212399 C56.0158673,91.7947728 55.257796,92.2770454 54.8519741,92.7929632 C53.9888536,93.8902523 53.0068878,94.0252153 52.9891467,93.0489906 C52.9706947,92.0337208 52.1623714,91.1657221 50.9555289,90.8652454 C50.0177577,90.6317632 49.8838015,90.7113701 49.8838015,91.5021824 C49.8838015,92.9111386 49.1335221,93.3412769 46.6758933,93.3412769 C45.0153193,93.3412769 44.3428878,93.4987071 44.1789768,93.9258577 C43.8727549,94.7238577 43.0070659,94.6593906 41.4970179,93.7261317 C40.4018782,93.0492988 40.196781,93.0231824 40.00017,93.5355372 C39.8748686,93.8620728 39.8739316,94.6371701 39.9980947,95.2579605 C40.1822001,96.1785084 40.0364905,96.5094413 39.208059,97.0522482 C38.6493863,97.4183098 38.192287,97.9932413 38.192287,98.3298783 C38.192287,98.6665153 37.8191236,99.3391564 37.3630401,99.8246345 C36.7380058,100.489956 36.5439325,101.167948 36.5749595,102.577776 C36.6312222,105.134026 36.3596153,105.812228 35.2796289,105.812228 C34.5425881,105.812228 34.4094699,105.970488 34.5842659,106.638908 C34.7923212,107.434513 34.6993915,107.458739 32.1120464,107.283337 C30.6334278,107.1831 29.1167462,106.967704 28.741643,106.804681 C28.2141218,106.575411 28.0596378,106.694269 28.0596378,107.329402 C28.0596378,107.781029 27.9033066,108.150534 27.7122362,108.150534 C27.5211658,108.150534 27.0992305,108.80818 26.7746038,109.61197 C26.4499734,110.415765 25.2033267,112.153229 24.0042678,113.473011 C21.5909014,116.129363 21.689266,115.929045 22.1731895,117.201863 C22.4842344,118.019971 22.7960901,118.129985 25.0389982,118.212793 C26.8526758,118.279759 27.6868656,118.147767 28.0250038,117.740339 Z" id="liguria"></path>
                <path d="M115.028178,166.42351 C115.705452,165.562496 115.982218,165.485761 117.617429,165.705628 C118.624435,165.841027 119.840271,166.205592 120.319292,166.515776 C121.12617,167.038258 121.217099,167.009084 121.55544,166.11918 C121.83265,165.390058 122.303568,165.097388 123.509946,164.904482 C125.271725,164.622759 125.384786,164.451865 124.474679,163.446207 C123.62858,162.511279 124.23194,160.585768 125.390071,160.524921 C127.075609,160.436366 129.601402,157.767672 129.199159,156.500323 C129.04413,156.011859 129.203855,155.613323 129.661344,155.347115 C130.045843,155.123378 130.184025,154.934989 129.968418,154.928472 C129.418749,154.911855 128.492672,152.688393 128.816913,152.16376 C128.964023,151.925732 129.415164,151.81748 129.819449,151.923203 C130.223734,152.028925 130.649823,151.961212 130.766314,151.772725 C130.882804,151.584238 131.571224,151.148577 132.296129,150.804586 C133.477736,150.243876 133.593073,150.049286 133.410537,148.924453 C133.293361,148.20237 133.47129,147.03706 133.829698,146.179273 C134.623953,144.278349 134.612176,144.004538 133.736174,144.004538 C133.179416,144.004538 133.00778,143.682522 132.965531,142.558702 C132.907798,141.023061 133.752635,139.327931 134.575714,139.327931 C134.847963,139.327931 135.23851,138.757969 135.443591,138.06135 C135.731206,137.084399 136.039266,136.787734 136.790766,136.763996 C139.444144,136.680199 139.753517,136.599431 139.03164,136.178976 C138.656537,135.960501 138.349635,135.335609 138.349635,134.790332 C138.349635,134.126671 138.091961,133.731536 137.5702,133.595092 C137.138814,133.482281 136.790766,133.06351 136.790766,132.657285 C136.790766,132.253596 136.527707,131.923303 136.20619,131.923303 C135.513257,131.923303 135.485988,131.735763 136.030883,130.717615 C136.255984,130.297013 136.586858,130.043552 136.766163,130.154368 C136.945464,130.265184 137.319978,130.081359 137.598412,129.745863 C138.014303,129.244745 138.01205,129.078643 137.585781,128.815195 C136.970273,128.434788 137.324877,127.246696 138.053921,127.246696 C138.746936,127.246696 140.002032,124.826154 139.707289,124.058064 C139.509313,123.542149 140.431372,122.60475 142.100963,121.624572 C142.127924,121.608746 142.27127,121.201207 142.419514,120.718932 C142.650554,119.967296 142.546157,119.842068 141.688495,119.842068 C141.138186,119.842068 140.687938,120.01744 140.687938,120.231785 C140.687938,120.671027 139.401887,120.764415 138.992384,120.354908 C138.845757,120.208281 137.937252,120.055087 136.973481,120.014479 C135.806414,119.9653 134.727871,119.598783 133.744147,118.917062 C132.931785,118.354092 131.871677,117.893481 131.388353,117.893481 C129.881161,117.893481 127.526009,115.673247 127.240483,113.983218 C127.102519,113.166624 126.739673,112.40258 126.434162,112.285341 C125.805162,112.043973 125.666629,110.488853 126.274129,110.488853 C126.6994,110.488853 128.213124,108.209869 128.215528,107.565974 C128.216331,107.35163 127.442423,107.176257 126.495733,107.176257 C124.801699,107.176257 123.659048,106.65137 124.612101,106.310991 C125.623659,105.949719 125.042805,105.601838 123.637808,105.727471 C122.369555,105.840879 122.073335,105.700717 121.396934,104.667167 C120.616899,103.475264 120.032924,103.13126 120.032924,103.86366 C120.032924,104.078005 119.797043,104.253377 119.50875,104.253377 C119.220453,104.253377 118.667155,104.604123 118.279196,105.032812 C117.891236,105.461501 117.118723,105.817578 116.562495,105.824098 C115.687498,105.834351 115.643105,105.889492 116.23318,106.23318 C116.608283,106.451655 116.915185,106.884756 116.915185,107.195622 C116.915185,107.755844 116.453889,107.818593 111.168341,107.977356 C110.197754,108.006507 109.201243,108.309675 108.758259,108.710566 C108.037987,109.362407 107.947635,109.361374 106.808188,108.688286 C106.151047,108.300104 105.613385,107.844938 105.613385,107.676806 C105.613385,107.508678 105.350326,107.371115 105.028809,107.371115 C104.707292,107.371115 104.093488,107.02037 103.664799,106.591681 C102.667886,105.594769 101.470308,105.594769 100.936778,106.591681 C100.707351,107.02037 100.204292,107.371115 99.818866,107.371115 C99.0075916,107.371115 96.2601706,104.763544 96.2601706,103.993564 C96.2601706,103.707773 95.9193707,103.473943 95.5028331,103.473943 C95.0862994,103.473943 94.4852229,103.102347 94.1671084,102.648175 C93.7336258,102.029292 93.1923203,101.827882 92.0065081,101.844247 C90.8405286,101.860338 90.2781003,101.657362 89.8685776,101.072684 C89.2998749,100.260747 87.5580999,99.1961021 86.7649785,99.1756303 C86.5215494,99.1693442 85.7389114,98.633631 85.0257795,97.9851493 C84.0487193,97.0966641 83.8323717,96.6817594 84.1478946,96.3015746 C84.4698322,95.9136657 84.2086125,95.635618 83.0177184,95.0985993 C81.2485268,94.3008052 80.8436651,94.4835631 79.4752509,96.6977027 C79.0264915,97.4238122 78.4105667,98.0179011 78.1065327,98.0179011 C76.9603625,98.0179011 77.6229559,99.2380747 79.5023284,100.58827 C80.9350967,101.61761 81.4509148,102.24251 81.4509148,102.948923 C81.4509148,103.530569 81.6150403,103.808223 81.8668639,103.652589 C82.0959007,103.511036 82.3790108,103.763386 82.4968925,104.214164 C82.6233207,104.697632 83.0264247,105.032812 83.4814391,105.032812 C83.9051943,105.032812 84.333969,105.34662 84.4342666,105.73016 C84.5345643,106.113704 85.0004206,106.595979 85.4695038,106.801883 C86.0257004,107.046029 86.3223805,107.521616 86.3223805,108.169073 C86.3223805,108.805064 87.0026632,109.925595 88.2151788,111.286811 C91.1285374,114.557447 91.8531777,116.49564 92.1687902,121.861497 C92.4237316,126.195897 93.0045623,128.975591 93.7706061,129.52736 C94.4443298,130.012632 96.1576867,132.523869 97.1443066,134.472135 C98.357173,136.867162 98.9893372,140.085237 98.7162935,142.474446 C98.5641947,143.805338 98.715974,144.655627 99.315363,145.830527 C100.014196,147.200352 100.326449,147.432047 101.726863,147.619883 C103.930153,147.915405 104.96237,148.90796 104.70645,150.48499 C104.547496,151.464529 104.72214,151.91931 105.568727,152.730389 C106.152605,153.289785 106.786679,153.747469 106.977773,153.747469 C108.309936,153.747469 113.329299,159.084024 114.914139,162.185366 C115.500703,163.333201 114.768175,165.438987 113.782322,165.438987 C112.722436,165.438987 112.402945,166.258956 113.227817,166.862118 C114.161139,167.544579 114.142838,167.549037 115.028178,166.42351 Z" id="toscana"></path>
                <path d="M171.660328,155.086139 C172.210112,154.53635 172.939745,153.659482 173.281733,153.137552 C173.792925,152.357371 174.225697,152.188578 175.714869,152.188578 C177.218773,152.188578 177.591521,152.039914 177.910922,151.312706 C178.122508,150.83098 178.734056,150.337685 179.269922,150.216497 C181.584907,149.692948 182.828497,148.986313 182.568122,148.342389 C182.426777,147.992832 182.170725,146.654593 181.999121,145.368526 C181.714712,143.237117 177.941292,132.667924 176.402025,129.691315 C176.050269,129.011088 175.762466,128.079345 175.762466,127.620785 C175.762466,126.624403 174.328359,125.32918 173.205073,125.311056 C171.087697,125.276897 167.960912,123.105037 161.611351,117.258087 C156.576525,112.6218 154.328017,111.693522 154.328017,114.251228 C154.328017,114.833589 153.946704,115.715955 153.480652,116.212048 C152.505977,117.249539 150.430844,117.46551 150.430844,116.529452 C150.430844,116.207939 150.100552,115.94488 149.696863,115.94488 C149.274484,115.94488 148.849729,115.572617 148.696338,115.068013 C148.534865,114.536787 148.350529,114.383174 148.228696,114.678296 C148.118091,114.946229 147.500851,115.165443 146.857059,115.165443 C145.914352,115.165443 145.600643,114.937891 145.245229,113.996293 C144.73063,112.632966 144.355195,112.567032 143.026215,113.606573 C142.490354,114.02573 141.592441,114.372576 141.030849,114.377339 C140.145138,114.384859 139.943378,114.631418 139.508941,116.237166 C139.23348,117.2553 138.855229,118.287341 138.668378,118.530592 C138.167148,119.183125 139.909121,119.509504 141.483381,119.058017 C142.647032,118.724285 142.921902,118.800502 143.886077,119.724239 C144.484877,120.297929 144.974802,120.922397 144.974802,121.111948 C144.974802,121.705554 143.821556,122.640954 143.315029,122.458184 C142.686056,122.231244 140.687917,123.383137 140.687917,123.972674 C140.687917,124.551695 142.709617,124.966706 143.201592,124.488674 C143.405218,124.290818 143.882247,124.128937 144.26166,124.128937 C144.813545,124.128937 144.934343,124.419308 144.865721,125.580954 C144.783019,126.980914 144.826293,127.033311 146.072658,127.042393 C147.100585,127.049889 147.718117,127.42516 149.087538,128.874547 C150.034725,129.87704 150.917575,130.522739 151.049411,130.309414 C151.181255,130.096093 151.54137,130.018356 151.84968,130.136667 C152.157989,130.254978 152.730825,130.151573 153.122649,129.906871 C153.51447,129.662174 154.124128,129.572893 154.477437,129.708473 C154.989048,129.904796 155.068951,130.273077 154.869944,131.517588 C154.690359,132.640656 154.79824,133.352113 155.25348,134.046896 C155.601854,134.578582 155.886397,135.326671 155.885802,135.709315 C155.885206,136.091959 156.278871,137.149192 156.76061,138.058718 C157.460765,139.380613 157.547148,139.855488 157.191155,140.425525 C156.832219,141.000267 156.87987,141.22237 157.436691,141.570107 C157.937806,141.88306 158.174875,142.655491 158.299774,144.382192 C158.496175,147.097389 159.453582,148.437715 161.218355,148.468052 C161.989622,148.48131 162.609829,148.921726 163.498947,150.087506 C164.600802,151.532224 164.791478,151.636611 165.449559,151.155419 C166.439941,150.431232 167.281955,151.268774 167.340578,153.036395 C167.386828,154.431037 168.80374,156.051321 169.996425,156.073511 C170.361784,156.080207 171.110538,155.635924 171.660328,155.086139 Z" id="marche"></path>
                <path d="M109.87158,49.9209249 C110.534411,49.5537331 111.1754,49.5003372 112.015022,49.7423673 C112.963803,50.0158646 113.314137,49.9501071 113.699999,49.4261016 C113.967928,49.0622468 114.187145,48.5239523 114.187145,48.2298988 C114.187145,47.2678194 116.597522,42.6717536 117.395033,42.1131577 C117.823355,41.8131495 118.416722,41.6609098 118.713632,41.774844 C119.055052,41.9058577 119.253467,41.7140139 119.253467,41.2528728 C119.253467,40.7656235 119.867571,40.2335468 121.104623,39.648966 C123.240471,38.6396591 124.917529,38.5246851 125.240156,39.3654454 C125.855719,40.9695865 127.65491,38.7220194 127.187136,36.933255 C126.96124,36.0694317 128.397969,35.2734125 130.182981,35.2734125 C131.674828,35.2734125 134.583114,32.7206262 133.545077,32.322292 C133.186745,32.1847851 132.893571,31.7359605 132.893571,31.3248988 C132.893571,30.8862824 132.491062,30.4244797 131.919278,30.2070865 C131.351292,29.9911399 130.944985,29.5274961 130.944985,29.095303 C130.944985,28.6875536 130.681926,28.1356235 130.360408,27.8687879 C129.619536,27.2539194 129.607569,26.3500194 130.336593,26.0702714 C130.64501,25.9519194 131.009695,25.3436221 131.146996,24.718492 C131.284293,24.093366 131.558074,23.5818947 131.755388,23.5818947 C132.446691,23.5818947 132.10638,22.727466 131.334702,22.5256646 C130.906014,22.4135632 130.555265,22.0103139 130.555265,21.6295523 C130.555265,20.876503 131.297456,20.4641591 132.652889,20.4641591 C134.73717,20.4641591 136.790744,18.3537454 136.790744,16.211766 C136.790744,15.8165961 137.057091,15.2722276 137.382628,15.0020509 C137.865155,14.6015879 138.104843,14.6287769 138.679897,15.1491906 C139.067855,15.5002893 139.578866,15.7875536 139.815475,15.7875536 C140.052081,15.7875536 140.357107,16.138644 140.493299,16.567755 C140.689741,17.1866879 140.956988,17.2963851 141.786147,17.0984262 C142.361012,16.9611783 143.141884,16.6896619 143.521421,16.4950564 C143.900949,16.3004468 144.357734,16.2316153 144.536489,16.3420934 C144.715248,16.4525756 145.239558,16.1405468 145.701628,15.6486988 L146.541751,14.7544317 L145.563414,14.2308454 C145.025333,13.9428742 144.585085,13.4668482 144.585085,13.1730125 C144.585085,11.6599358 141.522702,7.21377145 140.480547,7.21377145 C139.779599,7.21377145 138.922971,6.00053857 138.433285,4.31426323 C137.934673,2.59722761 138.240775,1.92798925 139.795034,1.33706323 C140.286118,1.15035227 140.687917,0.727837199 140.687917,0.398137199 C140.687917,-0.137440883 140.5322,-0.135118965 139.226473,0.419942679 C131.207382,3.82885501 128.099538,4.71805912 127.760378,3.70057419 C127.687877,3.48307008 126.472499,3.19715775 125.05954,3.06521528 C122.034036,2.78268925 115.30183,4.16504405 113.9603,5.34427008 C113.514023,5.73656323 112.938192,6.97026597 112.680689,8.08584268 C112.019243,10.9513851 111.021356,11.890381 108.637548,11.890381 C106.316559,11.890381 105.456254,11.4781646 103.572463,9.46343857 C102.500132,8.31657556 101.934965,7.98122898 101.429021,8.19159884 C101.051107,8.3487372 99.9137659,8.5655961 98.9016029,8.67351391 C96.4108919,8.93907145 96.1675673,9.7832961 96.9634837,15.3978372 C97.1913727,17.005418 97.3455686,18.9345208 97.3061371,19.6847221 C97.2445385,20.8566701 97.3676125,21.0675413 98.1801563,21.1822934 C99.8666988,21.4204687 100.861248,22.3712961 101.138148,24.0102536 C101.428503,25.7288797 100.916571,26.6996303 99.7198919,26.6996303 C98.9154768,26.6996303 98.7755905,27.1106016 99.3757221,27.7107331 C100.31358,28.6485906 99.6772262,35.6611523 98.5627385,36.6697482 C98.1536947,37.0399276 97.8190221,37.6087194 97.8190221,37.9337221 C97.8190221,38.2587249 97.526259,38.8481345 97.168433,39.2435262 C96.5604399,39.9153495 96.5614878,39.9943276 97.1844851,40.4498714 C97.6203686,40.7685988 97.9029316,41.633203 98.0007974,42.9477002 C98.2327837,46.0636564 100.116611,47.3929564 101.564054,45.4620742 C102.07723,44.7774906 104.908158,44.7076071 106.479344,45.3407345 C107.680943,45.8249345 108.287933,47.4541893 107.583114,48.3034358 C107.227778,48.7315975 107.280138,49.0306276 107.821067,49.6623906 C108.628766,50.6057139 108.634195,50.6063961 109.87158,49.9209249 Z" id="trentino-alto-adige"></path>
                <path d="M144.828521,81.1198971 C144.670907,80.4919106 144.835095,79.9854769 145.346291,79.5228514 C146.277193,78.6803957 147.054648,79.1003043 146.821554,80.3196517 C146.578682,81.5901573 147.272558,81.062636 147.93747,79.4712723 C148.695654,77.6566903 148.637851,76.5834518 147.781942,76.5834518 C147.396753,76.5834518 146.45262,75.9258039 145.683872,75.1220121 C143.854761,73.2095292 139.16481,66.3665072 139.04037,65.428602 C138.986986,65.0262618 139.688481,63.2503942 140.599246,61.4822275 C142.10009,58.5684792 142.50738,58.0996844 144.947891,56.4768549 C147.563299,54.7377261 147.680647,54.7008043 149.035733,55.1908114 C150.648757,55.7740895 150.786093,56.4667496 149.554006,57.8046957 C148.810644,58.6119249 149.092483,58.528654 151.405163,57.2577704 C156.86283,54.2586233 160.652269,52.4209817 161.379205,52.4209817 C162.349016,52.4209817 162.317843,52.0428819 161.148094,49.6181118 C160.612233,48.5073279 160.173801,47.3157908 160.173801,46.9702597 C160.173801,46.4817491 159.870422,46.3774335 158.809791,46.5012583 C157.864313,46.611638 157.445781,46.5039162 157.445781,46.150201 C157.445781,45.7533013 157.341855,45.7438273 156.97812,46.1075621 C156.315484,46.7701983 155.576276,46.6869781 155.428339,45.9330817 C155.3225,45.3937053 155.106234,45.4560717 154.076924,46.322799 C152.685443,47.4944995 152.064561,47.6133828 151.740955,46.7700814 C151.617574,46.4485647 151.140806,46.1828204 150.681462,46.1795389 C149.465376,46.1708482 149.045959,45.7800476 148.442088,44.0929577 C148.145225,43.2635731 147.534951,42.2960025 147.08593,41.9428018 C146.63691,41.589601 146.167753,40.8652063 146.043359,40.3330357 C145.918965,39.8008651 145.695263,38.972295 145.546247,38.4917736 C145.336844,37.8165378 145.550998,37.360553 146.489075,36.4842582 C147.853073,35.2100932 147.960604,34.8033414 147.118273,34.1042704 C146.796756,33.8374349 146.533697,33.3016633 146.533697,32.9136608 C146.533697,32.5210675 146.144822,32.0897011 145.656833,31.9409928 C144.438129,31.5696 143.415959,30.6009227 143.415959,29.8173806 C143.415959,29.0959983 144.491696,27.9866799 145.845987,27.3114908 C146.32217,27.0740906 146.97861,26.163111 147.304741,25.2871006 C148.084799,23.191813 148.658147,22.5529534 149.999242,22.2847344 C150.688711,22.1468408 151.190374,21.7516285 151.323852,21.2411963 C151.442022,20.789323 152.078618,20.2158112 152.738514,19.9667312 C153.773397,19.5761059 153.938325,19.3203618 153.938325,18.1062756 C153.938325,16.3540717 153.185582,15.9290344 149.56961,15.6394822 C147.165191,15.4469463 146.896937,15.5034242 146.238198,16.3408759 C145.727622,16.9899656 144.939418,17.3317593 143.495005,17.5304177 C142.380286,17.6837285 141.37001,17.9681091 141.24995,18.1623754 C140.843408,18.8201714 139.994222,18.5203151 139.766958,17.6387162 C139.477551,16.5160421 137.5702,15.5292001 137.5702,16.502137 C137.5702,16.8548233 137.274627,17.8580062 136.913375,18.7314366 C136.386594,20.0050677 135.963423,20.4109738 134.776068,20.7815482 C133.9618,21.035675 132.815369,21.2436009 132.228439,21.2436009 L131.161296,21.2436009 L132.027443,21.8502776 C132.876617,22.4450602 133.241747,23.9716217 132.534843,23.9716217 C132.337529,23.9716217 132.063753,24.4830905 131.926451,25.1082165 C131.78915,25.7333463 131.400598,26.3508066 131.063001,26.4803525 C130.508418,26.6931693 130.510718,26.783876 131.086817,27.4204596 C131.437512,27.8079711 131.724441,28.4284711 131.724441,28.7993456 C131.724441,29.17022 131.879942,29.3775574 132.07,29.2600966 C132.526565,28.9779218 133.522577,30.2017977 134.682103,32.4697885 C134.82827,32.7556889 134.578766,33.3174508 134.112812,33.7515529 C133.656585,34.1765903 133.28331,34.6576612 133.28331,34.8205981 C133.28331,35.2228252 130.917594,36.0514538 129.748185,36.0588233 C128.433564,36.0671126 128.035623,36.4512062 127.937407,37.8065844 C127.890808,38.4496179 127.825043,39.3654652 127.791263,39.841801 C127.757478,40.3181329 127.42418,40.8048742 127.050593,40.9234456 C126.224775,41.18555 124.319813,40.5132331 124.319813,39.9596749 C124.319813,39.3615485 123.194801,39.476745 121.559497,40.2423173 C120.528776,40.7248535 120.037429,41.2423902 119.879539,42.0118285 C119.693718,42.9173716 119.48094,43.0803904 118.607856,42.9861217 C117.672274,42.8851031 117.420602,43.1457693 116.271388,45.406071 C115.563022,46.7993102 114.979655,48.1501988 114.975025,48.4080436 C114.970391,48.6658883 114.754975,49.341319 114.49632,49.9090045 C114.057619,50.8718439 113.902975,50.9248298 112.193402,50.6980456 C111.09728,50.5526421 110.307389,50.6115205 110.227949,50.8445598 C110.1549,51.0588497 109.525172,51.3477588 108.828552,51.48658 C107.815665,51.6884224 107.561971,51.6121313 107.561971,51.1056859 C107.561971,50.7573761 107.298912,50.4723954 106.977395,50.4723954 C106.329112,50.4723954 106.149149,48.5511166 106.738288,47.9197473 C106.928295,47.7161201 106.956768,47.2053332 106.801555,46.7846646 C106.533659,46.0585785 106.489547,46.0684539 105.931285,46.9795233 C105.607847,47.5073641 104.443824,49.3695423 103.344568,51.1176931 C101.35664,54.2791107 101.34639,54.3119405 101.433636,57.239781 C101.511443,59.8508633 101.609406,60.1962151 102.300788,60.2967934 C102.933463,60.3888368 103.07834,60.703705 103.07023,61.9690546 C103.060183,63.5367078 103.788561,64.5798095 104.659813,64.2454788 C104.903511,64.1519662 105.57743,64.6975937 106.157411,65.4579866 C106.737392,66.2183796 107.471557,66.8405203 107.788896,66.8405203 C108.106231,66.8405203 108.460184,67.0862994 108.575454,67.3866935 C108.690725,67.6870875 109.123186,68.0212935 109.536478,68.1293698 C109.949769,68.2374501 110.440002,68.7370053 110.625885,69.2394951 C110.811769,69.7419887 111.119139,70.153117 111.308927,70.153117 C111.49872,70.153117 111.679205,70.4161762 111.710005,70.7376929 C111.740808,71.0592097 111.784651,71.4752718 111.807434,71.6622737 C111.830221,71.8492796 112.11192,71.7839629 112.433437,71.5171274 C112.754954,71.2502919 113.018013,71.1626055 113.018013,71.3222688 C113.018013,71.4819321 113.237229,71.4373913 113.505159,71.2232923 C114.286991,70.5985405 115.551175,71.2871514 115.551175,72.3377707 C115.551175,72.9917591 115.77119,73.2714787 116.286735,73.2729323 C116.696675,73.2740937 117.168751,73.6709233 117.353134,74.169356 C117.548468,74.6973956 118.404447,75.3824017 119.443024,75.8418121 C120.410501,76.2697762 121.202075,76.8395623 121.202075,77.1080074 C121.202075,77.4296605 121.636022,77.5454338 122.474685,77.4475212 C123.433398,77.3355983 124.014458,77.5465523 124.830429,78.3027675 C125.886449,79.2814527 125.939962,79.2897069 126.967845,78.6323825 C127.547701,78.2615704 128.207516,77.7196374 128.434101,77.428086 C129.069321,76.6107359 132.507976,75.8695872 134.980837,76.0170367 C137.785293,76.1842566 138.739352,76.4850131 138.739352,77.2018708 C138.739352,77.6491064 139.18879,77.7312354 140.882797,77.5935483 L143.026242,77.419333 L143.026242,78.9499787 C143.026242,79.9933882 143.197858,80.4806244 143.565365,80.4806244 C143.861881,80.4806244 144.196208,80.83137 144.308314,81.2600589 C144.42042,81.6887479 144.635256,82.0394935 144.785733,82.0394935 C144.936207,82.0394935 144.955463,81.6256761 144.828521,81.1198971 Z" id="veneto"></path>
                <path d="M172.956527,50.0047347 C173.213741,49.7475213 173.424188,49.1299558 173.424188,48.6323687 C173.424188,48.0455403 173.766516,47.5716908 174.398481,47.2837482 C175.300014,46.8729824 175.798926,45.406071 175.037099,45.406071 C174.537451,45.406071 174.985801,43.5506427 175.61079,43.0319485 C175.908569,42.7848132 176.152209,42.0428929 176.152209,41.383238 C176.152209,40.4503873 176.048283,40.2877856 175.684548,40.6515204 C174.890484,41.4455849 173.44632,41.2044279 172.989334,40.2014593 C172.65482,39.4672749 172.736018,38.9606541 173.39533,37.6682971 C173.848602,36.7798041 174.349221,36.0528567 174.507813,36.0528567 C175.002898,36.0528567 176.931644,34.0973491 176.931644,33.5953971 C176.931644,32.918166 173.457271,31.8027835 172.051588,32.0287493 C170.943307,32.2069047 170.846996,32.1185441 170.418603,30.5305788 C169.964345,28.8467235 169.966882,28.839467 171.596348,27.1615978 C172.494486,26.2367753 174.281566,24.8483491 175.567633,24.0762062 C176.8537,23.3040594 177.927995,22.6577484 177.954951,22.6399578 C177.981912,22.6221672 178.117557,22.2372902 178.25639,21.7846726 C178.480555,21.0538436 178.254547,20.8903884 176.23728,20.3243709 C174.98794,19.9738241 172.30939,19.5913127 170.284945,19.474343 C165.995047,19.2264828 156.881349,17.4968786 155.562858,16.6803703 L154.654228,16.1176809 L154.925756,18.2909236 C155.189988,20.4057672 155.171897,20.4641663 154.252574,20.4641663 C153.300175,20.4641663 151.369192,21.5977019 152.282027,21.6209251 C152.549957,21.6277413 152.769173,21.9730736 152.769173,22.3883252 C152.769173,23.0131121 152.499941,23.1396182 151.208196,23.1217886 C149.368142,23.0963947 148.62289,23.6134209 148.285531,25.1494018 C147.991793,26.4867789 146.678684,28.2585115 145.981238,28.2585115 C145.708498,28.2585115 145.193689,28.5807921 144.837215,28.9746911 C144.232109,29.643329 144.234564,29.7308127 144.874242,30.2926057 C145.251083,30.6235614 145.953993,31.0145881 146.436268,31.1615583 C146.924256,31.3102666 147.313132,31.7416329 147.313132,32.1342263 C147.313132,32.5222288 147.576191,33.0580004 147.897708,33.3248359 C148.857114,34.1210751 148.626109,35.9406494 147.469393,36.6985598 C146.568647,37.2887515 146.483311,37.537851 146.698641,38.948417 C146.842462,39.8905273 147.293311,40.8284949 147.808961,41.2583725 C148.286462,41.6564414 148.961885,42.7086781 149.309903,43.5966761 C149.767856,44.765181 150.198509,45.248446 150.868772,45.3459844 C151.378132,45.4201086 152.007915,45.6556654 152.268289,45.8694487 C152.596837,46.1391993 153.092265,46.0085193 153.887319,45.4423887 C155.136519,44.5528825 156.276629,44.3723577 156.276629,45.0640707 C156.276629,45.3532175 156.489095,45.3251774 156.903376,44.9813532 C157.429338,44.5448465 157.601683,44.5544452 157.975098,45.0410579 C158.454221,45.6654122 159.1516,45.778742 159.621701,45.3086417 C160.204484,44.7258585 160.953236,45.0357266 160.953236,45.8596941 C160.953236,46.3235317 161.247718,47.3704954 161.607641,48.1862789 L162.262047,49.6695233 L162.965923,48.5120903 C163.448132,47.7191598 163.980287,47.3546573 164.655706,47.3546573 C166.436047,47.3546573 170.312592,48.6407398 171.195076,49.5241587 C172.238914,50.5691037 172.359313,50.6019491 172.956527,50.0047347 Z" id="friuli-venezia-giulia"></path>
                <path d="M214.344501,354.465081 C214.344501,354.258009 214.059477,353.490882 213.711113,352.760357 C213.117261,351.515039 213.125032,351.289198 213.835596,349.142253 C214.472986,347.216399 214.914427,346.611336 216.612429,345.336169 C218.328206,344.047655 218.63139,343.62743 218.63139,342.537824 C218.63139,341.506484 218.460511,341.23132 217.757839,341.131147 C216.488608,340.950205 213.51169,334.81065 213.162313,331.653399 C212.889281,329.186095 213.388029,327.472524 214.503805,327.044361 C215.201734,326.776543 216.293087,323.290039 216.293087,321.328222 C216.293087,319.901771 218.214849,316.731335 222.411344,311.234611 C223.35506,309.998502 224.278877,308.196301 224.653855,306.859879 C225.004577,305.609919 225.590571,304.419329 225.956064,304.214127 C226.572795,303.867867 226.568699,303.821043 225.899126,303.563124 C225.401921,303.371605 223.36248,304.175615 219.338033,306.149717 L213.498405,309.014212 L211.628273,308.349998 C208.58181,307.267991 206.767395,307.459934 204.53225,309.100683 C201.058123,311.650926 193.763111,312.923291 187.875232,312.005928 C186.196006,311.744295 184.888961,311.701788 184.757493,311.904535 C184.223655,312.727828 181.887951,313.531546 180.02919,313.531546 C178.334898,313.531546 177.384779,313.189904 173.939184,311.341709 C171.693801,310.137296 169.79714,308.95353 169.724392,308.711118 C169.651639,308.468702 169.481536,307.76854 169.346382,307.155203 L169.100645,306.040042 L166.488378,306.314902 C163.460209,306.633523 162.381117,307.34869 162.691507,308.831271 C162.953226,310.081371 162.684508,310.438816 160.842583,311.290672 C158.529089,312.360621 157.628067,312.175474 155.683046,310.230454 L153.940823,308.488231 L151.637189,309.838355 C149.827252,310.899131 149.143451,311.581183 148.446511,313.020868 C147.933585,314.080432 147.594149,315.441055 147.641698,316.246944 C147.686929,317.013471 147.481875,317.971661 147.186029,318.376258 C146.209308,319.712002 147.121784,321.870661 149.605043,324.098967 C151.670899,325.95272 151.883139,326.049229 153.353749,325.803591 C156.286126,325.31379 158.720386,325.593841 160.173801,326.588208 C160.924007,327.10147 162.281038,327.686658 163.189422,327.888629 C164.929026,328.275407 167.357787,330.031321 167.68686,331.140122 C167.879318,331.788607 173.705506,334.965995 174.702133,334.965995 C174.985832,334.965995 175.967612,335.752577 176.883864,336.713959 C177.801157,337.676432 179.63102,338.973384 180.95588,339.600088 C183.135907,340.631319 183.630326,340.718277 186.218045,340.525593 C188.713159,340.339803 189.279566,340.426951 190.699793,341.215178 C193.536865,342.789756 195.408661,344.579108 196.596126,346.851803 C197.914407,349.374864 198.568699,349.909809 202.765911,351.89619 C205.434364,353.159069 205.953105,353.283431 207.052801,352.923917 C208.547912,352.435134 212.357184,353.282859 212.978499,354.242639 C213.407086,354.904702 214.344501,355.05735 214.344501,354.465081 Z" id="sicilia"></path>
                <path d="M238.72878,313.260218 C239.191503,312.575154 239.691677,311.098143 239.840271,309.977976 C240.072685,308.225959 240.460951,307.521066 242.618267,304.934581 C244.563397,302.602496 245.416766,301.873332 246.421589,301.684829 C247.134114,301.551156 248.363086,300.850081 249.152629,300.126888 C250.520214,298.874232 250.587948,298.69456 250.583543,296.331382 C250.580999,294.967056 250.329089,292.912167 250.023747,291.764971 C249.437522,289.562528 249.563341,288.86746 250.903585,286.904318 C251.883085,285.469582 256.07697,282.904106 258.681969,282.146154 C260.527178,281.609265 260.939275,281.609371 262.750425,282.147226 C264.346638,282.621251 264.830144,282.644203 265.075593,282.257626 C265.575747,281.4699 265.443525,279.413881 264.815247,278.209217 C264.120619,276.877324 264.015993,270.858169 264.647912,268.582422 C265.112308,266.910004 264.882829,266.598362 262.279684,265.366262 C261.529482,265.011177 259.571,263.690063 257.927502,262.43045 C255.381155,260.478871 254.698573,260.140245 253.311023,260.140245 C251.155626,260.140245 249.701411,259.223347 249.084981,257.475674 C248.073323,254.607489 248.117904,254.217013 249.782119,251.369219 C251.065795,249.172599 251.363012,248.303207 251.313471,246.889862 C251.279662,245.925308 251.368532,244.769852 251.510958,244.322182 C251.753156,243.560897 251.621095,243.506824 249.470049,243.486567 L247.170184,243.464902 L246.908226,245.439645 C246.764148,246.525765 246.448889,247.778655 246.207665,248.223851 C245.966432,248.669051 245.80391,249.515581 245.846497,250.105028 C245.938252,251.374767 245.155392,251.537819 244.443134,250.397314 C243.939923,249.591543 242.619833,249.343254 242.226106,249.980322 C242.102904,250.179666 241.028197,250.464448 239.837875,250.613166 C237.869995,250.859039 237.61744,250.803325 237.054114,249.999066 C235.515775,247.802774 233.158647,247.177545 231.495163,248.52455 C230.676566,249.187414 230.635388,249.38227 231.033254,250.710234 C231.2735,251.512106 231.587649,253.479617 231.731366,255.082488 C232.008652,258.17511 232.95433,260.404295 235.612955,264.232278 C237.208667,266.529843 238.117215,269.303651 238.117215,271.877807 C238.117215,273.885629 239.313529,279.389622 240.048381,280.762706 C240.298371,281.229818 240.930681,281.774639 241.453507,281.973419 C242.266988,282.282699 242.404108,282.588062 242.404108,284.090322 C242.404108,285.884865 241.4255,288.935585 240.67721,289.473769 C240.448108,289.638547 239.425297,289.665613 238.404299,289.533917 C236.764445,289.322392 236.322377,289.439203 234.61398,290.535481 L232.680023,291.776499 L233.881975,293.272167 L235.083923,294.767832 L234.486217,297.123062 C234.157474,298.418437 233.32347,300.538402 232.632874,301.834089 C231.450155,304.053099 231.254506,304.225566 229.263229,304.804443 C227.521799,305.310695 227.204777,305.5329 227.464511,306.065232 C227.637932,306.420654 227.801777,308.04833 227.828621,309.682291 C227.85546,311.316251 228.010269,312.868081 228.172638,313.130803 C228.752099,314.068389 230.689018,314.505797 234.261389,314.505797 L237.887465,314.505797 L238.72878,313.260218 Z" id="calabria"></path>
                <path d="M222.60282,245.96545 C223.70538,244.583626 225.379657,243.991747 226.495959,244.589171 C227.270105,245.003484 228.374322,243.726899 228.374322,242.417597 C228.374322,241.982318 228.90044,241.129608 229.543474,240.52269 C230.186507,239.915768 230.712625,239.289258 230.712625,239.130449 C230.712625,238.971635 230.274194,238.429815 229.738332,237.926398 C229.202471,237.42298 228.764039,236.598896 228.764039,236.095093 C228.764039,235.476611 228.447581,235.058768 227.789746,234.808659 C227.253885,234.604927 226.815453,234.258519 226.815453,234.03887 C226.815453,233.819222 226.585375,233.639508 226.304167,233.639508 C225.68175,233.639508 224.025206,231.478374 224.134132,230.808469 C224.264859,230.004455 223.394877,228.271176 222.647598,227.846824 C222.038182,227.500763 222.012632,227.335246 222.456754,226.610485 C222.991902,225.737168 222.738831,225.355919 220.916038,224.289427 C219.831544,223.654905 219.333376,218.59722 220.293593,217.970052 C220.558277,217.797178 221.125581,217.67635 221.55427,217.701553 C223.061384,217.790155 223.306567,217.647877 224.266082,216.127909 C225.097166,214.811386 225.175078,214.425866 224.817419,213.399889 C224.588336,212.742732 224.143469,212.205058 223.828827,212.205058 C223.514189,212.205058 222.886994,212.007168 222.435066,211.765301 C221.983134,211.523435 220.844139,211.264936 219.903961,211.190854 C218.205492,211.057029 215.968819,209.737123 215.924933,208.842749 C215.913074,208.601066 216.147009,208.201123 216.444788,207.953987 C216.742567,207.706848 217.069333,207.069809 217.170929,206.538339 C217.336122,205.674188 217.197652,205.546766 215.861089,205.333041 C214.917248,205.182116 214.28591,204.840053 214.147748,204.404743 C214.027419,204.025622 213.584034,203.62523 213.162441,203.514983 C212.357157,203.304396 212.098435,201.912544 212.785631,201.487834 C213.4064,201.104177 213.23989,200.188364 212.395914,199.344389 C211.529962,198.478437 211.143667,198.403596 210.149751,198.909203 C208.066077,199.969176 207.302664,200.207687 206.59009,200.021347 C206.1552,199.90762 205.596085,200.059524 205.347613,200.358912 C205.099144,200.658305 204.430226,200.903258 203.86113,200.903258 C203.292033,200.903258 202.412309,201.193305 201.906187,201.547807 C201.178978,202.057164 200.834928,202.098037 200.26589,201.742666 C199.869852,201.495336 199.187192,201.292975 198.748865,201.292975 C198.310543,201.292975 197.850968,201.029916 197.727592,200.708399 C197.604211,200.386882 197.277336,200.123823 197.001194,200.123823 C196.725052,200.123823 195.280939,199.605441 193.792048,198.971862 C191.723986,198.091822 190.817414,197.892454 189.951497,198.127278 C188.92223,198.406402 188.830047,198.568399 188.948836,199.889334 L189.079657,201.344009 L187.586026,201.221061 C186.346897,201.119064 185.992585,200.88763 185.50662,199.862802 L184.920847,198.627492 L184.004154,199.372947 C183.280999,199.961023 183.073475,200.538338 183.021206,202.107445 C182.975293,203.485645 182.748158,204.247694 182.281596,204.588853 C181.911256,204.859652 181.608251,205.268902 181.608251,205.498293 C181.608251,205.727689 181.224699,205.971414 180.755916,206.039907 C179.913448,206.162999 179.912322,206.172995 180.658486,206.903158 C181.8039,208.024012 184.960084,213.176955 186.710655,216.784236 C188.221889,219.898334 188.313656,219.999404 189.629914,219.999404 C190.377349,219.999404 191.377769,219.744599 191.853068,219.433172 C192.656973,218.906434 192.901567,218.993672 195.359872,220.68395 C198.691483,222.974688 199.033815,223.928432 197.130981,225.618335 C196.387124,226.278949 195.440014,227.033742 195.026286,227.295647 C194.293887,227.75929 194.294604,227.76519 195.053496,227.519641 C195.482185,227.380933 196.221752,227.018726 196.696973,226.714739 C197.279534,226.342095 198.051279,226.244868 199.065924,226.416289 C200.186435,226.605598 200.699618,226.515355 201.075049,226.062995 C201.352368,225.728844 201.957205,225.455445 202.419129,225.455445 C202.881053,225.455445 203.679288,225.161057 204.192982,224.80125 C205.112707,224.157048 205.154223,224.177087 206.910289,226.112661 C209.517692,228.986599 212.371409,236.367529 210.875171,236.367529 C210.396345,236.367529 209.685844,238.496909 209.999983,238.990482 C210.380823,239.58885 212.899398,241.040628 213.565066,241.0455 C213.886583,241.04785 215.64031,242.443053 217.462239,244.145946 C219.284167,245.848843 220.950208,247.250551 221.164553,247.260989 C221.378897,247.271159 222.026116,246.688228 222.60282,245.96545 Z" id="campania"></path>
                <path d="M163.853543,205.226597 C163.973617,205.032321 164.894575,204.593034 165.900114,204.25041 C167.667167,203.648318 167.851322,203.662344 171.400347,204.66951 C174.365493,205.510977 175.214662,205.622667 175.811818,205.249739 C176.470729,204.838241 177.236407,204.876999 179.300765,205.426328 C179.639238,205.516397 180.417307,205.159488 181.029796,204.633193 C181.991986,203.80641 182.141193,203.403941 182.127134,201.673352 C182.111756,199.780697 182.19198,199.616729 183.584017,198.695519 C184.394255,198.159325 185.164203,197.441717 185.295019,197.100826 C186.050781,195.131326 183.961437,189.991147 182.405128,189.991147 C181.992126,189.991147 181.545833,189.815778 181.413365,189.60143 C181.280892,189.387087 180.668555,189.211714 180.052614,189.211714 C179.296302,189.211714 178.856748,188.97233 178.698702,188.474359 C178.399075,187.530337 177.095058,187.181187 176.508508,187.887933 C175.947336,188.564108 173.573107,188.604559 173.151237,187.945134 C172.661058,187.178926 171.193133,186.483691 170.06554,186.483691 C169.095282,186.483691 169.046428,186.395828 169.234996,184.989954 C169.439954,183.461873 168.784943,182.586522 167.436549,182.586522 C167.138374,182.586522 166.679107,182.327104 166.415962,182.010033 C165.779744,181.243434 163.746352,180.248219 162.816303,180.248219 C162.406449,180.248219 161.731906,180.066678 161.317306,179.844789 C160.251915,179.274604 160.269151,176.722356 161.342929,176.05177 C161.771617,175.784051 162.122358,175.31525 162.122358,175.009993 C162.122358,174.037336 163.62913,173.905513 165.299645,174.732013 C168.077049,176.106165 169.066014,174.827092 166.981203,172.557181 C166.239989,171.750152 165.632703,170.789129 165.63168,170.421567 C165.630652,170.054006 165.267812,169.559536 164.82537,169.32275 C164.185593,168.980351 164.072267,168.658443 164.271759,167.75017 C164.420202,167.074303 164.361591,166.608115 164.128174,166.608115 C163.376345,166.608115 163.198478,165.018563 163.867577,164.279215 C164.419022,163.669878 164.438477,163.437666 164.000136,162.697356 C163.593541,162.010665 163.587985,161.792873 163.973518,161.653258 C164.241447,161.556226 164.460665,161.237108 164.460665,160.944103 C164.460665,160.070573 165.622963,159.67297 167.143343,160.026415 C167.918485,160.206613 168.760092,160.358228 169.01358,160.36334 C169.659792,160.37638 170.104774,158.781144 169.550481,158.438577 C169.303191,158.285741 168.802145,157.562297 168.437058,156.83093 C167.957004,155.869258 167.513308,155.501174 166.834141,155.501174 C166.071217,155.501174 165.812966,155.793629 165.457671,157.059933 C165.054484,158.496958 164.879078,158.649132 163.211625,159.008519 C162.216837,159.222921 161.272503,159.529874 161.113108,159.690633 C160.953718,159.851392 160.163234,159.982919 159.356493,159.982919 C158.172702,159.982919 157.865654,160.138685 157.765145,160.790219 C157.696655,161.234232 157.114495,161.891877 156.471463,162.251655 C155.828428,162.611437 155.243851,163.03733 155.172406,163.198089 C155.100952,163.358848 154.794052,163.490376 154.490399,163.490376 C154.166136,163.490376 153.9383,163.879665 153.9383,164.433703 C153.9383,165.178097 153.67527,165.434807 152.691052,165.650971 C152.005063,165.801641 150.93934,166.429385 150.32277,167.045951 C149.210128,168.158593 148.092541,168.525058 148.092541,167.777265 C148.092541,167.562921 147.547659,167.387548 146.881696,167.387548 C145.9655,167.387548 145.725434,167.245299 145.895173,166.802971 C146.018547,166.481458 145.949621,166.218399 145.742008,166.218399 C145.534392,166.218399 145.364522,165.769615 145.364522,165.221104 C145.364522,164.672593 145.19628,164.327791 144.990656,164.454871 C144.785029,164.581956 144.302756,164.517424 143.918933,164.311463 C143.53511,164.105503 142.914175,163.842008 142.539073,163.725913 C142.136699,163.601384 141.857066,163.129911 141.857066,162.576037 C141.857066,162.059692 141.612352,161.434139 141.31326,161.185907 C141.01416,160.937684 140.657863,160.139799 140.521482,159.412825 C140.222691,157.820104 139.896521,157.68208 137.534966,158.149015 C135.915373,158.469251 135.568721,158.408302 134.495099,157.614534 C133.235641,156.683376 132.967314,155.778173 133.725891,155.019596 C134.056223,154.689267 134.006797,154.415281 133.531034,153.939522 C133.180429,153.588913 132.893571,153.06187 132.893571,152.768318 C132.893571,151.856281 132.16303,151.726697 131.155593,152.460033 C130.181465,153.169114 129.834956,154.137165 130.555265,154.137165 C131.055007,154.137165 131.065519,155.575537 130.568033,155.883004 C130.360708,156.011133 130.294943,156.635289 130.421888,157.270011 C130.55921,157.956625 130.488665,158.424054 130.247723,158.424054 C130.024988,158.424054 129.227222,159.021806 128.474921,159.752392 C127.722615,160.482978 126.759212,161.191147 126.334022,161.326097 C125.452519,161.605878 124.949296,162.572281 125.50596,162.916319 C125.710947,163.04301 125.878659,163.651681 125.878659,164.268929 C125.878659,165.296848 125.734182,165.41287 124.160197,165.648904 C122.945966,165.830988 122.386014,166.11967 122.251844,166.632748 C122.04798,167.412317 122.312033,167.687774 124.111626,168.572824 C125.719988,169.363825 128.179807,171.966843 128.473811,173.188944 C128.608593,173.749204 129.22227,175.215995 129.837537,176.448477 C130.826399,178.429328 131.091755,178.68935 132.124417,178.68935 C133.500533,178.68935 138.205975,181.673667 139.420951,183.31701 C139.862954,183.914844 140.468604,185.125845 140.766841,186.008121 C141.077132,186.926051 141.88474,188.080204 142.654799,188.706202 C145.165889,190.7475 147.892795,193.580273 149.280377,195.588987 C150.59628,197.49395 150.846595,197.654182 154.462647,198.90623 C158.003091,200.1321 158.380556,200.367095 159.997429,202.351977 C160.951799,203.523563 161.732645,204.729115 161.732645,205.030985 C161.732645,205.639171 163.497936,205.801985 163.853543,205.226597 Z" id="lazio"></path>
                <path d="M150.026017,166.246628 C150.247137,165.83347 150.330915,165.242293 150.212189,164.932911 C149.886997,164.085469 151.28556,163.702258 151.856074,164.482484 C152.409077,165.238763 153.158863,164.91448 153.158863,163.91903 C153.158863,163.486854 153.894866,162.823952 155.107449,162.163985 C156.349889,161.48776 157.056036,160.844889 157.056036,160.390011 C157.056036,159.573041 157.794254,159.203487 159.426212,159.203487 C160.051717,159.203487 160.563492,159.047302 160.563492,158.856411 C160.563492,158.665513 161.133455,158.430518 161.830071,158.334193 C164.412993,157.977054 164.769286,157.656728 164.822986,155.643424 C164.839938,155.008147 165.209296,154.381352 165.791518,153.999863 C166.446389,153.570777 166.669651,153.142254 166.525503,152.591034 C166.302418,151.737954 165.822837,151.56097 165.434958,152.188578 C164.971059,152.939182 164.127397,152.566771 163.315412,151.252952 C162.405808,149.781177 161.422158,149.225437 160.8101,149.837499 C160.147006,150.500593 159.394343,150.293696 159.394343,149.448329 C159.394343,149.012906 159.143534,148.560415 158.836996,148.442787 C158.074228,148.150085 157.445756,146.190436 157.445756,144.104737 C157.445756,142.700429 157.298263,142.334108 156.666319,142.168854 C155.811393,141.945284 155.632955,140.906877 156.329736,140.210096 C156.660393,139.879443 156.561656,139.40975 155.940019,138.35615 C155.482108,137.580045 155.107449,136.598162 155.107449,136.174188 C155.107449,135.750202 154.825745,134.973382 154.481448,134.447914 C154.081269,133.837163 153.909249,132.928299 154.0046,131.92846 C154.144392,130.462578 153.80593,129.787233 153.45664,130.835092 C153.370351,131.093967 152.645732,131.347619 151.84638,131.398755 C150.559215,131.481099 150.177229,131.267856 148.506081,129.53407 C146.757126,127.719567 146.555304,127.614226 145.746056,128.093548 C145.055986,128.502284 144.835988,128.508567 144.696549,128.12354 C144.599518,127.855611 144.178499,127.636393 143.760944,127.636393 C142.753511,127.636393 142.372955,126.552234 143.172985,125.961374 C143.706155,125.567597 143.553126,125.483289 142.21271,125.43233 C140.76558,125.377315 140.540847,125.502802 139.781473,126.789843 C139.321277,127.569814 139.000215,128.535329 139.067995,128.93543 C139.136082,129.337315 138.828484,129.916977 138.380707,130.230608 C137.329906,130.966619 137.311236,132.568011 138.34961,132.897576 C138.898388,133.071752 139.129043,133.487228 139.129043,134.301559 C139.129043,135.324296 139.216297,135.411469 139.88286,135.054732 C140.946591,134.485439 141.077629,134.53777 141.077629,135.531851 C141.077629,136.593534 140.072197,137.281611 138.04783,137.605324 C136.848956,137.797028 136.456067,138.075945 136.116077,138.97666 C135.881345,139.598536 135.417171,140.107344 135.084578,140.107344 C134.20543,140.107344 133.613054,141.43625 134.011758,142.514051 C134.196069,143.012293 134.502151,143.332254 134.69194,143.225084 C135.311559,142.875193 135.307717,144.805915 134.685706,146.360478 C134.311256,147.29631 134.172952,148.355388 134.325541,149.11835 C134.510884,150.045078 134.403097,150.481385 133.89747,150.851113 C133.327158,151.268133 133.296196,151.487113 133.699092,152.254065 C133.961674,152.75391 134.413967,153.303115 134.704186,153.474522 C135.391075,153.880204 135.372854,154.504587 134.650848,155.302397 C134.12861,155.879462 134.186699,156.030834 135.225028,156.798497 C136.264577,157.567073 136.56634,157.610877 138.239144,157.235988 C139.944586,156.853788 140.154578,156.889204 140.7827,157.664902 C141.159258,158.129926 141.467349,158.910641 141.467349,159.399826 C141.467349,159.889011 141.730408,160.390192 142.051922,160.513574 C142.37344,160.636948 142.636499,161.171482 142.636499,161.701418 C142.636499,162.866663 143.061956,163.167773 144.777102,163.216389 C145.973534,163.250302 146.125096,163.395099 146.549025,164.909211 C146.922558,166.243352 147.212099,166.595647 148.039717,166.723003 C148.604633,166.809929 149.192193,166.907326 149.345411,166.939443 C149.498629,166.971555 149.8049,166.659789 150.026017,166.246628 Z" id="umbria"></path>
                <path d="M186.658002,189.816222 C186.915738,189.505673 187.725447,189.053951 188.457356,188.812397 C189.589449,188.438774 189.730236,188.265095 189.400474,187.648932 C188.802093,186.530848 188.937677,185.780639 189.786837,185.511128 C190.212533,185.376021 191.084625,184.741673 191.724829,184.101473 C192.699467,183.126834 193.017352,183.006259 193.67886,183.360284 C194.11338,183.592829 194.468892,183.964118 194.468892,184.185362 C194.468892,184.40661 194.790212,184.485645 195.182937,184.361002 C196.041369,184.088544 197.027666,185.074578 197.403656,186.581121 C197.550759,187.170567 197.797758,187.652844 197.952529,187.652844 C198.1073,187.652844 198.824218,186.819826 199.545677,185.801688 C200.267136,184.78355 201.086041,183.810284 201.365473,183.638877 C201.644892,183.467466 201.873517,183.066966 201.873517,182.74888 C201.873517,182.430789 202.380237,181.6752 202.999569,181.069788 C204.123862,179.970744 205.0121,177.520196 204.286158,177.520196 C204.07864,177.520196 203.797002,176.924014 203.660304,176.195347 C203.383828,174.721599 202.922596,174.232114 201.4838,173.885511 C200.947938,173.756425 197.85816,171.05781 194.617622,167.888589 C190.092356,163.462911 188.333497,161.448407 187.034682,159.203487 C185.350696,156.292837 183.561738,151.830337 183.558504,150.532278 C183.556429,149.698718 182.936321,149.670555 181.466243,150.437252 C180.852295,150.757447 180.014937,151.019429 179.605441,151.019429 C179.169866,151.019429 178.707192,151.423726 178.490485,151.993722 C178.134677,152.929566 177.317222,153.162908 174.703314,153.074803 C174.442297,153.066008 174.004897,153.564497 173.73131,154.182563 C173.45773,154.800629 172.997226,155.306314 172.707965,155.306314 C172.418707,155.306314 172.090318,155.657063 171.978212,156.085751 C171.833838,156.637845 171.446629,156.865184 170.650688,156.865184 C169.45633,156.865184 169.136403,157.411348 170.111563,157.785555 C170.894021,158.085806 170.855033,159.76835 170.046903,160.576484 C169.527611,161.095776 168.981582,161.173739 167.31888,160.965999 C165.57844,160.748544 165.240102,160.805984 165.240102,161.318889 C165.240102,161.65583 165.029654,161.931506 164.772438,161.931506 C164.408703,161.931506 164.408703,162.035433 164.772438,162.399169 C165.41711,163.04384 165.358047,164.076489 164.642543,164.670304 C164.112056,165.110569 164.137671,165.2649 164.870789,166.045262 C165.513356,166.729245 165.608777,167.088391 165.300817,167.663815 C164.990037,168.244513 165.066566,168.504218 165.657143,168.873045 C166.070802,169.131374 166.409251,169.657595 166.409251,170.042425 C166.409251,170.798569 168.514528,172.970614 169.624417,173.359562 C170.537912,173.679687 170.497552,174.792177 169.572438,174.792177 C169.166214,174.792177 168.747447,175.140226 168.63463,175.571614 C168.364926,176.60296 166.676165,176.601793 164.650117,175.568856 L163.1159,174.786666 L162.823351,175.577491 C162.662448,176.012445 162.26353,176.470882 161.936863,176.596237 C161.142225,176.901173 161.162045,178.926263 161.962671,179.233496 C162.303533,179.364288 162.741603,179.372926 162.936163,179.252684 C163.300055,179.027791 165.283503,179.995167 166.525371,181.003233 C166.91076,181.316063 167.458154,181.606073 167.741806,181.647703 C168.025462,181.689337 168.732545,182.034637 169.313115,182.415041 C170.22133,183.01013 170.334681,183.288 170.125038,184.405471 C169.918671,185.505526 169.994189,185.704258 170.618604,185.704258 C171.56676,185.704258 173.81388,186.820628 173.81388,187.291669 C173.81388,187.874006 175.447244,187.706232 176.1731,187.049343 C177.010412,186.291576 178.738429,186.659745 179.303933,187.716403 C179.564181,188.202682 179.955492,188.390902 180.407781,188.24735 C180.793215,188.125015 181.32138,188.281508 181.581693,188.595173 C181.84197,188.908792 182.272388,189.081937 182.538167,188.979945 C182.803955,188.877958 183.344428,189.151439 183.739228,189.587684 C184.576667,190.513044 185.987982,190.623551 186.658002,189.816222 Z" id="abruzzo"></path>
                <path d="M296.672238,250.88446 C296.885559,248.108811 297.379174,246.851117 298.815673,245.423191 C299.973077,244.272691 299.921888,243.216551 298.563558,240.221145 C297.376121,237.602602 295.30947,235.390776 290.286628,231.36277 C288.157018,229.654965 287.66023,229.036821 287.471017,227.859395 C287.210456,226.237985 286.711454,225.846045 283.226797,224.525836 C276.5531,221.997403 273.894023,220.454125 270.473386,217.124002 C266.901878,213.646989 265.867367,213.056647 257.992795,210.001965 C250.67263,207.162345 249.862984,206.797722 243.971062,203.687293 C240.867517,202.048882 237.886174,200.55531 237.34587,200.368237 C234.645973,199.433441 232.539015,195.632211 233.557766,193.534015 C233.822892,192.987974 235.006326,192.073048 236.2922,191.419985 C240.416769,189.325229 241.597318,187.391569 240.381196,184.722477 C239.669769,183.161059 238.010756,182.658756 234.804619,183.034052 C233.304208,183.209688 228.228812,183.456029 223.525963,183.581478 C213.819804,183.840391 214.892686,183.36928 214.475991,187.555414 C214.307074,189.252382 214.378215,189.60143 214.892974,189.60143 C215.253804,189.60143 215.513621,189.927715 215.513621,190.380863 C215.513621,190.809555 215.283369,191.1603 215.001956,191.1603 C214.72054,191.1603 213.977728,191.695299 213.351262,192.349188 C212.487332,193.250939 211.928506,193.509781 211.037477,193.420911 C209.888218,193.306291 209.865665,193.337581 209.998384,194.862613 C210.121166,196.2735 211.091756,197.774754 211.89244,197.792228 C212.062158,197.79593 212.595611,198.215232 213.077888,198.724015 C213.980645,199.6764 214.254817,201.451213 213.565034,201.877521 C212.98146,202.238187 213.095551,202.851814 213.746181,202.851814 C214.060158,202.851814 214.507384,203.20747 214.740028,203.642166 C214.972667,204.076858 215.308281,204.342732 215.485836,204.232997 C216.045537,203.887085 218.241747,205.217277 218.23924,205.900665 C218.237921,206.260073 217.968393,207.06891 217.6403,207.698088 C217.090232,208.752925 217.100247,208.898544 217.76886,209.567154 C218.234267,210.032565 219.11178,210.311059 220.21896,210.344754 C221.167708,210.373619 222.289877,210.628619 222.712675,210.911417 C223.703481,211.574145 224.396312,211.562067 225.088375,210.870008 C225.48761,210.47077 226.412004,210.345132 228.373133,210.423543 C229.874181,210.483563 231.102307,210.410984 231.102307,210.262254 C231.102307,210.113524 231.571799,209.777926 232.145617,209.516474 C233.020322,209.11793 233.243884,209.139308 233.528991,209.648774 C233.71603,209.982995 234.162792,210.256443 234.521797,210.256443 C235.39236,210.256443 237.814823,213.016254 237.597681,213.76066 C237.50337,214.083962 237.313302,214.620354 237.175306,214.952655 C236.853899,215.726606 239.359885,217.04195 239.97807,216.423765 C240.663841,215.737993 241.947726,216.473088 242.386556,217.802758 C242.617737,218.503237 243.777862,220.094984 244.9646,221.33998 L247.122323,223.603599 L248.066403,222.716684 C249.085355,221.759433 251.433714,221.362176 252.731612,221.927499 C253.1603,222.114226 253.817949,222.365084 254.193052,222.484969 C254.766697,222.668302 254.875059,223.192504 254.875059,225.784184 C254.875059,230.093877 255.163392,231.301171 256.192651,231.301171 C256.745238,231.301171 257.200762,231.702551 257.554096,232.500797 L258.0851,233.700424 L259.635221,232.087217 C260.487784,231.199952 261.600319,230.316226 262.107529,230.123388 C263.298377,229.67063 270.15214,230.561215 270.363808,231.196221 C270.448449,231.450136 269.876308,231.925874 269.092388,232.253421 C268.279754,232.592959 267.737551,233.060737 267.831019,233.34164 C267.921188,233.612622 269.208089,234.535825 270.690796,235.393204 C273.056978,236.761455 273.648722,236.940571 275.530071,236.858026 C278.338363,236.734808 283.242196,237.464807 284.311133,238.165204 C285.681081,239.062829 288.057328,244.54726 287.952636,246.569869 C287.904118,247.50706 288.026691,248.556469 288.225011,248.90188 C288.94144,250.149666 291.978702,252.345991 293.006785,252.359713 C293.575955,252.367303 294.480069,252.624152 295.01593,252.930477 C295.551792,253.236802 296.098186,253.493651 296.230145,253.501278 C296.362104,253.50884 296.561045,252.331287 296.672238,250.88446 Z" id="puglia"></path>
                <path d="M203.471563,200.123795 C204.110592,200.123795 204.727815,199.790425 205.085128,199.252282 C205.590126,198.491717 205.746706,198.449585 206.315099,198.921313 C206.805858,199.328602 207.179292,199.360011 207.829992,199.048726 C208.304958,198.821511 209.020223,198.529944 209.419462,198.400792 C210.013384,198.208681 210.057804,198.060485 209.663773,197.585708 C209.398902,197.266554 209.121923,196.145343 209.048263,195.094122 C208.897252,192.938893 209.490475,192.096933 210.854884,192.529985 C212.050486,192.909452 214.083073,190.959111 213.543237,189.950417 C213.140202,189.197339 213.288928,186.81623 213.885841,184.465369 C214.228454,183.116063 214.185471,183.00494 213.156036,182.578529 C212.554408,182.329332 211.974389,181.896687 211.867104,181.617099 C211.759811,181.337507 210.738821,180.800532 209.598225,180.423802 C208.457629,180.047084 207.137538,179.487604 206.664689,179.180507 C205.725052,178.570266 204.991256,178.797962 204.991256,179.699774 C204.991256,180.015867 204.465134,180.788782 203.822103,181.417369 C203.179071,182.045955 202.652949,182.820506 202.652949,183.138596 C202.652949,183.456682 202.432696,183.857187 202.163502,184.028593 C201.507282,184.446436 199.535214,187.115002 199.535214,187.585147 C199.535214,188.023377 198.599658,188.432277 197.597,188.432277 C197.152938,188.432277 196.79226,188.036121 196.623249,187.362736 C196.284097,186.011445 195.711028,185.314541 194.939004,185.314541 C194.607023,185.314541 194.007196,185.017517 193.606051,184.654484 C192.915163,184.029243 192.82536,184.049795 191.903296,185.0442 C191.367928,185.621581 190.673929,186.093978 190.361086,186.093978 C189.626288,186.093978 189.633743,186.646397 190.376859,187.263128 C191.32086,188.046576 191.046488,188.579934 189.29508,189.366054 C188.389651,189.772455 187.267232,190.448478 186.800826,190.868322 C186.334417,191.288162 185.749967,191.506311 185.502052,191.353089 C185.252736,191.199004 185.334036,191.621265 185.683992,192.298003 C186.031967,192.970924 186.22691,193.666743 186.117188,193.844281 C186.007466,194.021815 186.080062,194.733218 186.278514,195.425178 C186.519208,196.264418 186.497534,196.910355 186.213426,197.365287 C185.581059,198.377869 186.321825,200.28653 187.409107,200.446077 C188.178973,200.559041 188.223969,200.48781 187.805756,199.818144 C187.422829,199.204977 187.455184,198.889821 187.977669,198.143873 C188.926778,196.788834 190.920693,196.804702 194.183752,198.193258 C195.671534,198.826365 197.139003,199.344362 197.444806,199.344362 C197.750608,199.344362 198.101752,199.607417 198.22513,199.928934 C198.348508,200.250452 198.858767,200.513511 199.359048,200.513511 C199.859333,200.513511 200.378197,200.69077 200.512092,200.907407 C200.666185,201.156736 201.064034,201.085217 201.596099,200.712547 C202.058403,200.388736 202.902369,200.123795 203.471563,200.123795 Z" id="molise"></path>
                <path d="M241.429815,249.411781 C242.287191,249.102904 243.442807,248.847543 243.997848,248.844317 C245.186058,248.837404 245.722478,247.8867 246.116444,245.089492 C246.429697,242.865366 247.099721,242.172802 248.568928,242.554492 C249.793733,242.872693 253.082802,242.793214 253.668451,242.431262 C253.891581,242.29336 254.283997,241.44256 254.540485,240.540596 C254.796977,239.638632 255.649375,237.936107 256.434706,236.757214 C257.824302,234.671228 257.843428,234.593659 257.148249,233.863574 C256.755373,233.450967 256.433929,232.881008 256.433929,232.596995 C256.433929,232.310071 256.013448,232.080604 255.48768,232.080604 C254.633917,232.080604 254.519921,231.880615 254.321403,230.034592 C254.200396,228.909284 254.04678,226.93634 253.980044,225.650273 C253.872862,223.584789 253.758849,223.297443 253.00287,223.187437 C252.532162,223.118943 252.147036,222.899725 252.147036,222.700287 C252.147036,222.146034 251.493151,222.267797 250.81206,222.948892 C250.463978,223.29697 249.888459,223.460967 249.475232,223.32981 C249.055725,223.196663 248.541878,223.349832 248.25717,223.692888 C247.986315,224.019243 247.432967,224.286263 247.027507,224.286263 C246.05577,224.286263 242.627814,220.635276 241.628822,218.536344 C240.936895,217.082552 240.751228,216.93374 240.120656,217.327537 C239.544784,217.687176 239.001981,217.596033 237.395378,216.869943 C235.233804,215.893032 235.076045,215.678096 235.973773,214.933048 C236.295291,214.666213 236.558349,214.224855 236.558349,213.952254 C236.558349,213.284741 234.669085,211.361881 233.338647,210.675292 C232.368648,210.174715 232.211156,210.189937 231.743514,210.82948 C231.299423,211.436811 230.825703,211.510533 228.456599,211.341025 C225.339307,211.117981 225.006011,211.370018 225.71787,213.412069 C226.069396,214.420451 226.021865,214.859659 225.453081,215.858782 C224.204834,218.051474 223.034469,218.917677 221.71241,218.627306 L220.533069,218.368278 L220.810478,220.840126 C220.98636,222.40731 221.315863,223.473752 221.710782,223.754018 C222.05337,223.99715 222.772104,224.555791 223.307962,224.995455 C224.217114,225.741399 224.238989,225.838866 223.635093,226.453229 C223.031218,227.067584 223.053348,227.167882 223.966067,227.952966 C224.530663,228.438613 224.982837,229.283051 225.035592,229.950317 C225.143267,231.31221 226.025958,232.860041 226.694941,232.860041 C226.954248,232.860041 227.306649,233.079255 227.478056,233.347188 C227.649467,233.615117 228.140456,234.027621 228.569144,234.263852 C228.997836,234.500088 229.407332,235.113892 229.479143,235.627862 C229.550958,236.141832 230.055106,237.033214 230.599478,237.608713 C231.789895,238.867188 231.612685,240.23033 230.132592,241.200128 C229.594215,241.552882 229.153721,242.179956 229.153721,242.593615 C229.153721,243.007278 228.950962,243.790743 228.703141,244.334647 C228.336817,245.138647 228.384319,245.61575 228.957188,246.886147 C229.34473,247.745565 229.829082,248.448728 230.033514,248.448728 C230.237949,248.448728 230.92626,248.010296 231.563099,247.474434 C232.817649,246.418804 233.265081,246.29056 233.630534,246.881881 C233.779367,247.122699 234.143958,247.090319 234.618163,246.794174 C235.242854,246.404047 235.460275,246.448377 235.904982,247.056551 C236.199299,247.459056 236.642082,247.663541 236.888945,247.510977 C237.15724,247.345159 237.337782,247.488276 237.337782,247.866773 C237.337782,249.914466 238.654515,250.411624 241.429815,249.411781 Z" id="basilicata"></path>
            </g>
        </g>
    </g>
</svg>